<?xml version="1.0" encoding="UTF-8" standalone="no"?>
<!-- Created with Inkscape (http://www.inkscape.org/) -->

<svg
   width="20.598198mm"
   height="19.412741mm"
   viewBox="0 0 10.299099 9.7063707"
   version="1.1"
   id="svg5"
   sodipodi:docname="um_logo_mono.svg"
   inkscape:version="1.2.2 (b0a8486541, 2022-12-01)"
   xmlns:inkscape="http://www.inkscape.org/namespaces/inkscape"
   xmlns:sodipodi="http://sodipodi.sourceforge.net/DTD/sodipodi-0.dtd"
   xmlns="http://www.w3.org/2000/svg"
   xmlns:svg="http://www.w3.org/2000/svg">
  <sodipodi:namedview
     id="namedview142"
     pagecolor="#ffffff"
     bordercolor="#999999"
     borderopacity="1"
     inkscape:showpageshadow="0"
     inkscape:pageopacity="0"
     inkscape:pagecheckerboard="0"
     inkscape:deskcolor="#d1d1d1"
     inkscape:document-units="mm"
     showgrid="false"
     inkscape:zoom="6.9986791"
     inkscape:cx="17.860513"
     inkscape:cy="33.720649"
     inkscape:window-width="1920"
     inkscape:window-height="1015"
     inkscape:window-x="1080"
     inkscape:window-y="664"
     inkscape:window-maximized="1"
     inkscape:current-layer="layer1" />
  <defs
     id="defs2">
    <rect
       x="160"
       y="310"
       width="430"
       height="240"
       id="rect447" />
  </defs>
  <g
     id="layer1"
     transform="translate(-83.360864,-102.06394)">
    <path
       id="rect451"
       style="fill:none;fill-opacity:1;stroke:#17252a;stroke-width:0.5;stroke-linecap:round;stroke-linejoin:round;stroke-dasharray:none;stroke-opacity:1;paint-order:fill markers stroke;stop-color:#000000"
       d="m 87.716675,104.30306 c -0.293161,0 -0.398061,0.26696 -0.529167,0.52917 l -0.264583,0.52916 h -0.529167 c -0.293161,0 -0.529167,0.23601 -0.529167,0.52917 v 2.91042 c 0,0.29316 0.236006,0.52916 0.529167,0.52916 h 4.233333 c 0.293161,0 0.529167,-0.236 0.529167,-0.52916 v -2.91042 c 0,-0.29316 -0.236006,-0.52917 -0.529167,-0.52917 h -0.529166 l -0.264584,-0.52916 c -0.131105,-0.26221 -0.236005,-0.52917 -0.529166,-0.52917 z" />
    <circle
       style="fill:none;fill-opacity:1;stroke:#17252a;stroke-width:0.5;stroke-linecap:round;stroke-linejoin:round;stroke-dasharray:none;stroke-opacity:1;paint-order:fill markers stroke;stop-color:#000000"
       id="path3533"
       cx="88.510414"
       cy="107.21347"
       r="1.1979191" />
    <g
       aria-label="um"
       id="text23998"
       style="font-weight:bold;font-size:3.52778px;line-height:1.25;font-family:Kanit;-inkscape-font-specification:'Kanit Bold';letter-spacing:0px;word-spacing:0px;fill:#17252a;stroke-width:0.132292">
      <path
         d="m 86.766221,111.77031 q -0.299862,0 -0.465667,-0.16581 -0.162278,-0.16933 -0.162278,-0.49036 v -1.05128 h 0.567972 v 1.01953 q 0,0.14111 0.06703,0.20814 0.06703,0.0635 0.208139,0.0635 0.09878,0 0.1905,-0.0388 0.09172,-0.0423 0.155223,-0.10937 v -1.143 h 0.567972 v 1.67217 h -0.529167 l -0.01764,-0.14111 q -0.236361,0.17639 -0.582083,0.17639 z"
         style="font-weight:600;-inkscape-font-specification:'Kanit Semi-Bold'"
         id="path404" />
      <path
         d="m 88.254941,110.06286 h 0.52564 l 0.01764,0.14817 q 0.254,-0.18344 0.557389,-0.18344 0.162278,0 0.257528,0.0494 0.09878,0.0494 0.155222,0.14464 0.127,-0.0917 0.271639,-0.14111 0.148167,-0.0529 0.335139,-0.0529 0.289278,0 0.426862,0.15169 0.141111,0.15169 0.141111,0.46214 v 1.09361 h -0.560917 v -1.02658 q 0,-0.13759 -0.05997,-0.19756 -0.05644,-0.0635 -0.186973,-0.0635 -0.08467,0 -0.162278,0.0353 -0.07408,0.0318 -0.127,0.0917 0.01058,0.0529 0.01058,0.15875 v 1.00189 h -0.529167 v -1.03364 q 0,-0.13405 -0.04586,-0.19403 -0.04586,-0.06 -0.165805,-0.06 -0.148167,0 -0.306917,0.1517 v 1.13594 h -0.553862 z"
         style="font-weight:600;-inkscape-font-specification:'Kanit Semi-Bold'"
         id="path406" />
    </g>
    <path
       style="fill:none;fill-opacity:1;stroke:#17252a;stroke-width:0.5;stroke-linecap:butt;stroke-linejoin:round;stroke-dasharray:none;stroke-dashoffset:0;stroke-opacity:1;paint-order:fill markers stroke;stop-color:#000000"
       id="path24901"
       d="m 85.444387,109.78617 a 4.0024137,4.0024137 0 0 1 0.319404,-5.48395 4.0024137,4.0024137 0 0 1 5.493246,0 4.0024137,4.0024137 0 0 1 0.319404,5.48395" />
    <path
       style="fill:none;fill-opacity:1;stroke:#17252a;stroke-width:0.5;stroke-linecap:square;stroke-linejoin:round;stroke-dasharray:none;stroke-dashoffset:0;stroke-opacity:1;paint-order:fill markers stroke;stop-color:#000000"
       id="path24903"
       d="m 85.361056,110.96673 a 4.8995323,4.8995323 0 0 1 -1.454696,-5.429 4.8995323,4.8995323 0 0 1 4.604054,-3.22379 4.8995323,4.8995323 0 0 1 4.604054,3.22379 4.8995323,4.8995323 0 0 1 -1.454695,5.429" />
  </g>
</svg>
