G04 #@! TF.GenerationSoftware,KiCad,Pcbnew,7.0.3*
G04 #@! TF.CreationDate,2023-05-21T14:10:43+02:00*
G04 #@! TF.ProjectId,ultramote,756c7472-616d-46f7-9465-2e6b69636164,0.2a*
G04 #@! TF.SameCoordinates,Original*
G04 #@! TF.FileFunction,Soldermask,Bot*
G04 #@! TF.FilePolarity,Negative*
%FSLAX46Y46*%
G04 Gerber Fmt 4.6, Leading zero omitted, Abs format (unit mm)*
G04 Created by KiCad (PCBNEW 7.0.3) date 2023-05-21 14:10:43*
%MOMM*%
%LPD*%
G01*
G04 APERTURE LIST*
%ADD10C,1.500000*%
%ADD11C,0.650000*%
%ADD12O,2.100000X1.000000*%
%ADD13O,1.600000X1.000000*%
%ADD14C,2.200000*%
%ADD15C,1.900000*%
%ADD16C,2.000000*%
%ADD17C,2.600000*%
%ADD18C,1.850000*%
%ADD19C,0.900000*%
%ADD20R,1.000000X0.700000*%
%ADD21R,0.600000X0.700000*%
%ADD22R,1.500000X0.600000*%
G04 APERTURE END LIST*
D10*
X90300000Y-84891804D03*
X95300000Y-84891804D03*
D11*
X122523461Y-91768938D03*
X122523461Y-85988938D03*
D12*
X122023461Y-93198938D03*
D13*
X126203461Y-93198938D03*
X126203461Y-84558938D03*
D12*
X122023461Y-84558938D03*
D10*
X90300000Y-71891804D03*
X95300000Y-71891804D03*
D14*
X125000000Y-59500000D03*
D15*
X123667000Y-65860000D03*
D16*
X121000000Y-68400000D03*
X126080000Y-68400000D03*
X121000000Y-63320000D03*
X126080000Y-63320000D03*
D14*
X95000000Y-97000000D03*
X98834207Y-62869741D03*
D17*
X105063818Y-60232233D03*
D18*
X102398026Y-59305923D03*
X100601974Y-61101974D03*
X101500000Y-63796051D03*
X103296051Y-62000000D03*
D14*
X95000000Y-59500000D03*
D19*
X126500000Y-75480000D03*
X126500000Y-82280000D03*
D14*
X125000000Y-97000000D03*
G36*
G01*
X93825000Y-80666804D02*
X94375000Y-80666804D01*
G75*
G02*
X94575000Y-80866804I0J-200000D01*
G01*
X94575000Y-81266804D01*
G75*
G02*
X94375000Y-81466804I-200000J0D01*
G01*
X93825000Y-81466804D01*
G75*
G02*
X93625000Y-81266804I0J200000D01*
G01*
X93625000Y-80866804D01*
G75*
G02*
X93825000Y-80666804I200000J0D01*
G01*
G37*
G36*
G01*
X93825000Y-82316804D02*
X94375000Y-82316804D01*
G75*
G02*
X94575000Y-82516804I0J-200000D01*
G01*
X94575000Y-82916804D01*
G75*
G02*
X94375000Y-83116804I-200000J0D01*
G01*
X93825000Y-83116804D01*
G75*
G02*
X93625000Y-82916804I0J200000D01*
G01*
X93625000Y-82516804D01*
G75*
G02*
X93825000Y-82316804I200000J0D01*
G01*
G37*
G36*
G01*
X98950000Y-89325000D02*
X98450000Y-89325000D01*
G75*
G02*
X98225000Y-89100000I0J225000D01*
G01*
X98225000Y-88650000D01*
G75*
G02*
X98450000Y-88425000I225000J0D01*
G01*
X98950000Y-88425000D01*
G75*
G02*
X99175000Y-88650000I0J-225000D01*
G01*
X99175000Y-89100000D01*
G75*
G02*
X98950000Y-89325000I-225000J0D01*
G01*
G37*
G36*
G01*
X98950000Y-87775000D02*
X98450000Y-87775000D01*
G75*
G02*
X98225000Y-87550000I0J225000D01*
G01*
X98225000Y-87100000D01*
G75*
G02*
X98450000Y-86875000I225000J0D01*
G01*
X98950000Y-86875000D01*
G75*
G02*
X99175000Y-87100000I0J-225000D01*
G01*
X99175000Y-87550000D01*
G75*
G02*
X98950000Y-87775000I-225000J0D01*
G01*
G37*
G36*
G01*
X102250000Y-75275000D02*
X102750000Y-75275000D01*
G75*
G02*
X102975000Y-75500000I0J-225000D01*
G01*
X102975000Y-75950000D01*
G75*
G02*
X102750000Y-76175000I-225000J0D01*
G01*
X102250000Y-76175000D01*
G75*
G02*
X102025000Y-75950000I0J225000D01*
G01*
X102025000Y-75500000D01*
G75*
G02*
X102250000Y-75275000I225000J0D01*
G01*
G37*
G36*
G01*
X102250000Y-76825000D02*
X102750000Y-76825000D01*
G75*
G02*
X102975000Y-77050000I0J-225000D01*
G01*
X102975000Y-77500000D01*
G75*
G02*
X102750000Y-77725000I-225000J0D01*
G01*
X102250000Y-77725000D01*
G75*
G02*
X102025000Y-77500000I0J225000D01*
G01*
X102025000Y-77050000D01*
G75*
G02*
X102250000Y-76825000I225000J0D01*
G01*
G37*
G36*
G01*
X89775000Y-64225000D02*
X89225000Y-64225000D01*
G75*
G02*
X89025000Y-64025000I0J200000D01*
G01*
X89025000Y-63625000D01*
G75*
G02*
X89225000Y-63425000I200000J0D01*
G01*
X89775000Y-63425000D01*
G75*
G02*
X89975000Y-63625000I0J-200000D01*
G01*
X89975000Y-64025000D01*
G75*
G02*
X89775000Y-64225000I-200000J0D01*
G01*
G37*
G36*
G01*
X89775000Y-62575000D02*
X89225000Y-62575000D01*
G75*
G02*
X89025000Y-62375000I0J200000D01*
G01*
X89025000Y-61975000D01*
G75*
G02*
X89225000Y-61775000I200000J0D01*
G01*
X89775000Y-61775000D01*
G75*
G02*
X89975000Y-61975000I0J-200000D01*
G01*
X89975000Y-62375000D01*
G75*
G02*
X89775000Y-62575000I-200000J0D01*
G01*
G37*
G36*
G01*
X97600000Y-90300000D02*
X97900000Y-90300000D01*
G75*
G02*
X98050000Y-90450000I0J-150000D01*
G01*
X98050000Y-91475000D01*
G75*
G02*
X97900000Y-91625000I-150000J0D01*
G01*
X97600000Y-91625000D01*
G75*
G02*
X97450000Y-91475000I0J150000D01*
G01*
X97450000Y-90450000D01*
G75*
G02*
X97600000Y-90300000I150000J0D01*
G01*
G37*
G36*
G01*
X98550000Y-90300000D02*
X98850000Y-90300000D01*
G75*
G02*
X99000000Y-90450000I0J-150000D01*
G01*
X99000000Y-91475000D01*
G75*
G02*
X98850000Y-91625000I-150000J0D01*
G01*
X98550000Y-91625000D01*
G75*
G02*
X98400000Y-91475000I0J150000D01*
G01*
X98400000Y-90450000D01*
G75*
G02*
X98550000Y-90300000I150000J0D01*
G01*
G37*
G36*
G01*
X99500000Y-90300000D02*
X99800000Y-90300000D01*
G75*
G02*
X99950000Y-90450000I0J-150000D01*
G01*
X99950000Y-91475000D01*
G75*
G02*
X99800000Y-91625000I-150000J0D01*
G01*
X99500000Y-91625000D01*
G75*
G02*
X99350000Y-91475000I0J150000D01*
G01*
X99350000Y-90450000D01*
G75*
G02*
X99500000Y-90300000I150000J0D01*
G01*
G37*
G36*
G01*
X99500000Y-92575000D02*
X99800000Y-92575000D01*
G75*
G02*
X99950000Y-92725000I0J-150000D01*
G01*
X99950000Y-93750000D01*
G75*
G02*
X99800000Y-93900000I-150000J0D01*
G01*
X99500000Y-93900000D01*
G75*
G02*
X99350000Y-93750000I0J150000D01*
G01*
X99350000Y-92725000D01*
G75*
G02*
X99500000Y-92575000I150000J0D01*
G01*
G37*
G36*
G01*
X97600000Y-92575000D02*
X97900000Y-92575000D01*
G75*
G02*
X98050000Y-92725000I0J-150000D01*
G01*
X98050000Y-93750000D01*
G75*
G02*
X97900000Y-93900000I-150000J0D01*
G01*
X97600000Y-93900000D01*
G75*
G02*
X97450000Y-93750000I0J150000D01*
G01*
X97450000Y-92725000D01*
G75*
G02*
X97600000Y-92575000I150000J0D01*
G01*
G37*
G36*
G01*
X104225000Y-75275000D02*
X104775000Y-75275000D01*
G75*
G02*
X104975000Y-75475000I0J-200000D01*
G01*
X104975000Y-75875000D01*
G75*
G02*
X104775000Y-76075000I-200000J0D01*
G01*
X104225000Y-76075000D01*
G75*
G02*
X104025000Y-75875000I0J200000D01*
G01*
X104025000Y-75475000D01*
G75*
G02*
X104225000Y-75275000I200000J0D01*
G01*
G37*
G36*
G01*
X104225000Y-76925000D02*
X104775000Y-76925000D01*
G75*
G02*
X104975000Y-77125000I0J-200000D01*
G01*
X104975000Y-77525000D01*
G75*
G02*
X104775000Y-77725000I-200000J0D01*
G01*
X104225000Y-77725000D01*
G75*
G02*
X104025000Y-77525000I0J200000D01*
G01*
X104025000Y-77125000D01*
G75*
G02*
X104225000Y-76925000I200000J0D01*
G01*
G37*
G36*
G01*
X93646539Y-92225000D02*
X93646539Y-92775000D01*
G75*
G02*
X93446539Y-92975000I-200000J0D01*
G01*
X93046539Y-92975000D01*
G75*
G02*
X92846539Y-92775000I0J200000D01*
G01*
X92846539Y-92225000D01*
G75*
G02*
X93046539Y-92025000I200000J0D01*
G01*
X93446539Y-92025000D01*
G75*
G02*
X93646539Y-92225000I0J-200000D01*
G01*
G37*
G36*
G01*
X91996539Y-92225000D02*
X91996539Y-92775000D01*
G75*
G02*
X91796539Y-92975000I-200000J0D01*
G01*
X91396539Y-92975000D01*
G75*
G02*
X91196539Y-92775000I0J200000D01*
G01*
X91196539Y-92225000D01*
G75*
G02*
X91396539Y-92025000I200000J0D01*
G01*
X91796539Y-92025000D01*
G75*
G02*
X91996539Y-92225000I0J-200000D01*
G01*
G37*
G36*
G01*
X123150000Y-90275000D02*
X123150000Y-89725000D01*
G75*
G02*
X123350000Y-89525000I200000J0D01*
G01*
X123750000Y-89525000D01*
G75*
G02*
X123950000Y-89725000I0J-200000D01*
G01*
X123950000Y-90275000D01*
G75*
G02*
X123750000Y-90475000I-200000J0D01*
G01*
X123350000Y-90475000D01*
G75*
G02*
X123150000Y-90275000I0J200000D01*
G01*
G37*
G36*
G01*
X124800000Y-90275000D02*
X124800000Y-89725000D01*
G75*
G02*
X125000000Y-89525000I200000J0D01*
G01*
X125400000Y-89525000D01*
G75*
G02*
X125600000Y-89725000I0J-200000D01*
G01*
X125600000Y-90275000D01*
G75*
G02*
X125400000Y-90475000I-200000J0D01*
G01*
X125000000Y-90475000D01*
G75*
G02*
X124800000Y-90275000I0J200000D01*
G01*
G37*
G36*
G01*
X104325000Y-81100000D02*
X104325000Y-80800000D01*
G75*
G02*
X104475000Y-80650000I150000J0D01*
G01*
X105650000Y-80650000D01*
G75*
G02*
X105800000Y-80800000I0J-150000D01*
G01*
X105800000Y-81100000D01*
G75*
G02*
X105650000Y-81250000I-150000J0D01*
G01*
X104475000Y-81250000D01*
G75*
G02*
X104325000Y-81100000I0J150000D01*
G01*
G37*
G36*
G01*
X104325000Y-79200000D02*
X104325000Y-78900000D01*
G75*
G02*
X104475000Y-78750000I150000J0D01*
G01*
X105650000Y-78750000D01*
G75*
G02*
X105800000Y-78900000I0J-150000D01*
G01*
X105800000Y-79200000D01*
G75*
G02*
X105650000Y-79350000I-150000J0D01*
G01*
X104475000Y-79350000D01*
G75*
G02*
X104325000Y-79200000I0J150000D01*
G01*
G37*
G36*
G01*
X106200000Y-80150000D02*
X106200000Y-79850000D01*
G75*
G02*
X106350000Y-79700000I150000J0D01*
G01*
X107525000Y-79700000D01*
G75*
G02*
X107675000Y-79850000I0J-150000D01*
G01*
X107675000Y-80150000D01*
G75*
G02*
X107525000Y-80300000I-150000J0D01*
G01*
X106350000Y-80300000D01*
G75*
G02*
X106200000Y-80150000I0J150000D01*
G01*
G37*
G36*
G01*
X89287500Y-82991804D02*
X89287500Y-82691804D01*
G75*
G02*
X89437500Y-82541804I150000J0D01*
G01*
X90612500Y-82541804D01*
G75*
G02*
X90762500Y-82691804I0J-150000D01*
G01*
X90762500Y-82991804D01*
G75*
G02*
X90612500Y-83141804I-150000J0D01*
G01*
X89437500Y-83141804D01*
G75*
G02*
X89287500Y-82991804I0J150000D01*
G01*
G37*
G36*
G01*
X89287500Y-81091804D02*
X89287500Y-80791804D01*
G75*
G02*
X89437500Y-80641804I150000J0D01*
G01*
X90612500Y-80641804D01*
G75*
G02*
X90762500Y-80791804I0J-150000D01*
G01*
X90762500Y-81091804D01*
G75*
G02*
X90612500Y-81241804I-150000J0D01*
G01*
X89437500Y-81241804D01*
G75*
G02*
X89287500Y-81091804I0J150000D01*
G01*
G37*
G36*
G01*
X91162500Y-82041804D02*
X91162500Y-81741804D01*
G75*
G02*
X91312500Y-81591804I150000J0D01*
G01*
X92487500Y-81591804D01*
G75*
G02*
X92637500Y-81741804I0J-150000D01*
G01*
X92637500Y-82041804D01*
G75*
G02*
X92487500Y-82191804I-150000J0D01*
G01*
X91312500Y-82191804D01*
G75*
G02*
X91162500Y-82041804I0J150000D01*
G01*
G37*
G36*
G01*
X101695000Y-69380000D02*
X101695000Y-69880000D01*
G75*
G02*
X101470000Y-70105000I-225000J0D01*
G01*
X101020000Y-70105000D01*
G75*
G02*
X100795000Y-69880000I0J225000D01*
G01*
X100795000Y-69380000D01*
G75*
G02*
X101020000Y-69155000I225000J0D01*
G01*
X101470000Y-69155000D01*
G75*
G02*
X101695000Y-69380000I0J-225000D01*
G01*
G37*
G36*
G01*
X100145000Y-69380000D02*
X100145000Y-69880000D01*
G75*
G02*
X99920000Y-70105000I-225000J0D01*
G01*
X99470000Y-70105000D01*
G75*
G02*
X99245000Y-69880000I0J225000D01*
G01*
X99245000Y-69380000D01*
G75*
G02*
X99470000Y-69155000I225000J0D01*
G01*
X99920000Y-69155000D01*
G75*
G02*
X100145000Y-69380000I0J-225000D01*
G01*
G37*
G36*
G01*
X105250000Y-91775000D02*
X105750000Y-91775000D01*
G75*
G02*
X105975000Y-92000000I0J-225000D01*
G01*
X105975000Y-92450000D01*
G75*
G02*
X105750000Y-92675000I-225000J0D01*
G01*
X105250000Y-92675000D01*
G75*
G02*
X105025000Y-92450000I0J225000D01*
G01*
X105025000Y-92000000D01*
G75*
G02*
X105250000Y-91775000I225000J0D01*
G01*
G37*
G36*
G01*
X105250000Y-93325000D02*
X105750000Y-93325000D01*
G75*
G02*
X105975000Y-93550000I0J-225000D01*
G01*
X105975000Y-94000000D01*
G75*
G02*
X105750000Y-94225000I-225000J0D01*
G01*
X105250000Y-94225000D01*
G75*
G02*
X105025000Y-94000000I0J225000D01*
G01*
X105025000Y-93550000D01*
G75*
G02*
X105250000Y-93325000I225000J0D01*
G01*
G37*
G36*
G01*
X94375000Y-89116804D02*
X93825000Y-89116804D01*
G75*
G02*
X93625000Y-88916804I0J200000D01*
G01*
X93625000Y-88516804D01*
G75*
G02*
X93825000Y-88316804I200000J0D01*
G01*
X94375000Y-88316804D01*
G75*
G02*
X94575000Y-88516804I0J-200000D01*
G01*
X94575000Y-88916804D01*
G75*
G02*
X94375000Y-89116804I-200000J0D01*
G01*
G37*
G36*
G01*
X94375000Y-87466804D02*
X93825000Y-87466804D01*
G75*
G02*
X93625000Y-87266804I0J200000D01*
G01*
X93625000Y-86866804D01*
G75*
G02*
X93825000Y-86666804I200000J0D01*
G01*
X94375000Y-86666804D01*
G75*
G02*
X94575000Y-86866804I0J-200000D01*
G01*
X94575000Y-87266804D01*
G75*
G02*
X94375000Y-87466804I-200000J0D01*
G01*
G37*
G36*
G01*
X103275000Y-81225000D02*
X102725000Y-81225000D01*
G75*
G02*
X102525000Y-81025000I0J200000D01*
G01*
X102525000Y-80625000D01*
G75*
G02*
X102725000Y-80425000I200000J0D01*
G01*
X103275000Y-80425000D01*
G75*
G02*
X103475000Y-80625000I0J-200000D01*
G01*
X103475000Y-81025000D01*
G75*
G02*
X103275000Y-81225000I-200000J0D01*
G01*
G37*
G36*
G01*
X103275000Y-79575000D02*
X102725000Y-79575000D01*
G75*
G02*
X102525000Y-79375000I0J200000D01*
G01*
X102525000Y-78975000D01*
G75*
G02*
X102725000Y-78775000I200000J0D01*
G01*
X103275000Y-78775000D01*
G75*
G02*
X103475000Y-78975000I0J-200000D01*
G01*
X103475000Y-79375000D01*
G75*
G02*
X103275000Y-79575000I-200000J0D01*
G01*
G37*
G36*
G01*
X105425000Y-83400000D02*
X105625000Y-83400000D01*
G75*
G02*
X105725000Y-83500000I0J-100000D01*
G01*
X105725000Y-84775000D01*
G75*
G02*
X105625000Y-84875000I-100000J0D01*
G01*
X105425000Y-84875000D01*
G75*
G02*
X105325000Y-84775000I0J100000D01*
G01*
X105325000Y-83500000D01*
G75*
G02*
X105425000Y-83400000I100000J0D01*
G01*
G37*
G36*
G01*
X106075000Y-83400000D02*
X106275000Y-83400000D01*
G75*
G02*
X106375000Y-83500000I0J-100000D01*
G01*
X106375000Y-84775000D01*
G75*
G02*
X106275000Y-84875000I-100000J0D01*
G01*
X106075000Y-84875000D01*
G75*
G02*
X105975000Y-84775000I0J100000D01*
G01*
X105975000Y-83500000D01*
G75*
G02*
X106075000Y-83400000I100000J0D01*
G01*
G37*
G36*
G01*
X106725000Y-83400000D02*
X106925000Y-83400000D01*
G75*
G02*
X107025000Y-83500000I0J-100000D01*
G01*
X107025000Y-84775000D01*
G75*
G02*
X106925000Y-84875000I-100000J0D01*
G01*
X106725000Y-84875000D01*
G75*
G02*
X106625000Y-84775000I0J100000D01*
G01*
X106625000Y-83500000D01*
G75*
G02*
X106725000Y-83400000I100000J0D01*
G01*
G37*
G36*
G01*
X107375000Y-83400000D02*
X107575000Y-83400000D01*
G75*
G02*
X107675000Y-83500000I0J-100000D01*
G01*
X107675000Y-84775000D01*
G75*
G02*
X107575000Y-84875000I-100000J0D01*
G01*
X107375000Y-84875000D01*
G75*
G02*
X107275000Y-84775000I0J100000D01*
G01*
X107275000Y-83500000D01*
G75*
G02*
X107375000Y-83400000I100000J0D01*
G01*
G37*
G36*
G01*
X107375000Y-89125000D02*
X107575000Y-89125000D01*
G75*
G02*
X107675000Y-89225000I0J-100000D01*
G01*
X107675000Y-90500000D01*
G75*
G02*
X107575000Y-90600000I-100000J0D01*
G01*
X107375000Y-90600000D01*
G75*
G02*
X107275000Y-90500000I0J100000D01*
G01*
X107275000Y-89225000D01*
G75*
G02*
X107375000Y-89125000I100000J0D01*
G01*
G37*
G36*
G01*
X106725000Y-89125000D02*
X106925000Y-89125000D01*
G75*
G02*
X107025000Y-89225000I0J-100000D01*
G01*
X107025000Y-90500000D01*
G75*
G02*
X106925000Y-90600000I-100000J0D01*
G01*
X106725000Y-90600000D01*
G75*
G02*
X106625000Y-90500000I0J100000D01*
G01*
X106625000Y-89225000D01*
G75*
G02*
X106725000Y-89125000I100000J0D01*
G01*
G37*
G36*
G01*
X106075000Y-89125000D02*
X106275000Y-89125000D01*
G75*
G02*
X106375000Y-89225000I0J-100000D01*
G01*
X106375000Y-90500000D01*
G75*
G02*
X106275000Y-90600000I-100000J0D01*
G01*
X106075000Y-90600000D01*
G75*
G02*
X105975000Y-90500000I0J100000D01*
G01*
X105975000Y-89225000D01*
G75*
G02*
X106075000Y-89125000I100000J0D01*
G01*
G37*
G36*
G01*
X105425000Y-89125000D02*
X105625000Y-89125000D01*
G75*
G02*
X105725000Y-89225000I0J-100000D01*
G01*
X105725000Y-90500000D01*
G75*
G02*
X105625000Y-90600000I-100000J0D01*
G01*
X105425000Y-90600000D01*
G75*
G02*
X105325000Y-90500000I0J100000D01*
G01*
X105325000Y-89225000D01*
G75*
G02*
X105425000Y-89125000I100000J0D01*
G01*
G37*
G36*
G01*
X95850000Y-80666804D02*
X96350000Y-80666804D01*
G75*
G02*
X96575000Y-80891804I0J-225000D01*
G01*
X96575000Y-81341804D01*
G75*
G02*
X96350000Y-81566804I-225000J0D01*
G01*
X95850000Y-81566804D01*
G75*
G02*
X95625000Y-81341804I0J225000D01*
G01*
X95625000Y-80891804D01*
G75*
G02*
X95850000Y-80666804I225000J0D01*
G01*
G37*
G36*
G01*
X95850000Y-82216804D02*
X96350000Y-82216804D01*
G75*
G02*
X96575000Y-82441804I0J-225000D01*
G01*
X96575000Y-82891804D01*
G75*
G02*
X96350000Y-83116804I-225000J0D01*
G01*
X95850000Y-83116804D01*
G75*
G02*
X95625000Y-82891804I0J225000D01*
G01*
X95625000Y-82441804D01*
G75*
G02*
X95850000Y-82216804I225000J0D01*
G01*
G37*
G36*
G01*
X109225000Y-83775000D02*
X109775000Y-83775000D01*
G75*
G02*
X109975000Y-83975000I0J-200000D01*
G01*
X109975000Y-84375000D01*
G75*
G02*
X109775000Y-84575000I-200000J0D01*
G01*
X109225000Y-84575000D01*
G75*
G02*
X109025000Y-84375000I0J200000D01*
G01*
X109025000Y-83975000D01*
G75*
G02*
X109225000Y-83775000I200000J0D01*
G01*
G37*
G36*
G01*
X109225000Y-85425000D02*
X109775000Y-85425000D01*
G75*
G02*
X109975000Y-85625000I0J-200000D01*
G01*
X109975000Y-86025000D01*
G75*
G02*
X109775000Y-86225000I-200000J0D01*
G01*
X109225000Y-86225000D01*
G75*
G02*
X109025000Y-86025000I0J200000D01*
G01*
X109025000Y-85625000D01*
G75*
G02*
X109225000Y-85425000I200000J0D01*
G01*
G37*
G36*
G01*
X98325000Y-81100000D02*
X98325000Y-80800000D01*
G75*
G02*
X98475000Y-80650000I150000J0D01*
G01*
X99650000Y-80650000D01*
G75*
G02*
X99800000Y-80800000I0J-150000D01*
G01*
X99800000Y-81100000D01*
G75*
G02*
X99650000Y-81250000I-150000J0D01*
G01*
X98475000Y-81250000D01*
G75*
G02*
X98325000Y-81100000I0J150000D01*
G01*
G37*
G36*
G01*
X98325000Y-79200000D02*
X98325000Y-78900000D01*
G75*
G02*
X98475000Y-78750000I150000J0D01*
G01*
X99650000Y-78750000D01*
G75*
G02*
X99800000Y-78900000I0J-150000D01*
G01*
X99800000Y-79200000D01*
G75*
G02*
X99650000Y-79350000I-150000J0D01*
G01*
X98475000Y-79350000D01*
G75*
G02*
X98325000Y-79200000I0J150000D01*
G01*
G37*
G36*
G01*
X100200000Y-80150000D02*
X100200000Y-79850000D01*
G75*
G02*
X100350000Y-79700000I150000J0D01*
G01*
X101525000Y-79700000D01*
G75*
G02*
X101675000Y-79850000I0J-150000D01*
G01*
X101675000Y-80150000D01*
G75*
G02*
X101525000Y-80300000I-150000J0D01*
G01*
X100350000Y-80300000D01*
G75*
G02*
X100200000Y-80150000I0J150000D01*
G01*
G37*
G36*
G01*
X100975000Y-93350000D02*
X100975000Y-92850000D01*
G75*
G02*
X101200000Y-92625000I225000J0D01*
G01*
X101650000Y-92625000D01*
G75*
G02*
X101875000Y-92850000I0J-225000D01*
G01*
X101875000Y-93350000D01*
G75*
G02*
X101650000Y-93575000I-225000J0D01*
G01*
X101200000Y-93575000D01*
G75*
G02*
X100975000Y-93350000I0J225000D01*
G01*
G37*
G36*
G01*
X102525000Y-93350000D02*
X102525000Y-92850000D01*
G75*
G02*
X102750000Y-92625000I225000J0D01*
G01*
X103200000Y-92625000D01*
G75*
G02*
X103425000Y-92850000I0J-225000D01*
G01*
X103425000Y-93350000D01*
G75*
G02*
X103200000Y-93575000I-225000J0D01*
G01*
X102750000Y-93575000D01*
G75*
G02*
X102525000Y-93350000I0J225000D01*
G01*
G37*
G36*
G01*
X116325000Y-93450000D02*
X116325000Y-93950000D01*
G75*
G02*
X116100000Y-94175000I-225000J0D01*
G01*
X115650000Y-94175000D01*
G75*
G02*
X115425000Y-93950000I0J225000D01*
G01*
X115425000Y-93450000D01*
G75*
G02*
X115650000Y-93225000I225000J0D01*
G01*
X116100000Y-93225000D01*
G75*
G02*
X116325000Y-93450000I0J-225000D01*
G01*
G37*
G36*
G01*
X114775000Y-93450000D02*
X114775000Y-93950000D01*
G75*
G02*
X114550000Y-94175000I-225000J0D01*
G01*
X114100000Y-94175000D01*
G75*
G02*
X113875000Y-93950000I0J225000D01*
G01*
X113875000Y-93450000D01*
G75*
G02*
X114100000Y-93225000I225000J0D01*
G01*
X114550000Y-93225000D01*
G75*
G02*
X114775000Y-93450000I0J-225000D01*
G01*
G37*
G36*
G01*
X118500000Y-80725000D02*
X118000000Y-80725000D01*
G75*
G02*
X117775000Y-80500000I0J225000D01*
G01*
X117775000Y-80050000D01*
G75*
G02*
X118000000Y-79825000I225000J0D01*
G01*
X118500000Y-79825000D01*
G75*
G02*
X118725000Y-80050000I0J-225000D01*
G01*
X118725000Y-80500000D01*
G75*
G02*
X118500000Y-80725000I-225000J0D01*
G01*
G37*
G36*
G01*
X118500000Y-79175000D02*
X118000000Y-79175000D01*
G75*
G02*
X117775000Y-78950000I0J225000D01*
G01*
X117775000Y-78500000D01*
G75*
G02*
X118000000Y-78275000I225000J0D01*
G01*
X118500000Y-78275000D01*
G75*
G02*
X118725000Y-78500000I0J-225000D01*
G01*
X118725000Y-78950000D01*
G75*
G02*
X118500000Y-79175000I-225000J0D01*
G01*
G37*
G36*
G01*
X93275000Y-65775000D02*
X93275000Y-65225000D01*
G75*
G02*
X93475000Y-65025000I200000J0D01*
G01*
X93875000Y-65025000D01*
G75*
G02*
X94075000Y-65225000I0J-200000D01*
G01*
X94075000Y-65775000D01*
G75*
G02*
X93875000Y-65975000I-200000J0D01*
G01*
X93475000Y-65975000D01*
G75*
G02*
X93275000Y-65775000I0J200000D01*
G01*
G37*
G36*
G01*
X94925000Y-65775000D02*
X94925000Y-65225000D01*
G75*
G02*
X95125000Y-65025000I200000J0D01*
G01*
X95525000Y-65025000D01*
G75*
G02*
X95725000Y-65225000I0J-200000D01*
G01*
X95725000Y-65775000D01*
G75*
G02*
X95525000Y-65975000I-200000J0D01*
G01*
X95125000Y-65975000D01*
G75*
G02*
X94925000Y-65775000I0J200000D01*
G01*
G37*
G36*
G01*
X91775000Y-64225000D02*
X91225000Y-64225000D01*
G75*
G02*
X91025000Y-64025000I0J200000D01*
G01*
X91025000Y-63625000D01*
G75*
G02*
X91225000Y-63425000I200000J0D01*
G01*
X91775000Y-63425000D01*
G75*
G02*
X91975000Y-63625000I0J-200000D01*
G01*
X91975000Y-64025000D01*
G75*
G02*
X91775000Y-64225000I-200000J0D01*
G01*
G37*
G36*
G01*
X91775000Y-62575000D02*
X91225000Y-62575000D01*
G75*
G02*
X91025000Y-62375000I0J200000D01*
G01*
X91025000Y-61975000D01*
G75*
G02*
X91225000Y-61775000I200000J0D01*
G01*
X91775000Y-61775000D01*
G75*
G02*
X91975000Y-61975000I0J-200000D01*
G01*
X91975000Y-62375000D01*
G75*
G02*
X91775000Y-62575000I-200000J0D01*
G01*
G37*
G36*
G01*
X91775000Y-60725000D02*
X91225000Y-60725000D01*
G75*
G02*
X91025000Y-60525000I0J200000D01*
G01*
X91025000Y-60125000D01*
G75*
G02*
X91225000Y-59925000I200000J0D01*
G01*
X91775000Y-59925000D01*
G75*
G02*
X91975000Y-60125000I0J-200000D01*
G01*
X91975000Y-60525000D01*
G75*
G02*
X91775000Y-60725000I-200000J0D01*
G01*
G37*
G36*
G01*
X91775000Y-59075000D02*
X91225000Y-59075000D01*
G75*
G02*
X91025000Y-58875000I0J200000D01*
G01*
X91025000Y-58475000D01*
G75*
G02*
X91225000Y-58275000I200000J0D01*
G01*
X91775000Y-58275000D01*
G75*
G02*
X91975000Y-58475000I0J-200000D01*
G01*
X91975000Y-58875000D01*
G75*
G02*
X91775000Y-59075000I-200000J0D01*
G01*
G37*
G36*
G01*
X101695000Y-70880000D02*
X101695000Y-71380000D01*
G75*
G02*
X101470000Y-71605000I-225000J0D01*
G01*
X101020000Y-71605000D01*
G75*
G02*
X100795000Y-71380000I0J225000D01*
G01*
X100795000Y-70880000D01*
G75*
G02*
X101020000Y-70655000I225000J0D01*
G01*
X101470000Y-70655000D01*
G75*
G02*
X101695000Y-70880000I0J-225000D01*
G01*
G37*
G36*
G01*
X100145000Y-70880000D02*
X100145000Y-71380000D01*
G75*
G02*
X99920000Y-71605000I-225000J0D01*
G01*
X99470000Y-71605000D01*
G75*
G02*
X99245000Y-71380000I0J225000D01*
G01*
X99245000Y-70880000D01*
G75*
G02*
X99470000Y-70655000I225000J0D01*
G01*
X99920000Y-70655000D01*
G75*
G02*
X100145000Y-70880000I0J-225000D01*
G01*
G37*
G36*
G01*
X106775000Y-77725000D02*
X106225000Y-77725000D01*
G75*
G02*
X106025000Y-77525000I0J200000D01*
G01*
X106025000Y-77125000D01*
G75*
G02*
X106225000Y-76925000I200000J0D01*
G01*
X106775000Y-76925000D01*
G75*
G02*
X106975000Y-77125000I0J-200000D01*
G01*
X106975000Y-77525000D01*
G75*
G02*
X106775000Y-77725000I-200000J0D01*
G01*
G37*
G36*
G01*
X106775000Y-76075000D02*
X106225000Y-76075000D01*
G75*
G02*
X106025000Y-75875000I0J200000D01*
G01*
X106025000Y-75475000D01*
G75*
G02*
X106225000Y-75275000I200000J0D01*
G01*
X106775000Y-75275000D01*
G75*
G02*
X106975000Y-75475000I0J-200000D01*
G01*
X106975000Y-75875000D01*
G75*
G02*
X106775000Y-76075000I-200000J0D01*
G01*
G37*
G36*
G01*
X117275000Y-93950000D02*
X117275000Y-93450000D01*
G75*
G02*
X117500000Y-93225000I225000J0D01*
G01*
X117950000Y-93225000D01*
G75*
G02*
X118175000Y-93450000I0J-225000D01*
G01*
X118175000Y-93950000D01*
G75*
G02*
X117950000Y-94175000I-225000J0D01*
G01*
X117500000Y-94175000D01*
G75*
G02*
X117275000Y-93950000I0J225000D01*
G01*
G37*
G36*
G01*
X118825000Y-93950000D02*
X118825000Y-93450000D01*
G75*
G02*
X119050000Y-93225000I225000J0D01*
G01*
X119500000Y-93225000D01*
G75*
G02*
X119725000Y-93450000I0J-225000D01*
G01*
X119725000Y-93950000D01*
G75*
G02*
X119500000Y-94175000I-225000J0D01*
G01*
X119050000Y-94175000D01*
G75*
G02*
X118825000Y-93950000I0J225000D01*
G01*
G37*
G36*
G01*
X102600000Y-89300000D02*
X102300000Y-89300000D01*
G75*
G02*
X102150000Y-89150000I0J150000D01*
G01*
X102150000Y-88125000D01*
G75*
G02*
X102300000Y-87975000I150000J0D01*
G01*
X102600000Y-87975000D01*
G75*
G02*
X102750000Y-88125000I0J-150000D01*
G01*
X102750000Y-89150000D01*
G75*
G02*
X102600000Y-89300000I-150000J0D01*
G01*
G37*
G36*
G01*
X101650000Y-89300000D02*
X101350000Y-89300000D01*
G75*
G02*
X101200000Y-89150000I0J150000D01*
G01*
X101200000Y-88125000D01*
G75*
G02*
X101350000Y-87975000I150000J0D01*
G01*
X101650000Y-87975000D01*
G75*
G02*
X101800000Y-88125000I0J-150000D01*
G01*
X101800000Y-89150000D01*
G75*
G02*
X101650000Y-89300000I-150000J0D01*
G01*
G37*
G36*
G01*
X100700000Y-89300000D02*
X100400000Y-89300000D01*
G75*
G02*
X100250000Y-89150000I0J150000D01*
G01*
X100250000Y-88125000D01*
G75*
G02*
X100400000Y-87975000I150000J0D01*
G01*
X100700000Y-87975000D01*
G75*
G02*
X100850000Y-88125000I0J-150000D01*
G01*
X100850000Y-89150000D01*
G75*
G02*
X100700000Y-89300000I-150000J0D01*
G01*
G37*
G36*
G01*
X100700000Y-87025000D02*
X100400000Y-87025000D01*
G75*
G02*
X100250000Y-86875000I0J150000D01*
G01*
X100250000Y-85850000D01*
G75*
G02*
X100400000Y-85700000I150000J0D01*
G01*
X100700000Y-85700000D01*
G75*
G02*
X100850000Y-85850000I0J-150000D01*
G01*
X100850000Y-86875000D01*
G75*
G02*
X100700000Y-87025000I-150000J0D01*
G01*
G37*
G36*
G01*
X102600000Y-87025000D02*
X102300000Y-87025000D01*
G75*
G02*
X102150000Y-86875000I0J150000D01*
G01*
X102150000Y-85850000D01*
G75*
G02*
X102300000Y-85700000I150000J0D01*
G01*
X102600000Y-85700000D01*
G75*
G02*
X102750000Y-85850000I0J-150000D01*
G01*
X102750000Y-86875000D01*
G75*
G02*
X102600000Y-87025000I-150000J0D01*
G01*
G37*
G36*
G01*
X89287500Y-88991804D02*
X89287500Y-88691804D01*
G75*
G02*
X89437500Y-88541804I150000J0D01*
G01*
X90612500Y-88541804D01*
G75*
G02*
X90762500Y-88691804I0J-150000D01*
G01*
X90762500Y-88991804D01*
G75*
G02*
X90612500Y-89141804I-150000J0D01*
G01*
X89437500Y-89141804D01*
G75*
G02*
X89287500Y-88991804I0J150000D01*
G01*
G37*
G36*
G01*
X89287500Y-87091804D02*
X89287500Y-86791804D01*
G75*
G02*
X89437500Y-86641804I150000J0D01*
G01*
X90612500Y-86641804D01*
G75*
G02*
X90762500Y-86791804I0J-150000D01*
G01*
X90762500Y-87091804D01*
G75*
G02*
X90612500Y-87241804I-150000J0D01*
G01*
X89437500Y-87241804D01*
G75*
G02*
X89287500Y-87091804I0J150000D01*
G01*
G37*
G36*
G01*
X91162500Y-88041804D02*
X91162500Y-87741804D01*
G75*
G02*
X91312500Y-87591804I150000J0D01*
G01*
X92487500Y-87591804D01*
G75*
G02*
X92637500Y-87741804I0J-150000D01*
G01*
X92637500Y-88041804D01*
G75*
G02*
X92487500Y-88191804I-150000J0D01*
G01*
X91312500Y-88191804D01*
G75*
G02*
X91162500Y-88041804I0J150000D01*
G01*
G37*
G36*
G01*
X95975000Y-93325000D02*
X95425000Y-93325000D01*
G75*
G02*
X95225000Y-93125000I0J200000D01*
G01*
X95225000Y-92725000D01*
G75*
G02*
X95425000Y-92525000I200000J0D01*
G01*
X95975000Y-92525000D01*
G75*
G02*
X96175000Y-92725000I0J-200000D01*
G01*
X96175000Y-93125000D01*
G75*
G02*
X95975000Y-93325000I-200000J0D01*
G01*
G37*
G36*
G01*
X95975000Y-91675000D02*
X95425000Y-91675000D01*
G75*
G02*
X95225000Y-91475000I0J200000D01*
G01*
X95225000Y-91075000D01*
G75*
G02*
X95425000Y-90875000I200000J0D01*
G01*
X95975000Y-90875000D01*
G75*
G02*
X96175000Y-91075000I0J-200000D01*
G01*
X96175000Y-91475000D01*
G75*
G02*
X95975000Y-91675000I-200000J0D01*
G01*
G37*
G36*
G01*
X100975000Y-91350000D02*
X100975000Y-90850000D01*
G75*
G02*
X101200000Y-90625000I225000J0D01*
G01*
X101650000Y-90625000D01*
G75*
G02*
X101875000Y-90850000I0J-225000D01*
G01*
X101875000Y-91350000D01*
G75*
G02*
X101650000Y-91575000I-225000J0D01*
G01*
X101200000Y-91575000D01*
G75*
G02*
X100975000Y-91350000I0J225000D01*
G01*
G37*
G36*
G01*
X102525000Y-91350000D02*
X102525000Y-90850000D01*
G75*
G02*
X102750000Y-90625000I225000J0D01*
G01*
X103200000Y-90625000D01*
G75*
G02*
X103425000Y-90850000I0J-225000D01*
G01*
X103425000Y-91350000D01*
G75*
G02*
X103200000Y-91575000I-225000J0D01*
G01*
X102750000Y-91575000D01*
G75*
G02*
X102525000Y-91350000I0J225000D01*
G01*
G37*
G36*
G01*
X90775000Y-78275000D02*
X90775000Y-77725000D01*
G75*
G02*
X90975000Y-77525000I200000J0D01*
G01*
X91375000Y-77525000D01*
G75*
G02*
X91575000Y-77725000I0J-200000D01*
G01*
X91575000Y-78275000D01*
G75*
G02*
X91375000Y-78475000I-200000J0D01*
G01*
X90975000Y-78475000D01*
G75*
G02*
X90775000Y-78275000I0J200000D01*
G01*
G37*
G36*
G01*
X92425000Y-78275000D02*
X92425000Y-77725000D01*
G75*
G02*
X92625000Y-77525000I200000J0D01*
G01*
X93025000Y-77525000D01*
G75*
G02*
X93225000Y-77725000I0J-200000D01*
G01*
X93225000Y-78275000D01*
G75*
G02*
X93025000Y-78475000I-200000J0D01*
G01*
X92625000Y-78475000D01*
G75*
G02*
X92425000Y-78275000I0J200000D01*
G01*
G37*
G36*
G01*
X119500000Y-90150000D02*
X120000000Y-90150000D01*
G75*
G02*
X120225000Y-90375000I0J-225000D01*
G01*
X120225000Y-90825000D01*
G75*
G02*
X120000000Y-91050000I-225000J0D01*
G01*
X119500000Y-91050000D01*
G75*
G02*
X119275000Y-90825000I0J225000D01*
G01*
X119275000Y-90375000D01*
G75*
G02*
X119500000Y-90150000I225000J0D01*
G01*
G37*
G36*
G01*
X119500000Y-91700000D02*
X120000000Y-91700000D01*
G75*
G02*
X120225000Y-91925000I0J-225000D01*
G01*
X120225000Y-92375000D01*
G75*
G02*
X120000000Y-92600000I-225000J0D01*
G01*
X119500000Y-92600000D01*
G75*
G02*
X119275000Y-92375000I0J225000D01*
G01*
X119275000Y-91925000D01*
G75*
G02*
X119500000Y-91700000I225000J0D01*
G01*
G37*
G36*
G01*
X96250000Y-89116804D02*
X95750000Y-89116804D01*
G75*
G02*
X95525000Y-88891804I0J225000D01*
G01*
X95525000Y-88441804D01*
G75*
G02*
X95750000Y-88216804I225000J0D01*
G01*
X96250000Y-88216804D01*
G75*
G02*
X96475000Y-88441804I0J-225000D01*
G01*
X96475000Y-88891804D01*
G75*
G02*
X96250000Y-89116804I-225000J0D01*
G01*
G37*
G36*
G01*
X96250000Y-87566804D02*
X95750000Y-87566804D01*
G75*
G02*
X95525000Y-87341804I0J225000D01*
G01*
X95525000Y-86891804D01*
G75*
G02*
X95750000Y-86666804I225000J0D01*
G01*
X96250000Y-86666804D01*
G75*
G02*
X96475000Y-86891804I0J-225000D01*
G01*
X96475000Y-87341804D01*
G75*
G02*
X96250000Y-87566804I-225000J0D01*
G01*
G37*
G36*
G01*
X102725000Y-84250000D02*
X102725000Y-84750000D01*
G75*
G02*
X102500000Y-84975000I-225000J0D01*
G01*
X102050000Y-84975000D01*
G75*
G02*
X101825000Y-84750000I0J225000D01*
G01*
X101825000Y-84250000D01*
G75*
G02*
X102050000Y-84025000I225000J0D01*
G01*
X102500000Y-84025000D01*
G75*
G02*
X102725000Y-84250000I0J-225000D01*
G01*
G37*
G36*
G01*
X101175000Y-84250000D02*
X101175000Y-84750000D01*
G75*
G02*
X100950000Y-84975000I-225000J0D01*
G01*
X100500000Y-84975000D01*
G75*
G02*
X100275000Y-84750000I0J225000D01*
G01*
X100275000Y-84250000D01*
G75*
G02*
X100500000Y-84025000I225000J0D01*
G01*
X100950000Y-84025000D01*
G75*
G02*
X101175000Y-84250000I0J-225000D01*
G01*
G37*
D20*
X117515000Y-91875000D03*
D21*
X115815000Y-91875000D03*
X115815000Y-89875000D03*
X117715000Y-89875000D03*
G36*
G01*
X125600000Y-87860000D02*
X125600000Y-88410000D01*
G75*
G02*
X125400000Y-88610000I-200000J0D01*
G01*
X125000000Y-88610000D01*
G75*
G02*
X124800000Y-88410000I0J200000D01*
G01*
X124800000Y-87860000D01*
G75*
G02*
X125000000Y-87660000I200000J0D01*
G01*
X125400000Y-87660000D01*
G75*
G02*
X125600000Y-87860000I0J-200000D01*
G01*
G37*
G36*
G01*
X123950000Y-87860000D02*
X123950000Y-88410000D01*
G75*
G02*
X123750000Y-88610000I-200000J0D01*
G01*
X123350000Y-88610000D01*
G75*
G02*
X123150000Y-88410000I0J200000D01*
G01*
X123150000Y-87860000D01*
G75*
G02*
X123350000Y-87660000I200000J0D01*
G01*
X123750000Y-87660000D01*
G75*
G02*
X123950000Y-87860000I0J-200000D01*
G01*
G37*
D22*
X95500000Y-73730001D03*
X95500000Y-76270001D03*
X89150000Y-76270001D03*
X89150000Y-73730001D03*
G36*
G01*
X118320000Y-88325000D02*
X118020000Y-88325000D01*
G75*
G02*
X117870000Y-88175000I0J150000D01*
G01*
X117870000Y-86825000D01*
G75*
G02*
X118020000Y-86675000I150000J0D01*
G01*
X118320000Y-86675000D01*
G75*
G02*
X118470000Y-86825000I0J-150000D01*
G01*
X118470000Y-88175000D01*
G75*
G02*
X118320000Y-88325000I-150000J0D01*
G01*
G37*
G36*
G01*
X117050000Y-88325000D02*
X116750000Y-88325000D01*
G75*
G02*
X116600000Y-88175000I0J150000D01*
G01*
X116600000Y-86825000D01*
G75*
G02*
X116750000Y-86675000I150000J0D01*
G01*
X117050000Y-86675000D01*
G75*
G02*
X117200000Y-86825000I0J-150000D01*
G01*
X117200000Y-88175000D01*
G75*
G02*
X117050000Y-88325000I-150000J0D01*
G01*
G37*
G36*
G01*
X115780000Y-88325000D02*
X115480000Y-88325000D01*
G75*
G02*
X115330000Y-88175000I0J150000D01*
G01*
X115330000Y-86825000D01*
G75*
G02*
X115480000Y-86675000I150000J0D01*
G01*
X115780000Y-86675000D01*
G75*
G02*
X115930000Y-86825000I0J-150000D01*
G01*
X115930000Y-88175000D01*
G75*
G02*
X115780000Y-88325000I-150000J0D01*
G01*
G37*
G36*
G01*
X114510000Y-88325000D02*
X114210000Y-88325000D01*
G75*
G02*
X114060000Y-88175000I0J150000D01*
G01*
X114060000Y-86825000D01*
G75*
G02*
X114210000Y-86675000I150000J0D01*
G01*
X114510000Y-86675000D01*
G75*
G02*
X114660000Y-86825000I0J-150000D01*
G01*
X114660000Y-88175000D01*
G75*
G02*
X114510000Y-88325000I-150000J0D01*
G01*
G37*
G36*
G01*
X114510000Y-83075000D02*
X114210000Y-83075000D01*
G75*
G02*
X114060000Y-82925000I0J150000D01*
G01*
X114060000Y-81575000D01*
G75*
G02*
X114210000Y-81425000I150000J0D01*
G01*
X114510000Y-81425000D01*
G75*
G02*
X114660000Y-81575000I0J-150000D01*
G01*
X114660000Y-82925000D01*
G75*
G02*
X114510000Y-83075000I-150000J0D01*
G01*
G37*
G36*
G01*
X115780000Y-83075000D02*
X115480000Y-83075000D01*
G75*
G02*
X115330000Y-82925000I0J150000D01*
G01*
X115330000Y-81575000D01*
G75*
G02*
X115480000Y-81425000I150000J0D01*
G01*
X115780000Y-81425000D01*
G75*
G02*
X115930000Y-81575000I0J-150000D01*
G01*
X115930000Y-82925000D01*
G75*
G02*
X115780000Y-83075000I-150000J0D01*
G01*
G37*
G36*
G01*
X117050000Y-83075000D02*
X116750000Y-83075000D01*
G75*
G02*
X116600000Y-82925000I0J150000D01*
G01*
X116600000Y-81575000D01*
G75*
G02*
X116750000Y-81425000I150000J0D01*
G01*
X117050000Y-81425000D01*
G75*
G02*
X117200000Y-81575000I0J-150000D01*
G01*
X117200000Y-82925000D01*
G75*
G02*
X117050000Y-83075000I-150000J0D01*
G01*
G37*
G36*
G01*
X118320000Y-83075000D02*
X118020000Y-83075000D01*
G75*
G02*
X117870000Y-82925000I0J150000D01*
G01*
X117870000Y-81575000D01*
G75*
G02*
X118020000Y-81425000I150000J0D01*
G01*
X118320000Y-81425000D01*
G75*
G02*
X118470000Y-81575000I0J-150000D01*
G01*
X118470000Y-82925000D01*
G75*
G02*
X118320000Y-83075000I-150000J0D01*
G01*
G37*
G36*
G01*
X89775000Y-60725000D02*
X89225000Y-60725000D01*
G75*
G02*
X89025000Y-60525000I0J200000D01*
G01*
X89025000Y-60125000D01*
G75*
G02*
X89225000Y-59925000I200000J0D01*
G01*
X89775000Y-59925000D01*
G75*
G02*
X89975000Y-60125000I0J-200000D01*
G01*
X89975000Y-60525000D01*
G75*
G02*
X89775000Y-60725000I-200000J0D01*
G01*
G37*
G36*
G01*
X89775000Y-59075000D02*
X89225000Y-59075000D01*
G75*
G02*
X89025000Y-58875000I0J200000D01*
G01*
X89025000Y-58475000D01*
G75*
G02*
X89225000Y-58275000I200000J0D01*
G01*
X89775000Y-58275000D01*
G75*
G02*
X89975000Y-58475000I0J-200000D01*
G01*
X89975000Y-58875000D01*
G75*
G02*
X89775000Y-59075000I-200000J0D01*
G01*
G37*
G36*
G01*
X107250000Y-91775000D02*
X107750000Y-91775000D01*
G75*
G02*
X107975000Y-92000000I0J-225000D01*
G01*
X107975000Y-92450000D01*
G75*
G02*
X107750000Y-92675000I-225000J0D01*
G01*
X107250000Y-92675000D01*
G75*
G02*
X107025000Y-92450000I0J225000D01*
G01*
X107025000Y-92000000D01*
G75*
G02*
X107250000Y-91775000I225000J0D01*
G01*
G37*
G36*
G01*
X107250000Y-93325000D02*
X107750000Y-93325000D01*
G75*
G02*
X107975000Y-93550000I0J-225000D01*
G01*
X107975000Y-94000000D01*
G75*
G02*
X107750000Y-94225000I-225000J0D01*
G01*
X107250000Y-94225000D01*
G75*
G02*
X107025000Y-94000000I0J225000D01*
G01*
X107025000Y-93550000D01*
G75*
G02*
X107250000Y-93325000I225000J0D01*
G01*
G37*
X95500000Y-67230001D03*
X95500000Y-69770001D03*
X89150000Y-69770001D03*
X89150000Y-67230001D03*
M02*
