G04 #@! TF.GenerationSoftware,KiCad,Pcbnew,7.0.3*
G04 #@! TF.CreationDate,2023-05-21T14:10:43+02:00*
G04 #@! TF.ProjectId,ultramote,756c7472-616d-46f7-9465-2e6b69636164,0.2a*
G04 #@! TF.SameCoordinates,Original*
G04 #@! TF.FileFunction,Legend,Bot*
G04 #@! TF.FilePolarity,Positive*
%FSLAX46Y46*%
G04 Gerber Fmt 4.6, Leading zero omitted, Abs format (unit mm)*
G04 Created by KiCad (PCBNEW 7.0.3) date 2023-05-21 14:10:43*
%MOMM*%
%LPD*%
G01*
G04 APERTURE LIST*
%ADD10C,0.349999*%
%ADD11C,0.000000*%
%ADD12C,0.092604*%
%ADD13C,0.100000*%
%ADD14C,0.120000*%
%ADD15C,1.500000*%
%ADD16C,0.650000*%
%ADD17O,2.100000X1.000000*%
%ADD18O,1.600000X1.000000*%
%ADD19C,2.200000*%
%ADD20C,1.900000*%
%ADD21C,2.000000*%
%ADD22C,2.600000*%
%ADD23C,1.850000*%
%ADD24C,0.900000*%
%ADD25R,1.000000X0.700000*%
%ADD26R,0.600000X0.700000*%
%ADD27R,1.500000X0.600000*%
G04 APERTURE END LIST*
D10*
X104873186Y-64827665D02*
X104990573Y-64765008D01*
X104442496Y-68556431D02*
X104451395Y-68571944D01*
X104675549Y-65983497D02*
X104657947Y-65988474D01*
X104434336Y-68540455D02*
X104442496Y-68556431D01*
X109046953Y-67105430D02*
X109051511Y-67234995D01*
X107888049Y-64255060D02*
X108000345Y-64318902D01*
X104430309Y-65137965D02*
X104536583Y-65051439D01*
X107019888Y-64574055D02*
X107144831Y-64612842D01*
X105499458Y-65310817D02*
X105488138Y-65322424D01*
X108048603Y-66149935D02*
X108038988Y-66134909D01*
X107980977Y-66067880D02*
X107967548Y-66056255D01*
X108006077Y-68628898D02*
X108017702Y-68615470D01*
X106963985Y-65279989D02*
X106950840Y-65271160D01*
X104506171Y-66080129D02*
X104493922Y-66092979D01*
X107788222Y-65976128D02*
X107769642Y-65973780D01*
X108997589Y-66719706D02*
X109019979Y-66847564D01*
X107741765Y-64896289D02*
X107854040Y-64970881D01*
X103937229Y-68849953D02*
X103863167Y-68736068D01*
X108038988Y-68586969D02*
X108048603Y-68571944D01*
X107005862Y-66904789D02*
X107022655Y-66941933D01*
X103220532Y-68876415D02*
X103107859Y-68643136D01*
X105640014Y-65235817D02*
X105623309Y-65239434D01*
X107824450Y-65983497D02*
X107806499Y-65979374D01*
X108894959Y-66343095D02*
X108935066Y-66467250D01*
X106766223Y-64514381D02*
X106893611Y-64541234D01*
X105748293Y-67940287D02*
X105716616Y-67915393D01*
X106945342Y-67737169D02*
X106921963Y-67770046D01*
X102937197Y-68155995D02*
X102879801Y-67904346D01*
X102822913Y-67130366D02*
X102843373Y-66869718D01*
X103651034Y-66220619D02*
X103702887Y-66100043D01*
X107087461Y-67225180D02*
X107088552Y-67268332D01*
X106293159Y-66430878D02*
X106335743Y-66434116D01*
X103457302Y-67494277D02*
X103449906Y-67364684D01*
X105923609Y-66495684D02*
X105961688Y-66480670D01*
X107980977Y-68653997D02*
X107993827Y-68641748D01*
X105412553Y-67311483D02*
X105411462Y-67268332D01*
X108915527Y-68133023D02*
X108871962Y-68257375D01*
X106576406Y-68040979D02*
X106538326Y-68055994D01*
X105850308Y-68005668D02*
X105815192Y-67985477D01*
X108871962Y-68257375D02*
X108822323Y-68380078D01*
X102884037Y-66609587D02*
X102945203Y-66351081D01*
X104575977Y-68696523D02*
X104591489Y-68705422D01*
X106870713Y-67832150D02*
X106842947Y-67861272D01*
X103605047Y-66343095D02*
X103651034Y-66220619D01*
X106637946Y-64493496D02*
X106766223Y-64514381D01*
X107967548Y-66056255D02*
X107953564Y-66045277D01*
X103733406Y-68500909D02*
X103677681Y-68380078D01*
X109313726Y-65726569D02*
X109371228Y-65846691D01*
X106751721Y-67940287D02*
X106718845Y-67963666D01*
X109216441Y-68989997D02*
X109148977Y-69101356D01*
X108739412Y-65981588D02*
X108797119Y-66100043D01*
X109050098Y-67364684D02*
X109042703Y-67494277D01*
X108521312Y-64698475D02*
X108616581Y-64785887D01*
X104657947Y-68733401D02*
X104675549Y-68738378D01*
X106751721Y-66596376D02*
X106783399Y-66621270D01*
X109562818Y-68155995D02*
X109486700Y-68402628D01*
X108766598Y-68500909D02*
X108704774Y-68619646D01*
X104768334Y-68750000D02*
X107731665Y-68750000D01*
X105657067Y-67861272D02*
X105629302Y-67832150D01*
X104726690Y-64195432D02*
X104962952Y-64089156D01*
X107993827Y-66080129D02*
X107980977Y-66067880D01*
X107022655Y-67594730D02*
X107005862Y-67631875D01*
X107053550Y-65374577D02*
X107033373Y-65347425D01*
X103480026Y-66847564D02*
X103502416Y-66719706D01*
X106842947Y-67861272D02*
X106813825Y-67889037D01*
X105477360Y-67594730D02*
X105462345Y-67556651D01*
X104049704Y-65533427D02*
X104136487Y-65428911D01*
X105578052Y-67770046D02*
X105554673Y-67737169D01*
X104402170Y-66285734D02*
X104399822Y-66304314D01*
X106377709Y-66439449D02*
X106419003Y-66446823D01*
X103502416Y-66719706D02*
X103530725Y-66592861D01*
X108017702Y-66106408D02*
X108006077Y-66092979D01*
X109051511Y-67234995D02*
X109050098Y-67364684D01*
X107769642Y-68748094D02*
X107788222Y-68745747D01*
X104493922Y-66092979D02*
X104482297Y-66106408D01*
X109516448Y-66222788D02*
X109554812Y-66351086D01*
X105512670Y-67668031D02*
X105494152Y-67631875D01*
X107806499Y-68742500D02*
X107824450Y-68738378D01*
X109554812Y-66351086D02*
X109587976Y-66480066D01*
X106000651Y-68069177D02*
X105961688Y-68055994D01*
X108048603Y-68571944D02*
X108057502Y-68556431D01*
X107000546Y-65310817D02*
X106988810Y-65299853D01*
X105602946Y-66734940D02*
X105629302Y-66704514D01*
X104451395Y-68571944D02*
X104461011Y-68586969D01*
X109656642Y-66869721D02*
X109669379Y-67000049D01*
X103384152Y-65383934D02*
X103536020Y-65171116D01*
X106783399Y-66621270D02*
X106813825Y-66647626D01*
X105207515Y-64000729D02*
X105459440Y-63930808D01*
X105578052Y-66766618D02*
X105602946Y-66734940D01*
X104560951Y-66034969D02*
X104546434Y-66045277D01*
X107037669Y-67556651D02*
X107022655Y-67594730D01*
X109472847Y-66095312D02*
X109516448Y-66222788D01*
X106250007Y-68106877D02*
X106206856Y-68105786D01*
X106509003Y-64478578D02*
X106637946Y-64493496D01*
X105110182Y-64708319D02*
X105231791Y-64657597D01*
X104749216Y-65972355D02*
X104730356Y-65973780D01*
X104327368Y-65230459D02*
X104430309Y-65137965D01*
X108363522Y-65428911D02*
X108450304Y-65533427D01*
X107071516Y-67099336D02*
X107078890Y-67140630D01*
X103546973Y-68007242D02*
X103515516Y-67880255D01*
X105991006Y-64478578D02*
X106120394Y-64469627D01*
X103968710Y-65641175D02*
X104049704Y-65533427D01*
X108704774Y-68619646D02*
X108636837Y-68736068D01*
X107108305Y-65466153D02*
X107090797Y-65434219D01*
X105886464Y-66512477D02*
X105923609Y-66495684D01*
X107062153Y-67058767D02*
X107071516Y-67099336D01*
X108000345Y-64318902D02*
X108110098Y-64386878D01*
X104136487Y-65428911D02*
X104229046Y-65327847D01*
X103846585Y-69715088D02*
X103664361Y-69521799D01*
X109615978Y-66609591D02*
X109638854Y-66739522D01*
X107072618Y-65403602D02*
X107053550Y-65374577D01*
X106892739Y-65244008D02*
X106876695Y-65239434D01*
X108882425Y-65069638D02*
X108963995Y-65171120D01*
X105623309Y-65239434D02*
X105607265Y-65244008D01*
X108963995Y-65171120D02*
X109041847Y-65275914D01*
X105923609Y-68040979D02*
X105886464Y-68024187D01*
X106377709Y-68097215D02*
X106335743Y-68102548D01*
X104506171Y-68641748D02*
X104519021Y-68653997D01*
X104493922Y-68628898D02*
X104506171Y-68641748D01*
X108822323Y-68380078D02*
X108766598Y-68500909D01*
X108079676Y-68507204D02*
X108085483Y-68489974D01*
X104103780Y-69069222D02*
X104017429Y-68961078D01*
X108835654Y-69521799D02*
X108746642Y-69619970D01*
X103248095Y-65609343D02*
X103384152Y-65383934D01*
X105694379Y-65231046D02*
X105675522Y-65231588D01*
X106967153Y-66833516D02*
X106987344Y-66868632D01*
X106613550Y-66512477D02*
X106649707Y-66530995D01*
X104471319Y-66120392D02*
X104461011Y-66134909D01*
X106897069Y-66734940D02*
X106921963Y-66766618D01*
X104398397Y-66323174D02*
X104397917Y-66342292D01*
X109587976Y-66480066D02*
X109615978Y-66609591D01*
X104402170Y-68436146D02*
X104405416Y-68454422D01*
X105733786Y-64514381D02*
X105862063Y-64493496D01*
X103536020Y-65171116D02*
X103702760Y-64971547D01*
X106859990Y-65235817D02*
X106842594Y-65233190D01*
X105357810Y-65532849D02*
X105323962Y-65601463D01*
X103824143Y-65865478D02*
X103893519Y-65751933D01*
X106538326Y-68055994D02*
X106499364Y-68069177D01*
X102843373Y-66869718D02*
X102884037Y-66609587D01*
X103760595Y-65981588D02*
X103824143Y-65865478D01*
X108270963Y-65327847D02*
X108363522Y-65428911D01*
X106805625Y-65231046D02*
X105694379Y-65231046D01*
X106518389Y-63849115D02*
X106650934Y-63862064D01*
X107939048Y-66034969D02*
X107924022Y-66025353D01*
X107176042Y-65601463D02*
X107142194Y-65532849D01*
X105717790Y-63880051D02*
X105981625Y-63849115D01*
X108073062Y-68524039D02*
X108079676Y-68507204D01*
X106250005Y-64466643D02*
X106379615Y-64469627D01*
X105446454Y-65374577D02*
X105427386Y-65403602D01*
X108057502Y-68556431D02*
X108065663Y-68540455D01*
X107859281Y-65994280D02*
X107842051Y-65988474D01*
X107963426Y-65051439D02*
X108069701Y-65137965D01*
X103463567Y-66976213D02*
X103480026Y-66847564D01*
X108708601Y-64876939D02*
X108797255Y-64971551D01*
X107537063Y-64089157D02*
X107656290Y-64140105D01*
X109019979Y-66847564D02*
X109036438Y-66976213D01*
X106459572Y-68080477D02*
X106419003Y-68089840D01*
X103490094Y-67752284D02*
X103470693Y-67623551D01*
X109677101Y-67130368D02*
X109679847Y-67260540D01*
X104962952Y-64089156D02*
X105207515Y-64000729D01*
X108100176Y-68417566D02*
X108101601Y-68398706D01*
X102879801Y-67904346D02*
X102841424Y-67648786D01*
X107824450Y-68738378D02*
X107842051Y-68733401D01*
X106040443Y-66456186D02*
X106081012Y-66446823D01*
X108065663Y-66181424D02*
X108057502Y-66165447D01*
X105412553Y-67225180D02*
X105415791Y-67182596D01*
X103107859Y-68643136D02*
X103013315Y-68402627D01*
X105629302Y-66704514D02*
X105657067Y-66675392D01*
X105523372Y-65289565D02*
X105511194Y-65299853D01*
X107033373Y-65347425D02*
X107022800Y-65334639D01*
X103448494Y-67234995D02*
X103453052Y-67105430D01*
X108321498Y-64534902D02*
X108422912Y-64614786D01*
X108038988Y-66134909D02*
X108028680Y-66120392D01*
X105511194Y-65299853D02*
X105499458Y-65310817D01*
X105494152Y-66904789D02*
X105512670Y-66868632D01*
X108085483Y-68489974D02*
X108090459Y-68472373D01*
X109148977Y-69101356D02*
X109077130Y-69210354D01*
X106967153Y-67703147D02*
X106945342Y-67737169D01*
X104420322Y-68507204D02*
X104426937Y-68524039D01*
X108100176Y-66304314D02*
X108097829Y-66285734D01*
X104675549Y-68738378D02*
X104693499Y-68742500D01*
X106684822Y-66551186D02*
X106718845Y-66572997D01*
X103702887Y-66100043D02*
X103760595Y-65981588D01*
X104399822Y-66304314D02*
X104398397Y-66323174D01*
X104461011Y-66134909D02*
X104451395Y-66149935D01*
X105488138Y-65322424D02*
X105466631Y-65347425D01*
X108797255Y-64971551D02*
X108882425Y-65069638D01*
X105477360Y-66941933D02*
X105494152Y-66904789D01*
X105577055Y-65255882D02*
X105562833Y-65263113D01*
X108606488Y-65751933D02*
X108675864Y-65865478D01*
X107084223Y-67354068D02*
X107078890Y-67396033D01*
X105449162Y-67018975D02*
X105462345Y-66980013D01*
X107842051Y-65988474D02*
X107824450Y-65983497D01*
X106976632Y-65289565D02*
X106963985Y-65279989D01*
X106419003Y-68089840D02*
X106377709Y-68097215D01*
X104730356Y-68748094D02*
X104749216Y-68749520D01*
X106459572Y-66456186D02*
X106499364Y-66467486D01*
D11*
G36*
X115056300Y-63876670D02*
G01*
X115058310Y-63876820D01*
X115060310Y-63877067D01*
X115062298Y-63877407D01*
X115064270Y-63877840D01*
X115066223Y-63878362D01*
X115068154Y-63878970D01*
X115070061Y-63879664D01*
X115071940Y-63880439D01*
X115073789Y-63881293D01*
X115077382Y-63883231D01*
X115080816Y-63885457D01*
X115084068Y-63887951D01*
X115087114Y-63890694D01*
X115089929Y-63893665D01*
X115092489Y-63896846D01*
X115093667Y-63898509D01*
X115094772Y-63900217D01*
X115095801Y-63901967D01*
X115096751Y-63903757D01*
X115097621Y-63905584D01*
X115098405Y-63907446D01*
X115099102Y-63909341D01*
X115099709Y-63911266D01*
X115100221Y-63913219D01*
X115100638Y-63915196D01*
X115268066Y-64814938D01*
X115269003Y-64818932D01*
X115270289Y-64822940D01*
X115271902Y-64826935D01*
X115273821Y-64830892D01*
X115276022Y-64834784D01*
X115278484Y-64838584D01*
X115281184Y-64842268D01*
X115284100Y-64845809D01*
X115287209Y-64849180D01*
X115290490Y-64852356D01*
X115293919Y-64855310D01*
X115297475Y-64858017D01*
X115301135Y-64860449D01*
X115304876Y-64862582D01*
X115308678Y-64864389D01*
X115312516Y-64865844D01*
X115915607Y-65112700D01*
X115919363Y-65114350D01*
X115923345Y-65115727D01*
X115927516Y-65116836D01*
X115931844Y-65117677D01*
X115936292Y-65118254D01*
X115940825Y-65118569D01*
X115945410Y-65118624D01*
X115950010Y-65118422D01*
X115954591Y-65117965D01*
X115959118Y-65117256D01*
X115963555Y-65116296D01*
X115967869Y-65115089D01*
X115972023Y-65113637D01*
X115975983Y-65111942D01*
X115979715Y-65110006D01*
X115983182Y-65107832D01*
X116734810Y-64592000D01*
X116736508Y-64590897D01*
X116738257Y-64589880D01*
X116740051Y-64588949D01*
X116741888Y-64588102D01*
X116743764Y-64587341D01*
X116745674Y-64586663D01*
X116749583Y-64585561D01*
X116753585Y-64584792D01*
X116757649Y-64584354D01*
X116761744Y-64584244D01*
X116765839Y-64584460D01*
X116769904Y-64584998D01*
X116773908Y-64585855D01*
X116777820Y-64587029D01*
X116781609Y-64588518D01*
X116785245Y-64590318D01*
X116786996Y-64591333D01*
X116788697Y-64592426D01*
X116790344Y-64593595D01*
X116791933Y-64594840D01*
X116793461Y-64596160D01*
X116794924Y-64597557D01*
X117428019Y-65230599D01*
X117429410Y-65232066D01*
X117430727Y-65233599D01*
X117431968Y-65235192D01*
X117433134Y-65236843D01*
X117434224Y-65238547D01*
X117435238Y-65240301D01*
X117436175Y-65242101D01*
X117437035Y-65243943D01*
X117437818Y-65245822D01*
X117438522Y-65247736D01*
X117439697Y-65251651D01*
X117440556Y-65255657D01*
X117441096Y-65259723D01*
X117441314Y-65263817D01*
X117441207Y-65267911D01*
X117440772Y-65271971D01*
X117440431Y-65273980D01*
X117440007Y-65275969D01*
X117439499Y-65277934D01*
X117438907Y-65279873D01*
X117438231Y-65281779D01*
X117437471Y-65283651D01*
X117436625Y-65285484D01*
X117435694Y-65287275D01*
X117434678Y-65289019D01*
X117433575Y-65290712D01*
X116926686Y-66029429D01*
X116924525Y-66032920D01*
X116922606Y-66036666D01*
X116920933Y-66040631D01*
X116919507Y-66044782D01*
X116918330Y-66049084D01*
X116917406Y-66053504D01*
X116916735Y-66058008D01*
X116916321Y-66062561D01*
X116916165Y-66067130D01*
X116916271Y-66071680D01*
X116916639Y-66076177D01*
X116917273Y-66080588D01*
X116918174Y-66084879D01*
X116919345Y-66089014D01*
X116920788Y-66092961D01*
X116922506Y-66096686D01*
X117189206Y-66718774D01*
X117189917Y-66720687D01*
X117190719Y-66722594D01*
X117192581Y-66726379D01*
X117194768Y-66730106D01*
X117197251Y-66733754D01*
X117200005Y-66737298D01*
X117203004Y-66740718D01*
X117206222Y-66743990D01*
X117209632Y-66747091D01*
X117213208Y-66750000D01*
X117216924Y-66752693D01*
X117220754Y-66755148D01*
X117224671Y-66757343D01*
X117228650Y-66759254D01*
X117232665Y-66760860D01*
X117236688Y-66762138D01*
X117238694Y-66762647D01*
X117240694Y-66763065D01*
X118110538Y-66924831D01*
X118112520Y-66925257D01*
X118114477Y-66925779D01*
X118116405Y-66926393D01*
X118118303Y-66927097D01*
X118120168Y-66927888D01*
X118121997Y-66928762D01*
X118123789Y-66929718D01*
X118125540Y-66930752D01*
X118127248Y-66931860D01*
X118128911Y-66933041D01*
X118130526Y-66934291D01*
X118132092Y-66935607D01*
X118133605Y-66936986D01*
X118135062Y-66938425D01*
X118136463Y-66939922D01*
X118137803Y-66941474D01*
X118139081Y-66943077D01*
X118140295Y-66944728D01*
X118141441Y-66946425D01*
X118142517Y-66948164D01*
X118143522Y-66949944D01*
X118144451Y-66951760D01*
X118145304Y-66953609D01*
X118146078Y-66955490D01*
X118146770Y-66957399D01*
X118147377Y-66959332D01*
X118147898Y-66961288D01*
X118148329Y-66963262D01*
X118148669Y-66965253D01*
X118148914Y-66967257D01*
X118149064Y-66969271D01*
X118149114Y-66971292D01*
X118149061Y-67866589D01*
X118149011Y-67868611D01*
X118148861Y-67870627D01*
X118148615Y-67872632D01*
X118148274Y-67874626D01*
X118147841Y-67876604D01*
X118147319Y-67878563D01*
X118146711Y-67880501D01*
X118146018Y-67882414D01*
X118144388Y-67886154D01*
X118142450Y-67889759D01*
X118140225Y-67893205D01*
X118137730Y-67896467D01*
X118134987Y-67899522D01*
X118132016Y-67902345D01*
X118128835Y-67904911D01*
X118127172Y-67906091D01*
X118125464Y-67907197D01*
X118123714Y-67908227D01*
X118121924Y-67909178D01*
X118120097Y-67910047D01*
X118118235Y-67910830D01*
X118116340Y-67911525D01*
X118114415Y-67912129D01*
X118112462Y-67912638D01*
X118110485Y-67913050D01*
X117261966Y-68070954D01*
X117259973Y-68071363D01*
X117257974Y-68071865D01*
X117253974Y-68073135D01*
X117249991Y-68074741D01*
X117246051Y-68076659D01*
X117242180Y-68078866D01*
X117238404Y-68081338D01*
X117234749Y-68084053D01*
X117231241Y-68086987D01*
X117227907Y-68090118D01*
X117224771Y-68093420D01*
X117221860Y-68096873D01*
X117219200Y-68100451D01*
X117216817Y-68104133D01*
X117214737Y-68107894D01*
X117212986Y-68111712D01*
X117212242Y-68113634D01*
X117211589Y-68115562D01*
X116946689Y-68777285D01*
X116945049Y-68781049D01*
X116943682Y-68785035D01*
X116942583Y-68789209D01*
X116941752Y-68793536D01*
X116941185Y-68797982D01*
X116940880Y-68802512D01*
X116940834Y-68807092D01*
X116941046Y-68811688D01*
X116941513Y-68816264D01*
X116942233Y-68820786D01*
X116943202Y-68825220D01*
X116944419Y-68829531D01*
X116945881Y-68833685D01*
X116947586Y-68837648D01*
X116949532Y-68841384D01*
X116951716Y-68844860D01*
X117433681Y-69547223D01*
X117434779Y-69548916D01*
X117435791Y-69550661D01*
X117436719Y-69552452D01*
X117437561Y-69554286D01*
X117438319Y-69556159D01*
X117438993Y-69558067D01*
X117440090Y-69561974D01*
X117440855Y-69565976D01*
X117441289Y-69570041D01*
X117441398Y-69574139D01*
X117441182Y-69578239D01*
X117440644Y-69582309D01*
X117439789Y-69586320D01*
X117438618Y-69590239D01*
X117437133Y-69594037D01*
X117435339Y-69597681D01*
X117434327Y-69599437D01*
X117433238Y-69601142D01*
X117432073Y-69602794D01*
X117430832Y-69604388D01*
X117429516Y-69605921D01*
X117428124Y-69607389D01*
X116794977Y-70240431D01*
X116793514Y-70241818D01*
X116791986Y-70243129D01*
X116790396Y-70244366D01*
X116788749Y-70245527D01*
X116787049Y-70246613D01*
X116785298Y-70247622D01*
X116783501Y-70248555D01*
X116781662Y-70249410D01*
X116779785Y-70250189D01*
X116777873Y-70250890D01*
X116773961Y-70252058D01*
X116769957Y-70252912D01*
X116765892Y-70253449D01*
X116761797Y-70253665D01*
X116757702Y-70253559D01*
X116753638Y-70253127D01*
X116751627Y-70252788D01*
X116749636Y-70252367D01*
X116747668Y-70251863D01*
X116745727Y-70251276D01*
X116743817Y-70250605D01*
X116741941Y-70249851D01*
X116740104Y-70249012D01*
X116738310Y-70248089D01*
X116736561Y-70247081D01*
X116734863Y-70245988D01*
X116044936Y-69772436D01*
X116041467Y-69770286D01*
X116037751Y-69768399D01*
X116033821Y-69766777D01*
X116029712Y-69765421D01*
X116025457Y-69764330D01*
X116021091Y-69763508D01*
X116016647Y-69762953D01*
X116012161Y-69762667D01*
X116007665Y-69762650D01*
X116003193Y-69762905D01*
X115998781Y-69763430D01*
X115994461Y-69764228D01*
X115990268Y-69765300D01*
X115986236Y-69766645D01*
X115982398Y-69768265D01*
X115978790Y-69770161D01*
X115674519Y-69932615D01*
X115672704Y-69933485D01*
X115670874Y-69934250D01*
X115669031Y-69934910D01*
X115667179Y-69935468D01*
X115665320Y-69935924D01*
X115663459Y-69936280D01*
X115661598Y-69936537D01*
X115659741Y-69936695D01*
X115657890Y-69936757D01*
X115656049Y-69936724D01*
X115654221Y-69936595D01*
X115652409Y-69936374D01*
X115650617Y-69936060D01*
X115648847Y-69935656D01*
X115647103Y-69935162D01*
X115645389Y-69934580D01*
X115643706Y-69933910D01*
X115642059Y-69933154D01*
X115640451Y-69932313D01*
X115638884Y-69931389D01*
X115637363Y-69930382D01*
X115635889Y-69929294D01*
X115634467Y-69928125D01*
X115633100Y-69926878D01*
X115631791Y-69925553D01*
X115630542Y-69924151D01*
X115629358Y-69922674D01*
X115628242Y-69921123D01*
X115627195Y-69919499D01*
X115626223Y-69917803D01*
X115625328Y-69916036D01*
X115624513Y-69914200D01*
X114997133Y-68398296D01*
X114996403Y-68396410D01*
X114995768Y-68394496D01*
X114995229Y-68392556D01*
X114994784Y-68390595D01*
X114994431Y-68388617D01*
X114994169Y-68386624D01*
X114993916Y-68382609D01*
X114994014Y-68378582D01*
X114994453Y-68374569D01*
X114995225Y-68370600D01*
X114996319Y-68366705D01*
X114997727Y-68362911D01*
X114999438Y-68359247D01*
X115001444Y-68355743D01*
X115003733Y-68352427D01*
X115006298Y-68349328D01*
X115007681Y-68347869D01*
X115009129Y-68346475D01*
X115010641Y-68345150D01*
X115012215Y-68343897D01*
X115013851Y-68342720D01*
X115015548Y-68341622D01*
X115091695Y-68295003D01*
X115097191Y-68291512D01*
X115103051Y-68287528D01*
X115109168Y-68283137D01*
X115115435Y-68278426D01*
X115121743Y-68273482D01*
X115127987Y-68268392D01*
X115134058Y-68263242D01*
X115139849Y-68258120D01*
X115190248Y-68223617D01*
X115238349Y-68186154D01*
X115284020Y-68145864D01*
X115327130Y-68102876D01*
X115367547Y-68057320D01*
X115405140Y-68009328D01*
X115439777Y-67959029D01*
X115471326Y-67906555D01*
X115499656Y-67852035D01*
X115512573Y-67824050D01*
X115524635Y-67795601D01*
X115535828Y-67766707D01*
X115546133Y-67737383D01*
X115555535Y-67707646D01*
X115564017Y-67677512D01*
X115571562Y-67646997D01*
X115578155Y-67616117D01*
X115583779Y-67584889D01*
X115588417Y-67553330D01*
X115592053Y-67521455D01*
X115594671Y-67489281D01*
X115596253Y-67456824D01*
X115596785Y-67424100D01*
X115595496Y-67373148D01*
X115591672Y-67322864D01*
X115585375Y-67273312D01*
X115576667Y-67224553D01*
X115565610Y-67176649D01*
X115552267Y-67129664D01*
X115536699Y-67083658D01*
X115518970Y-67038695D01*
X115499140Y-66994836D01*
X115477273Y-66952144D01*
X115453431Y-66910680D01*
X115427676Y-66870508D01*
X115400070Y-66831689D01*
X115370675Y-66794285D01*
X115339554Y-66758359D01*
X115306768Y-66723973D01*
X115272381Y-66691189D01*
X115236454Y-66660069D01*
X115199050Y-66630676D01*
X115160230Y-66603071D01*
X115120057Y-66577318D01*
X115078594Y-66553477D01*
X115035902Y-66531612D01*
X114992044Y-66511784D01*
X114947082Y-66494056D01*
X114901078Y-66478490D01*
X114854094Y-66465148D01*
X114806193Y-66454092D01*
X114757437Y-66445385D01*
X114707888Y-66439088D01*
X114657609Y-66435265D01*
X114606661Y-66433977D01*
X114555713Y-66435265D01*
X114505434Y-66439088D01*
X114455886Y-66445385D01*
X114407131Y-66454092D01*
X114359231Y-66465148D01*
X114312249Y-66478490D01*
X114266247Y-66494056D01*
X114221286Y-66511784D01*
X114177430Y-66531612D01*
X114134740Y-66553477D01*
X114093279Y-66577318D01*
X114053109Y-66603071D01*
X114014291Y-66630676D01*
X113976889Y-66660069D01*
X113940965Y-66691189D01*
X113906580Y-66723973D01*
X113873797Y-66758359D01*
X113842678Y-66794285D01*
X113813286Y-66831689D01*
X113785682Y-66870508D01*
X113759929Y-66910680D01*
X113736089Y-66952144D01*
X113714224Y-66994836D01*
X113694397Y-67038695D01*
X113676669Y-67083658D01*
X113661103Y-67129664D01*
X113647761Y-67176649D01*
X113636706Y-67224553D01*
X113627998Y-67273312D01*
X113621702Y-67322864D01*
X113617879Y-67373148D01*
X113616590Y-67424100D01*
X113618703Y-67489281D01*
X113624955Y-67553330D01*
X113635215Y-67616117D01*
X113649351Y-67677512D01*
X113667231Y-67737383D01*
X113688725Y-67795601D01*
X113713702Y-67852035D01*
X113742029Y-67906555D01*
X113773576Y-67959029D01*
X113808212Y-68009328D01*
X113845804Y-68057320D01*
X113886222Y-68102875D01*
X113929335Y-68145864D01*
X113975010Y-68186154D01*
X114023118Y-68223617D01*
X114073526Y-68258120D01*
X114079284Y-68263242D01*
X114085334Y-68268392D01*
X114091565Y-68273483D01*
X114097867Y-68278427D01*
X114104129Y-68283138D01*
X114110241Y-68287528D01*
X114116093Y-68291512D01*
X114121574Y-68295003D01*
X114197721Y-68341622D01*
X114199408Y-68342720D01*
X114201036Y-68343897D01*
X114202603Y-68345150D01*
X114204108Y-68346475D01*
X114205549Y-68347869D01*
X114206927Y-68349328D01*
X114208238Y-68350849D01*
X114209483Y-68352427D01*
X114210660Y-68354060D01*
X114211768Y-68355743D01*
X114212805Y-68357473D01*
X114213770Y-68359247D01*
X114214663Y-68361061D01*
X114215481Y-68362911D01*
X114216224Y-68364793D01*
X114216890Y-68366705D01*
X114217479Y-68368642D01*
X114217988Y-68370600D01*
X114218417Y-68372577D01*
X114218765Y-68374569D01*
X114219030Y-68376572D01*
X114219211Y-68378582D01*
X114219306Y-68380595D01*
X114219316Y-68382609D01*
X114219238Y-68384620D01*
X114219071Y-68386624D01*
X114218814Y-68388617D01*
X114218466Y-68390595D01*
X114218025Y-68392556D01*
X114217491Y-68394496D01*
X114216861Y-68396410D01*
X114216136Y-68398296D01*
X113588809Y-69914253D01*
X113587994Y-69916089D01*
X113587099Y-69917855D01*
X113586127Y-69919550D01*
X113585082Y-69921173D01*
X113583967Y-69922723D01*
X113582784Y-69924199D01*
X113581537Y-69925599D01*
X113580229Y-69926923D01*
X113578863Y-69928169D01*
X113577443Y-69929335D01*
X113575971Y-69930422D01*
X113574452Y-69931427D01*
X113572887Y-69932350D01*
X113571280Y-69933189D01*
X113569634Y-69933944D01*
X113567953Y-69934612D01*
X113566239Y-69935194D01*
X113564497Y-69935687D01*
X113562728Y-69936090D01*
X113560936Y-69936403D01*
X113559125Y-69936624D01*
X113557297Y-69936753D01*
X113555455Y-69936787D01*
X113553603Y-69936726D01*
X113551745Y-69936568D01*
X113549882Y-69936313D01*
X113548019Y-69935959D01*
X113546158Y-69935505D01*
X113544303Y-69934950D01*
X113542456Y-69934293D01*
X113540622Y-69933533D01*
X113538802Y-69932667D01*
X113234532Y-69770214D01*
X113230915Y-69768317D01*
X113227071Y-69766695D01*
X113223034Y-69765348D01*
X113218839Y-69764274D01*
X113214518Y-69763472D01*
X113210105Y-69762943D01*
X113205635Y-69762686D01*
X113201141Y-69762699D01*
X113196657Y-69762983D01*
X113192217Y-69763537D01*
X113187854Y-69764359D01*
X113183603Y-69765451D01*
X113179496Y-69766810D01*
X113175569Y-69768436D01*
X113171854Y-69770330D01*
X113168386Y-69772489D01*
X112478406Y-70246040D01*
X112476712Y-70247133D01*
X112474968Y-70248141D01*
X112473177Y-70249064D01*
X112471343Y-70249903D01*
X112469470Y-70250658D01*
X112467562Y-70251328D01*
X112463656Y-70252420D01*
X112459656Y-70253180D01*
X112455593Y-70253611D01*
X112451498Y-70253718D01*
X112447403Y-70253501D01*
X112443338Y-70252965D01*
X112439334Y-70252111D01*
X112435424Y-70250943D01*
X112431636Y-70249463D01*
X112428004Y-70247674D01*
X112426255Y-70246665D01*
X112424557Y-70245580D01*
X112422913Y-70244418D01*
X112421327Y-70243182D01*
X112419803Y-70241870D01*
X112418345Y-70240483D01*
X111785197Y-69607442D01*
X111783801Y-69605974D01*
X111782480Y-69604441D01*
X111781235Y-69602847D01*
X111780066Y-69601195D01*
X111778974Y-69599489D01*
X111777958Y-69597734D01*
X111777019Y-69595933D01*
X111776158Y-69594089D01*
X111775375Y-69592208D01*
X111774670Y-69590292D01*
X111773496Y-69586372D01*
X111772638Y-69582362D01*
X111772100Y-69578291D01*
X111771885Y-69574191D01*
X111771995Y-69570093D01*
X111772433Y-69566028D01*
X111772776Y-69564018D01*
X111773202Y-69562027D01*
X111773711Y-69560059D01*
X111774304Y-69558120D01*
X111774981Y-69556211D01*
X111775743Y-69554338D01*
X111776589Y-69552504D01*
X111777521Y-69550713D01*
X111778538Y-69548969D01*
X111779641Y-69547275D01*
X112261659Y-68844912D01*
X112263824Y-68841437D01*
X112265755Y-68837700D01*
X112267449Y-68833738D01*
X112268903Y-68829584D01*
X112270113Y-68825272D01*
X112271079Y-68820838D01*
X112271796Y-68816316D01*
X112272262Y-68811740D01*
X112272475Y-68807145D01*
X112272431Y-68802565D01*
X112272128Y-68798035D01*
X112271563Y-68793589D01*
X112270734Y-68789262D01*
X112269638Y-68785088D01*
X112268272Y-68781101D01*
X112266633Y-68777338D01*
X112001732Y-68115615D01*
X112001076Y-68113687D01*
X112000328Y-68111764D01*
X111998574Y-68107947D01*
X111996494Y-68104186D01*
X111994115Y-68100504D01*
X111991461Y-68096926D01*
X111988558Y-68093473D01*
X111985432Y-68090170D01*
X111982107Y-68087040D01*
X111978609Y-68084106D01*
X111974963Y-68081391D01*
X111971196Y-68078918D01*
X111967331Y-68076711D01*
X111963394Y-68074793D01*
X111959412Y-68073188D01*
X111957411Y-68072509D01*
X111955408Y-68071917D01*
X111953406Y-68071415D01*
X111951409Y-68071006D01*
X111102890Y-67913103D01*
X111100917Y-67912691D01*
X111098968Y-67912181D01*
X111097047Y-67911578D01*
X111095155Y-67910883D01*
X111093295Y-67910099D01*
X111091470Y-67909231D01*
X111089682Y-67908280D01*
X111087933Y-67907250D01*
X111086226Y-67906143D01*
X111084564Y-67904964D01*
X111082948Y-67903714D01*
X111081382Y-67902397D01*
X111079869Y-67901017D01*
X111078409Y-67899575D01*
X111077007Y-67898075D01*
X111075664Y-67896520D01*
X111074383Y-67894913D01*
X111073167Y-67893258D01*
X111072018Y-67891556D01*
X111070938Y-67889812D01*
X111069930Y-67888027D01*
X111068997Y-67886207D01*
X111068141Y-67884352D01*
X111067364Y-67882466D01*
X111066670Y-67880553D01*
X111066060Y-67878616D01*
X111065536Y-67876656D01*
X111065103Y-67874679D01*
X111064761Y-67872685D01*
X111064514Y-67870679D01*
X111064364Y-67868664D01*
X111064313Y-67866642D01*
X111064208Y-66971345D01*
X111064254Y-66969319D01*
X111064399Y-66967300D01*
X111064641Y-66965292D01*
X111064978Y-66963297D01*
X111065406Y-66961319D01*
X111065925Y-66959360D01*
X111066530Y-66957423D01*
X111067220Y-66955512D01*
X111067992Y-66953629D01*
X111068844Y-66951776D01*
X111070776Y-66948177D01*
X111072996Y-66944737D01*
X111075486Y-66941480D01*
X111078223Y-66938430D01*
X111081190Y-66935609D01*
X111084366Y-66933042D01*
X111087730Y-66930752D01*
X111089477Y-66929718D01*
X111091264Y-66928762D01*
X111093087Y-66927888D01*
X111094946Y-66927097D01*
X111096837Y-66926393D01*
X111098758Y-66925778D01*
X111100706Y-66925257D01*
X111102678Y-66924831D01*
X111972575Y-66763065D01*
X111976563Y-66762138D01*
X111980572Y-66760860D01*
X111984574Y-66759254D01*
X111988545Y-66757343D01*
X111992457Y-66755148D01*
X111996284Y-66752693D01*
X112000000Y-66750000D01*
X112003578Y-66747091D01*
X112006991Y-66743990D01*
X112010214Y-66740718D01*
X112013219Y-66737298D01*
X112015981Y-66733754D01*
X112018472Y-66730106D01*
X112020668Y-66726379D01*
X112022540Y-66722594D01*
X112024063Y-66718774D01*
X112290710Y-66096686D01*
X112292437Y-66092961D01*
X112293888Y-66089014D01*
X112295066Y-66084879D01*
X112295972Y-66080588D01*
X112296609Y-66076177D01*
X112296980Y-66071680D01*
X112297085Y-66067130D01*
X112296928Y-66062561D01*
X112296510Y-66058008D01*
X112295834Y-66053504D01*
X112294902Y-66049084D01*
X112293716Y-66044782D01*
X112292279Y-66040631D01*
X112290591Y-66036666D01*
X112288657Y-66032920D01*
X112286477Y-66029429D01*
X111779641Y-65290712D01*
X111778547Y-65289019D01*
X111777538Y-65287275D01*
X111776614Y-65285484D01*
X111775773Y-65283651D01*
X111775016Y-65281779D01*
X111774343Y-65279873D01*
X111773246Y-65275969D01*
X111772480Y-65271971D01*
X111772041Y-65267911D01*
X111771929Y-65263817D01*
X111772140Y-65259723D01*
X111772672Y-65255657D01*
X111773523Y-65251651D01*
X111774691Y-65247736D01*
X111776173Y-65243943D01*
X111777967Y-65240301D01*
X111778980Y-65238547D01*
X111780071Y-65236843D01*
X111781238Y-65235192D01*
X111782481Y-65233599D01*
X111783801Y-65232066D01*
X111785197Y-65230599D01*
X112418239Y-64597557D01*
X112419706Y-64596160D01*
X112421238Y-64594840D01*
X112422831Y-64593595D01*
X112424481Y-64592426D01*
X112426184Y-64591333D01*
X112427937Y-64590318D01*
X112429735Y-64589379D01*
X112431575Y-64588518D01*
X112433453Y-64587734D01*
X112435364Y-64587029D01*
X112439275Y-64585855D01*
X112443276Y-64584998D01*
X112447337Y-64584460D01*
X112451427Y-64584244D01*
X112455515Y-64584354D01*
X112459571Y-64584792D01*
X112461578Y-64585135D01*
X112463565Y-64585561D01*
X112465528Y-64586070D01*
X112467465Y-64586663D01*
X112469371Y-64587341D01*
X112471241Y-64588102D01*
X112473073Y-64588949D01*
X112474863Y-64589880D01*
X112476606Y-64590897D01*
X112478299Y-64592000D01*
X113229981Y-65107832D01*
X113233458Y-65110006D01*
X113237197Y-65111941D01*
X113241164Y-65113637D01*
X113245324Y-65115089D01*
X113249642Y-65116296D01*
X113254083Y-65117256D01*
X113258611Y-65117965D01*
X113263193Y-65118422D01*
X113267792Y-65118624D01*
X113272375Y-65118569D01*
X113276905Y-65118254D01*
X113281349Y-65117677D01*
X113285671Y-65116836D01*
X113289836Y-65115727D01*
X113293809Y-65114350D01*
X113297556Y-65112700D01*
X113900594Y-64865844D01*
X113902512Y-64865162D01*
X113904424Y-64864389D01*
X113906327Y-64863528D01*
X113908218Y-64862582D01*
X113911956Y-64860449D01*
X113915613Y-64858017D01*
X113919168Y-64855310D01*
X113922597Y-64852356D01*
X113925879Y-64849180D01*
X113928990Y-64845809D01*
X113931909Y-64842268D01*
X113934612Y-64838584D01*
X113937077Y-64834784D01*
X113939282Y-64830892D01*
X113941203Y-64826935D01*
X113942819Y-64822940D01*
X113944107Y-64818932D01*
X113944620Y-64816932D01*
X113945044Y-64814938D01*
X114112525Y-63915196D01*
X114112942Y-63913219D01*
X114113455Y-63911266D01*
X114114061Y-63909341D01*
X114114758Y-63907446D01*
X114115543Y-63905584D01*
X114116412Y-63903757D01*
X114117363Y-63901967D01*
X114118392Y-63900217D01*
X114119497Y-63898509D01*
X114120675Y-63896846D01*
X114121923Y-63895231D01*
X114123237Y-63893665D01*
X114124615Y-63892152D01*
X114126053Y-63890694D01*
X114127550Y-63889292D01*
X114129101Y-63887951D01*
X114130704Y-63886671D01*
X114132356Y-63885457D01*
X114134053Y-63884309D01*
X114135794Y-63883231D01*
X114137574Y-63882225D01*
X114139391Y-63881293D01*
X114141242Y-63880439D01*
X114143124Y-63879664D01*
X114145034Y-63878970D01*
X114146968Y-63878362D01*
X114148925Y-63877840D01*
X114150901Y-63877407D01*
X114152892Y-63877067D01*
X114154897Y-63876820D01*
X114156911Y-63876670D01*
X114158933Y-63876620D01*
X115054283Y-63876620D01*
X115056300Y-63876670D01*
G37*
D10*
X103677681Y-68380078D02*
X103628042Y-68257375D01*
X104546434Y-66045277D02*
X104532450Y-66056255D01*
X107892533Y-68713582D02*
X107908509Y-68705422D01*
X109670554Y-67519888D02*
X109658590Y-67648788D01*
X106335743Y-66434116D02*
X106377709Y-66439449D01*
X106893611Y-64541234D02*
X107019888Y-64574055D01*
X105862063Y-64493496D02*
X105991006Y-64478578D01*
X104623883Y-68720981D02*
X104640717Y-68727595D01*
X108110098Y-64386878D02*
X108217188Y-64458905D01*
X106164271Y-66434116D02*
X106206856Y-66430878D01*
X109042703Y-67494277D02*
X109029311Y-67623551D01*
X104575977Y-66025353D02*
X104560951Y-66034969D01*
X104591489Y-66016454D02*
X104575977Y-66025353D01*
X105427386Y-65403602D02*
X105409207Y-65434219D01*
X105512670Y-66868632D02*
X105532862Y-66833516D01*
X107071516Y-67437327D02*
X107062153Y-67477896D01*
X107040575Y-63930808D02*
X107167399Y-63963414D01*
X106870713Y-66704514D02*
X106897069Y-66734940D01*
X103883434Y-64785883D02*
X104077102Y-64614783D01*
X106613550Y-68024187D02*
X106576406Y-68040979D01*
X104426937Y-68524039D02*
X104434336Y-68540455D01*
X109185927Y-65495110D02*
X109251920Y-65609348D01*
X106576406Y-66495684D02*
X106613550Y-66512477D01*
X108482575Y-68961078D02*
X108396225Y-69069222D01*
X107731665Y-65971875D02*
X107361248Y-65971875D01*
X107769642Y-65973780D02*
X107750782Y-65972355D01*
X106206856Y-68105786D02*
X106164271Y-68102548D01*
X107908509Y-66016454D02*
X107892533Y-66008294D01*
X102822363Y-67390424D02*
X102822913Y-67130366D01*
X105629302Y-67832150D02*
X105602946Y-67801723D01*
X106649707Y-66530995D02*
X106684822Y-66551186D01*
X107087461Y-67311483D02*
X107084223Y-67354068D01*
X104768334Y-65971875D02*
X104749216Y-65972355D01*
X104607466Y-66008294D02*
X104591489Y-66016454D01*
X104607466Y-68713582D02*
X104623883Y-68720981D01*
X106824482Y-65231588D02*
X106805625Y-65231046D01*
X105421124Y-67140630D02*
X105428498Y-67099336D01*
X105716616Y-67915393D02*
X105686189Y-67889037D01*
X105536019Y-65279989D02*
X105523372Y-65289565D01*
X106813825Y-66647626D02*
X106842947Y-66675392D01*
X106897069Y-67801723D02*
X106870713Y-67832150D01*
X108006077Y-66092979D02*
X107993827Y-66080129D01*
X107924022Y-68696523D02*
X107939048Y-68686908D01*
X107993827Y-68641748D02*
X108006077Y-68628898D01*
X105323962Y-65601463D02*
X105138751Y-65971875D01*
X105480122Y-64574055D02*
X105606398Y-64541234D01*
X106782225Y-63880051D02*
X106912144Y-63902993D01*
X107062153Y-67477896D02*
X107050853Y-67517688D01*
X107078890Y-67140630D02*
X107084223Y-67182596D01*
X107144831Y-64612842D02*
X107268218Y-64657597D01*
X108920431Y-69420714D02*
X108835654Y-69521799D01*
X107788222Y-68745747D02*
X107806499Y-68742500D01*
X106538326Y-66480670D02*
X106576406Y-66495684D01*
X105462345Y-67556651D02*
X105449162Y-67517688D01*
X104532450Y-68665622D02*
X104546434Y-68676600D01*
X106876695Y-65239434D02*
X106859990Y-65235817D01*
X107142194Y-65532849D02*
X107108305Y-65466153D01*
X104532450Y-66056255D02*
X104519021Y-66067880D01*
X107050853Y-67517688D02*
X107037669Y-67556651D01*
X107892533Y-66008294D02*
X107876116Y-66000895D01*
X104399822Y-68417566D02*
X104402170Y-68436146D01*
X105961688Y-68055994D02*
X105923609Y-68040979D01*
X108984488Y-67880255D02*
X108953032Y-68007242D01*
X105138751Y-65971875D02*
X104768334Y-65971875D01*
X109677652Y-67390426D02*
X109670554Y-67519888D01*
X105886464Y-68024187D02*
X105850308Y-68005668D01*
X109279483Y-68876415D02*
X109216441Y-68989997D01*
X105421124Y-67396033D02*
X105415791Y-67354068D01*
X106783399Y-67915393D02*
X106751721Y-67940287D01*
X107859281Y-68727595D02*
X107876116Y-68720981D01*
X108953032Y-68007242D02*
X108915527Y-68133023D01*
X109009911Y-67752284D02*
X108984488Y-67880255D01*
X108102082Y-66342292D02*
X108101601Y-66323174D01*
X105675522Y-65231588D02*
X105657410Y-65233190D01*
X104990573Y-64765008D02*
X105110182Y-64708319D01*
X103664361Y-69521799D02*
X103499079Y-69316853D01*
X104398397Y-68398706D02*
X104399822Y-68417566D01*
X107415761Y-64042671D02*
X107537063Y-64089157D01*
X108097829Y-68436146D02*
X108100176Y-68417566D01*
X109041847Y-65275914D02*
X109115863Y-65383939D01*
X106250007Y-66429787D02*
X106293159Y-66430878D01*
X109371228Y-65846691D02*
X109424307Y-65969633D01*
X104017429Y-68961078D02*
X103937229Y-68849953D01*
X107842051Y-68733401D02*
X107859281Y-68727595D01*
X105981625Y-63849115D02*
X106250007Y-63838657D01*
D12*
X105684780Y-69238715D02*
X105710921Y-69240220D01*
X105736793Y-69242728D01*
X105762394Y-69246240D01*
X105787725Y-69250754D01*
X105812786Y-69256272D01*
X105837577Y-69262793D01*
X105862097Y-69270317D01*
X105886348Y-69278844D01*
X105910328Y-69288374D01*
X105934039Y-69298908D01*
X105957479Y-69310444D01*
X105980649Y-69322984D01*
X106003549Y-69336527D01*
X106026179Y-69351073D01*
X106048539Y-69366622D01*
X106060887Y-69262903D01*
X106428837Y-69262903D01*
X106428831Y-70433424D01*
X106041127Y-70433424D01*
X106041127Y-69638265D01*
X106027266Y-69625406D01*
X106013462Y-69613377D01*
X105999717Y-69602177D01*
X105986029Y-69591806D01*
X105972399Y-69582266D01*
X105958827Y-69573555D01*
X105945313Y-69565673D01*
X105931856Y-69558621D01*
X105918457Y-69552399D01*
X105905116Y-69547007D01*
X105891833Y-69542444D01*
X105878608Y-69538710D01*
X105865441Y-69535807D01*
X105852331Y-69533733D01*
X105839280Y-69532488D01*
X105826286Y-69532073D01*
X105815993Y-69532237D01*
X105806106Y-69532730D01*
X105796624Y-69533550D01*
X105787547Y-69534698D01*
X105778875Y-69536174D01*
X105770608Y-69537979D01*
X105762746Y-69540112D01*
X105755290Y-69542572D01*
X105748239Y-69545361D01*
X105741592Y-69548478D01*
X105738421Y-69550160D01*
X105735352Y-69551923D01*
X105732383Y-69553769D01*
X105729516Y-69555697D01*
X105726750Y-69557706D01*
X105724085Y-69559798D01*
X105721522Y-69561972D01*
X105719060Y-69564228D01*
X105716699Y-69566566D01*
X105714440Y-69568986D01*
X105712282Y-69571488D01*
X105710225Y-69574072D01*
X105706338Y-69579522D01*
X105702701Y-69585378D01*
X105699316Y-69591639D01*
X105696181Y-69598305D01*
X105693297Y-69605377D01*
X105690663Y-69612853D01*
X105688281Y-69620734D01*
X105686149Y-69629021D01*
X105684268Y-69637712D01*
X105682637Y-69646809D01*
X105681258Y-69656311D01*
X105680129Y-69666217D01*
X105679251Y-69676529D01*
X105678624Y-69687245D01*
X105678248Y-69698367D01*
X105678122Y-69709893D01*
X105678122Y-70433440D01*
X105307705Y-70433440D01*
X105307705Y-69732115D01*
X105307821Y-69714171D01*
X105308168Y-69697385D01*
X105308747Y-69681757D01*
X105309557Y-69667287D01*
X105310598Y-69653976D01*
X105311871Y-69641822D01*
X105313376Y-69630826D01*
X105315113Y-69620989D01*
X105310425Y-69615824D01*
X105305621Y-69610814D01*
X105300701Y-69605957D01*
X105295666Y-69601254D01*
X105290514Y-69596704D01*
X105285247Y-69592308D01*
X105279865Y-69588066D01*
X105274366Y-69583978D01*
X105268752Y-69580043D01*
X105263022Y-69576262D01*
X105257177Y-69572634D01*
X105251215Y-69569160D01*
X105245138Y-69565840D01*
X105238946Y-69562673D01*
X105232638Y-69559660D01*
X105226214Y-69556800D01*
X105219404Y-69553808D01*
X105212556Y-69551008D01*
X105205669Y-69548402D01*
X105198743Y-69545988D01*
X105191779Y-69543768D01*
X105184776Y-69541741D01*
X105177735Y-69539907D01*
X105170654Y-69538266D01*
X105163535Y-69536819D01*
X105156378Y-69535564D01*
X105149181Y-69534502D01*
X105141946Y-69533634D01*
X105134673Y-69532958D01*
X105127360Y-69532475D01*
X105120009Y-69532186D01*
X105112620Y-69532089D01*
X105101401Y-69532263D01*
X105090587Y-69532784D01*
X105080178Y-69533652D01*
X105070175Y-69534867D01*
X105060577Y-69536430D01*
X105051384Y-69538340D01*
X105042596Y-69540597D01*
X105034213Y-69543201D01*
X105026236Y-69546153D01*
X105018663Y-69549452D01*
X105011496Y-69553098D01*
X105004734Y-69557092D01*
X104998377Y-69561432D01*
X104992426Y-69566121D01*
X104986879Y-69571156D01*
X104981738Y-69576539D01*
X104976655Y-69581999D01*
X104971900Y-69587884D01*
X104967472Y-69594193D01*
X104963373Y-69600926D01*
X104959602Y-69608084D01*
X104956158Y-69615666D01*
X104953043Y-69623673D01*
X104950255Y-69632104D01*
X104947796Y-69640959D01*
X104945664Y-69650239D01*
X104943860Y-69659943D01*
X104942385Y-69670072D01*
X104941237Y-69680626D01*
X104940417Y-69691604D01*
X104939925Y-69703006D01*
X104939761Y-69714833D01*
X104939761Y-70433440D01*
X104547117Y-70433440D01*
X104547117Y-69667911D01*
X104547502Y-69641180D01*
X104548660Y-69615318D01*
X104550589Y-69590324D01*
X104553290Y-69566198D01*
X104556763Y-69542940D01*
X104561007Y-69520551D01*
X104566023Y-69499030D01*
X104571811Y-69478377D01*
X104578370Y-69458593D01*
X104585701Y-69439676D01*
X104593804Y-69421628D01*
X104602679Y-69404448D01*
X104612326Y-69388137D01*
X104622744Y-69372693D01*
X104633934Y-69358118D01*
X104645896Y-69344411D01*
X104658350Y-69331553D01*
X104671634Y-69319524D01*
X104685747Y-69308325D01*
X104700689Y-69297956D01*
X104716461Y-69288416D01*
X104733063Y-69279706D01*
X104750494Y-69271825D01*
X104768754Y-69264774D01*
X104787845Y-69258553D01*
X104807764Y-69253161D01*
X104828513Y-69248599D01*
X104850092Y-69244866D01*
X104872500Y-69241963D01*
X104895737Y-69239889D01*
X104919805Y-69238645D01*
X104944701Y-69238230D01*
X104976995Y-69238808D01*
X104992824Y-69239532D01*
X105008441Y-69240544D01*
X105023846Y-69241846D01*
X105039039Y-69243437D01*
X105054020Y-69245317D01*
X105068788Y-69247487D01*
X105083344Y-69249946D01*
X105097688Y-69252694D01*
X105111820Y-69255732D01*
X105125740Y-69259059D01*
X105139448Y-69262676D01*
X105152943Y-69266581D01*
X105166226Y-69270777D01*
X105179297Y-69275261D01*
X105191905Y-69279701D01*
X105204416Y-69284371D01*
X105216831Y-69289273D01*
X105229149Y-69294406D01*
X105241371Y-69299770D01*
X105253496Y-69305366D01*
X105265525Y-69311193D01*
X105277458Y-69317251D01*
X105289294Y-69323540D01*
X105301033Y-69330060D01*
X105312676Y-69336812D01*
X105324222Y-69343795D01*
X105335672Y-69351010D01*
X105347025Y-69358455D01*
X105369442Y-69374040D01*
X105374497Y-69365832D01*
X105379783Y-69357875D01*
X105385301Y-69350169D01*
X105391050Y-69342713D01*
X105397030Y-69335508D01*
X105403243Y-69328553D01*
X105409686Y-69321849D01*
X105416361Y-69315396D01*
X105423268Y-69309194D01*
X105430406Y-69303242D01*
X105437776Y-69297541D01*
X105445377Y-69292090D01*
X105453210Y-69286890D01*
X105461274Y-69281941D01*
X105469570Y-69277242D01*
X105478097Y-69272794D01*
X105486614Y-69268606D01*
X105495498Y-69264689D01*
X105504749Y-69261041D01*
X105514367Y-69257664D01*
X105524351Y-69254557D01*
X105534701Y-69251721D01*
X105545418Y-69249154D01*
X105556502Y-69246858D01*
X105567952Y-69244832D01*
X105579769Y-69243076D01*
X105591953Y-69241590D01*
X105604503Y-69240375D01*
X105617419Y-69239429D01*
X105630702Y-69238754D01*
X105644352Y-69238349D01*
X105658368Y-69238214D01*
X105684780Y-69238715D01*
G36*
X105684780Y-69238715D02*
G01*
X105710921Y-69240220D01*
X105736793Y-69242728D01*
X105762394Y-69246240D01*
X105787725Y-69250754D01*
X105812786Y-69256272D01*
X105837577Y-69262793D01*
X105862097Y-69270317D01*
X105886348Y-69278844D01*
X105910328Y-69288374D01*
X105934039Y-69298908D01*
X105957479Y-69310444D01*
X105980649Y-69322984D01*
X106003549Y-69336527D01*
X106026179Y-69351073D01*
X106048539Y-69366622D01*
X106060887Y-69262903D01*
X106428837Y-69262903D01*
X106428831Y-70433424D01*
X106041127Y-70433424D01*
X106041127Y-69638265D01*
X106027266Y-69625406D01*
X106013462Y-69613377D01*
X105999717Y-69602177D01*
X105986029Y-69591806D01*
X105972399Y-69582266D01*
X105958827Y-69573555D01*
X105945313Y-69565673D01*
X105931856Y-69558621D01*
X105918457Y-69552399D01*
X105905116Y-69547007D01*
X105891833Y-69542444D01*
X105878608Y-69538710D01*
X105865441Y-69535807D01*
X105852331Y-69533733D01*
X105839280Y-69532488D01*
X105826286Y-69532073D01*
X105815993Y-69532237D01*
X105806106Y-69532730D01*
X105796624Y-69533550D01*
X105787547Y-69534698D01*
X105778875Y-69536174D01*
X105770608Y-69537979D01*
X105762746Y-69540112D01*
X105755290Y-69542572D01*
X105748239Y-69545361D01*
X105741592Y-69548478D01*
X105738421Y-69550160D01*
X105735352Y-69551923D01*
X105732383Y-69553769D01*
X105729516Y-69555697D01*
X105726750Y-69557706D01*
X105724085Y-69559798D01*
X105721522Y-69561972D01*
X105719060Y-69564228D01*
X105716699Y-69566566D01*
X105714440Y-69568986D01*
X105712282Y-69571488D01*
X105710225Y-69574072D01*
X105706338Y-69579522D01*
X105702701Y-69585378D01*
X105699316Y-69591639D01*
X105696181Y-69598305D01*
X105693297Y-69605377D01*
X105690663Y-69612853D01*
X105688281Y-69620734D01*
X105686149Y-69629021D01*
X105684268Y-69637712D01*
X105682637Y-69646809D01*
X105681258Y-69656311D01*
X105680129Y-69666217D01*
X105679251Y-69676529D01*
X105678624Y-69687245D01*
X105678248Y-69698367D01*
X105678122Y-69709893D01*
X105678122Y-70433440D01*
X105307705Y-70433440D01*
X105307705Y-69732115D01*
X105307821Y-69714171D01*
X105308168Y-69697385D01*
X105308747Y-69681757D01*
X105309557Y-69667287D01*
X105310598Y-69653976D01*
X105311871Y-69641822D01*
X105313376Y-69630826D01*
X105315113Y-69620989D01*
X105310425Y-69615824D01*
X105305621Y-69610814D01*
X105300701Y-69605957D01*
X105295666Y-69601254D01*
X105290514Y-69596704D01*
X105285247Y-69592308D01*
X105279865Y-69588066D01*
X105274366Y-69583978D01*
X105268752Y-69580043D01*
X105263022Y-69576262D01*
X105257177Y-69572634D01*
X105251215Y-69569160D01*
X105245138Y-69565840D01*
X105238946Y-69562673D01*
X105232638Y-69559660D01*
X105226214Y-69556800D01*
X105219404Y-69553808D01*
X105212556Y-69551008D01*
X105205669Y-69548402D01*
X105198743Y-69545988D01*
X105191779Y-69543768D01*
X105184776Y-69541741D01*
X105177735Y-69539907D01*
X105170654Y-69538266D01*
X105163535Y-69536819D01*
X105156378Y-69535564D01*
X105149181Y-69534502D01*
X105141946Y-69533634D01*
X105134673Y-69532958D01*
X105127360Y-69532475D01*
X105120009Y-69532186D01*
X105112620Y-69532089D01*
X105101401Y-69532263D01*
X105090587Y-69532784D01*
X105080178Y-69533652D01*
X105070175Y-69534867D01*
X105060577Y-69536430D01*
X105051384Y-69538340D01*
X105042596Y-69540597D01*
X105034213Y-69543201D01*
X105026236Y-69546153D01*
X105018663Y-69549452D01*
X105011496Y-69553098D01*
X105004734Y-69557092D01*
X104998377Y-69561432D01*
X104992426Y-69566121D01*
X104986879Y-69571156D01*
X104981738Y-69576539D01*
X104976655Y-69581999D01*
X104971900Y-69587884D01*
X104967472Y-69594193D01*
X104963373Y-69600926D01*
X104959602Y-69608084D01*
X104956158Y-69615666D01*
X104953043Y-69623673D01*
X104950255Y-69632104D01*
X104947796Y-69640959D01*
X104945664Y-69650239D01*
X104943860Y-69659943D01*
X104942385Y-69670072D01*
X104941237Y-69680626D01*
X104940417Y-69691604D01*
X104939925Y-69703006D01*
X104939761Y-69714833D01*
X104939761Y-70433440D01*
X104547117Y-70433440D01*
X104547117Y-69667911D01*
X104547502Y-69641180D01*
X104548660Y-69615318D01*
X104550589Y-69590324D01*
X104553290Y-69566198D01*
X104556763Y-69542940D01*
X104561007Y-69520551D01*
X104566023Y-69499030D01*
X104571811Y-69478377D01*
X104578370Y-69458593D01*
X104585701Y-69439676D01*
X104593804Y-69421628D01*
X104602679Y-69404448D01*
X104612326Y-69388137D01*
X104622744Y-69372693D01*
X104633934Y-69358118D01*
X104645896Y-69344411D01*
X104658350Y-69331553D01*
X104671634Y-69319524D01*
X104685747Y-69308325D01*
X104700689Y-69297956D01*
X104716461Y-69288416D01*
X104733063Y-69279706D01*
X104750494Y-69271825D01*
X104768754Y-69264774D01*
X104787845Y-69258553D01*
X104807764Y-69253161D01*
X104828513Y-69248599D01*
X104850092Y-69244866D01*
X104872500Y-69241963D01*
X104895737Y-69239889D01*
X104919805Y-69238645D01*
X104944701Y-69238230D01*
X104976995Y-69238808D01*
X104992824Y-69239532D01*
X105008441Y-69240544D01*
X105023846Y-69241846D01*
X105039039Y-69243437D01*
X105054020Y-69245317D01*
X105068788Y-69247487D01*
X105083344Y-69249946D01*
X105097688Y-69252694D01*
X105111820Y-69255732D01*
X105125740Y-69259059D01*
X105139448Y-69262676D01*
X105152943Y-69266581D01*
X105166226Y-69270777D01*
X105179297Y-69275261D01*
X105191905Y-69279701D01*
X105204416Y-69284371D01*
X105216831Y-69289273D01*
X105229149Y-69294406D01*
X105241371Y-69299770D01*
X105253496Y-69305366D01*
X105265525Y-69311193D01*
X105277458Y-69317251D01*
X105289294Y-69323540D01*
X105301033Y-69330060D01*
X105312676Y-69336812D01*
X105324222Y-69343795D01*
X105335672Y-69351010D01*
X105347025Y-69358455D01*
X105369442Y-69374040D01*
X105374497Y-69365832D01*
X105379783Y-69357875D01*
X105385301Y-69350169D01*
X105391050Y-69342713D01*
X105397030Y-69335508D01*
X105403243Y-69328553D01*
X105409686Y-69321849D01*
X105416361Y-69315396D01*
X105423268Y-69309194D01*
X105430406Y-69303242D01*
X105437776Y-69297541D01*
X105445377Y-69292090D01*
X105453210Y-69286890D01*
X105461274Y-69281941D01*
X105469570Y-69277242D01*
X105478097Y-69272794D01*
X105486614Y-69268606D01*
X105495498Y-69264689D01*
X105504749Y-69261041D01*
X105514367Y-69257664D01*
X105524351Y-69254557D01*
X105534701Y-69251721D01*
X105545418Y-69249154D01*
X105556502Y-69246858D01*
X105567952Y-69244832D01*
X105579769Y-69243076D01*
X105591953Y-69241590D01*
X105604503Y-69240375D01*
X105617419Y-69239429D01*
X105630702Y-69238754D01*
X105644352Y-69238349D01*
X105658368Y-69238214D01*
X105684780Y-69238715D01*
G37*
D10*
X107084223Y-67182596D02*
X107087461Y-67225180D01*
X109251920Y-65609348D02*
X109313726Y-65726569D01*
X105850308Y-66530995D02*
X105886464Y-66512477D01*
X105657410Y-65233190D02*
X105640014Y-65235817D01*
X107088552Y-67268332D02*
X107087461Y-67311483D01*
X109000936Y-69316853D02*
X108920431Y-69420714D01*
X104519021Y-68653997D02*
X104532450Y-68665622D01*
X105554673Y-67737169D02*
X105532862Y-67703147D01*
X107967548Y-68665622D02*
X107980977Y-68653997D01*
X105415791Y-67354068D02*
X105412553Y-67311483D01*
X105459440Y-63930808D02*
X105717790Y-63880051D01*
X103628042Y-68257375D02*
X103584477Y-68133023D01*
X107361248Y-65971875D02*
X107176042Y-65601463D01*
X106250007Y-63838657D02*
X106384708Y-63841285D01*
X105781170Y-67963666D02*
X105748293Y-67940287D01*
X105428498Y-67437327D02*
X105421124Y-67396033D01*
X104077102Y-64614783D02*
X104282827Y-64458902D01*
X108065663Y-68540455D02*
X108073062Y-68524039D01*
X107626823Y-64827665D02*
X107741765Y-64896289D01*
X104045455Y-69895612D02*
X103846585Y-69715088D01*
X104229046Y-65327847D02*
X104327368Y-65230459D01*
X102841424Y-67648786D02*
X102822363Y-67390424D01*
X105657067Y-66675392D02*
X105686189Y-66647626D01*
X108531297Y-65641175D02*
X108606488Y-65751933D01*
X104591489Y-68705422D02*
X104607466Y-68713582D01*
X109679847Y-67260540D02*
X109677652Y-67390426D01*
X107011866Y-65322424D02*
X107000546Y-65310817D01*
X104405416Y-66267457D02*
X104402170Y-66285734D01*
X106921963Y-66766618D02*
X106945342Y-66799494D01*
X105716616Y-66621270D02*
X105748293Y-66596376D01*
X107939048Y-68686908D02*
X107953564Y-68676600D01*
X108017702Y-68615470D02*
X108028680Y-68601486D01*
X104409539Y-66249507D02*
X104405416Y-66267457D01*
X105591857Y-65249502D02*
X105577055Y-65255882D01*
X105462345Y-66980013D02*
X105477360Y-66941933D01*
X104420322Y-66214675D02*
X104414516Y-66231905D01*
X104282827Y-64458902D02*
X104499669Y-64318900D01*
X103584477Y-68133023D02*
X103546973Y-68007242D01*
X109338067Y-68760749D02*
X109279483Y-68876415D01*
X104536583Y-65051439D02*
X104645969Y-64970881D01*
X108079676Y-66214675D02*
X108073062Y-66197841D01*
X105549164Y-65271160D02*
X105536019Y-65279989D01*
X104414516Y-66231905D02*
X104409539Y-66249507D01*
X105815192Y-66551186D02*
X105850308Y-66530995D01*
X107731665Y-68750000D02*
X107750782Y-68749520D01*
X107167399Y-63963414D02*
X107292500Y-64000729D01*
X109620214Y-67904346D02*
X109562818Y-68155995D01*
X105686189Y-66647626D02*
X105716616Y-66621270D01*
X106040443Y-68080477D02*
X106000651Y-68069177D01*
X103702760Y-64971547D02*
X103883434Y-64785883D01*
X108101601Y-66323174D02*
X108100176Y-66304314D01*
X106718845Y-67963666D02*
X106684822Y-67985477D01*
X105428498Y-67099336D02*
X105437862Y-67058767D01*
X104499669Y-64318900D02*
X104726690Y-64195432D01*
X106419003Y-66446823D02*
X106459572Y-66456186D01*
X105606398Y-64541234D02*
X105733786Y-64514381D01*
X106718845Y-66572997D02*
X106751721Y-66596376D01*
X105815192Y-67985477D02*
X105781170Y-67963666D01*
X105355178Y-64612842D02*
X105480122Y-64574055D01*
X104758244Y-64896289D02*
X104873186Y-64827665D01*
X109392156Y-68643137D02*
X109338067Y-68760749D01*
X104451395Y-66149935D02*
X104442496Y-66165447D01*
X107876116Y-66000895D02*
X107859281Y-65994280D01*
X107037669Y-66980013D02*
X107050853Y-67018975D01*
X107854040Y-64970881D02*
X107963426Y-65051439D01*
X108848972Y-66220619D02*
X108894959Y-66343095D01*
X104640717Y-65994280D02*
X104623883Y-66000895D01*
X107078890Y-67396033D02*
X107071516Y-67437327D01*
X104645969Y-64970881D02*
X104758244Y-64896289D01*
X108746642Y-69619970D02*
X108653430Y-69715088D01*
X107750782Y-68749520D02*
X107769642Y-68748094D01*
X107022655Y-66941933D02*
X107037669Y-66980013D01*
X106922949Y-65255882D02*
X106908147Y-65249502D01*
X104546434Y-68676600D02*
X104560951Y-68686908D01*
X107509437Y-64765008D02*
X107626823Y-64827665D01*
X106122306Y-68097215D02*
X106081012Y-68089840D01*
X108069701Y-65137965D02*
X108172641Y-65230459D01*
X107953564Y-66045277D02*
X107939048Y-66034969D01*
X106987344Y-66868632D02*
X107005862Y-66904789D01*
X106842947Y-66675392D02*
X106870713Y-66704514D01*
X106945342Y-66799494D02*
X106967153Y-66833516D01*
X105494152Y-67631875D02*
X105477360Y-67594730D01*
X108085483Y-66231905D02*
X108079676Y-66214675D01*
X103564940Y-66467250D02*
X103605047Y-66343095D01*
X105466631Y-65347425D02*
X105446454Y-65374577D01*
X106384708Y-63841285D02*
X106518389Y-63849115D01*
X106649707Y-68005668D02*
X106613550Y-68024187D01*
X105554673Y-66799494D02*
X105578052Y-66766618D01*
X106000651Y-66467486D02*
X106040443Y-66456186D01*
X104397917Y-66342292D02*
X104397917Y-68379588D01*
X104409539Y-68472373D02*
X104414516Y-68489974D01*
X107773324Y-64195433D02*
X107888049Y-64255060D01*
X109115863Y-65383939D02*
X109185927Y-65495110D01*
X107005862Y-67631875D02*
X106987344Y-67668031D01*
X103449906Y-67364684D02*
X103448494Y-67234995D01*
X108675864Y-65865478D02*
X108739412Y-65981588D01*
X109638854Y-66739522D02*
X109656642Y-66869721D01*
X108969280Y-66592861D02*
X108997589Y-66719706D01*
X106937171Y-65263113D02*
X106922949Y-65255882D01*
X106684822Y-67985477D02*
X106649707Y-68005668D01*
X109669379Y-67000049D02*
X109677101Y-67130368D01*
X105562833Y-65263113D02*
X105549164Y-65271160D01*
X103863167Y-68736068D02*
X103795230Y-68619646D01*
X104414516Y-68489974D02*
X104420322Y-68507204D01*
X107924022Y-66025353D02*
X107908509Y-66016454D01*
X107292500Y-64000729D02*
X107415761Y-64042671D01*
X104471319Y-68601486D02*
X104482297Y-68615470D01*
X104749216Y-68749520D02*
X104768334Y-68750000D01*
X107090797Y-65434219D02*
X107072618Y-65403602D01*
X105231791Y-64657597D02*
X105355178Y-64612842D01*
X106379615Y-64469627D02*
X106509003Y-64478578D01*
X108556057Y-69807015D02*
X108454560Y-69895612D01*
X104482297Y-66106408D02*
X104471319Y-66120392D01*
X108422912Y-64614786D02*
X108521312Y-64698475D01*
X105961688Y-66480670D02*
X106000651Y-66467486D01*
X108097829Y-66285734D02*
X108094582Y-66267457D01*
X104426937Y-66197841D02*
X104420322Y-66214675D01*
X105437862Y-67058767D02*
X105449162Y-67018975D01*
X109077130Y-69210354D02*
X109000936Y-69316853D01*
X106206856Y-66430878D02*
X106250007Y-66429787D01*
X104405416Y-68454422D02*
X104409539Y-68472373D01*
X103515516Y-67880255D02*
X103490094Y-67752284D01*
X108653430Y-69715088D02*
X108556057Y-69807015D01*
X108217188Y-64458905D02*
X108321498Y-64534902D01*
X104711776Y-65976128D02*
X104693499Y-65979374D01*
X108094582Y-68454422D02*
X108097829Y-68436146D01*
X108073062Y-66197841D02*
X108065663Y-66181424D01*
X104711776Y-68745747D02*
X104730356Y-68748094D01*
X104693499Y-65979374D02*
X104675549Y-65983497D01*
X109029311Y-67623551D02*
X109009911Y-67752284D01*
X108102082Y-68379588D02*
X108102082Y-66342292D01*
X106293159Y-68105786D02*
X106250007Y-68106877D01*
X107022800Y-65334639D02*
X107011866Y-65322424D01*
X104640717Y-68727595D02*
X104657947Y-68733401D01*
X108101601Y-68398706D02*
X108102082Y-68379588D01*
X103351038Y-69101356D02*
X103220532Y-68876415D01*
X106908147Y-65249502D02*
X106892739Y-65244008D01*
X104623883Y-66000895D02*
X104607466Y-66008294D01*
X108450304Y-65533427D02*
X108531297Y-65641175D01*
X107750782Y-65972355D02*
X107731665Y-65971875D01*
X105415791Y-67182596D02*
X105421124Y-67140630D01*
X105781170Y-66572997D02*
X105815192Y-66551186D01*
X103027168Y-66095306D02*
X103128787Y-65846686D01*
X107908509Y-68705422D02*
X107924022Y-68696523D01*
X107806499Y-65979374D02*
X107788222Y-65976128D01*
X106120394Y-64469627D02*
X106250005Y-64466643D01*
X108090459Y-66249507D02*
X108085483Y-66231905D01*
X106987344Y-67668031D02*
X106967153Y-67703147D01*
X106921963Y-67770046D02*
X106897069Y-67801723D01*
X104730356Y-65973780D02*
X104711776Y-65976128D01*
X108172641Y-65230459D02*
X108270963Y-65327847D01*
X104693499Y-68742500D02*
X104711776Y-68745747D01*
X108636837Y-68736068D02*
X108562775Y-68849953D01*
X107656290Y-64140105D02*
X107773324Y-64195433D01*
X106499364Y-68069177D02*
X106459572Y-68080477D01*
X107389828Y-64708319D02*
X107509437Y-64765008D01*
X105532862Y-66833516D02*
X105554673Y-66799494D01*
X104461011Y-68586969D02*
X104471319Y-68601486D01*
X103499079Y-69316853D02*
X103351038Y-69101356D01*
X107050853Y-67018975D02*
X107062153Y-67058767D01*
X106813825Y-67889037D02*
X106783399Y-67915393D01*
X105449162Y-67517688D02*
X105437862Y-67477896D01*
X108935066Y-66467250D02*
X108969280Y-66592861D01*
X108797119Y-66100043D02*
X108848972Y-66220619D01*
X104442496Y-66165447D02*
X104434336Y-66181424D01*
X106164271Y-68102548D02*
X106122306Y-68097215D01*
X104657947Y-65988474D02*
X104640717Y-65994280D01*
X105602946Y-67801723D02*
X105578052Y-67770046D01*
X103453052Y-67105430D02*
X103463567Y-66976213D01*
X103795230Y-68619646D02*
X103733406Y-68500909D01*
X103128787Y-65846686D02*
X103248095Y-65609343D01*
X108028680Y-68601486D02*
X108038988Y-68586969D01*
D12*
X107078304Y-70063007D02*
X107083937Y-70068808D01*
X107089725Y-70074474D01*
X107095667Y-70080004D01*
X107101764Y-70085398D01*
X107108014Y-70090657D01*
X107114419Y-70095781D01*
X107120979Y-70100769D01*
X107127692Y-70105621D01*
X107134560Y-70110338D01*
X107141582Y-70114920D01*
X107148759Y-70119366D01*
X107156090Y-70123676D01*
X107163575Y-70127851D01*
X107171215Y-70131891D01*
X107179009Y-70135795D01*
X107186958Y-70139564D01*
X107195003Y-70142853D01*
X107203087Y-70145931D01*
X107211209Y-70148795D01*
X107219370Y-70151448D01*
X107227569Y-70153888D01*
X107235807Y-70156117D01*
X107244084Y-70158133D01*
X107252399Y-70159936D01*
X107260752Y-70161528D01*
X107269144Y-70162907D01*
X107277575Y-70164074D01*
X107286044Y-70165029D01*
X107294552Y-70165771D01*
X107303098Y-70166302D01*
X107311683Y-70166620D01*
X107320307Y-70166726D01*
X107332451Y-70166552D01*
X107344190Y-70166032D01*
X107355524Y-70165164D01*
X107366453Y-70163948D01*
X107376977Y-70162386D01*
X107387096Y-70160476D01*
X107396810Y-70158219D01*
X107406118Y-70155614D01*
X107415022Y-70152663D01*
X107423520Y-70149364D01*
X107431614Y-70145717D01*
X107439302Y-70141724D01*
X107446585Y-70137383D01*
X107453463Y-70132695D01*
X107459935Y-70127659D01*
X107466003Y-70122276D01*
X107471685Y-70116209D01*
X107477000Y-70109736D01*
X107481949Y-70102859D01*
X107486531Y-70095576D01*
X107490746Y-70087888D01*
X107494595Y-70079795D01*
X107498078Y-70071297D01*
X107501194Y-70062394D01*
X107503943Y-70053085D01*
X107506326Y-70043372D01*
X107508343Y-70033253D01*
X107509992Y-70022729D01*
X107511276Y-70011800D01*
X107512192Y-70000465D01*
X107512742Y-69988725D01*
X107512925Y-69976580D01*
X107512925Y-69262909D01*
X107910504Y-69262909D01*
X107910504Y-69998802D01*
X107910061Y-70026478D01*
X107908730Y-70053323D01*
X107906511Y-70079339D01*
X107903405Y-70104526D01*
X107899411Y-70128882D01*
X107894530Y-70152410D01*
X107888762Y-70175107D01*
X107882106Y-70196975D01*
X107874563Y-70218013D01*
X107866132Y-70238222D01*
X107856814Y-70257601D01*
X107846608Y-70276150D01*
X107835515Y-70293870D01*
X107823534Y-70310760D01*
X107810666Y-70326821D01*
X107796910Y-70342052D01*
X107782036Y-70356107D01*
X107766429Y-70369255D01*
X107750088Y-70381497D01*
X107733015Y-70392832D01*
X107715208Y-70403260D01*
X107696668Y-70412781D01*
X107677395Y-70421395D01*
X107657389Y-70429103D01*
X107636649Y-70435903D01*
X107615176Y-70441797D01*
X107592971Y-70446784D01*
X107570031Y-70450865D01*
X107546359Y-70454038D01*
X107521954Y-70456305D01*
X107496815Y-70457665D01*
X107470943Y-70458119D01*
X107470948Y-70458124D01*
X107440996Y-70457642D01*
X107411642Y-70456195D01*
X107382887Y-70453783D01*
X107354729Y-70450407D01*
X107327169Y-70446066D01*
X107300208Y-70440760D01*
X107273844Y-70434490D01*
X107248079Y-70427255D01*
X107222912Y-70419055D01*
X107198342Y-70409891D01*
X107174371Y-70399762D01*
X107150999Y-70388669D01*
X107128224Y-70376611D01*
X107106048Y-70363589D01*
X107084469Y-70349601D01*
X107063489Y-70334650D01*
X107051142Y-70433429D01*
X106680725Y-70433429D01*
X106680725Y-69262909D01*
X107078304Y-69262909D01*
X107078304Y-70063007D01*
G36*
X107078304Y-70063007D02*
G01*
X107083937Y-70068808D01*
X107089725Y-70074474D01*
X107095667Y-70080004D01*
X107101764Y-70085398D01*
X107108014Y-70090657D01*
X107114419Y-70095781D01*
X107120979Y-70100769D01*
X107127692Y-70105621D01*
X107134560Y-70110338D01*
X107141582Y-70114920D01*
X107148759Y-70119366D01*
X107156090Y-70123676D01*
X107163575Y-70127851D01*
X107171215Y-70131891D01*
X107179009Y-70135795D01*
X107186958Y-70139564D01*
X107195003Y-70142853D01*
X107203087Y-70145931D01*
X107211209Y-70148795D01*
X107219370Y-70151448D01*
X107227569Y-70153888D01*
X107235807Y-70156117D01*
X107244084Y-70158133D01*
X107252399Y-70159936D01*
X107260752Y-70161528D01*
X107269144Y-70162907D01*
X107277575Y-70164074D01*
X107286044Y-70165029D01*
X107294552Y-70165771D01*
X107303098Y-70166302D01*
X107311683Y-70166620D01*
X107320307Y-70166726D01*
X107332451Y-70166552D01*
X107344190Y-70166032D01*
X107355524Y-70165164D01*
X107366453Y-70163948D01*
X107376977Y-70162386D01*
X107387096Y-70160476D01*
X107396810Y-70158219D01*
X107406118Y-70155614D01*
X107415022Y-70152663D01*
X107423520Y-70149364D01*
X107431614Y-70145717D01*
X107439302Y-70141724D01*
X107446585Y-70137383D01*
X107453463Y-70132695D01*
X107459935Y-70127659D01*
X107466003Y-70122276D01*
X107471685Y-70116209D01*
X107477000Y-70109736D01*
X107481949Y-70102859D01*
X107486531Y-70095576D01*
X107490746Y-70087888D01*
X107494595Y-70079795D01*
X107498078Y-70071297D01*
X107501194Y-70062394D01*
X107503943Y-70053085D01*
X107506326Y-70043372D01*
X107508343Y-70033253D01*
X107509992Y-70022729D01*
X107511276Y-70011800D01*
X107512192Y-70000465D01*
X107512742Y-69988725D01*
X107512925Y-69976580D01*
X107512925Y-69262909D01*
X107910504Y-69262909D01*
X107910504Y-69998802D01*
X107910061Y-70026478D01*
X107908730Y-70053323D01*
X107906511Y-70079339D01*
X107903405Y-70104526D01*
X107899411Y-70128882D01*
X107894530Y-70152410D01*
X107888762Y-70175107D01*
X107882106Y-70196975D01*
X107874563Y-70218013D01*
X107866132Y-70238222D01*
X107856814Y-70257601D01*
X107846608Y-70276150D01*
X107835515Y-70293870D01*
X107823534Y-70310760D01*
X107810666Y-70326821D01*
X107796910Y-70342052D01*
X107782036Y-70356107D01*
X107766429Y-70369255D01*
X107750088Y-70381497D01*
X107733015Y-70392832D01*
X107715208Y-70403260D01*
X107696668Y-70412781D01*
X107677395Y-70421395D01*
X107657389Y-70429103D01*
X107636649Y-70435903D01*
X107615176Y-70441797D01*
X107592971Y-70446784D01*
X107570031Y-70450865D01*
X107546359Y-70454038D01*
X107521954Y-70456305D01*
X107496815Y-70457665D01*
X107470943Y-70458119D01*
X107470948Y-70458124D01*
X107440996Y-70457642D01*
X107411642Y-70456195D01*
X107382887Y-70453783D01*
X107354729Y-70450407D01*
X107327169Y-70446066D01*
X107300208Y-70440760D01*
X107273844Y-70434490D01*
X107248079Y-70427255D01*
X107222912Y-70419055D01*
X107198342Y-70409891D01*
X107174371Y-70399762D01*
X107150999Y-70388669D01*
X107128224Y-70376611D01*
X107106048Y-70363589D01*
X107084469Y-70349601D01*
X107063489Y-70334650D01*
X107051142Y-70433429D01*
X106680725Y-70433429D01*
X106680725Y-69262909D01*
X107078304Y-69262909D01*
X107078304Y-70063007D01*
G37*
D10*
X108057502Y-66165447D02*
X108048603Y-66149935D01*
X106122306Y-66439449D02*
X106164271Y-66434116D01*
X104482297Y-68615470D02*
X104493922Y-68628898D01*
X108094582Y-66267457D02*
X108090459Y-66249507D01*
X105409207Y-65434219D02*
X105391698Y-65466153D01*
X106335743Y-68102548D02*
X106293159Y-68105786D01*
X109424307Y-65969633D02*
X109472847Y-66095312D01*
X105748293Y-66596376D02*
X105781170Y-66572997D01*
X106650934Y-63862064D02*
X106782225Y-63880051D01*
X106081012Y-66446823D02*
X106122306Y-66439449D01*
X103470693Y-67623551D02*
X103457302Y-67494277D01*
X105607265Y-65244008D02*
X105591857Y-65249502D01*
X108562775Y-68849953D02*
X108482575Y-68961078D01*
X105411462Y-67268332D02*
X105412553Y-67225180D01*
X102945203Y-66351081D02*
X103027168Y-66095306D01*
X107268218Y-64657597D02*
X107389828Y-64708319D01*
X107876116Y-68720981D02*
X107892533Y-68713582D01*
X104434336Y-66181424D02*
X104426937Y-66197841D01*
X103893519Y-65751933D02*
X103968710Y-65641175D01*
X106988810Y-65299853D02*
X106976632Y-65289565D01*
X108090459Y-68472373D02*
X108094582Y-68454422D01*
X104397917Y-68379588D02*
X104398397Y-68398706D01*
X105437862Y-67477896D02*
X105428498Y-67437327D01*
X103530725Y-66592861D02*
X103564940Y-66467250D01*
X106950840Y-65271160D02*
X106937171Y-65263113D01*
X109036438Y-66976213D02*
X109046953Y-67105430D01*
X104519021Y-66067880D02*
X104506171Y-66080129D01*
X105391698Y-65466153D02*
X105357810Y-65532849D01*
X104560951Y-68686908D02*
X104575977Y-68696523D01*
X108616581Y-64785887D02*
X108708601Y-64876939D01*
X106912144Y-63902993D02*
X107040575Y-63930808D01*
X108028680Y-66120392D02*
X108017702Y-66106408D01*
X106499364Y-66467486D02*
X106538326Y-66480670D01*
X105686189Y-67889037D02*
X105657067Y-67861272D01*
X109486700Y-68402628D02*
X109392156Y-68643137D01*
X106842594Y-65233190D02*
X106824482Y-65231588D01*
X106081012Y-68089840D02*
X106040443Y-68080477D01*
X109658590Y-67648788D02*
X109620214Y-67904346D01*
X105532862Y-67703147D02*
X105512670Y-67668031D01*
X103013315Y-68402627D02*
X102937197Y-68155995D01*
X107953564Y-68676600D02*
X107967548Y-68665622D01*
D13*
X94864895Y-79182456D02*
X94483942Y-78915789D01*
X94864895Y-78725313D02*
X94064895Y-78725313D01*
X94064895Y-78725313D02*
X94064895Y-79030075D01*
X94064895Y-79030075D02*
X94102990Y-79106265D01*
X94102990Y-79106265D02*
X94141085Y-79144360D01*
X94141085Y-79144360D02*
X94217276Y-79182456D01*
X94217276Y-79182456D02*
X94331561Y-79182456D01*
X94331561Y-79182456D02*
X94407752Y-79144360D01*
X94407752Y-79144360D02*
X94445847Y-79106265D01*
X94445847Y-79106265D02*
X94483942Y-79030075D01*
X94483942Y-79030075D02*
X94483942Y-78725313D01*
X94864895Y-79563408D02*
X94864895Y-79715789D01*
X94864895Y-79715789D02*
X94826800Y-79791979D01*
X94826800Y-79791979D02*
X94788704Y-79830075D01*
X94788704Y-79830075D02*
X94674419Y-79906265D01*
X94674419Y-79906265D02*
X94522038Y-79944360D01*
X94522038Y-79944360D02*
X94217276Y-79944360D01*
X94217276Y-79944360D02*
X94141085Y-79906265D01*
X94141085Y-79906265D02*
X94102990Y-79868170D01*
X94102990Y-79868170D02*
X94064895Y-79791979D01*
X94064895Y-79791979D02*
X94064895Y-79639598D01*
X94064895Y-79639598D02*
X94102990Y-79563408D01*
X94102990Y-79563408D02*
X94141085Y-79525313D01*
X94141085Y-79525313D02*
X94217276Y-79487217D01*
X94217276Y-79487217D02*
X94407752Y-79487217D01*
X94407752Y-79487217D02*
X94483942Y-79525313D01*
X94483942Y-79525313D02*
X94522038Y-79563408D01*
X94522038Y-79563408D02*
X94560133Y-79639598D01*
X94560133Y-79639598D02*
X94560133Y-79791979D01*
X94560133Y-79791979D02*
X94522038Y-79868170D01*
X94522038Y-79868170D02*
X94483942Y-79906265D01*
X94483942Y-79906265D02*
X94407752Y-79944360D01*
X99038704Y-85432456D02*
X99076800Y-85394360D01*
X99076800Y-85394360D02*
X99114895Y-85280075D01*
X99114895Y-85280075D02*
X99114895Y-85203884D01*
X99114895Y-85203884D02*
X99076800Y-85089598D01*
X99076800Y-85089598D02*
X99000609Y-85013408D01*
X99000609Y-85013408D02*
X98924419Y-84975313D01*
X98924419Y-84975313D02*
X98772038Y-84937217D01*
X98772038Y-84937217D02*
X98657752Y-84937217D01*
X98657752Y-84937217D02*
X98505371Y-84975313D01*
X98505371Y-84975313D02*
X98429180Y-85013408D01*
X98429180Y-85013408D02*
X98352990Y-85089598D01*
X98352990Y-85089598D02*
X98314895Y-85203884D01*
X98314895Y-85203884D02*
X98314895Y-85280075D01*
X98314895Y-85280075D02*
X98352990Y-85394360D01*
X98352990Y-85394360D02*
X98391085Y-85432456D01*
X98314895Y-86118170D02*
X98314895Y-85965789D01*
X98314895Y-85965789D02*
X98352990Y-85889598D01*
X98352990Y-85889598D02*
X98391085Y-85851503D01*
X98391085Y-85851503D02*
X98505371Y-85775313D01*
X98505371Y-85775313D02*
X98657752Y-85737217D01*
X98657752Y-85737217D02*
X98962514Y-85737217D01*
X98962514Y-85737217D02*
X99038704Y-85775313D01*
X99038704Y-85775313D02*
X99076800Y-85813408D01*
X99076800Y-85813408D02*
X99114895Y-85889598D01*
X99114895Y-85889598D02*
X99114895Y-86041979D01*
X99114895Y-86041979D02*
X99076800Y-86118170D01*
X99076800Y-86118170D02*
X99038704Y-86156265D01*
X99038704Y-86156265D02*
X98962514Y-86194360D01*
X98962514Y-86194360D02*
X98772038Y-86194360D01*
X98772038Y-86194360D02*
X98695847Y-86156265D01*
X98695847Y-86156265D02*
X98657752Y-86118170D01*
X98657752Y-86118170D02*
X98619657Y-86041979D01*
X98619657Y-86041979D02*
X98619657Y-85889598D01*
X98619657Y-85889598D02*
X98657752Y-85813408D01*
X98657752Y-85813408D02*
X98695847Y-85775313D01*
X98695847Y-85775313D02*
X98772038Y-85737217D01*
X108788704Y-76932456D02*
X108826800Y-76894360D01*
X108826800Y-76894360D02*
X108864895Y-76780075D01*
X108864895Y-76780075D02*
X108864895Y-76703884D01*
X108864895Y-76703884D02*
X108826800Y-76589598D01*
X108826800Y-76589598D02*
X108750609Y-76513408D01*
X108750609Y-76513408D02*
X108674419Y-76475313D01*
X108674419Y-76475313D02*
X108522038Y-76437217D01*
X108522038Y-76437217D02*
X108407752Y-76437217D01*
X108407752Y-76437217D02*
X108255371Y-76475313D01*
X108255371Y-76475313D02*
X108179180Y-76513408D01*
X108179180Y-76513408D02*
X108102990Y-76589598D01*
X108102990Y-76589598D02*
X108064895Y-76703884D01*
X108064895Y-76703884D02*
X108064895Y-76780075D01*
X108064895Y-76780075D02*
X108102990Y-76894360D01*
X108102990Y-76894360D02*
X108141085Y-76932456D01*
X108064895Y-77199122D02*
X108064895Y-77694360D01*
X108064895Y-77694360D02*
X108369657Y-77427694D01*
X108369657Y-77427694D02*
X108369657Y-77541979D01*
X108369657Y-77541979D02*
X108407752Y-77618170D01*
X108407752Y-77618170D02*
X108445847Y-77656265D01*
X108445847Y-77656265D02*
X108522038Y-77694360D01*
X108522038Y-77694360D02*
X108712514Y-77694360D01*
X108712514Y-77694360D02*
X108788704Y-77656265D01*
X108788704Y-77656265D02*
X108826800Y-77618170D01*
X108826800Y-77618170D02*
X108864895Y-77541979D01*
X108864895Y-77541979D02*
X108864895Y-77313408D01*
X108864895Y-77313408D02*
X108826800Y-77237217D01*
X108826800Y-77237217D02*
X108788704Y-77199122D01*
X93364895Y-63051503D02*
X92983942Y-62784836D01*
X93364895Y-62594360D02*
X92564895Y-62594360D01*
X92564895Y-62594360D02*
X92564895Y-62899122D01*
X92564895Y-62899122D02*
X92602990Y-62975312D01*
X92602990Y-62975312D02*
X92641085Y-63013407D01*
X92641085Y-63013407D02*
X92717276Y-63051503D01*
X92717276Y-63051503D02*
X92831561Y-63051503D01*
X92831561Y-63051503D02*
X92907752Y-63013407D01*
X92907752Y-63013407D02*
X92945847Y-62975312D01*
X92945847Y-62975312D02*
X92983942Y-62899122D01*
X92983942Y-62899122D02*
X92983942Y-62594360D01*
X93364895Y-63813407D02*
X93364895Y-63356264D01*
X93364895Y-63584836D02*
X92564895Y-63584836D01*
X92564895Y-63584836D02*
X92679180Y-63508645D01*
X92679180Y-63508645D02*
X92755371Y-63432455D01*
X92755371Y-63432455D02*
X92793466Y-63356264D01*
X92564895Y-64499122D02*
X92564895Y-64346741D01*
X92564895Y-64346741D02*
X92602990Y-64270550D01*
X92602990Y-64270550D02*
X92641085Y-64232455D01*
X92641085Y-64232455D02*
X92755371Y-64156265D01*
X92755371Y-64156265D02*
X92907752Y-64118169D01*
X92907752Y-64118169D02*
X93212514Y-64118169D01*
X93212514Y-64118169D02*
X93288704Y-64156265D01*
X93288704Y-64156265D02*
X93326800Y-64194360D01*
X93326800Y-64194360D02*
X93364895Y-64270550D01*
X93364895Y-64270550D02*
X93364895Y-64422931D01*
X93364895Y-64422931D02*
X93326800Y-64499122D01*
X93326800Y-64499122D02*
X93288704Y-64537217D01*
X93288704Y-64537217D02*
X93212514Y-64575312D01*
X93212514Y-64575312D02*
X93022038Y-64575312D01*
X93022038Y-64575312D02*
X92945847Y-64537217D01*
X92945847Y-64537217D02*
X92907752Y-64499122D01*
X92907752Y-64499122D02*
X92869657Y-64422931D01*
X92869657Y-64422931D02*
X92869657Y-64270550D01*
X92869657Y-64270550D02*
X92907752Y-64194360D01*
X92907752Y-64194360D02*
X92945847Y-64156265D01*
X92945847Y-64156265D02*
X93022038Y-64118169D01*
X99293734Y-94564895D02*
X99293734Y-95212514D01*
X99293734Y-95212514D02*
X99255639Y-95288704D01*
X99255639Y-95288704D02*
X99217544Y-95326800D01*
X99217544Y-95326800D02*
X99141353Y-95364895D01*
X99141353Y-95364895D02*
X98988972Y-95364895D01*
X98988972Y-95364895D02*
X98912782Y-95326800D01*
X98912782Y-95326800D02*
X98874687Y-95288704D01*
X98874687Y-95288704D02*
X98836591Y-95212514D01*
X98836591Y-95212514D02*
X98836591Y-94564895D01*
X98531830Y-94564895D02*
X98036592Y-94564895D01*
X98036592Y-94564895D02*
X98303258Y-94869657D01*
X98303258Y-94869657D02*
X98188973Y-94869657D01*
X98188973Y-94869657D02*
X98112782Y-94907752D01*
X98112782Y-94907752D02*
X98074687Y-94945847D01*
X98074687Y-94945847D02*
X98036592Y-95022038D01*
X98036592Y-95022038D02*
X98036592Y-95212514D01*
X98036592Y-95212514D02*
X98074687Y-95288704D01*
X98074687Y-95288704D02*
X98112782Y-95326800D01*
X98112782Y-95326800D02*
X98188973Y-95364895D01*
X98188973Y-95364895D02*
X98417544Y-95364895D01*
X98417544Y-95364895D02*
X98493735Y-95326800D01*
X98493735Y-95326800D02*
X98531830Y-95288704D01*
X109864895Y-76932456D02*
X109483942Y-76665789D01*
X109864895Y-76475313D02*
X109064895Y-76475313D01*
X109064895Y-76475313D02*
X109064895Y-76780075D01*
X109064895Y-76780075D02*
X109102990Y-76856265D01*
X109102990Y-76856265D02*
X109141085Y-76894360D01*
X109141085Y-76894360D02*
X109217276Y-76932456D01*
X109217276Y-76932456D02*
X109331561Y-76932456D01*
X109331561Y-76932456D02*
X109407752Y-76894360D01*
X109407752Y-76894360D02*
X109445847Y-76856265D01*
X109445847Y-76856265D02*
X109483942Y-76780075D01*
X109483942Y-76780075D02*
X109483942Y-76475313D01*
X109064895Y-77199122D02*
X109064895Y-77694360D01*
X109064895Y-77694360D02*
X109369657Y-77427694D01*
X109369657Y-77427694D02*
X109369657Y-77541979D01*
X109369657Y-77541979D02*
X109407752Y-77618170D01*
X109407752Y-77618170D02*
X109445847Y-77656265D01*
X109445847Y-77656265D02*
X109522038Y-77694360D01*
X109522038Y-77694360D02*
X109712514Y-77694360D01*
X109712514Y-77694360D02*
X109788704Y-77656265D01*
X109788704Y-77656265D02*
X109826800Y-77618170D01*
X109826800Y-77618170D02*
X109864895Y-77541979D01*
X109864895Y-77541979D02*
X109864895Y-77313408D01*
X109864895Y-77313408D02*
X109826800Y-77237217D01*
X109826800Y-77237217D02*
X109788704Y-77199122D01*
X93067543Y-94364895D02*
X93334210Y-93983942D01*
X93524686Y-94364895D02*
X93524686Y-93564895D01*
X93524686Y-93564895D02*
X93219924Y-93564895D01*
X93219924Y-93564895D02*
X93143734Y-93602990D01*
X93143734Y-93602990D02*
X93105639Y-93641085D01*
X93105639Y-93641085D02*
X93067543Y-93717276D01*
X93067543Y-93717276D02*
X93067543Y-93831561D01*
X93067543Y-93831561D02*
X93105639Y-93907752D01*
X93105639Y-93907752D02*
X93143734Y-93945847D01*
X93143734Y-93945847D02*
X93219924Y-93983942D01*
X93219924Y-93983942D02*
X93524686Y-93983942D01*
X92381829Y-93564895D02*
X92534210Y-93564895D01*
X92534210Y-93564895D02*
X92610401Y-93602990D01*
X92610401Y-93602990D02*
X92648496Y-93641085D01*
X92648496Y-93641085D02*
X92724686Y-93755371D01*
X92724686Y-93755371D02*
X92762782Y-93907752D01*
X92762782Y-93907752D02*
X92762782Y-94212514D01*
X92762782Y-94212514D02*
X92724686Y-94288704D01*
X92724686Y-94288704D02*
X92686591Y-94326800D01*
X92686591Y-94326800D02*
X92610401Y-94364895D01*
X92610401Y-94364895D02*
X92458020Y-94364895D01*
X92458020Y-94364895D02*
X92381829Y-94326800D01*
X92381829Y-94326800D02*
X92343734Y-94288704D01*
X92343734Y-94288704D02*
X92305639Y-94212514D01*
X92305639Y-94212514D02*
X92305639Y-94022038D01*
X92305639Y-94022038D02*
X92343734Y-93945847D01*
X92343734Y-93945847D02*
X92381829Y-93907752D01*
X92381829Y-93907752D02*
X92458020Y-93869657D01*
X92458020Y-93869657D02*
X92610401Y-93869657D01*
X92610401Y-93869657D02*
X92686591Y-93907752D01*
X92686591Y-93907752D02*
X92724686Y-93945847D01*
X92724686Y-93945847D02*
X92762782Y-94022038D01*
X124442543Y-91794895D02*
X124709210Y-91413942D01*
X124899686Y-91794895D02*
X124899686Y-90994895D01*
X124899686Y-90994895D02*
X124594924Y-90994895D01*
X124594924Y-90994895D02*
X124518734Y-91032990D01*
X124518734Y-91032990D02*
X124480639Y-91071085D01*
X124480639Y-91071085D02*
X124442543Y-91147276D01*
X124442543Y-91147276D02*
X124442543Y-91261561D01*
X124442543Y-91261561D02*
X124480639Y-91337752D01*
X124480639Y-91337752D02*
X124518734Y-91375847D01*
X124518734Y-91375847D02*
X124594924Y-91413942D01*
X124594924Y-91413942D02*
X124899686Y-91413942D01*
X124175877Y-90994895D02*
X123642543Y-90994895D01*
X123642543Y-90994895D02*
X123985401Y-91794895D01*
X106010401Y-82841085D02*
X106086591Y-82802990D01*
X106086591Y-82802990D02*
X106162782Y-82726800D01*
X106162782Y-82726800D02*
X106277068Y-82612514D01*
X106277068Y-82612514D02*
X106353258Y-82574419D01*
X106353258Y-82574419D02*
X106429449Y-82574419D01*
X106391353Y-82764895D02*
X106467544Y-82726800D01*
X106467544Y-82726800D02*
X106543734Y-82650609D01*
X106543734Y-82650609D02*
X106581830Y-82498228D01*
X106581830Y-82498228D02*
X106581830Y-82231561D01*
X106581830Y-82231561D02*
X106543734Y-82079180D01*
X106543734Y-82079180D02*
X106467544Y-82002990D01*
X106467544Y-82002990D02*
X106391353Y-81964895D01*
X106391353Y-81964895D02*
X106238972Y-81964895D01*
X106238972Y-81964895D02*
X106162782Y-82002990D01*
X106162782Y-82002990D02*
X106086591Y-82079180D01*
X106086591Y-82079180D02*
X106048496Y-82231561D01*
X106048496Y-82231561D02*
X106048496Y-82498228D01*
X106048496Y-82498228D02*
X106086591Y-82650609D01*
X106086591Y-82650609D02*
X106162782Y-82726800D01*
X106162782Y-82726800D02*
X106238972Y-82764895D01*
X106238972Y-82764895D02*
X106391353Y-82764895D01*
X105743735Y-82041085D02*
X105705639Y-82002990D01*
X105705639Y-82002990D02*
X105629449Y-81964895D01*
X105629449Y-81964895D02*
X105438973Y-81964895D01*
X105438973Y-81964895D02*
X105362782Y-82002990D01*
X105362782Y-82002990D02*
X105324687Y-82041085D01*
X105324687Y-82041085D02*
X105286592Y-82117276D01*
X105286592Y-82117276D02*
X105286592Y-82193466D01*
X105286592Y-82193466D02*
X105324687Y-82307752D01*
X105324687Y-82307752D02*
X105781830Y-82764895D01*
X105781830Y-82764895D02*
X105286592Y-82764895D01*
X92524686Y-84864895D02*
X92524686Y-84064895D01*
X92524686Y-84064895D02*
X92334210Y-84064895D01*
X92334210Y-84064895D02*
X92219924Y-84102990D01*
X92219924Y-84102990D02*
X92143734Y-84179180D01*
X92143734Y-84179180D02*
X92105639Y-84255371D01*
X92105639Y-84255371D02*
X92067543Y-84407752D01*
X92067543Y-84407752D02*
X92067543Y-84522038D01*
X92067543Y-84522038D02*
X92105639Y-84674419D01*
X92105639Y-84674419D02*
X92143734Y-84750609D01*
X92143734Y-84750609D02*
X92219924Y-84826800D01*
X92219924Y-84826800D02*
X92334210Y-84864895D01*
X92334210Y-84864895D02*
X92524686Y-84864895D01*
X91800877Y-84064895D02*
X91305639Y-84064895D01*
X91305639Y-84064895D02*
X91572305Y-84369657D01*
X91572305Y-84369657D02*
X91458020Y-84369657D01*
X91458020Y-84369657D02*
X91381829Y-84407752D01*
X91381829Y-84407752D02*
X91343734Y-84445847D01*
X91343734Y-84445847D02*
X91305639Y-84522038D01*
X91305639Y-84522038D02*
X91305639Y-84712514D01*
X91305639Y-84712514D02*
X91343734Y-84788704D01*
X91343734Y-84788704D02*
X91381829Y-84826800D01*
X91381829Y-84826800D02*
X91458020Y-84864895D01*
X91458020Y-84864895D02*
X91686591Y-84864895D01*
X91686591Y-84864895D02*
X91762782Y-84826800D01*
X91762782Y-84826800D02*
X91800877Y-84788704D01*
X100537543Y-68488704D02*
X100575639Y-68526800D01*
X100575639Y-68526800D02*
X100689924Y-68564895D01*
X100689924Y-68564895D02*
X100766115Y-68564895D01*
X100766115Y-68564895D02*
X100880401Y-68526800D01*
X100880401Y-68526800D02*
X100956591Y-68450609D01*
X100956591Y-68450609D02*
X100994686Y-68374419D01*
X100994686Y-68374419D02*
X101032782Y-68222038D01*
X101032782Y-68222038D02*
X101032782Y-68107752D01*
X101032782Y-68107752D02*
X100994686Y-67955371D01*
X100994686Y-67955371D02*
X100956591Y-67879180D01*
X100956591Y-67879180D02*
X100880401Y-67802990D01*
X100880401Y-67802990D02*
X100766115Y-67764895D01*
X100766115Y-67764895D02*
X100689924Y-67764895D01*
X100689924Y-67764895D02*
X100575639Y-67802990D01*
X100575639Y-67802990D02*
X100537543Y-67841085D01*
X100232782Y-67841085D02*
X100194686Y-67802990D01*
X100194686Y-67802990D02*
X100118496Y-67764895D01*
X100118496Y-67764895D02*
X99928020Y-67764895D01*
X99928020Y-67764895D02*
X99851829Y-67802990D01*
X99851829Y-67802990D02*
X99813734Y-67841085D01*
X99813734Y-67841085D02*
X99775639Y-67917276D01*
X99775639Y-67917276D02*
X99775639Y-67993466D01*
X99775639Y-67993466D02*
X99813734Y-68107752D01*
X99813734Y-68107752D02*
X100270877Y-68564895D01*
X100270877Y-68564895D02*
X99775639Y-68564895D01*
X105788704Y-95432456D02*
X105826800Y-95394360D01*
X105826800Y-95394360D02*
X105864895Y-95280075D01*
X105864895Y-95280075D02*
X105864895Y-95203884D01*
X105864895Y-95203884D02*
X105826800Y-95089598D01*
X105826800Y-95089598D02*
X105750609Y-95013408D01*
X105750609Y-95013408D02*
X105674419Y-94975313D01*
X105674419Y-94975313D02*
X105522038Y-94937217D01*
X105522038Y-94937217D02*
X105407752Y-94937217D01*
X105407752Y-94937217D02*
X105255371Y-94975313D01*
X105255371Y-94975313D02*
X105179180Y-95013408D01*
X105179180Y-95013408D02*
X105102990Y-95089598D01*
X105102990Y-95089598D02*
X105064895Y-95203884D01*
X105064895Y-95203884D02*
X105064895Y-95280075D01*
X105064895Y-95280075D02*
X105102990Y-95394360D01*
X105102990Y-95394360D02*
X105141085Y-95432456D01*
X105064895Y-96156265D02*
X105064895Y-95775313D01*
X105064895Y-95775313D02*
X105445847Y-95737217D01*
X105445847Y-95737217D02*
X105407752Y-95775313D01*
X105407752Y-95775313D02*
X105369657Y-95851503D01*
X105369657Y-95851503D02*
X105369657Y-96041979D01*
X105369657Y-96041979D02*
X105407752Y-96118170D01*
X105407752Y-96118170D02*
X105445847Y-96156265D01*
X105445847Y-96156265D02*
X105522038Y-96194360D01*
X105522038Y-96194360D02*
X105712514Y-96194360D01*
X105712514Y-96194360D02*
X105788704Y-96156265D01*
X105788704Y-96156265D02*
X105826800Y-96118170D01*
X105826800Y-96118170D02*
X105864895Y-96041979D01*
X105864895Y-96041979D02*
X105864895Y-95851503D01*
X105864895Y-95851503D02*
X105826800Y-95775313D01*
X105826800Y-95775313D02*
X105788704Y-95737217D01*
X94364895Y-84551503D02*
X93983942Y-84284836D01*
X94364895Y-84094360D02*
X93564895Y-84094360D01*
X93564895Y-84094360D02*
X93564895Y-84399122D01*
X93564895Y-84399122D02*
X93602990Y-84475312D01*
X93602990Y-84475312D02*
X93641085Y-84513407D01*
X93641085Y-84513407D02*
X93717276Y-84551503D01*
X93717276Y-84551503D02*
X93831561Y-84551503D01*
X93831561Y-84551503D02*
X93907752Y-84513407D01*
X93907752Y-84513407D02*
X93945847Y-84475312D01*
X93945847Y-84475312D02*
X93983942Y-84399122D01*
X93983942Y-84399122D02*
X93983942Y-84094360D01*
X94364895Y-85313407D02*
X94364895Y-84856264D01*
X94364895Y-85084836D02*
X93564895Y-85084836D01*
X93564895Y-85084836D02*
X93679180Y-85008645D01*
X93679180Y-85008645D02*
X93755371Y-84932455D01*
X93755371Y-84932455D02*
X93793466Y-84856264D01*
X93641085Y-85618169D02*
X93602990Y-85656265D01*
X93602990Y-85656265D02*
X93564895Y-85732455D01*
X93564895Y-85732455D02*
X93564895Y-85922931D01*
X93564895Y-85922931D02*
X93602990Y-85999122D01*
X93602990Y-85999122D02*
X93641085Y-86037217D01*
X93641085Y-86037217D02*
X93717276Y-86075312D01*
X93717276Y-86075312D02*
X93793466Y-86075312D01*
X93793466Y-86075312D02*
X93907752Y-86037217D01*
X93907752Y-86037217D02*
X94364895Y-85580074D01*
X94364895Y-85580074D02*
X94364895Y-86075312D01*
X103364895Y-82432456D02*
X102983942Y-82165789D01*
X103364895Y-81975313D02*
X102564895Y-81975313D01*
X102564895Y-81975313D02*
X102564895Y-82280075D01*
X102564895Y-82280075D02*
X102602990Y-82356265D01*
X102602990Y-82356265D02*
X102641085Y-82394360D01*
X102641085Y-82394360D02*
X102717276Y-82432456D01*
X102717276Y-82432456D02*
X102831561Y-82432456D01*
X102831561Y-82432456D02*
X102907752Y-82394360D01*
X102907752Y-82394360D02*
X102945847Y-82356265D01*
X102945847Y-82356265D02*
X102983942Y-82280075D01*
X102983942Y-82280075D02*
X102983942Y-81975313D01*
X103364895Y-83194360D02*
X103364895Y-82737217D01*
X103364895Y-82965789D02*
X102564895Y-82965789D01*
X102564895Y-82965789D02*
X102679180Y-82889598D01*
X102679180Y-82889598D02*
X102755371Y-82813408D01*
X102755371Y-82813408D02*
X102793466Y-82737217D01*
X108564895Y-87956265D02*
X109212514Y-87956265D01*
X109212514Y-87956265D02*
X109288704Y-87994360D01*
X109288704Y-87994360D02*
X109326800Y-88032455D01*
X109326800Y-88032455D02*
X109364895Y-88108646D01*
X109364895Y-88108646D02*
X109364895Y-88261027D01*
X109364895Y-88261027D02*
X109326800Y-88337217D01*
X109326800Y-88337217D02*
X109288704Y-88375312D01*
X109288704Y-88375312D02*
X109212514Y-88413408D01*
X109212514Y-88413408D02*
X108564895Y-88413408D01*
X108641085Y-88756264D02*
X108602990Y-88794360D01*
X108602990Y-88794360D02*
X108564895Y-88870550D01*
X108564895Y-88870550D02*
X108564895Y-89061026D01*
X108564895Y-89061026D02*
X108602990Y-89137217D01*
X108602990Y-89137217D02*
X108641085Y-89175312D01*
X108641085Y-89175312D02*
X108717276Y-89213407D01*
X108717276Y-89213407D02*
X108793466Y-89213407D01*
X108793466Y-89213407D02*
X108907752Y-89175312D01*
X108907752Y-89175312D02*
X109364895Y-88718169D01*
X109364895Y-88718169D02*
X109364895Y-89213407D01*
X96538704Y-78301503D02*
X96576800Y-78263407D01*
X96576800Y-78263407D02*
X96614895Y-78149122D01*
X96614895Y-78149122D02*
X96614895Y-78072931D01*
X96614895Y-78072931D02*
X96576800Y-77958645D01*
X96576800Y-77958645D02*
X96500609Y-77882455D01*
X96500609Y-77882455D02*
X96424419Y-77844360D01*
X96424419Y-77844360D02*
X96272038Y-77806264D01*
X96272038Y-77806264D02*
X96157752Y-77806264D01*
X96157752Y-77806264D02*
X96005371Y-77844360D01*
X96005371Y-77844360D02*
X95929180Y-77882455D01*
X95929180Y-77882455D02*
X95852990Y-77958645D01*
X95852990Y-77958645D02*
X95814895Y-78072931D01*
X95814895Y-78072931D02*
X95814895Y-78149122D01*
X95814895Y-78149122D02*
X95852990Y-78263407D01*
X95852990Y-78263407D02*
X95891085Y-78301503D01*
X96614895Y-79063407D02*
X96614895Y-78606264D01*
X96614895Y-78834836D02*
X95814895Y-78834836D01*
X95814895Y-78834836D02*
X95929180Y-78758645D01*
X95929180Y-78758645D02*
X96005371Y-78682455D01*
X96005371Y-78682455D02*
X96043466Y-78606264D01*
X95814895Y-79330074D02*
X95814895Y-79825312D01*
X95814895Y-79825312D02*
X96119657Y-79558646D01*
X96119657Y-79558646D02*
X96119657Y-79672931D01*
X96119657Y-79672931D02*
X96157752Y-79749122D01*
X96157752Y-79749122D02*
X96195847Y-79787217D01*
X96195847Y-79787217D02*
X96272038Y-79825312D01*
X96272038Y-79825312D02*
X96462514Y-79825312D01*
X96462514Y-79825312D02*
X96538704Y-79787217D01*
X96538704Y-79787217D02*
X96576800Y-79749122D01*
X96576800Y-79749122D02*
X96614895Y-79672931D01*
X96614895Y-79672931D02*
X96614895Y-79444360D01*
X96614895Y-79444360D02*
X96576800Y-79368169D01*
X96576800Y-79368169D02*
X96538704Y-79330074D01*
X111364895Y-84932456D02*
X110983942Y-84665789D01*
X111364895Y-84475313D02*
X110564895Y-84475313D01*
X110564895Y-84475313D02*
X110564895Y-84780075D01*
X110564895Y-84780075D02*
X110602990Y-84856265D01*
X110602990Y-84856265D02*
X110641085Y-84894360D01*
X110641085Y-84894360D02*
X110717276Y-84932456D01*
X110717276Y-84932456D02*
X110831561Y-84932456D01*
X110831561Y-84932456D02*
X110907752Y-84894360D01*
X110907752Y-84894360D02*
X110945847Y-84856265D01*
X110945847Y-84856265D02*
X110983942Y-84780075D01*
X110983942Y-84780075D02*
X110983942Y-84475313D01*
X110831561Y-85618170D02*
X111364895Y-85618170D01*
X110526800Y-85427694D02*
X111098228Y-85237217D01*
X111098228Y-85237217D02*
X111098228Y-85732456D01*
X99510401Y-82841085D02*
X99586591Y-82802990D01*
X99586591Y-82802990D02*
X99662782Y-82726800D01*
X99662782Y-82726800D02*
X99777068Y-82612514D01*
X99777068Y-82612514D02*
X99853258Y-82574419D01*
X99853258Y-82574419D02*
X99929449Y-82574419D01*
X99891353Y-82764895D02*
X99967544Y-82726800D01*
X99967544Y-82726800D02*
X100043734Y-82650609D01*
X100043734Y-82650609D02*
X100081830Y-82498228D01*
X100081830Y-82498228D02*
X100081830Y-82231561D01*
X100081830Y-82231561D02*
X100043734Y-82079180D01*
X100043734Y-82079180D02*
X99967544Y-82002990D01*
X99967544Y-82002990D02*
X99891353Y-81964895D01*
X99891353Y-81964895D02*
X99738972Y-81964895D01*
X99738972Y-81964895D02*
X99662782Y-82002990D01*
X99662782Y-82002990D02*
X99586591Y-82079180D01*
X99586591Y-82079180D02*
X99548496Y-82231561D01*
X99548496Y-82231561D02*
X99548496Y-82498228D01*
X99548496Y-82498228D02*
X99586591Y-82650609D01*
X99586591Y-82650609D02*
X99662782Y-82726800D01*
X99662782Y-82726800D02*
X99738972Y-82764895D01*
X99738972Y-82764895D02*
X99891353Y-82764895D01*
X98786592Y-82764895D02*
X99243735Y-82764895D01*
X99015163Y-82764895D02*
X99015163Y-81964895D01*
X99015163Y-81964895D02*
X99091354Y-82079180D01*
X99091354Y-82079180D02*
X99167544Y-82155371D01*
X99167544Y-82155371D02*
X99243735Y-82193466D01*
X102317543Y-95788704D02*
X102355639Y-95826800D01*
X102355639Y-95826800D02*
X102469924Y-95864895D01*
X102469924Y-95864895D02*
X102546115Y-95864895D01*
X102546115Y-95864895D02*
X102660401Y-95826800D01*
X102660401Y-95826800D02*
X102736591Y-95750609D01*
X102736591Y-95750609D02*
X102774686Y-95674419D01*
X102774686Y-95674419D02*
X102812782Y-95522038D01*
X102812782Y-95522038D02*
X102812782Y-95407752D01*
X102812782Y-95407752D02*
X102774686Y-95255371D01*
X102774686Y-95255371D02*
X102736591Y-95179180D01*
X102736591Y-95179180D02*
X102660401Y-95102990D01*
X102660401Y-95102990D02*
X102546115Y-95064895D01*
X102546115Y-95064895D02*
X102469924Y-95064895D01*
X102469924Y-95064895D02*
X102355639Y-95102990D01*
X102355639Y-95102990D02*
X102317543Y-95141085D01*
X101936591Y-95864895D02*
X101784210Y-95864895D01*
X101784210Y-95864895D02*
X101708020Y-95826800D01*
X101708020Y-95826800D02*
X101669924Y-95788704D01*
X101669924Y-95788704D02*
X101593734Y-95674419D01*
X101593734Y-95674419D02*
X101555639Y-95522038D01*
X101555639Y-95522038D02*
X101555639Y-95217276D01*
X101555639Y-95217276D02*
X101593734Y-95141085D01*
X101593734Y-95141085D02*
X101631829Y-95102990D01*
X101631829Y-95102990D02*
X101708020Y-95064895D01*
X101708020Y-95064895D02*
X101860401Y-95064895D01*
X101860401Y-95064895D02*
X101936591Y-95102990D01*
X101936591Y-95102990D02*
X101974686Y-95141085D01*
X101974686Y-95141085D02*
X102012782Y-95217276D01*
X102012782Y-95217276D02*
X102012782Y-95407752D01*
X102012782Y-95407752D02*
X101974686Y-95483942D01*
X101974686Y-95483942D02*
X101936591Y-95522038D01*
X101936591Y-95522038D02*
X101860401Y-95560133D01*
X101860401Y-95560133D02*
X101708020Y-95560133D01*
X101708020Y-95560133D02*
X101631829Y-95522038D01*
X101631829Y-95522038D02*
X101593734Y-95483942D01*
X101593734Y-95483942D02*
X101555639Y-95407752D01*
X115548496Y-95288704D02*
X115586592Y-95326800D01*
X115586592Y-95326800D02*
X115700877Y-95364895D01*
X115700877Y-95364895D02*
X115777068Y-95364895D01*
X115777068Y-95364895D02*
X115891354Y-95326800D01*
X115891354Y-95326800D02*
X115967544Y-95250609D01*
X115967544Y-95250609D02*
X116005639Y-95174419D01*
X116005639Y-95174419D02*
X116043735Y-95022038D01*
X116043735Y-95022038D02*
X116043735Y-94907752D01*
X116043735Y-94907752D02*
X116005639Y-94755371D01*
X116005639Y-94755371D02*
X115967544Y-94679180D01*
X115967544Y-94679180D02*
X115891354Y-94602990D01*
X115891354Y-94602990D02*
X115777068Y-94564895D01*
X115777068Y-94564895D02*
X115700877Y-94564895D01*
X115700877Y-94564895D02*
X115586592Y-94602990D01*
X115586592Y-94602990D02*
X115548496Y-94641085D01*
X114786592Y-95364895D02*
X115243735Y-95364895D01*
X115015163Y-95364895D02*
X115015163Y-94564895D01*
X115015163Y-94564895D02*
X115091354Y-94679180D01*
X115091354Y-94679180D02*
X115167544Y-94755371D01*
X115167544Y-94755371D02*
X115243735Y-94793466D01*
X114291353Y-94564895D02*
X114215163Y-94564895D01*
X114215163Y-94564895D02*
X114138972Y-94602990D01*
X114138972Y-94602990D02*
X114100877Y-94641085D01*
X114100877Y-94641085D02*
X114062782Y-94717276D01*
X114062782Y-94717276D02*
X114024687Y-94869657D01*
X114024687Y-94869657D02*
X114024687Y-95060133D01*
X114024687Y-95060133D02*
X114062782Y-95212514D01*
X114062782Y-95212514D02*
X114100877Y-95288704D01*
X114100877Y-95288704D02*
X114138972Y-95326800D01*
X114138972Y-95326800D02*
X114215163Y-95364895D01*
X114215163Y-95364895D02*
X114291353Y-95364895D01*
X114291353Y-95364895D02*
X114367544Y-95326800D01*
X114367544Y-95326800D02*
X114405639Y-95288704D01*
X114405639Y-95288704D02*
X114443734Y-95212514D01*
X114443734Y-95212514D02*
X114481830Y-95060133D01*
X114481830Y-95060133D02*
X114481830Y-94869657D01*
X114481830Y-94869657D02*
X114443734Y-94717276D01*
X114443734Y-94717276D02*
X114405639Y-94641085D01*
X114405639Y-94641085D02*
X114367544Y-94602990D01*
X114367544Y-94602990D02*
X114291353Y-94564895D01*
X118413704Y-81786503D02*
X118451800Y-81748407D01*
X118451800Y-81748407D02*
X118489895Y-81634122D01*
X118489895Y-81634122D02*
X118489895Y-81557931D01*
X118489895Y-81557931D02*
X118451800Y-81443645D01*
X118451800Y-81443645D02*
X118375609Y-81367455D01*
X118375609Y-81367455D02*
X118299419Y-81329360D01*
X118299419Y-81329360D02*
X118147038Y-81291264D01*
X118147038Y-81291264D02*
X118032752Y-81291264D01*
X118032752Y-81291264D02*
X117880371Y-81329360D01*
X117880371Y-81329360D02*
X117804180Y-81367455D01*
X117804180Y-81367455D02*
X117727990Y-81443645D01*
X117727990Y-81443645D02*
X117689895Y-81557931D01*
X117689895Y-81557931D02*
X117689895Y-81634122D01*
X117689895Y-81634122D02*
X117727990Y-81748407D01*
X117727990Y-81748407D02*
X117766085Y-81786503D01*
X118489895Y-82548407D02*
X118489895Y-82091264D01*
X118489895Y-82319836D02*
X117689895Y-82319836D01*
X117689895Y-82319836D02*
X117804180Y-82243645D01*
X117804180Y-82243645D02*
X117880371Y-82167455D01*
X117880371Y-82167455D02*
X117918466Y-82091264D01*
X117766085Y-82853169D02*
X117727990Y-82891265D01*
X117727990Y-82891265D02*
X117689895Y-82967455D01*
X117689895Y-82967455D02*
X117689895Y-83157931D01*
X117689895Y-83157931D02*
X117727990Y-83234122D01*
X117727990Y-83234122D02*
X117766085Y-83272217D01*
X117766085Y-83272217D02*
X117842276Y-83310312D01*
X117842276Y-83310312D02*
X117918466Y-83310312D01*
X117918466Y-83310312D02*
X118032752Y-83272217D01*
X118032752Y-83272217D02*
X118489895Y-82815074D01*
X118489895Y-82815074D02*
X118489895Y-83310312D01*
X97948496Y-65864895D02*
X98215163Y-65483942D01*
X98405639Y-65864895D02*
X98405639Y-65064895D01*
X98405639Y-65064895D02*
X98100877Y-65064895D01*
X98100877Y-65064895D02*
X98024687Y-65102990D01*
X98024687Y-65102990D02*
X97986592Y-65141085D01*
X97986592Y-65141085D02*
X97948496Y-65217276D01*
X97948496Y-65217276D02*
X97948496Y-65331561D01*
X97948496Y-65331561D02*
X97986592Y-65407752D01*
X97986592Y-65407752D02*
X98024687Y-65445847D01*
X98024687Y-65445847D02*
X98100877Y-65483942D01*
X98100877Y-65483942D02*
X98405639Y-65483942D01*
X97186592Y-65864895D02*
X97643735Y-65864895D01*
X97415163Y-65864895D02*
X97415163Y-65064895D01*
X97415163Y-65064895D02*
X97491354Y-65179180D01*
X97491354Y-65179180D02*
X97567544Y-65255371D01*
X97567544Y-65255371D02*
X97643735Y-65293466D01*
X96691353Y-65064895D02*
X96615163Y-65064895D01*
X96615163Y-65064895D02*
X96538972Y-65102990D01*
X96538972Y-65102990D02*
X96500877Y-65141085D01*
X96500877Y-65141085D02*
X96462782Y-65217276D01*
X96462782Y-65217276D02*
X96424687Y-65369657D01*
X96424687Y-65369657D02*
X96424687Y-65560133D01*
X96424687Y-65560133D02*
X96462782Y-65712514D01*
X96462782Y-65712514D02*
X96500877Y-65788704D01*
X96500877Y-65788704D02*
X96538972Y-65826800D01*
X96538972Y-65826800D02*
X96615163Y-65864895D01*
X96615163Y-65864895D02*
X96691353Y-65864895D01*
X96691353Y-65864895D02*
X96767544Y-65826800D01*
X96767544Y-65826800D02*
X96805639Y-65788704D01*
X96805639Y-65788704D02*
X96843734Y-65712514D01*
X96843734Y-65712514D02*
X96881830Y-65560133D01*
X96881830Y-65560133D02*
X96881830Y-65369657D01*
X96881830Y-65369657D02*
X96843734Y-65217276D01*
X96843734Y-65217276D02*
X96805639Y-65141085D01*
X96805639Y-65141085D02*
X96767544Y-65102990D01*
X96767544Y-65102990D02*
X96691353Y-65064895D01*
X94364895Y-63051503D02*
X93983942Y-62784836D01*
X94364895Y-62594360D02*
X93564895Y-62594360D01*
X93564895Y-62594360D02*
X93564895Y-62899122D01*
X93564895Y-62899122D02*
X93602990Y-62975312D01*
X93602990Y-62975312D02*
X93641085Y-63013407D01*
X93641085Y-63013407D02*
X93717276Y-63051503D01*
X93717276Y-63051503D02*
X93831561Y-63051503D01*
X93831561Y-63051503D02*
X93907752Y-63013407D01*
X93907752Y-63013407D02*
X93945847Y-62975312D01*
X93945847Y-62975312D02*
X93983942Y-62899122D01*
X93983942Y-62899122D02*
X93983942Y-62594360D01*
X94364895Y-63813407D02*
X94364895Y-63356264D01*
X94364895Y-63584836D02*
X93564895Y-63584836D01*
X93564895Y-63584836D02*
X93679180Y-63508645D01*
X93679180Y-63508645D02*
X93755371Y-63432455D01*
X93755371Y-63432455D02*
X93793466Y-63356264D01*
X93564895Y-64537217D02*
X93564895Y-64156265D01*
X93564895Y-64156265D02*
X93945847Y-64118169D01*
X93945847Y-64118169D02*
X93907752Y-64156265D01*
X93907752Y-64156265D02*
X93869657Y-64232455D01*
X93869657Y-64232455D02*
X93869657Y-64422931D01*
X93869657Y-64422931D02*
X93907752Y-64499122D01*
X93907752Y-64499122D02*
X93945847Y-64537217D01*
X93945847Y-64537217D02*
X94022038Y-64575312D01*
X94022038Y-64575312D02*
X94212514Y-64575312D01*
X94212514Y-64575312D02*
X94288704Y-64537217D01*
X94288704Y-64537217D02*
X94326800Y-64499122D01*
X94326800Y-64499122D02*
X94364895Y-64422931D01*
X94364895Y-64422931D02*
X94364895Y-64232455D01*
X94364895Y-64232455D02*
X94326800Y-64156265D01*
X94326800Y-64156265D02*
X94288704Y-64118169D01*
X99864895Y-58051503D02*
X99483942Y-57784836D01*
X99864895Y-57594360D02*
X99064895Y-57594360D01*
X99064895Y-57594360D02*
X99064895Y-57899122D01*
X99064895Y-57899122D02*
X99102990Y-57975312D01*
X99102990Y-57975312D02*
X99141085Y-58013407D01*
X99141085Y-58013407D02*
X99217276Y-58051503D01*
X99217276Y-58051503D02*
X99331561Y-58051503D01*
X99331561Y-58051503D02*
X99407752Y-58013407D01*
X99407752Y-58013407D02*
X99445847Y-57975312D01*
X99445847Y-57975312D02*
X99483942Y-57899122D01*
X99483942Y-57899122D02*
X99483942Y-57594360D01*
X99864895Y-58813407D02*
X99864895Y-58356264D01*
X99864895Y-58584836D02*
X99064895Y-58584836D01*
X99064895Y-58584836D02*
X99179180Y-58508645D01*
X99179180Y-58508645D02*
X99255371Y-58432455D01*
X99255371Y-58432455D02*
X99293466Y-58356264D01*
X99331561Y-59499122D02*
X99864895Y-59499122D01*
X99026800Y-59308646D02*
X99598228Y-59118169D01*
X99598228Y-59118169D02*
X99598228Y-59613408D01*
X100537543Y-72918704D02*
X100575639Y-72956800D01*
X100575639Y-72956800D02*
X100689924Y-72994895D01*
X100689924Y-72994895D02*
X100766115Y-72994895D01*
X100766115Y-72994895D02*
X100880401Y-72956800D01*
X100880401Y-72956800D02*
X100956591Y-72880609D01*
X100956591Y-72880609D02*
X100994686Y-72804419D01*
X100994686Y-72804419D02*
X101032782Y-72652038D01*
X101032782Y-72652038D02*
X101032782Y-72537752D01*
X101032782Y-72537752D02*
X100994686Y-72385371D01*
X100994686Y-72385371D02*
X100956591Y-72309180D01*
X100956591Y-72309180D02*
X100880401Y-72232990D01*
X100880401Y-72232990D02*
X100766115Y-72194895D01*
X100766115Y-72194895D02*
X100689924Y-72194895D01*
X100689924Y-72194895D02*
X100575639Y-72232990D01*
X100575639Y-72232990D02*
X100537543Y-72271085D01*
X99775639Y-72994895D02*
X100232782Y-72994895D01*
X100004210Y-72994895D02*
X100004210Y-72194895D01*
X100004210Y-72194895D02*
X100080401Y-72309180D01*
X100080401Y-72309180D02*
X100156591Y-72385371D01*
X100156591Y-72385371D02*
X100232782Y-72423466D01*
X110864895Y-76932456D02*
X110483942Y-76665789D01*
X110864895Y-76475313D02*
X110064895Y-76475313D01*
X110064895Y-76475313D02*
X110064895Y-76780075D01*
X110064895Y-76780075D02*
X110102990Y-76856265D01*
X110102990Y-76856265D02*
X110141085Y-76894360D01*
X110141085Y-76894360D02*
X110217276Y-76932456D01*
X110217276Y-76932456D02*
X110331561Y-76932456D01*
X110331561Y-76932456D02*
X110407752Y-76894360D01*
X110407752Y-76894360D02*
X110445847Y-76856265D01*
X110445847Y-76856265D02*
X110483942Y-76780075D01*
X110483942Y-76780075D02*
X110483942Y-76475313D01*
X110141085Y-77237217D02*
X110102990Y-77275313D01*
X110102990Y-77275313D02*
X110064895Y-77351503D01*
X110064895Y-77351503D02*
X110064895Y-77541979D01*
X110064895Y-77541979D02*
X110102990Y-77618170D01*
X110102990Y-77618170D02*
X110141085Y-77656265D01*
X110141085Y-77656265D02*
X110217276Y-77694360D01*
X110217276Y-77694360D02*
X110293466Y-77694360D01*
X110293466Y-77694360D02*
X110407752Y-77656265D01*
X110407752Y-77656265D02*
X110864895Y-77199122D01*
X110864895Y-77199122D02*
X110864895Y-77694360D01*
X118948496Y-95288704D02*
X118986592Y-95326800D01*
X118986592Y-95326800D02*
X119100877Y-95364895D01*
X119100877Y-95364895D02*
X119177068Y-95364895D01*
X119177068Y-95364895D02*
X119291354Y-95326800D01*
X119291354Y-95326800D02*
X119367544Y-95250609D01*
X119367544Y-95250609D02*
X119405639Y-95174419D01*
X119405639Y-95174419D02*
X119443735Y-95022038D01*
X119443735Y-95022038D02*
X119443735Y-94907752D01*
X119443735Y-94907752D02*
X119405639Y-94755371D01*
X119405639Y-94755371D02*
X119367544Y-94679180D01*
X119367544Y-94679180D02*
X119291354Y-94602990D01*
X119291354Y-94602990D02*
X119177068Y-94564895D01*
X119177068Y-94564895D02*
X119100877Y-94564895D01*
X119100877Y-94564895D02*
X118986592Y-94602990D01*
X118986592Y-94602990D02*
X118948496Y-94641085D01*
X118186592Y-95364895D02*
X118643735Y-95364895D01*
X118415163Y-95364895D02*
X118415163Y-94564895D01*
X118415163Y-94564895D02*
X118491354Y-94679180D01*
X118491354Y-94679180D02*
X118567544Y-94755371D01*
X118567544Y-94755371D02*
X118643735Y-94793466D01*
X117424687Y-95364895D02*
X117881830Y-95364895D01*
X117653258Y-95364895D02*
X117653258Y-94564895D01*
X117653258Y-94564895D02*
X117729449Y-94679180D01*
X117729449Y-94679180D02*
X117805639Y-94755371D01*
X117805639Y-94755371D02*
X117881830Y-94793466D01*
X103564895Y-86956265D02*
X104212514Y-86956265D01*
X104212514Y-86956265D02*
X104288704Y-86994360D01*
X104288704Y-86994360D02*
X104326800Y-87032455D01*
X104326800Y-87032455D02*
X104364895Y-87108646D01*
X104364895Y-87108646D02*
X104364895Y-87261027D01*
X104364895Y-87261027D02*
X104326800Y-87337217D01*
X104326800Y-87337217D02*
X104288704Y-87375312D01*
X104288704Y-87375312D02*
X104212514Y-87413408D01*
X104212514Y-87413408D02*
X103564895Y-87413408D01*
X103831561Y-88137217D02*
X104364895Y-88137217D01*
X103526800Y-87946741D02*
X104098228Y-87756264D01*
X104098228Y-87756264D02*
X104098228Y-88251503D01*
X92524686Y-90864895D02*
X92524686Y-90064895D01*
X92524686Y-90064895D02*
X92334210Y-90064895D01*
X92334210Y-90064895D02*
X92219924Y-90102990D01*
X92219924Y-90102990D02*
X92143734Y-90179180D01*
X92143734Y-90179180D02*
X92105639Y-90255371D01*
X92105639Y-90255371D02*
X92067543Y-90407752D01*
X92067543Y-90407752D02*
X92067543Y-90522038D01*
X92067543Y-90522038D02*
X92105639Y-90674419D01*
X92105639Y-90674419D02*
X92143734Y-90750609D01*
X92143734Y-90750609D02*
X92219924Y-90826800D01*
X92219924Y-90826800D02*
X92334210Y-90864895D01*
X92334210Y-90864895D02*
X92524686Y-90864895D01*
X91343734Y-90064895D02*
X91724686Y-90064895D01*
X91724686Y-90064895D02*
X91762782Y-90445847D01*
X91762782Y-90445847D02*
X91724686Y-90407752D01*
X91724686Y-90407752D02*
X91648496Y-90369657D01*
X91648496Y-90369657D02*
X91458020Y-90369657D01*
X91458020Y-90369657D02*
X91381829Y-90407752D01*
X91381829Y-90407752D02*
X91343734Y-90445847D01*
X91343734Y-90445847D02*
X91305639Y-90522038D01*
X91305639Y-90522038D02*
X91305639Y-90712514D01*
X91305639Y-90712514D02*
X91343734Y-90788704D01*
X91343734Y-90788704D02*
X91381829Y-90826800D01*
X91381829Y-90826800D02*
X91458020Y-90864895D01*
X91458020Y-90864895D02*
X91648496Y-90864895D01*
X91648496Y-90864895D02*
X91724686Y-90826800D01*
X91724686Y-90826800D02*
X91762782Y-90788704D01*
X94864895Y-90932456D02*
X94483942Y-90665789D01*
X94864895Y-90475313D02*
X94064895Y-90475313D01*
X94064895Y-90475313D02*
X94064895Y-90780075D01*
X94064895Y-90780075D02*
X94102990Y-90856265D01*
X94102990Y-90856265D02*
X94141085Y-90894360D01*
X94141085Y-90894360D02*
X94217276Y-90932456D01*
X94217276Y-90932456D02*
X94331561Y-90932456D01*
X94331561Y-90932456D02*
X94407752Y-90894360D01*
X94407752Y-90894360D02*
X94445847Y-90856265D01*
X94445847Y-90856265D02*
X94483942Y-90780075D01*
X94483942Y-90780075D02*
X94483942Y-90475313D01*
X94064895Y-91656265D02*
X94064895Y-91275313D01*
X94064895Y-91275313D02*
X94445847Y-91237217D01*
X94445847Y-91237217D02*
X94407752Y-91275313D01*
X94407752Y-91275313D02*
X94369657Y-91351503D01*
X94369657Y-91351503D02*
X94369657Y-91541979D01*
X94369657Y-91541979D02*
X94407752Y-91618170D01*
X94407752Y-91618170D02*
X94445847Y-91656265D01*
X94445847Y-91656265D02*
X94522038Y-91694360D01*
X94522038Y-91694360D02*
X94712514Y-91694360D01*
X94712514Y-91694360D02*
X94788704Y-91656265D01*
X94788704Y-91656265D02*
X94826800Y-91618170D01*
X94826800Y-91618170D02*
X94864895Y-91541979D01*
X94864895Y-91541979D02*
X94864895Y-91351503D01*
X94864895Y-91351503D02*
X94826800Y-91275313D01*
X94826800Y-91275313D02*
X94788704Y-91237217D01*
X102317543Y-94788704D02*
X102355639Y-94826800D01*
X102355639Y-94826800D02*
X102469924Y-94864895D01*
X102469924Y-94864895D02*
X102546115Y-94864895D01*
X102546115Y-94864895D02*
X102660401Y-94826800D01*
X102660401Y-94826800D02*
X102736591Y-94750609D01*
X102736591Y-94750609D02*
X102774686Y-94674419D01*
X102774686Y-94674419D02*
X102812782Y-94522038D01*
X102812782Y-94522038D02*
X102812782Y-94407752D01*
X102812782Y-94407752D02*
X102774686Y-94255371D01*
X102774686Y-94255371D02*
X102736591Y-94179180D01*
X102736591Y-94179180D02*
X102660401Y-94102990D01*
X102660401Y-94102990D02*
X102546115Y-94064895D01*
X102546115Y-94064895D02*
X102469924Y-94064895D01*
X102469924Y-94064895D02*
X102355639Y-94102990D01*
X102355639Y-94102990D02*
X102317543Y-94141085D01*
X101860401Y-94407752D02*
X101936591Y-94369657D01*
X101936591Y-94369657D02*
X101974686Y-94331561D01*
X101974686Y-94331561D02*
X102012782Y-94255371D01*
X102012782Y-94255371D02*
X102012782Y-94217276D01*
X102012782Y-94217276D02*
X101974686Y-94141085D01*
X101974686Y-94141085D02*
X101936591Y-94102990D01*
X101936591Y-94102990D02*
X101860401Y-94064895D01*
X101860401Y-94064895D02*
X101708020Y-94064895D01*
X101708020Y-94064895D02*
X101631829Y-94102990D01*
X101631829Y-94102990D02*
X101593734Y-94141085D01*
X101593734Y-94141085D02*
X101555639Y-94217276D01*
X101555639Y-94217276D02*
X101555639Y-94255371D01*
X101555639Y-94255371D02*
X101593734Y-94331561D01*
X101593734Y-94331561D02*
X101631829Y-94369657D01*
X101631829Y-94369657D02*
X101708020Y-94407752D01*
X101708020Y-94407752D02*
X101860401Y-94407752D01*
X101860401Y-94407752D02*
X101936591Y-94445847D01*
X101936591Y-94445847D02*
X101974686Y-94483942D01*
X101974686Y-94483942D02*
X102012782Y-94560133D01*
X102012782Y-94560133D02*
X102012782Y-94712514D01*
X102012782Y-94712514D02*
X101974686Y-94788704D01*
X101974686Y-94788704D02*
X101936591Y-94826800D01*
X101936591Y-94826800D02*
X101860401Y-94864895D01*
X101860401Y-94864895D02*
X101708020Y-94864895D01*
X101708020Y-94864895D02*
X101631829Y-94826800D01*
X101631829Y-94826800D02*
X101593734Y-94788704D01*
X101593734Y-94788704D02*
X101555639Y-94712514D01*
X101555639Y-94712514D02*
X101555639Y-94560133D01*
X101555639Y-94560133D02*
X101593734Y-94483942D01*
X101593734Y-94483942D02*
X101631829Y-94445847D01*
X101631829Y-94445847D02*
X101708020Y-94407752D01*
X92448496Y-79864895D02*
X92715163Y-79483942D01*
X92905639Y-79864895D02*
X92905639Y-79064895D01*
X92905639Y-79064895D02*
X92600877Y-79064895D01*
X92600877Y-79064895D02*
X92524687Y-79102990D01*
X92524687Y-79102990D02*
X92486592Y-79141085D01*
X92486592Y-79141085D02*
X92448496Y-79217276D01*
X92448496Y-79217276D02*
X92448496Y-79331561D01*
X92448496Y-79331561D02*
X92486592Y-79407752D01*
X92486592Y-79407752D02*
X92524687Y-79445847D01*
X92524687Y-79445847D02*
X92600877Y-79483942D01*
X92600877Y-79483942D02*
X92905639Y-79483942D01*
X91686592Y-79864895D02*
X92143735Y-79864895D01*
X91915163Y-79864895D02*
X91915163Y-79064895D01*
X91915163Y-79064895D02*
X91991354Y-79179180D01*
X91991354Y-79179180D02*
X92067544Y-79255371D01*
X92067544Y-79255371D02*
X92143735Y-79293466D01*
X90924687Y-79864895D02*
X91381830Y-79864895D01*
X91153258Y-79864895D02*
X91153258Y-79064895D01*
X91153258Y-79064895D02*
X91229449Y-79179180D01*
X91229449Y-79179180D02*
X91305639Y-79255371D01*
X91305639Y-79255371D02*
X91381830Y-79293466D01*
X119695847Y-88149122D02*
X119695847Y-87882456D01*
X120114895Y-87882456D02*
X119314895Y-87882456D01*
X119314895Y-87882456D02*
X119314895Y-88263408D01*
X119695847Y-88834836D02*
X119733942Y-88949122D01*
X119733942Y-88949122D02*
X119772038Y-88987217D01*
X119772038Y-88987217D02*
X119848228Y-89025313D01*
X119848228Y-89025313D02*
X119962514Y-89025313D01*
X119962514Y-89025313D02*
X120038704Y-88987217D01*
X120038704Y-88987217D02*
X120076800Y-88949122D01*
X120076800Y-88949122D02*
X120114895Y-88872932D01*
X120114895Y-88872932D02*
X120114895Y-88568170D01*
X120114895Y-88568170D02*
X119314895Y-88568170D01*
X119314895Y-88568170D02*
X119314895Y-88834836D01*
X119314895Y-88834836D02*
X119352990Y-88911027D01*
X119352990Y-88911027D02*
X119391085Y-88949122D01*
X119391085Y-88949122D02*
X119467276Y-88987217D01*
X119467276Y-88987217D02*
X119543466Y-88987217D01*
X119543466Y-88987217D02*
X119619657Y-88949122D01*
X119619657Y-88949122D02*
X119657752Y-88911027D01*
X119657752Y-88911027D02*
X119695847Y-88834836D01*
X119695847Y-88834836D02*
X119695847Y-88568170D01*
X120114895Y-89787217D02*
X120114895Y-89330074D01*
X120114895Y-89558646D02*
X119314895Y-89558646D01*
X119314895Y-89558646D02*
X119429180Y-89482455D01*
X119429180Y-89482455D02*
X119505371Y-89406265D01*
X119505371Y-89406265D02*
X119543466Y-89330074D01*
X97288704Y-84551503D02*
X97326800Y-84513407D01*
X97326800Y-84513407D02*
X97364895Y-84399122D01*
X97364895Y-84399122D02*
X97364895Y-84322931D01*
X97364895Y-84322931D02*
X97326800Y-84208645D01*
X97326800Y-84208645D02*
X97250609Y-84132455D01*
X97250609Y-84132455D02*
X97174419Y-84094360D01*
X97174419Y-84094360D02*
X97022038Y-84056264D01*
X97022038Y-84056264D02*
X96907752Y-84056264D01*
X96907752Y-84056264D02*
X96755371Y-84094360D01*
X96755371Y-84094360D02*
X96679180Y-84132455D01*
X96679180Y-84132455D02*
X96602990Y-84208645D01*
X96602990Y-84208645D02*
X96564895Y-84322931D01*
X96564895Y-84322931D02*
X96564895Y-84399122D01*
X96564895Y-84399122D02*
X96602990Y-84513407D01*
X96602990Y-84513407D02*
X96641085Y-84551503D01*
X97364895Y-85313407D02*
X97364895Y-84856264D01*
X97364895Y-85084836D02*
X96564895Y-85084836D01*
X96564895Y-85084836D02*
X96679180Y-85008645D01*
X96679180Y-85008645D02*
X96755371Y-84932455D01*
X96755371Y-84932455D02*
X96793466Y-84856264D01*
X96831561Y-85999122D02*
X97364895Y-85999122D01*
X96526800Y-85808646D02*
X97098228Y-85618169D01*
X97098228Y-85618169D02*
X97098228Y-86113408D01*
X104067543Y-84788704D02*
X104105639Y-84826800D01*
X104105639Y-84826800D02*
X104219924Y-84864895D01*
X104219924Y-84864895D02*
X104296115Y-84864895D01*
X104296115Y-84864895D02*
X104410401Y-84826800D01*
X104410401Y-84826800D02*
X104486591Y-84750609D01*
X104486591Y-84750609D02*
X104524686Y-84674419D01*
X104524686Y-84674419D02*
X104562782Y-84522038D01*
X104562782Y-84522038D02*
X104562782Y-84407752D01*
X104562782Y-84407752D02*
X104524686Y-84255371D01*
X104524686Y-84255371D02*
X104486591Y-84179180D01*
X104486591Y-84179180D02*
X104410401Y-84102990D01*
X104410401Y-84102990D02*
X104296115Y-84064895D01*
X104296115Y-84064895D02*
X104219924Y-84064895D01*
X104219924Y-84064895D02*
X104105639Y-84102990D01*
X104105639Y-84102990D02*
X104067543Y-84141085D01*
X103800877Y-84064895D02*
X103267543Y-84064895D01*
X103267543Y-84064895D02*
X103610401Y-84864895D01*
X114614895Y-89975313D02*
X113814895Y-89975313D01*
X113814895Y-89975313D02*
X113814895Y-90165789D01*
X113814895Y-90165789D02*
X113852990Y-90280075D01*
X113852990Y-90280075D02*
X113929180Y-90356265D01*
X113929180Y-90356265D02*
X114005371Y-90394360D01*
X114005371Y-90394360D02*
X114157752Y-90432456D01*
X114157752Y-90432456D02*
X114272038Y-90432456D01*
X114272038Y-90432456D02*
X114424419Y-90394360D01*
X114424419Y-90394360D02*
X114500609Y-90356265D01*
X114500609Y-90356265D02*
X114576800Y-90280075D01*
X114576800Y-90280075D02*
X114614895Y-90165789D01*
X114614895Y-90165789D02*
X114614895Y-89975313D01*
X113891085Y-90737217D02*
X113852990Y-90775313D01*
X113852990Y-90775313D02*
X113814895Y-90851503D01*
X113814895Y-90851503D02*
X113814895Y-91041979D01*
X113814895Y-91041979D02*
X113852990Y-91118170D01*
X113852990Y-91118170D02*
X113891085Y-91156265D01*
X113891085Y-91156265D02*
X113967276Y-91194360D01*
X113967276Y-91194360D02*
X114043466Y-91194360D01*
X114043466Y-91194360D02*
X114157752Y-91156265D01*
X114157752Y-91156265D02*
X114614895Y-90699122D01*
X114614895Y-90699122D02*
X114614895Y-91194360D01*
X124442543Y-87069895D02*
X124709210Y-86688942D01*
X124899686Y-87069895D02*
X124899686Y-86269895D01*
X124899686Y-86269895D02*
X124594924Y-86269895D01*
X124594924Y-86269895D02*
X124518734Y-86307990D01*
X124518734Y-86307990D02*
X124480639Y-86346085D01*
X124480639Y-86346085D02*
X124442543Y-86422276D01*
X124442543Y-86422276D02*
X124442543Y-86536561D01*
X124442543Y-86536561D02*
X124480639Y-86612752D01*
X124480639Y-86612752D02*
X124518734Y-86650847D01*
X124518734Y-86650847D02*
X124594924Y-86688942D01*
X124594924Y-86688942D02*
X124899686Y-86688942D01*
X123985401Y-86612752D02*
X124061591Y-86574657D01*
X124061591Y-86574657D02*
X124099686Y-86536561D01*
X124099686Y-86536561D02*
X124137782Y-86460371D01*
X124137782Y-86460371D02*
X124137782Y-86422276D01*
X124137782Y-86422276D02*
X124099686Y-86346085D01*
X124099686Y-86346085D02*
X124061591Y-86307990D01*
X124061591Y-86307990D02*
X123985401Y-86269895D01*
X123985401Y-86269895D02*
X123833020Y-86269895D01*
X123833020Y-86269895D02*
X123756829Y-86307990D01*
X123756829Y-86307990D02*
X123718734Y-86346085D01*
X123718734Y-86346085D02*
X123680639Y-86422276D01*
X123680639Y-86422276D02*
X123680639Y-86460371D01*
X123680639Y-86460371D02*
X123718734Y-86536561D01*
X123718734Y-86536561D02*
X123756829Y-86574657D01*
X123756829Y-86574657D02*
X123833020Y-86612752D01*
X123833020Y-86612752D02*
X123985401Y-86612752D01*
X123985401Y-86612752D02*
X124061591Y-86650847D01*
X124061591Y-86650847D02*
X124099686Y-86688942D01*
X124099686Y-86688942D02*
X124137782Y-86765133D01*
X124137782Y-86765133D02*
X124137782Y-86917514D01*
X124137782Y-86917514D02*
X124099686Y-86993704D01*
X124099686Y-86993704D02*
X124061591Y-87031800D01*
X124061591Y-87031800D02*
X123985401Y-87069895D01*
X123985401Y-87069895D02*
X123833020Y-87069895D01*
X123833020Y-87069895D02*
X123756829Y-87031800D01*
X123756829Y-87031800D02*
X123718734Y-86993704D01*
X123718734Y-86993704D02*
X123680639Y-86917514D01*
X123680639Y-86917514D02*
X123680639Y-86765133D01*
X123680639Y-86765133D02*
X123718734Y-86688942D01*
X123718734Y-86688942D02*
X123756829Y-86650847D01*
X123756829Y-86650847D02*
X123833020Y-86612752D01*
X98543734Y-76064895D02*
X98543734Y-76712514D01*
X98543734Y-76712514D02*
X98505639Y-76788704D01*
X98505639Y-76788704D02*
X98467544Y-76826800D01*
X98467544Y-76826800D02*
X98391353Y-76864895D01*
X98391353Y-76864895D02*
X98238972Y-76864895D01*
X98238972Y-76864895D02*
X98162782Y-76826800D01*
X98162782Y-76826800D02*
X98124687Y-76788704D01*
X98124687Y-76788704D02*
X98086591Y-76712514D01*
X98086591Y-76712514D02*
X98086591Y-76064895D01*
X97781830Y-76064895D02*
X97248496Y-76064895D01*
X97248496Y-76064895D02*
X97591354Y-76864895D01*
X119064895Y-83956265D02*
X119712514Y-83956265D01*
X119712514Y-83956265D02*
X119788704Y-83994360D01*
X119788704Y-83994360D02*
X119826800Y-84032455D01*
X119826800Y-84032455D02*
X119864895Y-84108646D01*
X119864895Y-84108646D02*
X119864895Y-84261027D01*
X119864895Y-84261027D02*
X119826800Y-84337217D01*
X119826800Y-84337217D02*
X119788704Y-84375312D01*
X119788704Y-84375312D02*
X119712514Y-84413408D01*
X119712514Y-84413408D02*
X119064895Y-84413408D01*
X119064895Y-85175312D02*
X119064895Y-84794360D01*
X119064895Y-84794360D02*
X119445847Y-84756264D01*
X119445847Y-84756264D02*
X119407752Y-84794360D01*
X119407752Y-84794360D02*
X119369657Y-84870550D01*
X119369657Y-84870550D02*
X119369657Y-85061026D01*
X119369657Y-85061026D02*
X119407752Y-85137217D01*
X119407752Y-85137217D02*
X119445847Y-85175312D01*
X119445847Y-85175312D02*
X119522038Y-85213407D01*
X119522038Y-85213407D02*
X119712514Y-85213407D01*
X119712514Y-85213407D02*
X119788704Y-85175312D01*
X119788704Y-85175312D02*
X119826800Y-85137217D01*
X119826800Y-85137217D02*
X119864895Y-85061026D01*
X119864895Y-85061026D02*
X119864895Y-84870550D01*
X119864895Y-84870550D02*
X119826800Y-84794360D01*
X119826800Y-84794360D02*
X119788704Y-84756264D01*
X98864895Y-58051503D02*
X98483942Y-57784836D01*
X98864895Y-57594360D02*
X98064895Y-57594360D01*
X98064895Y-57594360D02*
X98064895Y-57899122D01*
X98064895Y-57899122D02*
X98102990Y-57975312D01*
X98102990Y-57975312D02*
X98141085Y-58013407D01*
X98141085Y-58013407D02*
X98217276Y-58051503D01*
X98217276Y-58051503D02*
X98331561Y-58051503D01*
X98331561Y-58051503D02*
X98407752Y-58013407D01*
X98407752Y-58013407D02*
X98445847Y-57975312D01*
X98445847Y-57975312D02*
X98483942Y-57899122D01*
X98483942Y-57899122D02*
X98483942Y-57594360D01*
X98864895Y-58813407D02*
X98864895Y-58356264D01*
X98864895Y-58584836D02*
X98064895Y-58584836D01*
X98064895Y-58584836D02*
X98179180Y-58508645D01*
X98179180Y-58508645D02*
X98255371Y-58432455D01*
X98255371Y-58432455D02*
X98293466Y-58356264D01*
X98064895Y-59080074D02*
X98064895Y-59575312D01*
X98064895Y-59575312D02*
X98369657Y-59308646D01*
X98369657Y-59308646D02*
X98369657Y-59422931D01*
X98369657Y-59422931D02*
X98407752Y-59499122D01*
X98407752Y-59499122D02*
X98445847Y-59537217D01*
X98445847Y-59537217D02*
X98522038Y-59575312D01*
X98522038Y-59575312D02*
X98712514Y-59575312D01*
X98712514Y-59575312D02*
X98788704Y-59537217D01*
X98788704Y-59537217D02*
X98826800Y-59499122D01*
X98826800Y-59499122D02*
X98864895Y-59422931D01*
X98864895Y-59422931D02*
X98864895Y-59194360D01*
X98864895Y-59194360D02*
X98826800Y-59118169D01*
X98826800Y-59118169D02*
X98788704Y-59080074D01*
X107788704Y-95432456D02*
X107826800Y-95394360D01*
X107826800Y-95394360D02*
X107864895Y-95280075D01*
X107864895Y-95280075D02*
X107864895Y-95203884D01*
X107864895Y-95203884D02*
X107826800Y-95089598D01*
X107826800Y-95089598D02*
X107750609Y-95013408D01*
X107750609Y-95013408D02*
X107674419Y-94975313D01*
X107674419Y-94975313D02*
X107522038Y-94937217D01*
X107522038Y-94937217D02*
X107407752Y-94937217D01*
X107407752Y-94937217D02*
X107255371Y-94975313D01*
X107255371Y-94975313D02*
X107179180Y-95013408D01*
X107179180Y-95013408D02*
X107102990Y-95089598D01*
X107102990Y-95089598D02*
X107064895Y-95203884D01*
X107064895Y-95203884D02*
X107064895Y-95280075D01*
X107064895Y-95280075D02*
X107102990Y-95394360D01*
X107102990Y-95394360D02*
X107141085Y-95432456D01*
X107331561Y-96118170D02*
X107864895Y-96118170D01*
X107026800Y-95927694D02*
X107598228Y-95737217D01*
X107598228Y-95737217D02*
X107598228Y-96232456D01*
X98543734Y-69814895D02*
X98543734Y-70462514D01*
X98543734Y-70462514D02*
X98505639Y-70538704D01*
X98505639Y-70538704D02*
X98467544Y-70576800D01*
X98467544Y-70576800D02*
X98391353Y-70614895D01*
X98391353Y-70614895D02*
X98238972Y-70614895D01*
X98238972Y-70614895D02*
X98162782Y-70576800D01*
X98162782Y-70576800D02*
X98124687Y-70538704D01*
X98124687Y-70538704D02*
X98086591Y-70462514D01*
X98086591Y-70462514D02*
X98086591Y-69814895D01*
X97362782Y-69814895D02*
X97515163Y-69814895D01*
X97515163Y-69814895D02*
X97591354Y-69852990D01*
X97591354Y-69852990D02*
X97629449Y-69891085D01*
X97629449Y-69891085D02*
X97705639Y-70005371D01*
X97705639Y-70005371D02*
X97743735Y-70157752D01*
X97743735Y-70157752D02*
X97743735Y-70462514D01*
X97743735Y-70462514D02*
X97705639Y-70538704D01*
X97705639Y-70538704D02*
X97667544Y-70576800D01*
X97667544Y-70576800D02*
X97591354Y-70614895D01*
X97591354Y-70614895D02*
X97438973Y-70614895D01*
X97438973Y-70614895D02*
X97362782Y-70576800D01*
X97362782Y-70576800D02*
X97324687Y-70538704D01*
X97324687Y-70538704D02*
X97286592Y-70462514D01*
X97286592Y-70462514D02*
X97286592Y-70272038D01*
X97286592Y-70272038D02*
X97324687Y-70195847D01*
X97324687Y-70195847D02*
X97362782Y-70157752D01*
X97362782Y-70157752D02*
X97438973Y-70119657D01*
X97438973Y-70119657D02*
X97591354Y-70119657D01*
X97591354Y-70119657D02*
X97667544Y-70157752D01*
X97667544Y-70157752D02*
X97705639Y-70195847D01*
X97705639Y-70195847D02*
X97743735Y-70272038D01*
D14*
X94622500Y-81654546D02*
X94622500Y-82129062D01*
X93577500Y-81654546D02*
X93577500Y-82129062D01*
X98190000Y-88240580D02*
X98190000Y-87959420D01*
X99210000Y-88240580D02*
X99210000Y-87959420D01*
X103010000Y-76359420D02*
X103010000Y-76640580D01*
X101990000Y-76359420D02*
X101990000Y-76640580D01*
X88977500Y-63237258D02*
X88977500Y-62762742D01*
X90022500Y-63237258D02*
X90022500Y-62762742D01*
X100260000Y-92100000D02*
X100260000Y-91300000D01*
X100260000Y-92100000D02*
X100260000Y-92900000D01*
X97140000Y-92100000D02*
X97140000Y-90300000D01*
X97140000Y-92100000D02*
X97140000Y-92900000D01*
X105022500Y-76262742D02*
X105022500Y-76737258D01*
X103977500Y-76262742D02*
X103977500Y-76737258D01*
X92658797Y-93022500D02*
X92184281Y-93022500D01*
X92658797Y-91977500D02*
X92184281Y-91977500D01*
X124137742Y-89477500D02*
X124612258Y-89477500D01*
X124137742Y-90522500D02*
X124612258Y-90522500D01*
X106000000Y-78440000D02*
X105350000Y-78440000D01*
X106000000Y-78440000D02*
X106650000Y-78440000D01*
X106000000Y-81560000D02*
X104325000Y-81560000D01*
X106000000Y-81560000D02*
X106650000Y-81560000D01*
X90962500Y-80331804D02*
X90312500Y-80331804D01*
X90962500Y-80331804D02*
X91612500Y-80331804D01*
X90962500Y-83451804D02*
X89287500Y-83451804D01*
X90962500Y-83451804D02*
X91612500Y-83451804D01*
X100610580Y-70140000D02*
X100329420Y-70140000D01*
X100610580Y-69120000D02*
X100329420Y-69120000D01*
X106010000Y-92859420D02*
X106010000Y-93140580D01*
X104990000Y-92859420D02*
X104990000Y-93140580D01*
X93577500Y-88129062D02*
X93577500Y-87654546D01*
X94622500Y-88129062D02*
X94622500Y-87654546D01*
X102477500Y-80237258D02*
X102477500Y-79762742D01*
X103522500Y-80237258D02*
X103522500Y-79762742D01*
X108110000Y-87000000D02*
X108110000Y-84800000D01*
X108110000Y-87000000D02*
X108110000Y-89200000D01*
X104890000Y-87000000D02*
X104890000Y-83400000D01*
X104890000Y-87000000D02*
X104890000Y-89200000D01*
X96610000Y-81751224D02*
X96610000Y-82032384D01*
X95590000Y-81751224D02*
X95590000Y-82032384D01*
X110022500Y-84762742D02*
X110022500Y-85237258D01*
X108977500Y-84762742D02*
X108977500Y-85237258D01*
X100000000Y-78440000D02*
X99350000Y-78440000D01*
X100000000Y-78440000D02*
X100650000Y-78440000D01*
X100000000Y-81560000D02*
X98325000Y-81560000D01*
X100000000Y-81560000D02*
X100650000Y-81560000D01*
X102059420Y-92590000D02*
X102340580Y-92590000D01*
X102059420Y-93610000D02*
X102340580Y-93610000D01*
X115240580Y-94210000D02*
X114959420Y-94210000D01*
X115240580Y-93190000D02*
X114959420Y-93190000D01*
X117740000Y-79640580D02*
X117740000Y-79359420D01*
X118760000Y-79640580D02*
X118760000Y-79359420D01*
X94262742Y-64977500D02*
X94737258Y-64977500D01*
X94262742Y-66022500D02*
X94737258Y-66022500D01*
X90977500Y-63237258D02*
X90977500Y-62762742D01*
X92022500Y-63237258D02*
X92022500Y-62762742D01*
X90977500Y-59737258D02*
X90977500Y-59262742D01*
X92022500Y-59737258D02*
X92022500Y-59262742D01*
X100610580Y-71640000D02*
X100329420Y-71640000D01*
X100610580Y-70620000D02*
X100329420Y-70620000D01*
X105977500Y-76737258D02*
X105977500Y-76262742D01*
X107022500Y-76737258D02*
X107022500Y-76262742D01*
X118359420Y-93190000D02*
X118640580Y-93190000D01*
X118359420Y-94210000D02*
X118640580Y-94210000D01*
X99940000Y-87500000D02*
X99940000Y-88300000D01*
X99940000Y-87500000D02*
X99940000Y-86700000D01*
X103060000Y-87500000D02*
X103060000Y-89300000D01*
X103060000Y-87500000D02*
X103060000Y-86700000D01*
X90962500Y-86331804D02*
X90312500Y-86331804D01*
X90962500Y-86331804D02*
X91612500Y-86331804D01*
X90962500Y-89451804D02*
X89287500Y-89451804D01*
X90962500Y-89451804D02*
X91612500Y-89451804D01*
X95177500Y-92337258D02*
X95177500Y-91862742D01*
X96222500Y-92337258D02*
X96222500Y-91862742D01*
X102059420Y-90590000D02*
X102340580Y-90590000D01*
X102059420Y-91610000D02*
X102340580Y-91610000D01*
X91762742Y-77477500D02*
X92237258Y-77477500D01*
X91762742Y-78522500D02*
X92237258Y-78522500D01*
X120260000Y-91234420D02*
X120260000Y-91515580D01*
X119240000Y-91234420D02*
X119240000Y-91515580D01*
X95490000Y-88032384D02*
X95490000Y-87751224D01*
X96510000Y-88032384D02*
X96510000Y-87751224D01*
X101640580Y-85010000D02*
X101359420Y-85010000D01*
X101640580Y-83990000D02*
X101359420Y-83990000D01*
X115205000Y-91525000D02*
X115205000Y-90225000D01*
X118325000Y-90225000D02*
X118325000Y-92225000D01*
X124612258Y-88657500D02*
X124137742Y-88657500D01*
X124612258Y-87612500D02*
X124137742Y-87612500D01*
X96750000Y-77070001D02*
X96750000Y-73730001D01*
X96750000Y-73730001D02*
X95950000Y-72930001D01*
X95950000Y-72930001D02*
X87900000Y-72930001D01*
X87900000Y-77070001D02*
X96750000Y-77070001D01*
X87900000Y-72930001D02*
X87900000Y-77070001D01*
X113705000Y-84875000D02*
X113705000Y-86825000D01*
X113705000Y-84875000D02*
X113705000Y-82925000D01*
X118825000Y-84875000D02*
X118825000Y-88325000D01*
X118825000Y-84875000D02*
X118825000Y-82925000D01*
X88977500Y-59737258D02*
X88977500Y-59262742D01*
X90022500Y-59737258D02*
X90022500Y-59262742D01*
X108010000Y-92859420D02*
X108010000Y-93140580D01*
X106990000Y-92859420D02*
X106990000Y-93140580D01*
X96750000Y-70570001D02*
X96750000Y-67230001D01*
X96750000Y-67230001D02*
X95950000Y-66430001D01*
X95950000Y-66430001D02*
X87900000Y-66430001D01*
X87900000Y-70570001D02*
X96750000Y-70570001D01*
X87900000Y-66430001D02*
X87900000Y-70570001D01*
%LPC*%
D15*
X90300000Y-84891804D03*
X95300000Y-84891804D03*
D16*
X122523461Y-91768938D03*
X122523461Y-85988938D03*
D17*
X122023461Y-93198938D03*
D18*
X126203461Y-93198938D03*
X126203461Y-84558938D03*
D17*
X122023461Y-84558938D03*
D15*
X90300000Y-71891804D03*
X95300000Y-71891804D03*
D19*
X125000000Y-59500000D03*
D20*
X123667000Y-65860000D03*
D21*
X121000000Y-68400000D03*
X126080000Y-68400000D03*
X121000000Y-63320000D03*
X126080000Y-63320000D03*
D19*
X95000000Y-97000000D03*
X98834207Y-62869741D03*
D22*
X105063818Y-60232233D03*
D23*
X102398026Y-59305923D03*
X100601974Y-61101974D03*
X101500000Y-63796051D03*
X103296051Y-62000000D03*
D19*
X95000000Y-59500000D03*
D24*
X126500000Y-75480000D03*
X126500000Y-82280000D03*
D19*
X125000000Y-97000000D03*
G36*
G01*
X93825000Y-80666804D02*
X94375000Y-80666804D01*
G75*
G02*
X94575000Y-80866804I0J-200000D01*
G01*
X94575000Y-81266804D01*
G75*
G02*
X94375000Y-81466804I-200000J0D01*
G01*
X93825000Y-81466804D01*
G75*
G02*
X93625000Y-81266804I0J200000D01*
G01*
X93625000Y-80866804D01*
G75*
G02*
X93825000Y-80666804I200000J0D01*
G01*
G37*
G36*
G01*
X93825000Y-82316804D02*
X94375000Y-82316804D01*
G75*
G02*
X94575000Y-82516804I0J-200000D01*
G01*
X94575000Y-82916804D01*
G75*
G02*
X94375000Y-83116804I-200000J0D01*
G01*
X93825000Y-83116804D01*
G75*
G02*
X93625000Y-82916804I0J200000D01*
G01*
X93625000Y-82516804D01*
G75*
G02*
X93825000Y-82316804I200000J0D01*
G01*
G37*
G36*
G01*
X98950000Y-89325000D02*
X98450000Y-89325000D01*
G75*
G02*
X98225000Y-89100000I0J225000D01*
G01*
X98225000Y-88650000D01*
G75*
G02*
X98450000Y-88425000I225000J0D01*
G01*
X98950000Y-88425000D01*
G75*
G02*
X99175000Y-88650000I0J-225000D01*
G01*
X99175000Y-89100000D01*
G75*
G02*
X98950000Y-89325000I-225000J0D01*
G01*
G37*
G36*
G01*
X98950000Y-87775000D02*
X98450000Y-87775000D01*
G75*
G02*
X98225000Y-87550000I0J225000D01*
G01*
X98225000Y-87100000D01*
G75*
G02*
X98450000Y-86875000I225000J0D01*
G01*
X98950000Y-86875000D01*
G75*
G02*
X99175000Y-87100000I0J-225000D01*
G01*
X99175000Y-87550000D01*
G75*
G02*
X98950000Y-87775000I-225000J0D01*
G01*
G37*
G36*
G01*
X102250000Y-75275000D02*
X102750000Y-75275000D01*
G75*
G02*
X102975000Y-75500000I0J-225000D01*
G01*
X102975000Y-75950000D01*
G75*
G02*
X102750000Y-76175000I-225000J0D01*
G01*
X102250000Y-76175000D01*
G75*
G02*
X102025000Y-75950000I0J225000D01*
G01*
X102025000Y-75500000D01*
G75*
G02*
X102250000Y-75275000I225000J0D01*
G01*
G37*
G36*
G01*
X102250000Y-76825000D02*
X102750000Y-76825000D01*
G75*
G02*
X102975000Y-77050000I0J-225000D01*
G01*
X102975000Y-77500000D01*
G75*
G02*
X102750000Y-77725000I-225000J0D01*
G01*
X102250000Y-77725000D01*
G75*
G02*
X102025000Y-77500000I0J225000D01*
G01*
X102025000Y-77050000D01*
G75*
G02*
X102250000Y-76825000I225000J0D01*
G01*
G37*
G36*
G01*
X89775000Y-64225000D02*
X89225000Y-64225000D01*
G75*
G02*
X89025000Y-64025000I0J200000D01*
G01*
X89025000Y-63625000D01*
G75*
G02*
X89225000Y-63425000I200000J0D01*
G01*
X89775000Y-63425000D01*
G75*
G02*
X89975000Y-63625000I0J-200000D01*
G01*
X89975000Y-64025000D01*
G75*
G02*
X89775000Y-64225000I-200000J0D01*
G01*
G37*
G36*
G01*
X89775000Y-62575000D02*
X89225000Y-62575000D01*
G75*
G02*
X89025000Y-62375000I0J200000D01*
G01*
X89025000Y-61975000D01*
G75*
G02*
X89225000Y-61775000I200000J0D01*
G01*
X89775000Y-61775000D01*
G75*
G02*
X89975000Y-61975000I0J-200000D01*
G01*
X89975000Y-62375000D01*
G75*
G02*
X89775000Y-62575000I-200000J0D01*
G01*
G37*
G36*
G01*
X97600000Y-90300000D02*
X97900000Y-90300000D01*
G75*
G02*
X98050000Y-90450000I0J-150000D01*
G01*
X98050000Y-91475000D01*
G75*
G02*
X97900000Y-91625000I-150000J0D01*
G01*
X97600000Y-91625000D01*
G75*
G02*
X97450000Y-91475000I0J150000D01*
G01*
X97450000Y-90450000D01*
G75*
G02*
X97600000Y-90300000I150000J0D01*
G01*
G37*
G36*
G01*
X98550000Y-90300000D02*
X98850000Y-90300000D01*
G75*
G02*
X99000000Y-90450000I0J-150000D01*
G01*
X99000000Y-91475000D01*
G75*
G02*
X98850000Y-91625000I-150000J0D01*
G01*
X98550000Y-91625000D01*
G75*
G02*
X98400000Y-91475000I0J150000D01*
G01*
X98400000Y-90450000D01*
G75*
G02*
X98550000Y-90300000I150000J0D01*
G01*
G37*
G36*
G01*
X99500000Y-90300000D02*
X99800000Y-90300000D01*
G75*
G02*
X99950000Y-90450000I0J-150000D01*
G01*
X99950000Y-91475000D01*
G75*
G02*
X99800000Y-91625000I-150000J0D01*
G01*
X99500000Y-91625000D01*
G75*
G02*
X99350000Y-91475000I0J150000D01*
G01*
X99350000Y-90450000D01*
G75*
G02*
X99500000Y-90300000I150000J0D01*
G01*
G37*
G36*
G01*
X99500000Y-92575000D02*
X99800000Y-92575000D01*
G75*
G02*
X99950000Y-92725000I0J-150000D01*
G01*
X99950000Y-93750000D01*
G75*
G02*
X99800000Y-93900000I-150000J0D01*
G01*
X99500000Y-93900000D01*
G75*
G02*
X99350000Y-93750000I0J150000D01*
G01*
X99350000Y-92725000D01*
G75*
G02*
X99500000Y-92575000I150000J0D01*
G01*
G37*
G36*
G01*
X97600000Y-92575000D02*
X97900000Y-92575000D01*
G75*
G02*
X98050000Y-92725000I0J-150000D01*
G01*
X98050000Y-93750000D01*
G75*
G02*
X97900000Y-93900000I-150000J0D01*
G01*
X97600000Y-93900000D01*
G75*
G02*
X97450000Y-93750000I0J150000D01*
G01*
X97450000Y-92725000D01*
G75*
G02*
X97600000Y-92575000I150000J0D01*
G01*
G37*
G36*
G01*
X104225000Y-75275000D02*
X104775000Y-75275000D01*
G75*
G02*
X104975000Y-75475000I0J-200000D01*
G01*
X104975000Y-75875000D01*
G75*
G02*
X104775000Y-76075000I-200000J0D01*
G01*
X104225000Y-76075000D01*
G75*
G02*
X104025000Y-75875000I0J200000D01*
G01*
X104025000Y-75475000D01*
G75*
G02*
X104225000Y-75275000I200000J0D01*
G01*
G37*
G36*
G01*
X104225000Y-76925000D02*
X104775000Y-76925000D01*
G75*
G02*
X104975000Y-77125000I0J-200000D01*
G01*
X104975000Y-77525000D01*
G75*
G02*
X104775000Y-77725000I-200000J0D01*
G01*
X104225000Y-77725000D01*
G75*
G02*
X104025000Y-77525000I0J200000D01*
G01*
X104025000Y-77125000D01*
G75*
G02*
X104225000Y-76925000I200000J0D01*
G01*
G37*
G36*
G01*
X93646539Y-92225000D02*
X93646539Y-92775000D01*
G75*
G02*
X93446539Y-92975000I-200000J0D01*
G01*
X93046539Y-92975000D01*
G75*
G02*
X92846539Y-92775000I0J200000D01*
G01*
X92846539Y-92225000D01*
G75*
G02*
X93046539Y-92025000I200000J0D01*
G01*
X93446539Y-92025000D01*
G75*
G02*
X93646539Y-92225000I0J-200000D01*
G01*
G37*
G36*
G01*
X91996539Y-92225000D02*
X91996539Y-92775000D01*
G75*
G02*
X91796539Y-92975000I-200000J0D01*
G01*
X91396539Y-92975000D01*
G75*
G02*
X91196539Y-92775000I0J200000D01*
G01*
X91196539Y-92225000D01*
G75*
G02*
X91396539Y-92025000I200000J0D01*
G01*
X91796539Y-92025000D01*
G75*
G02*
X91996539Y-92225000I0J-200000D01*
G01*
G37*
G36*
G01*
X123150000Y-90275000D02*
X123150000Y-89725000D01*
G75*
G02*
X123350000Y-89525000I200000J0D01*
G01*
X123750000Y-89525000D01*
G75*
G02*
X123950000Y-89725000I0J-200000D01*
G01*
X123950000Y-90275000D01*
G75*
G02*
X123750000Y-90475000I-200000J0D01*
G01*
X123350000Y-90475000D01*
G75*
G02*
X123150000Y-90275000I0J200000D01*
G01*
G37*
G36*
G01*
X124800000Y-90275000D02*
X124800000Y-89725000D01*
G75*
G02*
X125000000Y-89525000I200000J0D01*
G01*
X125400000Y-89525000D01*
G75*
G02*
X125600000Y-89725000I0J-200000D01*
G01*
X125600000Y-90275000D01*
G75*
G02*
X125400000Y-90475000I-200000J0D01*
G01*
X125000000Y-90475000D01*
G75*
G02*
X124800000Y-90275000I0J200000D01*
G01*
G37*
G36*
G01*
X104325000Y-81100000D02*
X104325000Y-80800000D01*
G75*
G02*
X104475000Y-80650000I150000J0D01*
G01*
X105650000Y-80650000D01*
G75*
G02*
X105800000Y-80800000I0J-150000D01*
G01*
X105800000Y-81100000D01*
G75*
G02*
X105650000Y-81250000I-150000J0D01*
G01*
X104475000Y-81250000D01*
G75*
G02*
X104325000Y-81100000I0J150000D01*
G01*
G37*
G36*
G01*
X104325000Y-79200000D02*
X104325000Y-78900000D01*
G75*
G02*
X104475000Y-78750000I150000J0D01*
G01*
X105650000Y-78750000D01*
G75*
G02*
X105800000Y-78900000I0J-150000D01*
G01*
X105800000Y-79200000D01*
G75*
G02*
X105650000Y-79350000I-150000J0D01*
G01*
X104475000Y-79350000D01*
G75*
G02*
X104325000Y-79200000I0J150000D01*
G01*
G37*
G36*
G01*
X106200000Y-80150000D02*
X106200000Y-79850000D01*
G75*
G02*
X106350000Y-79700000I150000J0D01*
G01*
X107525000Y-79700000D01*
G75*
G02*
X107675000Y-79850000I0J-150000D01*
G01*
X107675000Y-80150000D01*
G75*
G02*
X107525000Y-80300000I-150000J0D01*
G01*
X106350000Y-80300000D01*
G75*
G02*
X106200000Y-80150000I0J150000D01*
G01*
G37*
G36*
G01*
X89287500Y-82991804D02*
X89287500Y-82691804D01*
G75*
G02*
X89437500Y-82541804I150000J0D01*
G01*
X90612500Y-82541804D01*
G75*
G02*
X90762500Y-82691804I0J-150000D01*
G01*
X90762500Y-82991804D01*
G75*
G02*
X90612500Y-83141804I-150000J0D01*
G01*
X89437500Y-83141804D01*
G75*
G02*
X89287500Y-82991804I0J150000D01*
G01*
G37*
G36*
G01*
X89287500Y-81091804D02*
X89287500Y-80791804D01*
G75*
G02*
X89437500Y-80641804I150000J0D01*
G01*
X90612500Y-80641804D01*
G75*
G02*
X90762500Y-80791804I0J-150000D01*
G01*
X90762500Y-81091804D01*
G75*
G02*
X90612500Y-81241804I-150000J0D01*
G01*
X89437500Y-81241804D01*
G75*
G02*
X89287500Y-81091804I0J150000D01*
G01*
G37*
G36*
G01*
X91162500Y-82041804D02*
X91162500Y-81741804D01*
G75*
G02*
X91312500Y-81591804I150000J0D01*
G01*
X92487500Y-81591804D01*
G75*
G02*
X92637500Y-81741804I0J-150000D01*
G01*
X92637500Y-82041804D01*
G75*
G02*
X92487500Y-82191804I-150000J0D01*
G01*
X91312500Y-82191804D01*
G75*
G02*
X91162500Y-82041804I0J150000D01*
G01*
G37*
G36*
G01*
X101695000Y-69380000D02*
X101695000Y-69880000D01*
G75*
G02*
X101470000Y-70105000I-225000J0D01*
G01*
X101020000Y-70105000D01*
G75*
G02*
X100795000Y-69880000I0J225000D01*
G01*
X100795000Y-69380000D01*
G75*
G02*
X101020000Y-69155000I225000J0D01*
G01*
X101470000Y-69155000D01*
G75*
G02*
X101695000Y-69380000I0J-225000D01*
G01*
G37*
G36*
G01*
X100145000Y-69380000D02*
X100145000Y-69880000D01*
G75*
G02*
X99920000Y-70105000I-225000J0D01*
G01*
X99470000Y-70105000D01*
G75*
G02*
X99245000Y-69880000I0J225000D01*
G01*
X99245000Y-69380000D01*
G75*
G02*
X99470000Y-69155000I225000J0D01*
G01*
X99920000Y-69155000D01*
G75*
G02*
X100145000Y-69380000I0J-225000D01*
G01*
G37*
G36*
G01*
X105250000Y-91775000D02*
X105750000Y-91775000D01*
G75*
G02*
X105975000Y-92000000I0J-225000D01*
G01*
X105975000Y-92450000D01*
G75*
G02*
X105750000Y-92675000I-225000J0D01*
G01*
X105250000Y-92675000D01*
G75*
G02*
X105025000Y-92450000I0J225000D01*
G01*
X105025000Y-92000000D01*
G75*
G02*
X105250000Y-91775000I225000J0D01*
G01*
G37*
G36*
G01*
X105250000Y-93325000D02*
X105750000Y-93325000D01*
G75*
G02*
X105975000Y-93550000I0J-225000D01*
G01*
X105975000Y-94000000D01*
G75*
G02*
X105750000Y-94225000I-225000J0D01*
G01*
X105250000Y-94225000D01*
G75*
G02*
X105025000Y-94000000I0J225000D01*
G01*
X105025000Y-93550000D01*
G75*
G02*
X105250000Y-93325000I225000J0D01*
G01*
G37*
G36*
G01*
X94375000Y-89116804D02*
X93825000Y-89116804D01*
G75*
G02*
X93625000Y-88916804I0J200000D01*
G01*
X93625000Y-88516804D01*
G75*
G02*
X93825000Y-88316804I200000J0D01*
G01*
X94375000Y-88316804D01*
G75*
G02*
X94575000Y-88516804I0J-200000D01*
G01*
X94575000Y-88916804D01*
G75*
G02*
X94375000Y-89116804I-200000J0D01*
G01*
G37*
G36*
G01*
X94375000Y-87466804D02*
X93825000Y-87466804D01*
G75*
G02*
X93625000Y-87266804I0J200000D01*
G01*
X93625000Y-86866804D01*
G75*
G02*
X93825000Y-86666804I200000J0D01*
G01*
X94375000Y-86666804D01*
G75*
G02*
X94575000Y-86866804I0J-200000D01*
G01*
X94575000Y-87266804D01*
G75*
G02*
X94375000Y-87466804I-200000J0D01*
G01*
G37*
G36*
G01*
X103275000Y-81225000D02*
X102725000Y-81225000D01*
G75*
G02*
X102525000Y-81025000I0J200000D01*
G01*
X102525000Y-80625000D01*
G75*
G02*
X102725000Y-80425000I200000J0D01*
G01*
X103275000Y-80425000D01*
G75*
G02*
X103475000Y-80625000I0J-200000D01*
G01*
X103475000Y-81025000D01*
G75*
G02*
X103275000Y-81225000I-200000J0D01*
G01*
G37*
G36*
G01*
X103275000Y-79575000D02*
X102725000Y-79575000D01*
G75*
G02*
X102525000Y-79375000I0J200000D01*
G01*
X102525000Y-78975000D01*
G75*
G02*
X102725000Y-78775000I200000J0D01*
G01*
X103275000Y-78775000D01*
G75*
G02*
X103475000Y-78975000I0J-200000D01*
G01*
X103475000Y-79375000D01*
G75*
G02*
X103275000Y-79575000I-200000J0D01*
G01*
G37*
G36*
G01*
X105425000Y-83400000D02*
X105625000Y-83400000D01*
G75*
G02*
X105725000Y-83500000I0J-100000D01*
G01*
X105725000Y-84775000D01*
G75*
G02*
X105625000Y-84875000I-100000J0D01*
G01*
X105425000Y-84875000D01*
G75*
G02*
X105325000Y-84775000I0J100000D01*
G01*
X105325000Y-83500000D01*
G75*
G02*
X105425000Y-83400000I100000J0D01*
G01*
G37*
G36*
G01*
X106075000Y-83400000D02*
X106275000Y-83400000D01*
G75*
G02*
X106375000Y-83500000I0J-100000D01*
G01*
X106375000Y-84775000D01*
G75*
G02*
X106275000Y-84875000I-100000J0D01*
G01*
X106075000Y-84875000D01*
G75*
G02*
X105975000Y-84775000I0J100000D01*
G01*
X105975000Y-83500000D01*
G75*
G02*
X106075000Y-83400000I100000J0D01*
G01*
G37*
G36*
G01*
X106725000Y-83400000D02*
X106925000Y-83400000D01*
G75*
G02*
X107025000Y-83500000I0J-100000D01*
G01*
X107025000Y-84775000D01*
G75*
G02*
X106925000Y-84875000I-100000J0D01*
G01*
X106725000Y-84875000D01*
G75*
G02*
X106625000Y-84775000I0J100000D01*
G01*
X106625000Y-83500000D01*
G75*
G02*
X106725000Y-83400000I100000J0D01*
G01*
G37*
G36*
G01*
X107375000Y-83400000D02*
X107575000Y-83400000D01*
G75*
G02*
X107675000Y-83500000I0J-100000D01*
G01*
X107675000Y-84775000D01*
G75*
G02*
X107575000Y-84875000I-100000J0D01*
G01*
X107375000Y-84875000D01*
G75*
G02*
X107275000Y-84775000I0J100000D01*
G01*
X107275000Y-83500000D01*
G75*
G02*
X107375000Y-83400000I100000J0D01*
G01*
G37*
G36*
G01*
X107375000Y-89125000D02*
X107575000Y-89125000D01*
G75*
G02*
X107675000Y-89225000I0J-100000D01*
G01*
X107675000Y-90500000D01*
G75*
G02*
X107575000Y-90600000I-100000J0D01*
G01*
X107375000Y-90600000D01*
G75*
G02*
X107275000Y-90500000I0J100000D01*
G01*
X107275000Y-89225000D01*
G75*
G02*
X107375000Y-89125000I100000J0D01*
G01*
G37*
G36*
G01*
X106725000Y-89125000D02*
X106925000Y-89125000D01*
G75*
G02*
X107025000Y-89225000I0J-100000D01*
G01*
X107025000Y-90500000D01*
G75*
G02*
X106925000Y-90600000I-100000J0D01*
G01*
X106725000Y-90600000D01*
G75*
G02*
X106625000Y-90500000I0J100000D01*
G01*
X106625000Y-89225000D01*
G75*
G02*
X106725000Y-89125000I100000J0D01*
G01*
G37*
G36*
G01*
X106075000Y-89125000D02*
X106275000Y-89125000D01*
G75*
G02*
X106375000Y-89225000I0J-100000D01*
G01*
X106375000Y-90500000D01*
G75*
G02*
X106275000Y-90600000I-100000J0D01*
G01*
X106075000Y-90600000D01*
G75*
G02*
X105975000Y-90500000I0J100000D01*
G01*
X105975000Y-89225000D01*
G75*
G02*
X106075000Y-89125000I100000J0D01*
G01*
G37*
G36*
G01*
X105425000Y-89125000D02*
X105625000Y-89125000D01*
G75*
G02*
X105725000Y-89225000I0J-100000D01*
G01*
X105725000Y-90500000D01*
G75*
G02*
X105625000Y-90600000I-100000J0D01*
G01*
X105425000Y-90600000D01*
G75*
G02*
X105325000Y-90500000I0J100000D01*
G01*
X105325000Y-89225000D01*
G75*
G02*
X105425000Y-89125000I100000J0D01*
G01*
G37*
G36*
G01*
X95850000Y-80666804D02*
X96350000Y-80666804D01*
G75*
G02*
X96575000Y-80891804I0J-225000D01*
G01*
X96575000Y-81341804D01*
G75*
G02*
X96350000Y-81566804I-225000J0D01*
G01*
X95850000Y-81566804D01*
G75*
G02*
X95625000Y-81341804I0J225000D01*
G01*
X95625000Y-80891804D01*
G75*
G02*
X95850000Y-80666804I225000J0D01*
G01*
G37*
G36*
G01*
X95850000Y-82216804D02*
X96350000Y-82216804D01*
G75*
G02*
X96575000Y-82441804I0J-225000D01*
G01*
X96575000Y-82891804D01*
G75*
G02*
X96350000Y-83116804I-225000J0D01*
G01*
X95850000Y-83116804D01*
G75*
G02*
X95625000Y-82891804I0J225000D01*
G01*
X95625000Y-82441804D01*
G75*
G02*
X95850000Y-82216804I225000J0D01*
G01*
G37*
G36*
G01*
X109225000Y-83775000D02*
X109775000Y-83775000D01*
G75*
G02*
X109975000Y-83975000I0J-200000D01*
G01*
X109975000Y-84375000D01*
G75*
G02*
X109775000Y-84575000I-200000J0D01*
G01*
X109225000Y-84575000D01*
G75*
G02*
X109025000Y-84375000I0J200000D01*
G01*
X109025000Y-83975000D01*
G75*
G02*
X109225000Y-83775000I200000J0D01*
G01*
G37*
G36*
G01*
X109225000Y-85425000D02*
X109775000Y-85425000D01*
G75*
G02*
X109975000Y-85625000I0J-200000D01*
G01*
X109975000Y-86025000D01*
G75*
G02*
X109775000Y-86225000I-200000J0D01*
G01*
X109225000Y-86225000D01*
G75*
G02*
X109025000Y-86025000I0J200000D01*
G01*
X109025000Y-85625000D01*
G75*
G02*
X109225000Y-85425000I200000J0D01*
G01*
G37*
G36*
G01*
X98325000Y-81100000D02*
X98325000Y-80800000D01*
G75*
G02*
X98475000Y-80650000I150000J0D01*
G01*
X99650000Y-80650000D01*
G75*
G02*
X99800000Y-80800000I0J-150000D01*
G01*
X99800000Y-81100000D01*
G75*
G02*
X99650000Y-81250000I-150000J0D01*
G01*
X98475000Y-81250000D01*
G75*
G02*
X98325000Y-81100000I0J150000D01*
G01*
G37*
G36*
G01*
X98325000Y-79200000D02*
X98325000Y-78900000D01*
G75*
G02*
X98475000Y-78750000I150000J0D01*
G01*
X99650000Y-78750000D01*
G75*
G02*
X99800000Y-78900000I0J-150000D01*
G01*
X99800000Y-79200000D01*
G75*
G02*
X99650000Y-79350000I-150000J0D01*
G01*
X98475000Y-79350000D01*
G75*
G02*
X98325000Y-79200000I0J150000D01*
G01*
G37*
G36*
G01*
X100200000Y-80150000D02*
X100200000Y-79850000D01*
G75*
G02*
X100350000Y-79700000I150000J0D01*
G01*
X101525000Y-79700000D01*
G75*
G02*
X101675000Y-79850000I0J-150000D01*
G01*
X101675000Y-80150000D01*
G75*
G02*
X101525000Y-80300000I-150000J0D01*
G01*
X100350000Y-80300000D01*
G75*
G02*
X100200000Y-80150000I0J150000D01*
G01*
G37*
G36*
G01*
X100975000Y-93350000D02*
X100975000Y-92850000D01*
G75*
G02*
X101200000Y-92625000I225000J0D01*
G01*
X101650000Y-92625000D01*
G75*
G02*
X101875000Y-92850000I0J-225000D01*
G01*
X101875000Y-93350000D01*
G75*
G02*
X101650000Y-93575000I-225000J0D01*
G01*
X101200000Y-93575000D01*
G75*
G02*
X100975000Y-93350000I0J225000D01*
G01*
G37*
G36*
G01*
X102525000Y-93350000D02*
X102525000Y-92850000D01*
G75*
G02*
X102750000Y-92625000I225000J0D01*
G01*
X103200000Y-92625000D01*
G75*
G02*
X103425000Y-92850000I0J-225000D01*
G01*
X103425000Y-93350000D01*
G75*
G02*
X103200000Y-93575000I-225000J0D01*
G01*
X102750000Y-93575000D01*
G75*
G02*
X102525000Y-93350000I0J225000D01*
G01*
G37*
G36*
G01*
X116325000Y-93450000D02*
X116325000Y-93950000D01*
G75*
G02*
X116100000Y-94175000I-225000J0D01*
G01*
X115650000Y-94175000D01*
G75*
G02*
X115425000Y-93950000I0J225000D01*
G01*
X115425000Y-93450000D01*
G75*
G02*
X115650000Y-93225000I225000J0D01*
G01*
X116100000Y-93225000D01*
G75*
G02*
X116325000Y-93450000I0J-225000D01*
G01*
G37*
G36*
G01*
X114775000Y-93450000D02*
X114775000Y-93950000D01*
G75*
G02*
X114550000Y-94175000I-225000J0D01*
G01*
X114100000Y-94175000D01*
G75*
G02*
X113875000Y-93950000I0J225000D01*
G01*
X113875000Y-93450000D01*
G75*
G02*
X114100000Y-93225000I225000J0D01*
G01*
X114550000Y-93225000D01*
G75*
G02*
X114775000Y-93450000I0J-225000D01*
G01*
G37*
G36*
G01*
X118500000Y-80725000D02*
X118000000Y-80725000D01*
G75*
G02*
X117775000Y-80500000I0J225000D01*
G01*
X117775000Y-80050000D01*
G75*
G02*
X118000000Y-79825000I225000J0D01*
G01*
X118500000Y-79825000D01*
G75*
G02*
X118725000Y-80050000I0J-225000D01*
G01*
X118725000Y-80500000D01*
G75*
G02*
X118500000Y-80725000I-225000J0D01*
G01*
G37*
G36*
G01*
X118500000Y-79175000D02*
X118000000Y-79175000D01*
G75*
G02*
X117775000Y-78950000I0J225000D01*
G01*
X117775000Y-78500000D01*
G75*
G02*
X118000000Y-78275000I225000J0D01*
G01*
X118500000Y-78275000D01*
G75*
G02*
X118725000Y-78500000I0J-225000D01*
G01*
X118725000Y-78950000D01*
G75*
G02*
X118500000Y-79175000I-225000J0D01*
G01*
G37*
G36*
G01*
X93275000Y-65775000D02*
X93275000Y-65225000D01*
G75*
G02*
X93475000Y-65025000I200000J0D01*
G01*
X93875000Y-65025000D01*
G75*
G02*
X94075000Y-65225000I0J-200000D01*
G01*
X94075000Y-65775000D01*
G75*
G02*
X93875000Y-65975000I-200000J0D01*
G01*
X93475000Y-65975000D01*
G75*
G02*
X93275000Y-65775000I0J200000D01*
G01*
G37*
G36*
G01*
X94925000Y-65775000D02*
X94925000Y-65225000D01*
G75*
G02*
X95125000Y-65025000I200000J0D01*
G01*
X95525000Y-65025000D01*
G75*
G02*
X95725000Y-65225000I0J-200000D01*
G01*
X95725000Y-65775000D01*
G75*
G02*
X95525000Y-65975000I-200000J0D01*
G01*
X95125000Y-65975000D01*
G75*
G02*
X94925000Y-65775000I0J200000D01*
G01*
G37*
G36*
G01*
X91775000Y-64225000D02*
X91225000Y-64225000D01*
G75*
G02*
X91025000Y-64025000I0J200000D01*
G01*
X91025000Y-63625000D01*
G75*
G02*
X91225000Y-63425000I200000J0D01*
G01*
X91775000Y-63425000D01*
G75*
G02*
X91975000Y-63625000I0J-200000D01*
G01*
X91975000Y-64025000D01*
G75*
G02*
X91775000Y-64225000I-200000J0D01*
G01*
G37*
G36*
G01*
X91775000Y-62575000D02*
X91225000Y-62575000D01*
G75*
G02*
X91025000Y-62375000I0J200000D01*
G01*
X91025000Y-61975000D01*
G75*
G02*
X91225000Y-61775000I200000J0D01*
G01*
X91775000Y-61775000D01*
G75*
G02*
X91975000Y-61975000I0J-200000D01*
G01*
X91975000Y-62375000D01*
G75*
G02*
X91775000Y-62575000I-200000J0D01*
G01*
G37*
G36*
G01*
X91775000Y-60725000D02*
X91225000Y-60725000D01*
G75*
G02*
X91025000Y-60525000I0J200000D01*
G01*
X91025000Y-60125000D01*
G75*
G02*
X91225000Y-59925000I200000J0D01*
G01*
X91775000Y-59925000D01*
G75*
G02*
X91975000Y-60125000I0J-200000D01*
G01*
X91975000Y-60525000D01*
G75*
G02*
X91775000Y-60725000I-200000J0D01*
G01*
G37*
G36*
G01*
X91775000Y-59075000D02*
X91225000Y-59075000D01*
G75*
G02*
X91025000Y-58875000I0J200000D01*
G01*
X91025000Y-58475000D01*
G75*
G02*
X91225000Y-58275000I200000J0D01*
G01*
X91775000Y-58275000D01*
G75*
G02*
X91975000Y-58475000I0J-200000D01*
G01*
X91975000Y-58875000D01*
G75*
G02*
X91775000Y-59075000I-200000J0D01*
G01*
G37*
G36*
G01*
X101695000Y-70880000D02*
X101695000Y-71380000D01*
G75*
G02*
X101470000Y-71605000I-225000J0D01*
G01*
X101020000Y-71605000D01*
G75*
G02*
X100795000Y-71380000I0J225000D01*
G01*
X100795000Y-70880000D01*
G75*
G02*
X101020000Y-70655000I225000J0D01*
G01*
X101470000Y-70655000D01*
G75*
G02*
X101695000Y-70880000I0J-225000D01*
G01*
G37*
G36*
G01*
X100145000Y-70880000D02*
X100145000Y-71380000D01*
G75*
G02*
X99920000Y-71605000I-225000J0D01*
G01*
X99470000Y-71605000D01*
G75*
G02*
X99245000Y-71380000I0J225000D01*
G01*
X99245000Y-70880000D01*
G75*
G02*
X99470000Y-70655000I225000J0D01*
G01*
X99920000Y-70655000D01*
G75*
G02*
X100145000Y-70880000I0J-225000D01*
G01*
G37*
G36*
G01*
X106775000Y-77725000D02*
X106225000Y-77725000D01*
G75*
G02*
X106025000Y-77525000I0J200000D01*
G01*
X106025000Y-77125000D01*
G75*
G02*
X106225000Y-76925000I200000J0D01*
G01*
X106775000Y-76925000D01*
G75*
G02*
X106975000Y-77125000I0J-200000D01*
G01*
X106975000Y-77525000D01*
G75*
G02*
X106775000Y-77725000I-200000J0D01*
G01*
G37*
G36*
G01*
X106775000Y-76075000D02*
X106225000Y-76075000D01*
G75*
G02*
X106025000Y-75875000I0J200000D01*
G01*
X106025000Y-75475000D01*
G75*
G02*
X106225000Y-75275000I200000J0D01*
G01*
X106775000Y-75275000D01*
G75*
G02*
X106975000Y-75475000I0J-200000D01*
G01*
X106975000Y-75875000D01*
G75*
G02*
X106775000Y-76075000I-200000J0D01*
G01*
G37*
G36*
G01*
X117275000Y-93950000D02*
X117275000Y-93450000D01*
G75*
G02*
X117500000Y-93225000I225000J0D01*
G01*
X117950000Y-93225000D01*
G75*
G02*
X118175000Y-93450000I0J-225000D01*
G01*
X118175000Y-93950000D01*
G75*
G02*
X117950000Y-94175000I-225000J0D01*
G01*
X117500000Y-94175000D01*
G75*
G02*
X117275000Y-93950000I0J225000D01*
G01*
G37*
G36*
G01*
X118825000Y-93950000D02*
X118825000Y-93450000D01*
G75*
G02*
X119050000Y-93225000I225000J0D01*
G01*
X119500000Y-93225000D01*
G75*
G02*
X119725000Y-93450000I0J-225000D01*
G01*
X119725000Y-93950000D01*
G75*
G02*
X119500000Y-94175000I-225000J0D01*
G01*
X119050000Y-94175000D01*
G75*
G02*
X118825000Y-93950000I0J225000D01*
G01*
G37*
G36*
G01*
X102600000Y-89300000D02*
X102300000Y-89300000D01*
G75*
G02*
X102150000Y-89150000I0J150000D01*
G01*
X102150000Y-88125000D01*
G75*
G02*
X102300000Y-87975000I150000J0D01*
G01*
X102600000Y-87975000D01*
G75*
G02*
X102750000Y-88125000I0J-150000D01*
G01*
X102750000Y-89150000D01*
G75*
G02*
X102600000Y-89300000I-150000J0D01*
G01*
G37*
G36*
G01*
X101650000Y-89300000D02*
X101350000Y-89300000D01*
G75*
G02*
X101200000Y-89150000I0J150000D01*
G01*
X101200000Y-88125000D01*
G75*
G02*
X101350000Y-87975000I150000J0D01*
G01*
X101650000Y-87975000D01*
G75*
G02*
X101800000Y-88125000I0J-150000D01*
G01*
X101800000Y-89150000D01*
G75*
G02*
X101650000Y-89300000I-150000J0D01*
G01*
G37*
G36*
G01*
X100700000Y-89300000D02*
X100400000Y-89300000D01*
G75*
G02*
X100250000Y-89150000I0J150000D01*
G01*
X100250000Y-88125000D01*
G75*
G02*
X100400000Y-87975000I150000J0D01*
G01*
X100700000Y-87975000D01*
G75*
G02*
X100850000Y-88125000I0J-150000D01*
G01*
X100850000Y-89150000D01*
G75*
G02*
X100700000Y-89300000I-150000J0D01*
G01*
G37*
G36*
G01*
X100700000Y-87025000D02*
X100400000Y-87025000D01*
G75*
G02*
X100250000Y-86875000I0J150000D01*
G01*
X100250000Y-85850000D01*
G75*
G02*
X100400000Y-85700000I150000J0D01*
G01*
X100700000Y-85700000D01*
G75*
G02*
X100850000Y-85850000I0J-150000D01*
G01*
X100850000Y-86875000D01*
G75*
G02*
X100700000Y-87025000I-150000J0D01*
G01*
G37*
G36*
G01*
X102600000Y-87025000D02*
X102300000Y-87025000D01*
G75*
G02*
X102150000Y-86875000I0J150000D01*
G01*
X102150000Y-85850000D01*
G75*
G02*
X102300000Y-85700000I150000J0D01*
G01*
X102600000Y-85700000D01*
G75*
G02*
X102750000Y-85850000I0J-150000D01*
G01*
X102750000Y-86875000D01*
G75*
G02*
X102600000Y-87025000I-150000J0D01*
G01*
G37*
G36*
G01*
X89287500Y-88991804D02*
X89287500Y-88691804D01*
G75*
G02*
X89437500Y-88541804I150000J0D01*
G01*
X90612500Y-88541804D01*
G75*
G02*
X90762500Y-88691804I0J-150000D01*
G01*
X90762500Y-88991804D01*
G75*
G02*
X90612500Y-89141804I-150000J0D01*
G01*
X89437500Y-89141804D01*
G75*
G02*
X89287500Y-88991804I0J150000D01*
G01*
G37*
G36*
G01*
X89287500Y-87091804D02*
X89287500Y-86791804D01*
G75*
G02*
X89437500Y-86641804I150000J0D01*
G01*
X90612500Y-86641804D01*
G75*
G02*
X90762500Y-86791804I0J-150000D01*
G01*
X90762500Y-87091804D01*
G75*
G02*
X90612500Y-87241804I-150000J0D01*
G01*
X89437500Y-87241804D01*
G75*
G02*
X89287500Y-87091804I0J150000D01*
G01*
G37*
G36*
G01*
X91162500Y-88041804D02*
X91162500Y-87741804D01*
G75*
G02*
X91312500Y-87591804I150000J0D01*
G01*
X92487500Y-87591804D01*
G75*
G02*
X92637500Y-87741804I0J-150000D01*
G01*
X92637500Y-88041804D01*
G75*
G02*
X92487500Y-88191804I-150000J0D01*
G01*
X91312500Y-88191804D01*
G75*
G02*
X91162500Y-88041804I0J150000D01*
G01*
G37*
G36*
G01*
X95975000Y-93325000D02*
X95425000Y-93325000D01*
G75*
G02*
X95225000Y-93125000I0J200000D01*
G01*
X95225000Y-92725000D01*
G75*
G02*
X95425000Y-92525000I200000J0D01*
G01*
X95975000Y-92525000D01*
G75*
G02*
X96175000Y-92725000I0J-200000D01*
G01*
X96175000Y-93125000D01*
G75*
G02*
X95975000Y-93325000I-200000J0D01*
G01*
G37*
G36*
G01*
X95975000Y-91675000D02*
X95425000Y-91675000D01*
G75*
G02*
X95225000Y-91475000I0J200000D01*
G01*
X95225000Y-91075000D01*
G75*
G02*
X95425000Y-90875000I200000J0D01*
G01*
X95975000Y-90875000D01*
G75*
G02*
X96175000Y-91075000I0J-200000D01*
G01*
X96175000Y-91475000D01*
G75*
G02*
X95975000Y-91675000I-200000J0D01*
G01*
G37*
G36*
G01*
X100975000Y-91350000D02*
X100975000Y-90850000D01*
G75*
G02*
X101200000Y-90625000I225000J0D01*
G01*
X101650000Y-90625000D01*
G75*
G02*
X101875000Y-90850000I0J-225000D01*
G01*
X101875000Y-91350000D01*
G75*
G02*
X101650000Y-91575000I-225000J0D01*
G01*
X101200000Y-91575000D01*
G75*
G02*
X100975000Y-91350000I0J225000D01*
G01*
G37*
G36*
G01*
X102525000Y-91350000D02*
X102525000Y-90850000D01*
G75*
G02*
X102750000Y-90625000I225000J0D01*
G01*
X103200000Y-90625000D01*
G75*
G02*
X103425000Y-90850000I0J-225000D01*
G01*
X103425000Y-91350000D01*
G75*
G02*
X103200000Y-91575000I-225000J0D01*
G01*
X102750000Y-91575000D01*
G75*
G02*
X102525000Y-91350000I0J225000D01*
G01*
G37*
G36*
G01*
X90775000Y-78275000D02*
X90775000Y-77725000D01*
G75*
G02*
X90975000Y-77525000I200000J0D01*
G01*
X91375000Y-77525000D01*
G75*
G02*
X91575000Y-77725000I0J-200000D01*
G01*
X91575000Y-78275000D01*
G75*
G02*
X91375000Y-78475000I-200000J0D01*
G01*
X90975000Y-78475000D01*
G75*
G02*
X90775000Y-78275000I0J200000D01*
G01*
G37*
G36*
G01*
X92425000Y-78275000D02*
X92425000Y-77725000D01*
G75*
G02*
X92625000Y-77525000I200000J0D01*
G01*
X93025000Y-77525000D01*
G75*
G02*
X93225000Y-77725000I0J-200000D01*
G01*
X93225000Y-78275000D01*
G75*
G02*
X93025000Y-78475000I-200000J0D01*
G01*
X92625000Y-78475000D01*
G75*
G02*
X92425000Y-78275000I0J200000D01*
G01*
G37*
G36*
G01*
X119500000Y-90150000D02*
X120000000Y-90150000D01*
G75*
G02*
X120225000Y-90375000I0J-225000D01*
G01*
X120225000Y-90825000D01*
G75*
G02*
X120000000Y-91050000I-225000J0D01*
G01*
X119500000Y-91050000D01*
G75*
G02*
X119275000Y-90825000I0J225000D01*
G01*
X119275000Y-90375000D01*
G75*
G02*
X119500000Y-90150000I225000J0D01*
G01*
G37*
G36*
G01*
X119500000Y-91700000D02*
X120000000Y-91700000D01*
G75*
G02*
X120225000Y-91925000I0J-225000D01*
G01*
X120225000Y-92375000D01*
G75*
G02*
X120000000Y-92600000I-225000J0D01*
G01*
X119500000Y-92600000D01*
G75*
G02*
X119275000Y-92375000I0J225000D01*
G01*
X119275000Y-91925000D01*
G75*
G02*
X119500000Y-91700000I225000J0D01*
G01*
G37*
G36*
G01*
X96250000Y-89116804D02*
X95750000Y-89116804D01*
G75*
G02*
X95525000Y-88891804I0J225000D01*
G01*
X95525000Y-88441804D01*
G75*
G02*
X95750000Y-88216804I225000J0D01*
G01*
X96250000Y-88216804D01*
G75*
G02*
X96475000Y-88441804I0J-225000D01*
G01*
X96475000Y-88891804D01*
G75*
G02*
X96250000Y-89116804I-225000J0D01*
G01*
G37*
G36*
G01*
X96250000Y-87566804D02*
X95750000Y-87566804D01*
G75*
G02*
X95525000Y-87341804I0J225000D01*
G01*
X95525000Y-86891804D01*
G75*
G02*
X95750000Y-86666804I225000J0D01*
G01*
X96250000Y-86666804D01*
G75*
G02*
X96475000Y-86891804I0J-225000D01*
G01*
X96475000Y-87341804D01*
G75*
G02*
X96250000Y-87566804I-225000J0D01*
G01*
G37*
G36*
G01*
X102725000Y-84250000D02*
X102725000Y-84750000D01*
G75*
G02*
X102500000Y-84975000I-225000J0D01*
G01*
X102050000Y-84975000D01*
G75*
G02*
X101825000Y-84750000I0J225000D01*
G01*
X101825000Y-84250000D01*
G75*
G02*
X102050000Y-84025000I225000J0D01*
G01*
X102500000Y-84025000D01*
G75*
G02*
X102725000Y-84250000I0J-225000D01*
G01*
G37*
G36*
G01*
X101175000Y-84250000D02*
X101175000Y-84750000D01*
G75*
G02*
X100950000Y-84975000I-225000J0D01*
G01*
X100500000Y-84975000D01*
G75*
G02*
X100275000Y-84750000I0J225000D01*
G01*
X100275000Y-84250000D01*
G75*
G02*
X100500000Y-84025000I225000J0D01*
G01*
X100950000Y-84025000D01*
G75*
G02*
X101175000Y-84250000I0J-225000D01*
G01*
G37*
D25*
X117515000Y-91875000D03*
D26*
X115815000Y-91875000D03*
X115815000Y-89875000D03*
X117715000Y-89875000D03*
G36*
G01*
X125600000Y-87860000D02*
X125600000Y-88410000D01*
G75*
G02*
X125400000Y-88610000I-200000J0D01*
G01*
X125000000Y-88610000D01*
G75*
G02*
X124800000Y-88410000I0J200000D01*
G01*
X124800000Y-87860000D01*
G75*
G02*
X125000000Y-87660000I200000J0D01*
G01*
X125400000Y-87660000D01*
G75*
G02*
X125600000Y-87860000I0J-200000D01*
G01*
G37*
G36*
G01*
X123950000Y-87860000D02*
X123950000Y-88410000D01*
G75*
G02*
X123750000Y-88610000I-200000J0D01*
G01*
X123350000Y-88610000D01*
G75*
G02*
X123150000Y-88410000I0J200000D01*
G01*
X123150000Y-87860000D01*
G75*
G02*
X123350000Y-87660000I200000J0D01*
G01*
X123750000Y-87660000D01*
G75*
G02*
X123950000Y-87860000I0J-200000D01*
G01*
G37*
D27*
X95500000Y-73730001D03*
X95500000Y-76270001D03*
X89150000Y-76270001D03*
X89150000Y-73730001D03*
G36*
G01*
X118320000Y-88325000D02*
X118020000Y-88325000D01*
G75*
G02*
X117870000Y-88175000I0J150000D01*
G01*
X117870000Y-86825000D01*
G75*
G02*
X118020000Y-86675000I150000J0D01*
G01*
X118320000Y-86675000D01*
G75*
G02*
X118470000Y-86825000I0J-150000D01*
G01*
X118470000Y-88175000D01*
G75*
G02*
X118320000Y-88325000I-150000J0D01*
G01*
G37*
G36*
G01*
X117050000Y-88325000D02*
X116750000Y-88325000D01*
G75*
G02*
X116600000Y-88175000I0J150000D01*
G01*
X116600000Y-86825000D01*
G75*
G02*
X116750000Y-86675000I150000J0D01*
G01*
X117050000Y-86675000D01*
G75*
G02*
X117200000Y-86825000I0J-150000D01*
G01*
X117200000Y-88175000D01*
G75*
G02*
X117050000Y-88325000I-150000J0D01*
G01*
G37*
G36*
G01*
X115780000Y-88325000D02*
X115480000Y-88325000D01*
G75*
G02*
X115330000Y-88175000I0J150000D01*
G01*
X115330000Y-86825000D01*
G75*
G02*
X115480000Y-86675000I150000J0D01*
G01*
X115780000Y-86675000D01*
G75*
G02*
X115930000Y-86825000I0J-150000D01*
G01*
X115930000Y-88175000D01*
G75*
G02*
X115780000Y-88325000I-150000J0D01*
G01*
G37*
G36*
G01*
X114510000Y-88325000D02*
X114210000Y-88325000D01*
G75*
G02*
X114060000Y-88175000I0J150000D01*
G01*
X114060000Y-86825000D01*
G75*
G02*
X114210000Y-86675000I150000J0D01*
G01*
X114510000Y-86675000D01*
G75*
G02*
X114660000Y-86825000I0J-150000D01*
G01*
X114660000Y-88175000D01*
G75*
G02*
X114510000Y-88325000I-150000J0D01*
G01*
G37*
G36*
G01*
X114510000Y-83075000D02*
X114210000Y-83075000D01*
G75*
G02*
X114060000Y-82925000I0J150000D01*
G01*
X114060000Y-81575000D01*
G75*
G02*
X114210000Y-81425000I150000J0D01*
G01*
X114510000Y-81425000D01*
G75*
G02*
X114660000Y-81575000I0J-150000D01*
G01*
X114660000Y-82925000D01*
G75*
G02*
X114510000Y-83075000I-150000J0D01*
G01*
G37*
G36*
G01*
X115780000Y-83075000D02*
X115480000Y-83075000D01*
G75*
G02*
X115330000Y-82925000I0J150000D01*
G01*
X115330000Y-81575000D01*
G75*
G02*
X115480000Y-81425000I150000J0D01*
G01*
X115780000Y-81425000D01*
G75*
G02*
X115930000Y-81575000I0J-150000D01*
G01*
X115930000Y-82925000D01*
G75*
G02*
X115780000Y-83075000I-150000J0D01*
G01*
G37*
G36*
G01*
X117050000Y-83075000D02*
X116750000Y-83075000D01*
G75*
G02*
X116600000Y-82925000I0J150000D01*
G01*
X116600000Y-81575000D01*
G75*
G02*
X116750000Y-81425000I150000J0D01*
G01*
X117050000Y-81425000D01*
G75*
G02*
X117200000Y-81575000I0J-150000D01*
G01*
X117200000Y-82925000D01*
G75*
G02*
X117050000Y-83075000I-150000J0D01*
G01*
G37*
G36*
G01*
X118320000Y-83075000D02*
X118020000Y-83075000D01*
G75*
G02*
X117870000Y-82925000I0J150000D01*
G01*
X117870000Y-81575000D01*
G75*
G02*
X118020000Y-81425000I150000J0D01*
G01*
X118320000Y-81425000D01*
G75*
G02*
X118470000Y-81575000I0J-150000D01*
G01*
X118470000Y-82925000D01*
G75*
G02*
X118320000Y-83075000I-150000J0D01*
G01*
G37*
G36*
G01*
X89775000Y-60725000D02*
X89225000Y-60725000D01*
G75*
G02*
X89025000Y-60525000I0J200000D01*
G01*
X89025000Y-60125000D01*
G75*
G02*
X89225000Y-59925000I200000J0D01*
G01*
X89775000Y-59925000D01*
G75*
G02*
X89975000Y-60125000I0J-200000D01*
G01*
X89975000Y-60525000D01*
G75*
G02*
X89775000Y-60725000I-200000J0D01*
G01*
G37*
G36*
G01*
X89775000Y-59075000D02*
X89225000Y-59075000D01*
G75*
G02*
X89025000Y-58875000I0J200000D01*
G01*
X89025000Y-58475000D01*
G75*
G02*
X89225000Y-58275000I200000J0D01*
G01*
X89775000Y-58275000D01*
G75*
G02*
X89975000Y-58475000I0J-200000D01*
G01*
X89975000Y-58875000D01*
G75*
G02*
X89775000Y-59075000I-200000J0D01*
G01*
G37*
G36*
G01*
X107250000Y-91775000D02*
X107750000Y-91775000D01*
G75*
G02*
X107975000Y-92000000I0J-225000D01*
G01*
X107975000Y-92450000D01*
G75*
G02*
X107750000Y-92675000I-225000J0D01*
G01*
X107250000Y-92675000D01*
G75*
G02*
X107025000Y-92450000I0J225000D01*
G01*
X107025000Y-92000000D01*
G75*
G02*
X107250000Y-91775000I225000J0D01*
G01*
G37*
G36*
G01*
X107250000Y-93325000D02*
X107750000Y-93325000D01*
G75*
G02*
X107975000Y-93550000I0J-225000D01*
G01*
X107975000Y-94000000D01*
G75*
G02*
X107750000Y-94225000I-225000J0D01*
G01*
X107250000Y-94225000D01*
G75*
G02*
X107025000Y-94000000I0J225000D01*
G01*
X107025000Y-93550000D01*
G75*
G02*
X107250000Y-93325000I225000J0D01*
G01*
G37*
X95500000Y-67230001D03*
X95500000Y-69770001D03*
X89150000Y-69770001D03*
X89150000Y-67230001D03*
%LPD*%
M02*
