M48
; DRILL file {KiCad 7.0.3} date Sun 21 May 2023 02:10:43 PM CEST
; FORMAT={-:-/ absolute / inch / decimal}
; #@! TF.CreationDate,2023-05-21T14:10:43+02:00
; #@! TF.GenerationSoftware,Kicad,Pcbnew,7.0.3
; #@! TF.FileFunction,Plated,1,2,PTH
FMAT,2
INCH
; #@! TA.AperFunction,Plated,PTH,ViaDrill
T1C0.0118
; #@! TA.AperFunction,Plated,PTH,ComponentDrill
T2C0.0236
; #@! TA.AperFunction,Plated,PTH,ComponentDrill
T3C0.0551
; #@! TA.AperFunction,Plated,PTH,ComponentDrill
T4C0.0591
%
G90
G05
T1
X3.4843Y-3.5039
X3.5033Y-2.3413
X3.5236Y-3.2874
X3.5236Y-3.3858
X3.5236Y-3.7402
X3.5433Y-3.1496
X3.563Y-2.4114
X3.563Y-2.6772
X3.563Y-2.7362
X3.563Y-2.9724
X3.6024Y-2.3396
X3.6024Y-2.9331
X3.6024Y-3.2605
X3.6024Y-3.6811
X3.6417Y-2.5787
X3.6614Y-3.4055
X3.7402Y-3.4646
X3.8091Y-3.7106
X3.8523Y-2.7461
X3.8583Y-2.8642
X3.9646Y-3.5866
X3.9961Y-3.2874
X4.0039Y-3.626
X4.0244Y-2.7709
X4.0335Y-3.5315
X4.0354Y-3.0797
X4.0453Y-3.2382
X4.0748Y-3.0118
X4.0945Y-3.5236
X4.113Y-2.8102
X4.1142Y-3.563
X4.1142Y-3.6044
X4.1535Y-3.1496
X4.1929Y-3.6201
X4.2126Y-3.389
X4.2126Y-3.4252
X4.252Y-2.687
X4.252Y-2.9429
X4.2717Y-3.2283
X4.2815Y-2.5394
X4.2913Y-2.5984
X4.311Y-2.9823
X4.3209Y-2.628
X4.3504Y-2.6575
X4.4106Y-2.7373
X4.439Y-2.815
X4.5079Y-3.3661
X4.5756Y-2.2638
X4.5756Y-2.4213
X4.5756Y-2.5394
X4.5866Y-2.7512
X4.5945Y-3.6703
X4.5965Y-2.6181
X4.6358Y-2.5689
X4.6364Y-3.5778
X4.6457Y-2.8543
X4.6555Y-2.6772
X4.6758Y-3.6171
X4.7047Y-2.5492
X4.7047Y-2.6378
X4.7047Y-3.5236
X4.7395Y-3.4843
X4.7441Y-2.2638
X4.7476Y-3.3723
X4.7545Y-3.6368
X4.802Y-3.0071
X4.8031Y-2.8543
X4.8239Y-3.4605
X4.8622Y-3.4252
X4.8622Y-3.5827
X4.9016Y-2.2638
X4.9803Y-2.8543
X5.0Y-2.3622
X5.0Y-2.5984
T3
X4.8688Y-2.5929
T4
X3.9607Y-2.4056
X3.9961Y-2.5117
X4.0314Y-2.3349
X4.0668Y-2.4409
X4.7638Y-2.4929
X4.7638Y-2.6929
X4.9638Y-2.4929
X4.9638Y-2.6929
T2
G00X4.7824Y-3.3291
M15
G01X4.8257Y-3.3291
M16
G05
G00X4.7824Y-3.6692
M15
G01X4.8257Y-3.6692
M16
G05
G00X4.9568Y-3.3291
M15
G01X4.9805Y-3.3291
M16
G05
G00X4.9568Y-3.6692
M15
G01X4.9805Y-3.6692
M16
G05
T0
M30
