G04 #@! TF.GenerationSoftware,KiCad,Pcbnew,7.0.3*
G04 #@! TF.CreationDate,2023-05-21T14:10:43+02:00*
G04 #@! TF.ProjectId,ultramote,756c7472-616d-46f7-9465-2e6b69636164,0.2a*
G04 #@! TF.SameCoordinates,Original*
G04 #@! TF.FileFunction,Copper,L1,Top*
G04 #@! TF.FilePolarity,Positive*
%FSLAX46Y46*%
G04 Gerber Fmt 4.6, Leading zero omitted, Abs format (unit mm)*
G04 Created by KiCad (PCBNEW 7.0.3) date 2023-05-21 14:10:43*
%MOMM*%
%LPD*%
G01*
G04 APERTURE LIST*
G04 #@! TA.AperFunction,SMDPad,CuDef*
%ADD10R,1.500000X1.500000*%
G04 #@! TD*
G04 #@! TA.AperFunction,SMDPad,CuDef*
%ADD11R,1.150000X0.300000*%
G04 #@! TD*
G04 #@! TA.AperFunction,ComponentPad*
%ADD12O,2.100000X1.000000*%
G04 #@! TD*
G04 #@! TA.AperFunction,ComponentPad*
%ADD13O,1.600000X1.000000*%
G04 #@! TD*
G04 #@! TA.AperFunction,SMDPad,CuDef*
%ADD14R,0.650000X0.850000*%
G04 #@! TD*
G04 #@! TA.AperFunction,SMDPad,CuDef*
%ADD15R,0.550000X0.800000*%
G04 #@! TD*
G04 #@! TA.AperFunction,ComponentPad*
%ADD16C,1.900000*%
G04 #@! TD*
G04 #@! TA.AperFunction,ComponentPad*
%ADD17C,2.000000*%
G04 #@! TD*
G04 #@! TA.AperFunction,SMDPad,CuDef*
%ADD18R,1.000000X1.000000*%
G04 #@! TD*
G04 #@! TA.AperFunction,ComponentPad*
%ADD19C,1.850000*%
G04 #@! TD*
G04 #@! TA.AperFunction,ViaPad*
%ADD20C,0.600000*%
G04 #@! TD*
G04 #@! TA.AperFunction,Conductor*
%ADD21C,0.300000*%
G04 #@! TD*
G04 #@! TA.AperFunction,Conductor*
%ADD22C,0.150000*%
G04 #@! TD*
G04 #@! TA.AperFunction,Conductor*
%ADD23C,0.180000*%
G04 #@! TD*
G04 #@! TA.AperFunction,Conductor*
%ADD24C,0.925000*%
G04 #@! TD*
G04 #@! TA.AperFunction,Conductor*
%ADD25C,0.200000*%
G04 #@! TD*
G04 APERTURE END LIST*
D10*
X89200000Y-82141804D03*
X89200000Y-87641804D03*
X92900000Y-82141804D03*
X96600000Y-82141804D03*
X92900000Y-87641804D03*
X96600000Y-87641804D03*
D11*
X121458461Y-92228938D03*
X121458461Y-91428938D03*
X121458461Y-90128938D03*
X121458461Y-89128938D03*
X121458461Y-88628938D03*
X121458461Y-87628938D03*
X121458461Y-86328938D03*
X121458461Y-85528938D03*
X121458461Y-85828938D03*
X121458461Y-86628938D03*
X121458461Y-87128938D03*
X121458461Y-88128938D03*
X121458461Y-89628938D03*
X121458461Y-90628938D03*
X121458461Y-91128938D03*
X121458461Y-91928938D03*
D12*
X122023461Y-93198938D03*
D13*
X126203461Y-93198938D03*
X126203461Y-84558938D03*
D12*
X122023461Y-84558938D03*
D10*
X89200000Y-69141804D03*
X89200000Y-74641804D03*
X92900000Y-69141804D03*
X96600000Y-69141804D03*
X92900000Y-74641804D03*
X96600000Y-74641804D03*
D14*
X89575000Y-97725000D03*
X90425000Y-97725000D03*
X89575000Y-96275000D03*
X90425000Y-96275000D03*
D15*
X89550000Y-58700000D03*
X90450000Y-58700000D03*
X90450000Y-60300000D03*
X89550000Y-60300000D03*
D16*
X123667000Y-65860000D03*
D17*
X121000000Y-68400000D03*
X126080000Y-68400000D03*
X121000000Y-63320000D03*
X126080000Y-63320000D03*
D18*
X100500000Y-92300000D03*
D19*
X102398026Y-59305923D03*
X100601974Y-61101974D03*
X101500000Y-63796051D03*
X103296051Y-62000000D03*
G04 #@! TA.AperFunction,SMDPad,CuDef*
G36*
X103499794Y-71254012D02*
G01*
X101873449Y-72880357D01*
X101166342Y-72173250D01*
X102792687Y-70546905D01*
X103499794Y-71254012D01*
G37*
G04 #@! TD.AperFunction*
G04 #@! TA.AperFunction,SMDPad,CuDef*
G36*
X104383677Y-72137896D02*
G01*
X102757332Y-73764241D01*
X102050225Y-73057134D01*
X103676570Y-71430789D01*
X104383677Y-72137896D01*
G37*
G04 #@! TD.AperFunction*
G04 #@! TA.AperFunction,SMDPad,CuDef*
G36*
X105267561Y-73021779D02*
G01*
X103641216Y-74648124D01*
X102934109Y-73941017D01*
X104560454Y-72314672D01*
X105267561Y-73021779D01*
G37*
G04 #@! TD.AperFunction*
G04 #@! TA.AperFunction,SMDPad,CuDef*
G36*
X106151444Y-73905663D02*
G01*
X104525099Y-75532008D01*
X103817992Y-74824901D01*
X105444337Y-73198556D01*
X106151444Y-73905663D01*
G37*
G04 #@! TD.AperFunction*
G04 #@! TA.AperFunction,SMDPad,CuDef*
G36*
X107035328Y-74789546D02*
G01*
X105408983Y-76415891D01*
X104701876Y-75708784D01*
X106328221Y-74082439D01*
X107035328Y-74789546D01*
G37*
G04 #@! TD.AperFunction*
G04 #@! TA.AperFunction,SMDPad,CuDef*
G36*
X107919211Y-75673430D02*
G01*
X106292866Y-77299775D01*
X105585759Y-76592668D01*
X107212104Y-74966323D01*
X107919211Y-75673430D01*
G37*
G04 #@! TD.AperFunction*
G04 #@! TA.AperFunction,SMDPad,CuDef*
G36*
X108803095Y-76557313D02*
G01*
X107176750Y-78183658D01*
X106469643Y-77476551D01*
X108095988Y-75850206D01*
X108803095Y-76557313D01*
G37*
G04 #@! TD.AperFunction*
G04 #@! TA.AperFunction,SMDPad,CuDef*
G36*
X110358730Y-75850206D02*
G01*
X111985075Y-77476551D01*
X111277968Y-78183658D01*
X109651623Y-76557313D01*
X110358730Y-75850206D01*
G37*
G04 #@! TD.AperFunction*
G04 #@! TA.AperFunction,SMDPad,CuDef*
G36*
X111242614Y-74966323D02*
G01*
X112868959Y-76592668D01*
X112161852Y-77299775D01*
X110535507Y-75673430D01*
X111242614Y-74966323D01*
G37*
G04 #@! TD.AperFunction*
G04 #@! TA.AperFunction,SMDPad,CuDef*
G36*
X112126497Y-74082439D02*
G01*
X113752842Y-75708784D01*
X113045735Y-76415891D01*
X111419390Y-74789546D01*
X112126497Y-74082439D01*
G37*
G04 #@! TD.AperFunction*
G04 #@! TA.AperFunction,SMDPad,CuDef*
G36*
X113010381Y-73198556D02*
G01*
X114636726Y-74824901D01*
X113929619Y-75532008D01*
X112303274Y-73905663D01*
X113010381Y-73198556D01*
G37*
G04 #@! TD.AperFunction*
G04 #@! TA.AperFunction,SMDPad,CuDef*
G36*
X113894264Y-72314672D02*
G01*
X115520609Y-73941017D01*
X114813502Y-74648124D01*
X113187157Y-73021779D01*
X113894264Y-72314672D01*
G37*
G04 #@! TD.AperFunction*
G04 #@! TA.AperFunction,SMDPad,CuDef*
G36*
X114778148Y-71430789D02*
G01*
X116404493Y-73057134D01*
X115697386Y-73764241D01*
X114071041Y-72137896D01*
X114778148Y-71430789D01*
G37*
G04 #@! TD.AperFunction*
G04 #@! TA.AperFunction,SMDPad,CuDef*
G36*
X115662031Y-70546905D02*
G01*
X117288376Y-72173250D01*
X116581269Y-72880357D01*
X114954924Y-71254012D01*
X115662031Y-70546905D01*
G37*
G04 #@! TD.AperFunction*
G04 #@! TA.AperFunction,SMDPad,CuDef*
G36*
X114954924Y-68991270D02*
G01*
X116581269Y-67364925D01*
X117288376Y-68072032D01*
X115662031Y-69698377D01*
X114954924Y-68991270D01*
G37*
G04 #@! TD.AperFunction*
G04 #@! TA.AperFunction,SMDPad,CuDef*
G36*
X114071041Y-68107386D02*
G01*
X115697386Y-66481041D01*
X116404493Y-67188148D01*
X114778148Y-68814493D01*
X114071041Y-68107386D01*
G37*
G04 #@! TD.AperFunction*
G04 #@! TA.AperFunction,SMDPad,CuDef*
G36*
X113187157Y-67223503D02*
G01*
X114813502Y-65597158D01*
X115520609Y-66304265D01*
X113894264Y-67930610D01*
X113187157Y-67223503D01*
G37*
G04 #@! TD.AperFunction*
G04 #@! TA.AperFunction,SMDPad,CuDef*
G36*
X112303274Y-66339619D02*
G01*
X113929619Y-64713274D01*
X114636726Y-65420381D01*
X113010381Y-67046726D01*
X112303274Y-66339619D01*
G37*
G04 #@! TD.AperFunction*
G04 #@! TA.AperFunction,SMDPad,CuDef*
G36*
X111419390Y-65455736D02*
G01*
X113045735Y-63829391D01*
X113752842Y-64536498D01*
X112126497Y-66162843D01*
X111419390Y-65455736D01*
G37*
G04 #@! TD.AperFunction*
G04 #@! TA.AperFunction,SMDPad,CuDef*
G36*
X110535507Y-64571852D02*
G01*
X112161852Y-62945507D01*
X112868959Y-63652614D01*
X111242614Y-65278959D01*
X110535507Y-64571852D01*
G37*
G04 #@! TD.AperFunction*
G04 #@! TA.AperFunction,SMDPad,CuDef*
G36*
X109651623Y-63687969D02*
G01*
X111277968Y-62061624D01*
X111985075Y-62768731D01*
X110358730Y-64395076D01*
X109651623Y-63687969D01*
G37*
G04 #@! TD.AperFunction*
G04 #@! TA.AperFunction,SMDPad,CuDef*
G36*
X108095988Y-64395076D02*
G01*
X106469643Y-62768731D01*
X107176750Y-62061624D01*
X108803095Y-63687969D01*
X108095988Y-64395076D01*
G37*
G04 #@! TD.AperFunction*
G04 #@! TA.AperFunction,SMDPad,CuDef*
G36*
X107212104Y-65278959D02*
G01*
X105585759Y-63652614D01*
X106292866Y-62945507D01*
X107919211Y-64571852D01*
X107212104Y-65278959D01*
G37*
G04 #@! TD.AperFunction*
G04 #@! TA.AperFunction,SMDPad,CuDef*
G36*
X106328221Y-66162843D02*
G01*
X104701876Y-64536498D01*
X105408983Y-63829391D01*
X107035328Y-65455736D01*
X106328221Y-66162843D01*
G37*
G04 #@! TD.AperFunction*
G04 #@! TA.AperFunction,SMDPad,CuDef*
G36*
X105444337Y-67046726D02*
G01*
X103817992Y-65420381D01*
X104525099Y-64713274D01*
X106151444Y-66339619D01*
X105444337Y-67046726D01*
G37*
G04 #@! TD.AperFunction*
G04 #@! TA.AperFunction,SMDPad,CuDef*
G36*
X104560454Y-67930610D02*
G01*
X102934109Y-66304265D01*
X103641216Y-65597158D01*
X105267561Y-67223503D01*
X104560454Y-67930610D01*
G37*
G04 #@! TD.AperFunction*
G04 #@! TA.AperFunction,SMDPad,CuDef*
G36*
X103676570Y-68814493D02*
G01*
X102050225Y-67188148D01*
X102757332Y-66481041D01*
X104383677Y-68107386D01*
X103676570Y-68814493D01*
G37*
G04 #@! TD.AperFunction*
G04 #@! TA.AperFunction,SMDPad,CuDef*
G36*
X102792687Y-69698377D02*
G01*
X101166342Y-68072032D01*
X101873449Y-67364925D01*
X103499794Y-68991270D01*
X102792687Y-69698377D01*
G37*
G04 #@! TD.AperFunction*
G04 #@! TA.AperFunction,SMDPad,CuDef*
G36*
G01*
X124700000Y-76980000D02*
X122800000Y-76980000D01*
G75*
G02*
X122500000Y-76680000I0J300000D01*
G01*
X122500000Y-76080000D01*
G75*
G02*
X122800000Y-75780000I300000J0D01*
G01*
X124700000Y-75780000D01*
G75*
G02*
X125000000Y-76080000I0J-300000D01*
G01*
X125000000Y-76680000D01*
G75*
G02*
X124700000Y-76980000I-300000J0D01*
G01*
G37*
G04 #@! TD.AperFunction*
G04 #@! TA.AperFunction,SMDPad,CuDef*
G36*
G01*
X124700000Y-79480000D02*
X122800000Y-79480000D01*
G75*
G02*
X122500000Y-79180000I0J300000D01*
G01*
X122500000Y-78580000D01*
G75*
G02*
X122800000Y-78280000I300000J0D01*
G01*
X124700000Y-78280000D01*
G75*
G02*
X125000000Y-78580000I0J-300000D01*
G01*
X125000000Y-79180000D01*
G75*
G02*
X124700000Y-79480000I-300000J0D01*
G01*
G37*
G04 #@! TD.AperFunction*
G04 #@! TA.AperFunction,SMDPad,CuDef*
G36*
G01*
X124700000Y-81980000D02*
X122800000Y-81980000D01*
G75*
G02*
X122500000Y-81680000I0J300000D01*
G01*
X122500000Y-81080000D01*
G75*
G02*
X122800000Y-80780000I300000J0D01*
G01*
X124700000Y-80780000D01*
G75*
G02*
X125000000Y-81080000I0J-300000D01*
G01*
X125000000Y-81680000D01*
G75*
G02*
X124700000Y-81980000I-300000J0D01*
G01*
G37*
G04 #@! TD.AperFunction*
G04 #@! TA.AperFunction,SMDPad,CuDef*
G36*
G01*
X103875000Y-92550000D02*
X102625000Y-92550000D01*
G75*
G02*
X102475000Y-92400000I0J150000D01*
G01*
X102475000Y-92100000D01*
G75*
G02*
X102625000Y-91950000I150000J0D01*
G01*
X103875000Y-91950000D01*
G75*
G02*
X104025000Y-92100000I0J-150000D01*
G01*
X104025000Y-92400000D01*
G75*
G02*
X103875000Y-92550000I-150000J0D01*
G01*
G37*
G04 #@! TD.AperFunction*
G04 #@! TA.AperFunction,SMDPad,CuDef*
G36*
G01*
X103875000Y-91550000D02*
X102625000Y-91550000D01*
G75*
G02*
X102475000Y-91400000I0J150000D01*
G01*
X102475000Y-91100000D01*
G75*
G02*
X102625000Y-90950000I150000J0D01*
G01*
X103875000Y-90950000D01*
G75*
G02*
X104025000Y-91100000I0J-150000D01*
G01*
X104025000Y-91400000D01*
G75*
G02*
X103875000Y-91550000I-150000J0D01*
G01*
G37*
G04 #@! TD.AperFunction*
G04 #@! TA.AperFunction,SMDPad,CuDef*
G36*
G01*
X107775000Y-94150000D02*
X106475000Y-94150000D01*
G75*
G02*
X106225000Y-93900000I0J250000D01*
G01*
X106225000Y-93200000D01*
G75*
G02*
X106475000Y-92950000I250000J0D01*
G01*
X107775000Y-92950000D01*
G75*
G02*
X108025000Y-93200000I0J-250000D01*
G01*
X108025000Y-93900000D01*
G75*
G02*
X107775000Y-94150000I-250000J0D01*
G01*
G37*
G04 #@! TD.AperFunction*
G04 #@! TA.AperFunction,SMDPad,CuDef*
G36*
G01*
X107775000Y-90550000D02*
X106475000Y-90550000D01*
G75*
G02*
X106225000Y-90300000I0J250000D01*
G01*
X106225000Y-89600000D01*
G75*
G02*
X106475000Y-89350000I250000J0D01*
G01*
X107775000Y-89350000D01*
G75*
G02*
X108025000Y-89600000I0J-250000D01*
G01*
X108025000Y-90300000D01*
G75*
G02*
X107775000Y-90550000I-250000J0D01*
G01*
G37*
G04 #@! TD.AperFunction*
D20*
X90000000Y-80000000D03*
X92500000Y-65500000D03*
X89500000Y-86000000D03*
X101500000Y-83500000D03*
X102220000Y-70380000D03*
X88500000Y-89000000D03*
X118000000Y-72500000D03*
X120765000Y-92375000D03*
X116220000Y-64500000D03*
X89500000Y-83500000D03*
X116500000Y-69880000D03*
X120587908Y-85655631D03*
X119500000Y-67000000D03*
X116220000Y-61500000D03*
X108750000Y-64500000D03*
X104470000Y-71380000D03*
X116220000Y-57500000D03*
X90500000Y-75500000D03*
X122000000Y-72500000D03*
X120500000Y-57500000D03*
X89500000Y-95000000D03*
X117750000Y-65250000D03*
X104500000Y-91550500D03*
X127000000Y-60000000D03*
X119500000Y-64750000D03*
X121970000Y-76380000D03*
X116750000Y-66500000D03*
X126500000Y-72500000D03*
X90500000Y-69500000D03*
X124500000Y-57500000D03*
X127000000Y-66000000D03*
X118250000Y-68000000D03*
X105500000Y-80000000D03*
X107000000Y-87000000D03*
X106500000Y-91949500D03*
X100700000Y-91100000D03*
X104500000Y-90500000D03*
X118765000Y-91875000D03*
X114500000Y-85500000D03*
X101700000Y-92100000D03*
X117765000Y-90875000D03*
X96750000Y-94250000D03*
X116700000Y-93224500D03*
X108000000Y-68250000D03*
X102450500Y-89700000D03*
X104000000Y-89500000D03*
X110500000Y-67500000D03*
X108000000Y-74750000D03*
X119500000Y-89500000D03*
X109000000Y-66000000D03*
X109750000Y-66750000D03*
X91500000Y-93500000D03*
X109500000Y-75750000D03*
X88984595Y-59468108D03*
X91500000Y-59425500D03*
X103500000Y-76500000D03*
X108500000Y-82000000D03*
X95000000Y-88000000D03*
X102750000Y-82250000D03*
X90500000Y-61250000D03*
X123500000Y-91000000D03*
X120383959Y-88500000D03*
X122525963Y-87895607D03*
X123500000Y-87000000D03*
X91500000Y-82817304D03*
X93000000Y-86500000D03*
X102500000Y-78224500D03*
X107000000Y-86081468D03*
X112750000Y-71500000D03*
X112028274Y-69528274D03*
X97849502Y-69750000D03*
X98000000Y-72750000D03*
X90500000Y-68000000D03*
X91500000Y-74500000D03*
D21*
X102220000Y-71600563D02*
X102333068Y-71713631D01*
X102220000Y-70380000D02*
X102220000Y-71600563D01*
X89200000Y-87641804D02*
X89200000Y-88300000D01*
X89575000Y-95075000D02*
X89500000Y-95000000D01*
X107636369Y-63228350D02*
X107636369Y-63386369D01*
X107636369Y-63386369D02*
X108750000Y-64500000D01*
X104149500Y-91200000D02*
X104500000Y-91550500D01*
X89200000Y-69141804D02*
X90141804Y-69141804D01*
X103216951Y-72597515D02*
X103252485Y-72597515D01*
X89641804Y-74641804D02*
X90500000Y-75500000D01*
X89200000Y-74641804D02*
X89641804Y-74641804D01*
X103300000Y-91200000D02*
X104149500Y-91200000D01*
X89575000Y-96275000D02*
X89575000Y-95075000D01*
X90141804Y-69141804D02*
X90500000Y-69500000D01*
X103252485Y-72597515D02*
X104470000Y-71380000D01*
X121458461Y-85528938D02*
X120574601Y-85528938D01*
X89200000Y-88300000D02*
X88500000Y-89000000D01*
X89200000Y-83200000D02*
X89500000Y-83500000D01*
X89200000Y-82141804D02*
X89200000Y-83200000D01*
X120887399Y-92500000D02*
X121458461Y-91928938D01*
X123750000Y-76380000D02*
X121970000Y-76380000D01*
X103300000Y-92200000D02*
X106249500Y-92200000D01*
X102750000Y-92750000D02*
X101430761Y-92750000D01*
X103300000Y-92200000D02*
X102750000Y-92750000D01*
X101430761Y-92750000D02*
X100700000Y-92019239D01*
X100700000Y-92019239D02*
X100700000Y-91100000D01*
X116350000Y-84500000D02*
X109500000Y-84500000D01*
X106249500Y-92200000D02*
X106500000Y-91949500D01*
X123750000Y-81380000D02*
X119470000Y-81380000D01*
X119470000Y-81380000D02*
X116350000Y-84500000D01*
X105500000Y-85500707D02*
X106999293Y-87000000D01*
X106999293Y-87000000D02*
X107000000Y-87000000D01*
X109500000Y-84500000D02*
X107000000Y-87000000D01*
X105500000Y-80000000D02*
X105500000Y-85500707D01*
X114425000Y-86925000D02*
X116955000Y-86925000D01*
X110025000Y-86925000D02*
X108000000Y-88950000D01*
X102550000Y-90550000D02*
X104450000Y-90550000D01*
X102550000Y-90550000D02*
X102467893Y-90550000D01*
X92750000Y-94250000D02*
X96750000Y-94250000D01*
X117765000Y-90875000D02*
X118765000Y-91875000D01*
X90425000Y-97725000D02*
X91250000Y-96900000D01*
X117765000Y-88235000D02*
X117765000Y-90875000D01*
X102467893Y-90550000D02*
X101700000Y-91317893D01*
X108000000Y-88950000D02*
X106050000Y-88950000D01*
X104450000Y-90550000D02*
X106050000Y-88950000D01*
X101700000Y-91317893D02*
X101700000Y-92100000D01*
X91250000Y-96900000D02*
X91250000Y-95750000D01*
X117765000Y-92159500D02*
X116700000Y-93224500D01*
X114500000Y-85500000D02*
X114500000Y-86850000D01*
X117765000Y-90875000D02*
X117765000Y-92159500D01*
X117765000Y-87735000D02*
X117765000Y-88235000D01*
X91250000Y-95750000D02*
X92750000Y-94250000D01*
X114500000Y-86850000D02*
X114425000Y-86925000D01*
X113715000Y-86925000D02*
X113925000Y-86925000D01*
X116955000Y-86925000D02*
X117765000Y-87735000D01*
X113925000Y-86925000D02*
X114425000Y-86925000D01*
X113715000Y-86925000D02*
X110025000Y-86925000D01*
D22*
X108000000Y-68250000D02*
X108000000Y-65359748D01*
X108000000Y-65359748D02*
X106752485Y-64112233D01*
X104000000Y-89500000D02*
X102650500Y-89500000D01*
X102650500Y-89500000D02*
X102450500Y-89700000D01*
X110500000Y-67500000D02*
X110500000Y-65314466D01*
X110500000Y-65314466D02*
X111702233Y-64112233D01*
X106752485Y-76133049D02*
X108000000Y-74885534D01*
X108000000Y-74885534D02*
X108000000Y-74750000D01*
D21*
X119500000Y-87862399D02*
X119500000Y-90095477D01*
X121458461Y-86328938D02*
X121033461Y-86328938D01*
X119500000Y-90095477D02*
X120533461Y-91128938D01*
X120533461Y-91128938D02*
X121458461Y-91128938D01*
X121033461Y-86328938D02*
X119500000Y-87862399D01*
D22*
X109000000Y-66000000D02*
X109000000Y-68582232D01*
X109000000Y-68582232D02*
X104100835Y-73481398D01*
X109750000Y-66750000D02*
X109750000Y-69600000D01*
X109750000Y-69600000D02*
X104984718Y-74365282D01*
D23*
X89575000Y-97725000D02*
X89575000Y-97120000D01*
X90180000Y-97000000D02*
X90425000Y-96755000D01*
X90425000Y-94575000D02*
X91500000Y-93500000D01*
X90425000Y-96755000D02*
X90425000Y-96275000D01*
X89575000Y-97120000D02*
X89695000Y-97000000D01*
X90425000Y-96275000D02*
X90425000Y-94575000D01*
X89695000Y-97000000D02*
X90180000Y-97000000D01*
D22*
X109551417Y-75750000D02*
X110818349Y-77016932D01*
X109500000Y-75750000D02*
X109551417Y-75750000D01*
D23*
X89550000Y-58700000D02*
X89550000Y-58902703D01*
X89550000Y-58902703D02*
X88984595Y-59468108D01*
X90450000Y-58700000D02*
X90774500Y-58700000D01*
X90774500Y-58700000D02*
X91500000Y-59425500D01*
D22*
X104617767Y-76500000D02*
X105868602Y-75249165D01*
X103500000Y-76500000D02*
X104617767Y-76500000D01*
X112515406Y-76946222D02*
X111702233Y-76133049D01*
X102750000Y-82250000D02*
X102750000Y-84750000D01*
X102750000Y-84750000D02*
X102500000Y-85000000D01*
X97191804Y-85000000D02*
X95000000Y-87191804D01*
X108500000Y-82000000D02*
X112515406Y-78484594D01*
X102500000Y-85000000D02*
X97191804Y-85000000D01*
X95000000Y-87191804D02*
X95000000Y-88000000D01*
X112515406Y-78484594D02*
X112515406Y-76946222D01*
D23*
X90500000Y-60350000D02*
X90450000Y-60300000D01*
X90500000Y-61250000D02*
X90500000Y-60350000D01*
D24*
X118793301Y-65860000D02*
X123667000Y-65860000D01*
X116121650Y-68531651D02*
X118793301Y-65860000D01*
D23*
X122628938Y-90128938D02*
X123500000Y-91000000D01*
X121458461Y-90128938D02*
X122628938Y-90128938D01*
D22*
X120383959Y-88829436D02*
X120683461Y-89128938D01*
X120383959Y-88500000D02*
X120383959Y-88829436D01*
X120683461Y-89128938D02*
X121458461Y-89128938D01*
X121458461Y-88128938D02*
X120755021Y-88128938D01*
X120755021Y-88128938D02*
X120383959Y-88500000D01*
D25*
X122333461Y-88088109D02*
X122525963Y-87895607D01*
X122333461Y-89578938D02*
X122333461Y-88678938D01*
X122333461Y-88678938D02*
X122283461Y-88628938D01*
X122283461Y-88628938D02*
X121458461Y-88628938D01*
X122283461Y-89628938D02*
X122333461Y-89578938D01*
X121458461Y-89628938D02*
X122283461Y-89628938D01*
X122333461Y-88678938D02*
X122333461Y-88088109D01*
D23*
X121458461Y-87128938D02*
X123371062Y-87128938D01*
X123371062Y-87128938D02*
X123500000Y-87000000D01*
D22*
X114353883Y-66763884D02*
X115167056Y-65950711D01*
X115167056Y-65561802D02*
X108212486Y-58607232D01*
X115167056Y-65950711D02*
X115167056Y-65561802D01*
X103096717Y-58607232D02*
X102398026Y-59305923D01*
X108212486Y-58607232D02*
X103096717Y-58607232D01*
D23*
X92224500Y-82817304D02*
X92900000Y-82141804D01*
X91500000Y-82817304D02*
X92224500Y-82817304D01*
X93000000Y-86500000D02*
X93000000Y-87541804D01*
X93000000Y-87541804D02*
X92900000Y-87641804D01*
X102500000Y-78224500D02*
X106428801Y-78224500D01*
X106428801Y-78224500D02*
X107636369Y-77016932D01*
D22*
X123750000Y-78880000D02*
X119710000Y-78880000D01*
X119710000Y-78880000D02*
X114590000Y-84000000D01*
D23*
X109000000Y-84000000D02*
X114590000Y-84000000D01*
X107000000Y-86081468D02*
X107000000Y-86000000D01*
X107000000Y-86000000D02*
X109000000Y-84000000D01*
D22*
X112750000Y-66600000D02*
X112750000Y-71500000D01*
X113470000Y-65880000D02*
X112750000Y-66600000D01*
X112028274Y-69528274D02*
X112028274Y-65553959D01*
X112028274Y-65553959D02*
X112586116Y-64996117D01*
X103216951Y-67647767D02*
X102403778Y-66834594D01*
X102403778Y-66834594D02*
X100764908Y-66834594D01*
X100764908Y-66834594D02*
X97849502Y-69750000D01*
X98114719Y-72750000D02*
X98000000Y-72750000D01*
X102333068Y-68531651D02*
X98114719Y-72750000D01*
D23*
X91641804Y-69141804D02*
X90500000Y-68000000D01*
X92900000Y-69141804D02*
X91641804Y-69141804D01*
X92758196Y-74500000D02*
X92900000Y-74641804D01*
X91500000Y-74500000D02*
X92758196Y-74500000D01*
G04 #@! TA.AperFunction,Conductor*
G36*
X125001900Y-57025614D02*
G01*
X125294470Y-57043312D01*
X125302012Y-57044228D01*
X125588449Y-57096719D01*
X125595822Y-57098536D01*
X125873837Y-57185169D01*
X125880941Y-57187864D01*
X126146479Y-57307373D01*
X126153216Y-57310910D01*
X126402411Y-57461552D01*
X126408671Y-57465872D01*
X126637899Y-57645461D01*
X126643589Y-57650502D01*
X126849496Y-57856409D01*
X126854538Y-57862100D01*
X127034121Y-58091320D01*
X127038447Y-58097588D01*
X127189089Y-58346783D01*
X127192628Y-58353525D01*
X127312131Y-58619048D01*
X127314831Y-58626167D01*
X127401461Y-58904172D01*
X127403284Y-58911566D01*
X127455770Y-59197980D01*
X127456688Y-59205539D01*
X127474385Y-59498096D01*
X127474500Y-59501901D01*
X127474499Y-62323417D01*
X127454497Y-62391538D01*
X127400841Y-62438031D01*
X127333689Y-62448544D01*
X127313101Y-62446107D01*
X126758900Y-63000308D01*
X126733941Y-62942447D01*
X126629244Y-62801815D01*
X126494938Y-62689118D01*
X126399568Y-62641221D01*
X126953891Y-62086898D01*
X126953891Y-62086897D01*
X126766733Y-61972206D01*
X126547437Y-61881371D01*
X126316632Y-61825960D01*
X126080000Y-61807337D01*
X125843367Y-61825960D01*
X125612562Y-61881371D01*
X125393262Y-61972208D01*
X125206107Y-62086896D01*
X125206107Y-62086897D01*
X125758201Y-62638991D01*
X125741109Y-62645213D01*
X125594627Y-62741555D01*
X125474312Y-62869082D01*
X125399482Y-62998691D01*
X124846897Y-62446107D01*
X124846896Y-62446107D01*
X124732208Y-62633262D01*
X124641371Y-62852562D01*
X124585960Y-63083367D01*
X124567337Y-63320000D01*
X124585960Y-63556632D01*
X124641371Y-63787437D01*
X124732206Y-64006733D01*
X124846898Y-64193891D01*
X125401099Y-63639689D01*
X125426059Y-63697553D01*
X125530756Y-63838185D01*
X125665062Y-63950882D01*
X125760431Y-63998778D01*
X125206107Y-64553101D01*
X125206107Y-64553102D01*
X125393261Y-64667791D01*
X125612562Y-64758628D01*
X125843367Y-64814039D01*
X126080000Y-64832662D01*
X126316632Y-64814039D01*
X126547437Y-64758628D01*
X126766738Y-64667791D01*
X126953891Y-64553102D01*
X126953892Y-64553101D01*
X126401798Y-64001007D01*
X126418891Y-63994787D01*
X126565373Y-63898445D01*
X126685688Y-63770918D01*
X126760517Y-63641308D01*
X127313100Y-64193891D01*
X127333689Y-64191455D01*
X127403689Y-64203312D01*
X127456166Y-64251131D01*
X127474499Y-64316582D01*
X127474499Y-67403417D01*
X127454497Y-67471538D01*
X127400841Y-67518031D01*
X127333689Y-67528544D01*
X127313100Y-67526107D01*
X126758899Y-68080307D01*
X126733941Y-68022447D01*
X126629244Y-67881815D01*
X126494938Y-67769118D01*
X126399568Y-67721221D01*
X126953891Y-67166898D01*
X126953891Y-67166897D01*
X126766733Y-67052206D01*
X126547437Y-66961371D01*
X126316632Y-66905960D01*
X126079999Y-66887337D01*
X125843367Y-66905960D01*
X125612562Y-66961371D01*
X125393262Y-67052208D01*
X125206107Y-67166896D01*
X125206107Y-67166897D01*
X125758201Y-67718991D01*
X125741109Y-67725213D01*
X125594627Y-67821555D01*
X125474312Y-67949082D01*
X125399482Y-68078692D01*
X124846897Y-67526107D01*
X124846896Y-67526107D01*
X124732208Y-67713262D01*
X124641371Y-67932562D01*
X124585960Y-68163367D01*
X124567337Y-68400000D01*
X124585960Y-68636632D01*
X124641371Y-68867437D01*
X124732206Y-69086733D01*
X124846898Y-69273891D01*
X125401099Y-68719689D01*
X125426059Y-68777553D01*
X125530756Y-68918185D01*
X125665062Y-69030882D01*
X125760431Y-69078778D01*
X125206107Y-69633101D01*
X125206107Y-69633102D01*
X125393261Y-69747791D01*
X125612562Y-69838628D01*
X125843367Y-69894039D01*
X126080000Y-69912662D01*
X126316632Y-69894039D01*
X126547437Y-69838628D01*
X126766738Y-69747791D01*
X126953891Y-69633102D01*
X126953892Y-69633101D01*
X126401798Y-69081007D01*
X126418891Y-69074787D01*
X126565373Y-68978445D01*
X126685688Y-68850918D01*
X126760517Y-68721308D01*
X127313101Y-69273891D01*
X127333689Y-69271455D01*
X127403689Y-69283312D01*
X127456166Y-69331131D01*
X127474499Y-69396582D01*
X127474500Y-73374000D01*
X127454498Y-73442121D01*
X127400842Y-73488614D01*
X127348500Y-73500000D01*
X116982743Y-73500000D01*
X116914622Y-73479998D01*
X116868129Y-73426342D01*
X116858025Y-73356068D01*
X116887519Y-73291488D01*
X116903685Y-73275889D01*
X116906113Y-73273932D01*
X116906127Y-73273919D01*
X117114427Y-73065619D01*
X117114427Y-73065617D01*
X115851535Y-71802726D01*
X115817509Y-71740414D01*
X115819425Y-71713631D01*
X116480859Y-71713631D01*
X117473637Y-72706409D01*
X117473639Y-72706409D01*
X117681929Y-72498118D01*
X117681951Y-72498094D01*
X117720125Y-72450723D01*
X117780810Y-72317842D01*
X117801599Y-72173249D01*
X117780810Y-72028657D01*
X117720127Y-71895780D01*
X117681947Y-71848401D01*
X117681939Y-71848392D01*
X117014018Y-71180472D01*
X117014017Y-71180472D01*
X116480859Y-71713630D01*
X116480859Y-71713631D01*
X115819425Y-71713631D01*
X115822574Y-71669599D01*
X115851535Y-71624536D01*
X116654809Y-70821262D01*
X116654809Y-70821261D01*
X115986898Y-70153350D01*
X115986879Y-70153333D01*
X115939501Y-70115154D01*
X115823657Y-70062250D01*
X115770002Y-70015757D01*
X115750000Y-69947636D01*
X115750000Y-69946149D01*
X115770002Y-69878028D01*
X115786905Y-69857054D01*
X117243958Y-68400000D01*
X119487337Y-68400000D01*
X119505960Y-68636632D01*
X119561371Y-68867437D01*
X119652206Y-69086733D01*
X119766897Y-69273891D01*
X120321098Y-68719689D01*
X120346059Y-68777553D01*
X120450756Y-68918185D01*
X120585062Y-69030882D01*
X120680431Y-69078778D01*
X120126107Y-69633101D01*
X120126107Y-69633102D01*
X120313261Y-69747791D01*
X120532562Y-69838628D01*
X120763367Y-69894039D01*
X121000000Y-69912662D01*
X121236632Y-69894039D01*
X121467437Y-69838628D01*
X121686738Y-69747791D01*
X121873891Y-69633102D01*
X121873892Y-69633101D01*
X121321798Y-69081007D01*
X121338891Y-69074787D01*
X121485373Y-68978445D01*
X121605688Y-68850918D01*
X121680517Y-68721308D01*
X122233101Y-69273892D01*
X122233102Y-69273891D01*
X122347791Y-69086738D01*
X122438628Y-68867437D01*
X122494039Y-68636632D01*
X122512662Y-68400000D01*
X122494039Y-68163367D01*
X122438628Y-67932562D01*
X122347791Y-67713261D01*
X122233102Y-67526107D01*
X122233101Y-67526107D01*
X121678900Y-68080308D01*
X121653941Y-68022447D01*
X121549244Y-67881815D01*
X121414938Y-67769118D01*
X121319567Y-67721221D01*
X121873891Y-67166897D01*
X121686733Y-67052206D01*
X121467437Y-66961371D01*
X121236632Y-66905960D01*
X120999999Y-66887337D01*
X120763367Y-66905960D01*
X120532562Y-66961371D01*
X120313262Y-67052208D01*
X120126107Y-67166896D01*
X120126107Y-67166898D01*
X120678201Y-67718992D01*
X120661109Y-67725213D01*
X120514627Y-67821555D01*
X120394312Y-67949082D01*
X120319482Y-68078691D01*
X119766898Y-67526107D01*
X119766896Y-67526107D01*
X119652208Y-67713262D01*
X119561371Y-67932562D01*
X119505960Y-68163367D01*
X119487337Y-68400000D01*
X117243958Y-68400000D01*
X117444108Y-68199850D01*
X117444115Y-68199843D01*
X117477243Y-68150263D01*
X117478869Y-68142086D01*
X117511772Y-68079178D01*
X117513243Y-68077679D01*
X119031021Y-66559902D01*
X119093331Y-66525879D01*
X119120114Y-66523000D01*
X122663236Y-66523000D01*
X122731357Y-66543002D01*
X122763786Y-66573068D01*
X122813126Y-66638404D01*
X122813128Y-66638407D01*
X122970699Y-66782053D01*
X122970701Y-66782054D01*
X123151974Y-66894294D01*
X123151975Y-66894294D01*
X123151981Y-66894298D01*
X123350802Y-66971321D01*
X123560390Y-67010500D01*
X123560393Y-67010500D01*
X123773607Y-67010500D01*
X123773610Y-67010500D01*
X123983198Y-66971321D01*
X124182019Y-66894298D01*
X124363302Y-66782052D01*
X124520872Y-66638407D01*
X124649366Y-66468255D01*
X124744405Y-66277389D01*
X124802756Y-66072310D01*
X124822429Y-65860000D01*
X124802756Y-65647690D01*
X124744405Y-65442611D01*
X124649366Y-65251745D01*
X124520872Y-65081593D01*
X124363302Y-64937948D01*
X124363300Y-64937946D01*
X124363298Y-64937945D01*
X124182025Y-64825705D01*
X124182021Y-64825703D01*
X124182019Y-64825702D01*
X124008880Y-64758628D01*
X123983199Y-64748679D01*
X123930801Y-64738884D01*
X123773610Y-64709500D01*
X123560390Y-64709500D01*
X123434637Y-64733007D01*
X123350800Y-64748679D01*
X123196753Y-64808356D01*
X123151981Y-64825702D01*
X123151980Y-64825702D01*
X123151979Y-64825703D01*
X123151974Y-64825705D01*
X122970701Y-64937945D01*
X122970699Y-64937946D01*
X122813128Y-65081592D01*
X122813126Y-65081595D01*
X122763786Y-65146932D01*
X122706772Y-65189240D01*
X122663236Y-65197000D01*
X118815249Y-65197000D01*
X118811445Y-65196885D01*
X118807520Y-65196647D01*
X118752973Y-65193347D01*
X118752972Y-65193348D01*
X118695361Y-65203905D01*
X118691599Y-65204478D01*
X118633471Y-65211536D01*
X118633469Y-65211536D01*
X118625227Y-65214662D01*
X118603272Y-65220781D01*
X118594612Y-65222368D01*
X118594607Y-65222369D01*
X118541200Y-65246406D01*
X118537685Y-65247862D01*
X118482927Y-65268629D01*
X118482921Y-65268632D01*
X118475673Y-65273635D01*
X118455825Y-65284830D01*
X118447793Y-65288445D01*
X118447784Y-65288451D01*
X118401690Y-65324562D01*
X118398626Y-65326816D01*
X118350425Y-65360088D01*
X118350420Y-65360092D01*
X118311565Y-65403950D01*
X118308957Y-65406720D01*
X116914316Y-66801360D01*
X116852004Y-66835386D01*
X116781189Y-66830321D01*
X116736126Y-66801360D01*
X116589755Y-66654989D01*
X116589753Y-66654989D01*
X115749999Y-67494742D01*
X115749999Y-66776322D01*
X116230543Y-66295779D01*
X116230544Y-66295777D01*
X116022254Y-66087487D01*
X116022230Y-66087465D01*
X115974859Y-66049291D01*
X115841972Y-65988603D01*
X115840495Y-65988170D01*
X115839200Y-65987338D01*
X115833781Y-65984863D01*
X115834137Y-65984083D01*
X115780771Y-65949783D01*
X115751281Y-65885201D01*
X115750000Y-65867276D01*
X115750000Y-63320000D01*
X119487337Y-63320000D01*
X119505960Y-63556632D01*
X119561371Y-63787437D01*
X119652206Y-64006733D01*
X119766897Y-64193891D01*
X120321098Y-63639689D01*
X120346059Y-63697553D01*
X120450756Y-63838185D01*
X120585062Y-63950882D01*
X120680431Y-63998778D01*
X120126107Y-64553101D01*
X120126107Y-64553102D01*
X120313261Y-64667791D01*
X120532562Y-64758628D01*
X120763367Y-64814039D01*
X121000000Y-64832662D01*
X121236632Y-64814039D01*
X121467437Y-64758628D01*
X121686738Y-64667791D01*
X121873891Y-64553102D01*
X121873892Y-64553101D01*
X121321798Y-64001007D01*
X121338891Y-63994787D01*
X121485373Y-63898445D01*
X121605688Y-63770918D01*
X121680517Y-63641308D01*
X122233101Y-64193892D01*
X122233102Y-64193891D01*
X122347791Y-64006738D01*
X122438628Y-63787437D01*
X122494039Y-63556632D01*
X122512662Y-63320000D01*
X122494039Y-63083367D01*
X122438628Y-62852562D01*
X122347791Y-62633261D01*
X122233102Y-62446107D01*
X122233101Y-62446107D01*
X121678899Y-63000308D01*
X121653941Y-62942447D01*
X121549244Y-62801815D01*
X121414938Y-62689118D01*
X121319567Y-62641221D01*
X121873891Y-62086897D01*
X121686733Y-61972206D01*
X121467437Y-61881371D01*
X121236632Y-61825960D01*
X121000000Y-61807337D01*
X120763367Y-61825960D01*
X120532562Y-61881371D01*
X120313262Y-61972208D01*
X120126107Y-62086896D01*
X120126107Y-62086898D01*
X120678201Y-62638992D01*
X120661109Y-62645213D01*
X120514627Y-62741555D01*
X120394312Y-62869082D01*
X120319482Y-62998691D01*
X119766898Y-62446107D01*
X119766896Y-62446107D01*
X119652208Y-62633262D01*
X119561371Y-62852562D01*
X119505960Y-63083367D01*
X119487337Y-63320000D01*
X115750000Y-63320000D01*
X115750000Y-59500000D01*
X123644341Y-59500000D01*
X123664937Y-59735411D01*
X123726096Y-59963661D01*
X123726098Y-59963665D01*
X123825966Y-60177832D01*
X123961498Y-60371392D01*
X123961502Y-60371397D01*
X123961505Y-60371401D01*
X124128599Y-60538495D01*
X124128603Y-60538498D01*
X124128607Y-60538501D01*
X124322167Y-60674033D01*
X124322166Y-60674033D01*
X124398304Y-60709537D01*
X124536337Y-60773903D01*
X124764592Y-60835063D01*
X124941034Y-60850500D01*
X124941041Y-60850500D01*
X125058959Y-60850500D01*
X125058966Y-60850500D01*
X125235408Y-60835063D01*
X125463663Y-60773903D01*
X125677829Y-60674035D01*
X125871401Y-60538495D01*
X126038495Y-60371401D01*
X126174035Y-60177830D01*
X126273903Y-59963663D01*
X126335063Y-59735408D01*
X126355659Y-59500000D01*
X126335063Y-59264592D01*
X126273903Y-59036337D01*
X126174035Y-58822171D01*
X126174034Y-58822169D01*
X126174033Y-58822167D01*
X126038501Y-58628607D01*
X126038497Y-58628602D01*
X126038495Y-58628599D01*
X125871401Y-58461505D01*
X125871397Y-58461502D01*
X125871392Y-58461498D01*
X125677832Y-58325966D01*
X125677833Y-58325966D01*
X125463665Y-58226098D01*
X125463661Y-58226096D01*
X125235411Y-58164937D01*
X125182475Y-58160305D01*
X125058966Y-58149500D01*
X124941034Y-58149500D01*
X124828752Y-58159323D01*
X124764588Y-58164937D01*
X124536338Y-58226096D01*
X124536334Y-58226098D01*
X124322167Y-58325966D01*
X124128607Y-58461498D01*
X124128596Y-58461507D01*
X123961507Y-58628596D01*
X123961502Y-58628602D01*
X123825965Y-58822169D01*
X123726098Y-59036334D01*
X123726096Y-59036338D01*
X123664937Y-59264588D01*
X123644341Y-59500000D01*
X115750000Y-59500000D01*
X115750000Y-57151500D01*
X115770002Y-57083379D01*
X115823658Y-57036886D01*
X115876000Y-57025500D01*
X124991715Y-57025500D01*
X124998097Y-57025500D01*
X125001900Y-57025614D01*
G37*
G04 #@! TD.AperFunction*
G04 #@! TA.AperFunction,Conductor*
G36*
X115750856Y-67829932D02*
G01*
X115750000Y-67841902D01*
X115750000Y-67828364D01*
X115750856Y-67829932D01*
G37*
G04 #@! TD.AperFunction*
G04 #@! TA.AperFunction,Conductor*
G36*
X115459191Y-57044407D02*
G01*
X115495155Y-57093907D01*
X115500000Y-57124500D01*
X115500000Y-65266121D01*
X115481093Y-65324312D01*
X115431593Y-65360276D01*
X115370407Y-65360276D01*
X115330996Y-65336125D01*
X108433371Y-58438501D01*
X108421059Y-58423498D01*
X108411111Y-58408610D01*
X108411110Y-58408608D01*
X108411106Y-58408605D01*
X108411105Y-58408604D01*
X108392242Y-58396000D01*
X108392195Y-58395969D01*
X108361952Y-58375761D01*
X108319980Y-58347716D01*
X108319981Y-58347716D01*
X108233669Y-58330548D01*
X108233657Y-58330545D01*
X108212488Y-58326335D01*
X108212487Y-58326335D01*
X108212486Y-58326335D01*
X108194916Y-58329830D01*
X108175602Y-58331732D01*
X103133601Y-58331732D01*
X103114287Y-58329830D01*
X103096717Y-58326335D01*
X103096716Y-58326335D01*
X103026898Y-58340222D01*
X102966137Y-58333030D01*
X102955469Y-58327296D01*
X102901857Y-58294102D01*
X102901855Y-58294101D01*
X102901854Y-58294100D01*
X102707353Y-58218750D01*
X102707352Y-58218749D01*
X102707350Y-58218749D01*
X102502319Y-58180423D01*
X102293733Y-58180423D01*
X102088701Y-58218749D01*
X101894195Y-58294101D01*
X101894189Y-58294104D01*
X101716859Y-58403904D01*
X101716857Y-58403905D01*
X101716855Y-58403907D01*
X101638264Y-58475552D01*
X101562709Y-58544429D01*
X101437008Y-58710883D01*
X101437003Y-58710892D01*
X101344032Y-58897603D01*
X101286950Y-59098225D01*
X101267704Y-59305922D01*
X101285687Y-59499995D01*
X101286950Y-59513619D01*
X101344032Y-59714242D01*
X101437007Y-59900961D01*
X101562708Y-60067416D01*
X101716855Y-60207939D01*
X101797421Y-60257823D01*
X101894189Y-60317741D01*
X101894193Y-60317743D01*
X101894198Y-60317746D01*
X102088699Y-60393096D01*
X102293733Y-60431423D01*
X102502319Y-60431423D01*
X102707353Y-60393096D01*
X102901854Y-60317746D01*
X103079197Y-60207939D01*
X103233344Y-60067416D01*
X103355890Y-59905138D01*
X103406044Y-59870097D01*
X103467219Y-59871228D01*
X103516046Y-59908100D01*
X103533875Y-59966630D01*
X103531891Y-59984603D01*
X103519617Y-60044726D01*
X103519616Y-60044733D01*
X103514253Y-60177829D01*
X103509536Y-60294872D01*
X103539710Y-60543378D01*
X103539712Y-60543386D01*
X103604367Y-60766605D01*
X103602396Y-60827759D01*
X103564856Y-60876074D01*
X103506086Y-60893097D01*
X103491085Y-60891462D01*
X103400344Y-60874500D01*
X103191758Y-60874500D01*
X102986726Y-60912826D01*
X102792220Y-60988178D01*
X102792214Y-60988181D01*
X102614884Y-61097981D01*
X102614882Y-61097982D01*
X102614880Y-61097984D01*
X102460733Y-61238507D01*
X102441473Y-61264012D01*
X102335033Y-61404960D01*
X102335028Y-61404969D01*
X102242057Y-61591680D01*
X102184975Y-61792302D01*
X102165729Y-62000000D01*
X102184975Y-62207697D01*
X102227705Y-62357876D01*
X102242057Y-62408319D01*
X102335032Y-62595038D01*
X102460733Y-62761493D01*
X102614880Y-62902016D01*
X102695446Y-62951900D01*
X102792214Y-63011818D01*
X102792218Y-63011820D01*
X102792223Y-63011823D01*
X102986724Y-63087173D01*
X103191758Y-63125500D01*
X103400344Y-63125500D01*
X103605378Y-63087173D01*
X103799879Y-63011823D01*
X103977222Y-62902016D01*
X104131369Y-62761493D01*
X104257070Y-62595038D01*
X104350045Y-62408319D01*
X104407127Y-62207696D01*
X104426373Y-62000000D01*
X104407292Y-61794089D01*
X104420750Y-61734405D01*
X104466720Y-61694027D01*
X104527644Y-61688381D01*
X104537211Y-61691049D01*
X104691552Y-61742576D01*
X104691557Y-61742576D01*
X104691558Y-61742577D01*
X104845728Y-61767632D01*
X104938649Y-61782733D01*
X105126294Y-61782733D01*
X105126299Y-61782733D01*
X105313345Y-61767633D01*
X105556409Y-61707723D01*
X105786715Y-61609599D01*
X105998299Y-61475801D01*
X106185680Y-61309796D01*
X106344006Y-61115883D01*
X106469175Y-60899083D01*
X106557946Y-60665013D01*
X106608020Y-60419733D01*
X106618100Y-60169598D01*
X106587925Y-59921084D01*
X106518277Y-59680629D01*
X106410959Y-59454461D01*
X106410956Y-59454457D01*
X106410954Y-59454452D01*
X106268752Y-59248438D01*
X106268750Y-59248435D01*
X106095334Y-59067892D01*
X106095333Y-59067892D01*
X106085997Y-59060875D01*
X106050837Y-59010804D01*
X106051823Y-58949626D01*
X106088579Y-58900712D01*
X106145472Y-58882732D01*
X108057362Y-58882732D01*
X108115553Y-58901639D01*
X108127366Y-58911728D01*
X111065836Y-61850198D01*
X111093613Y-61904715D01*
X111084042Y-61965147D01*
X111065836Y-61990206D01*
X109495881Y-63560161D01*
X109462755Y-63609738D01*
X109447194Y-63687968D01*
X109462755Y-63766200D01*
X109462755Y-63766201D01*
X109495883Y-63815779D01*
X110230919Y-64550815D01*
X110280497Y-64583943D01*
X110289380Y-64587622D01*
X110335907Y-64627358D01*
X110342961Y-64641202D01*
X110346640Y-64650084D01*
X110379767Y-64699662D01*
X110482473Y-64802368D01*
X110510250Y-64856885D01*
X110500679Y-64917317D01*
X110482472Y-64942376D01*
X110331266Y-65093581D01*
X110316269Y-65105889D01*
X110301379Y-65115839D01*
X110301378Y-65115839D01*
X110245903Y-65198862D01*
X110233593Y-65213861D01*
X110232510Y-65214943D01*
X110234626Y-65236426D01*
X110219103Y-65314465D01*
X110222598Y-65332035D01*
X110224500Y-65351349D01*
X110224500Y-66278691D01*
X110205593Y-66336882D01*
X110156093Y-66372846D01*
X110094907Y-66372846D01*
X110071977Y-66361975D01*
X109960057Y-66290049D01*
X109960054Y-66290047D01*
X109960053Y-66290047D01*
X109930754Y-66281444D01*
X109821964Y-66249500D01*
X109821961Y-66249500D01*
X109678039Y-66249500D01*
X109678035Y-66249500D01*
X109606531Y-66270496D01*
X109545371Y-66268748D01*
X109496918Y-66231385D01*
X109479680Y-66172678D01*
X109483652Y-66147608D01*
X109485162Y-66142461D01*
X109485165Y-66142457D01*
X109505647Y-66000000D01*
X109505575Y-65999500D01*
X109485165Y-65857543D01*
X109474500Y-65834190D01*
X109425377Y-65726627D01*
X109331128Y-65617857D01*
X109331127Y-65617856D01*
X109331126Y-65617855D01*
X109210057Y-65540049D01*
X109210054Y-65540047D01*
X109210053Y-65540047D01*
X109210050Y-65540046D01*
X109071964Y-65499500D01*
X109071961Y-65499500D01*
X108928039Y-65499500D01*
X108928035Y-65499500D01*
X108789949Y-65540046D01*
X108789942Y-65540049D01*
X108668873Y-65617855D01*
X108574622Y-65726628D01*
X108514834Y-65857543D01*
X108494353Y-65999997D01*
X108494353Y-66000002D01*
X108514834Y-66142456D01*
X108557062Y-66234920D01*
X108574623Y-66273373D01*
X108668872Y-66382143D01*
X108676963Y-66387343D01*
X108679022Y-66388666D01*
X108717754Y-66436032D01*
X108724500Y-66471951D01*
X108724500Y-68427108D01*
X108705593Y-68485299D01*
X108695503Y-68497112D01*
X108608399Y-68584215D01*
X108553882Y-68611992D01*
X108493450Y-68602420D01*
X108450186Y-68559156D01*
X108440615Y-68498723D01*
X108448343Y-68473084D01*
X108454404Y-68459813D01*
X108485165Y-68392457D01*
X108505647Y-68250000D01*
X108505252Y-68247255D01*
X108485165Y-68107543D01*
X108451507Y-68033843D01*
X108425377Y-67976627D01*
X108331128Y-67867857D01*
X108320975Y-67861332D01*
X108282245Y-67813967D01*
X108275500Y-67778049D01*
X108275500Y-65396632D01*
X108277402Y-65377318D01*
X108280897Y-65359748D01*
X108259516Y-65252254D01*
X108259516Y-65252253D01*
X108211292Y-65180082D01*
X108211292Y-65180081D01*
X108211288Y-65180077D01*
X108198627Y-65161128D01*
X108198626Y-65161127D01*
X108198624Y-65161124D01*
X108183733Y-65151174D01*
X108168731Y-65138863D01*
X107972243Y-64942375D01*
X107944466Y-64887858D01*
X107954037Y-64827426D01*
X107972240Y-64802372D01*
X108074950Y-64699663D01*
X108104637Y-64655232D01*
X108152685Y-64617354D01*
X108213823Y-64614951D01*
X108264698Y-64648943D01*
X108277005Y-64669107D01*
X108313720Y-64749500D01*
X108324623Y-64773373D01*
X108418872Y-64882143D01*
X108418873Y-64882144D01*
X108539942Y-64959950D01*
X108539947Y-64959953D01*
X108646403Y-64991211D01*
X108678035Y-65000499D01*
X108678036Y-65000499D01*
X108678039Y-65000500D01*
X108678041Y-65000500D01*
X108821959Y-65000500D01*
X108821961Y-65000500D01*
X108960053Y-64959953D01*
X109081128Y-64882143D01*
X109175377Y-64773373D01*
X109235165Y-64642457D01*
X109255647Y-64500000D01*
X109250924Y-64467153D01*
X109235165Y-64357543D01*
X109200722Y-64282124D01*
X109175377Y-64226627D01*
X109081128Y-64117857D01*
X109081127Y-64117856D01*
X109081126Y-64117855D01*
X108960057Y-64040049D01*
X108960047Y-64040044D01*
X108945843Y-64035874D01*
X108895337Y-64001338D01*
X108874776Y-63943711D01*
X108892015Y-63885004D01*
X108903733Y-63870881D01*
X108958832Y-63815782D01*
X108958834Y-63815780D01*
X108991962Y-63766201D01*
X109007523Y-63687969D01*
X108991962Y-63609738D01*
X108958834Y-63560158D01*
X107304561Y-61905885D01*
X107302810Y-61904715D01*
X107254980Y-61872756D01*
X107176750Y-61857196D01*
X107098518Y-61872756D01*
X107098517Y-61872756D01*
X107048939Y-61905884D01*
X106313903Y-62640920D01*
X106280774Y-62690500D01*
X106277094Y-62699386D01*
X106237356Y-62745910D01*
X106223520Y-62752959D01*
X106214634Y-62756639D01*
X106165055Y-62789767D01*
X105430019Y-63524803D01*
X105396891Y-63574382D01*
X105393211Y-63583268D01*
X105353473Y-63629793D01*
X105339638Y-63636842D01*
X105330752Y-63640522D01*
X105281172Y-63673651D01*
X104546136Y-64408687D01*
X104513007Y-64458267D01*
X104509327Y-64467153D01*
X104469589Y-64513677D01*
X104455753Y-64520726D01*
X104446867Y-64524406D01*
X104397288Y-64557534D01*
X103662252Y-65292570D01*
X103629124Y-65342149D01*
X103625444Y-65351035D01*
X103585706Y-65397560D01*
X103571871Y-65404609D01*
X103562985Y-65408289D01*
X103513405Y-65441418D01*
X102778369Y-66176454D01*
X102745240Y-66226034D01*
X102741560Y-66234920D01*
X102701822Y-66281444D01*
X102687986Y-66288493D01*
X102679100Y-66292173D01*
X102629521Y-66325301D01*
X102424724Y-66530098D01*
X102370208Y-66557875D01*
X102354721Y-66559094D01*
X100801792Y-66559094D01*
X100782479Y-66557192D01*
X100764908Y-66553697D01*
X100764905Y-66553697D01*
X100745599Y-66557536D01*
X100745590Y-66557539D01*
X100657414Y-66575078D01*
X100657412Y-66575079D01*
X100657413Y-66575079D01*
X100615442Y-66603122D01*
X100609532Y-66607070D01*
X100591869Y-66618872D01*
X100591866Y-66618876D01*
X100566285Y-66635969D01*
X100566280Y-66635974D01*
X100556331Y-66650863D01*
X100544023Y-66665861D01*
X97989381Y-69220504D01*
X97934864Y-69248281D01*
X97919377Y-69249500D01*
X97777537Y-69249500D01*
X97677391Y-69278906D01*
X97616231Y-69277158D01*
X97567778Y-69239795D01*
X97550500Y-69183916D01*
X97550500Y-68372057D01*
X97550498Y-68372045D01*
X97547630Y-68357628D01*
X97538867Y-68313573D01*
X97494552Y-68247252D01*
X97476511Y-68235197D01*
X97428233Y-68202938D01*
X97428231Y-68202937D01*
X97428228Y-68202936D01*
X97428227Y-68202936D01*
X97369758Y-68191305D01*
X97369748Y-68191304D01*
X95830252Y-68191304D01*
X95830251Y-68191304D01*
X95830241Y-68191305D01*
X95771772Y-68202936D01*
X95771766Y-68202938D01*
X95705451Y-68247249D01*
X95705445Y-68247255D01*
X95661134Y-68313570D01*
X95661132Y-68313576D01*
X95649501Y-68372045D01*
X95649500Y-68372057D01*
X95649500Y-69911550D01*
X95649501Y-69911562D01*
X95661132Y-69970031D01*
X95661134Y-69970037D01*
X95705445Y-70036352D01*
X95705448Y-70036356D01*
X95771769Y-70080671D01*
X95816231Y-70089515D01*
X95830241Y-70092302D01*
X95830246Y-70092302D01*
X95830252Y-70092304D01*
X95830253Y-70092304D01*
X97369747Y-70092304D01*
X97369748Y-70092304D01*
X97369749Y-70092303D01*
X97369756Y-70092303D01*
X97410630Y-70084172D01*
X97471392Y-70091362D01*
X97504763Y-70116435D01*
X97518374Y-70132143D01*
X97639449Y-70209953D01*
X97745905Y-70241211D01*
X97777537Y-70250499D01*
X97777538Y-70250499D01*
X97777541Y-70250500D01*
X97777543Y-70250500D01*
X97921461Y-70250500D01*
X97921463Y-70250500D01*
X98059555Y-70209953D01*
X98180630Y-70132143D01*
X98274879Y-70023373D01*
X98334667Y-69892457D01*
X98344957Y-69820886D01*
X98355149Y-69750002D01*
X98355149Y-69750000D01*
X98353358Y-69737543D01*
X98347615Y-69697604D01*
X98358047Y-69637319D01*
X98375600Y-69613516D01*
X100850027Y-67139090D01*
X100904545Y-67111313D01*
X100920032Y-67110094D01*
X101605722Y-67110094D01*
X101663913Y-67129001D01*
X101699877Y-67178501D01*
X101699877Y-67239687D01*
X101675726Y-67279098D01*
X101010602Y-67944221D01*
X100977474Y-67993799D01*
X100977474Y-67993800D01*
X100961914Y-68072032D01*
X100977474Y-68150262D01*
X101004897Y-68191304D01*
X101010603Y-68199843D01*
X101572928Y-68762168D01*
X101600704Y-68816683D01*
X101591133Y-68877115D01*
X101572927Y-68902174D01*
X98232263Y-72242838D01*
X98177746Y-72270615D01*
X98134368Y-72267824D01*
X98071964Y-72249500D01*
X98071961Y-72249500D01*
X97928039Y-72249500D01*
X97928035Y-72249500D01*
X97789949Y-72290046D01*
X97789942Y-72290049D01*
X97668873Y-72367855D01*
X97574622Y-72476628D01*
X97514834Y-72607543D01*
X97494353Y-72749997D01*
X97494353Y-72750002D01*
X97514834Y-72892456D01*
X97548546Y-72966274D01*
X97574623Y-73023373D01*
X97614353Y-73069224D01*
X97668873Y-73132144D01*
X97789942Y-73209950D01*
X97789947Y-73209953D01*
X97896403Y-73241211D01*
X97928035Y-73250499D01*
X97928036Y-73250499D01*
X97928039Y-73250500D01*
X97928041Y-73250500D01*
X98071959Y-73250500D01*
X98071961Y-73250500D01*
X98210053Y-73209953D01*
X98331128Y-73132143D01*
X98425377Y-73023373D01*
X98485165Y-72892457D01*
X98501177Y-72781083D01*
X98528173Y-72726175D01*
X98529099Y-72725234D01*
X101962545Y-69291788D01*
X102017060Y-69264013D01*
X102077492Y-69273584D01*
X102102547Y-69291787D01*
X102664876Y-69854116D01*
X102664879Y-69854118D01*
X102664881Y-69854120D01*
X102693835Y-69873466D01*
X102731716Y-69921515D01*
X102734118Y-69982653D01*
X102700126Y-70033528D01*
X102652932Y-70053773D01*
X102648102Y-70054467D01*
X102648097Y-70054469D01*
X102515215Y-70115154D01*
X102467832Y-70153338D01*
X100772775Y-71848395D01*
X100734591Y-71895778D01*
X100673906Y-72028660D01*
X100673905Y-72028662D01*
X100653118Y-72173247D01*
X100653118Y-72173252D01*
X100673905Y-72317837D01*
X100673906Y-72317839D01*
X100734589Y-72450717D01*
X100734591Y-72450720D01*
X100772768Y-72498096D01*
X100981080Y-72706408D01*
X102333068Y-71354421D01*
X103325845Y-70361642D01*
X103117533Y-70153331D01*
X103070157Y-70115154D01*
X103070154Y-70115152D01*
X102937276Y-70054469D01*
X102937270Y-70054467D01*
X102932442Y-70053773D01*
X102877536Y-70026773D01*
X102848987Y-69972657D01*
X102857698Y-69912095D01*
X102891534Y-69873469D01*
X102920498Y-69854116D01*
X103655533Y-69119081D01*
X103688661Y-69069502D01*
X103688662Y-69069493D01*
X103692337Y-69060624D01*
X103732071Y-69014095D01*
X103745923Y-69007037D01*
X103754796Y-69003361D01*
X103754802Y-69003360D01*
X103804381Y-68970232D01*
X104539416Y-68235197D01*
X104572544Y-68185618D01*
X104572545Y-68185612D01*
X104576221Y-68176739D01*
X104615955Y-68130211D01*
X104629808Y-68123153D01*
X104638677Y-68119478D01*
X104638686Y-68119477D01*
X104688265Y-68086349D01*
X105423300Y-67351314D01*
X105456428Y-67301735D01*
X105456429Y-67301726D01*
X105460104Y-67292857D01*
X105499838Y-67246328D01*
X105513690Y-67239270D01*
X105522563Y-67235594D01*
X105522569Y-67235593D01*
X105572148Y-67202465D01*
X106307183Y-66467430D01*
X106340311Y-66417851D01*
X106340312Y-66417845D01*
X106343988Y-66408972D01*
X106383722Y-66362444D01*
X106397575Y-66355386D01*
X106406444Y-66351711D01*
X106406453Y-66351710D01*
X106456032Y-66318582D01*
X107191067Y-65583547D01*
X107224195Y-65533968D01*
X107224196Y-65533959D01*
X107227871Y-65525090D01*
X107267605Y-65478561D01*
X107281457Y-65471503D01*
X107290330Y-65467827D01*
X107290336Y-65467826D01*
X107339915Y-65434698D01*
X107442621Y-65331990D01*
X107497135Y-65304214D01*
X107557567Y-65313785D01*
X107582627Y-65331991D01*
X107695503Y-65444867D01*
X107723280Y-65499384D01*
X107724499Y-65514871D01*
X107724499Y-67778049D01*
X107705592Y-67836240D01*
X107679025Y-67861332D01*
X107668872Y-67867857D01*
X107574622Y-67976628D01*
X107514834Y-68107543D01*
X107494353Y-68249997D01*
X107494353Y-68250002D01*
X107514834Y-68392456D01*
X107564177Y-68500499D01*
X107574623Y-68523373D01*
X107659681Y-68621536D01*
X107668873Y-68632144D01*
X107789942Y-68709950D01*
X107789947Y-68709953D01*
X107896403Y-68741211D01*
X107928035Y-68750499D01*
X107928036Y-68750499D01*
X107928039Y-68750500D01*
X107928041Y-68750500D01*
X108071959Y-68750500D01*
X108071961Y-68750500D01*
X108210053Y-68709953D01*
X108210057Y-68709949D01*
X108212664Y-68708760D01*
X108215047Y-68708486D01*
X108216847Y-68707958D01*
X108216938Y-68708269D01*
X108273450Y-68701780D01*
X108326729Y-68731863D01*
X108352151Y-68787517D01*
X108340005Y-68847485D01*
X108323801Y-68868814D01*
X104930978Y-72261638D01*
X104876461Y-72289415D01*
X104816029Y-72279844D01*
X104790970Y-72261638D01*
X104688264Y-72158932D01*
X104638687Y-72125805D01*
X104629801Y-72122125D01*
X104583275Y-72082388D01*
X104576222Y-72068544D01*
X104572544Y-72059665D01*
X104572544Y-72059664D01*
X104542306Y-72014410D01*
X104525697Y-71955522D01*
X104546874Y-71898118D01*
X104596728Y-71864418D01*
X104680053Y-71839953D01*
X104801128Y-71762143D01*
X104895377Y-71653373D01*
X104955165Y-71522457D01*
X104970975Y-71412493D01*
X104975647Y-71380002D01*
X104975647Y-71379997D01*
X104955165Y-71237543D01*
X104937532Y-71198933D01*
X104895377Y-71106627D01*
X104801128Y-70997857D01*
X104801127Y-70997856D01*
X104801126Y-70997855D01*
X104680057Y-70920049D01*
X104680054Y-70920047D01*
X104680053Y-70920047D01*
X104680050Y-70920046D01*
X104541964Y-70879500D01*
X104541961Y-70879500D01*
X104398039Y-70879500D01*
X104398035Y-70879500D01*
X104259949Y-70920046D01*
X104259942Y-70920049D01*
X104138872Y-70997856D01*
X104110354Y-71030767D01*
X104057957Y-71062362D01*
X103996996Y-71057124D01*
X103950756Y-71017056D01*
X103945482Y-71007059D01*
X103931547Y-70976546D01*
X103931544Y-70976541D01*
X103893367Y-70929165D01*
X103685055Y-70720853D01*
X102333068Y-72072841D01*
X101340290Y-73065618D01*
X101548602Y-73273930D01*
X101595978Y-73312107D01*
X101595981Y-73312109D01*
X101728859Y-73372792D01*
X101728861Y-73372793D01*
X101873446Y-73393581D01*
X101873452Y-73393581D01*
X102025050Y-73371785D01*
X102025538Y-73375180D01*
X102072383Y-73376440D01*
X102109275Y-73399734D01*
X102629521Y-73919980D01*
X102679099Y-73953108D01*
X102687982Y-73956787D01*
X102734509Y-73996523D01*
X102741563Y-74010367D01*
X102745242Y-74019249D01*
X102778088Y-74068407D01*
X102778370Y-74068828D01*
X103513405Y-74803863D01*
X103562984Y-74836991D01*
X103562986Y-74836991D01*
X103571864Y-74840669D01*
X103618391Y-74880404D01*
X103625445Y-74894248D01*
X103629125Y-74903134D01*
X103662252Y-74952711D01*
X104397288Y-75687747D01*
X104446866Y-75720875D01*
X104455749Y-75724554D01*
X104502276Y-75764290D01*
X104509330Y-75778134D01*
X104513009Y-75787016D01*
X104546136Y-75836594D01*
X104648842Y-75939300D01*
X104676619Y-75993817D01*
X104667048Y-76054249D01*
X104648842Y-76079307D01*
X104532648Y-76195503D01*
X104478132Y-76223281D01*
X104462644Y-76224500D01*
X103968746Y-76224500D01*
X103910555Y-76205593D01*
X103893928Y-76190333D01*
X103831128Y-76117857D01*
X103831127Y-76117856D01*
X103831126Y-76117855D01*
X103710057Y-76040049D01*
X103710054Y-76040047D01*
X103710053Y-76040047D01*
X103710050Y-76040046D01*
X103571964Y-75999500D01*
X103571961Y-75999500D01*
X103428039Y-75999500D01*
X103428035Y-75999500D01*
X103289949Y-76040046D01*
X103289942Y-76040049D01*
X103168873Y-76117855D01*
X103074622Y-76226628D01*
X103014834Y-76357543D01*
X102994353Y-76499997D01*
X102994353Y-76500002D01*
X103014834Y-76642456D01*
X103068293Y-76759512D01*
X103074623Y-76773373D01*
X103167448Y-76880500D01*
X103168873Y-76882144D01*
X103289942Y-76959950D01*
X103289947Y-76959953D01*
X103396403Y-76991211D01*
X103428035Y-77000499D01*
X103428036Y-77000499D01*
X103428039Y-77000500D01*
X103428041Y-77000500D01*
X103571959Y-77000500D01*
X103571961Y-77000500D01*
X103710053Y-76959953D01*
X103831128Y-76882143D01*
X103893927Y-76809668D01*
X103946322Y-76778073D01*
X103968746Y-76775500D01*
X104580883Y-76775500D01*
X104600196Y-76777401D01*
X104617767Y-76780897D01*
X104644899Y-76775500D01*
X104644900Y-76775500D01*
X104725262Y-76759515D01*
X104772619Y-76727872D01*
X104793389Y-76713994D01*
X104793389Y-76713992D01*
X104804109Y-76706830D01*
X104804107Y-76706830D01*
X104816391Y-76698624D01*
X104826341Y-76683730D01*
X104838654Y-76668728D01*
X105038459Y-76468924D01*
X105092975Y-76441147D01*
X105153407Y-76450718D01*
X105178466Y-76468924D01*
X105281172Y-76571630D01*
X105330751Y-76604758D01*
X105330753Y-76604758D01*
X105339631Y-76608436D01*
X105386158Y-76648171D01*
X105393212Y-76662015D01*
X105396892Y-76670901D01*
X105430019Y-76720478D01*
X106165055Y-77455514D01*
X106214633Y-77488642D01*
X106223516Y-77492321D01*
X106270043Y-77532057D01*
X106277097Y-77545901D01*
X106280776Y-77554783D01*
X106313903Y-77604361D01*
X106406003Y-77696461D01*
X106433780Y-77750978D01*
X106424209Y-77811410D01*
X106406003Y-77836469D01*
X106337468Y-77905004D01*
X106282951Y-77932781D01*
X106267464Y-77934000D01*
X102955749Y-77934000D01*
X102897558Y-77915093D01*
X102880930Y-77899831D01*
X102831129Y-77842358D01*
X102831127Y-77842356D01*
X102710057Y-77764549D01*
X102710054Y-77764547D01*
X102710053Y-77764547D01*
X102710050Y-77764546D01*
X102571964Y-77724000D01*
X102571961Y-77724000D01*
X102428039Y-77724000D01*
X102428035Y-77724000D01*
X102289949Y-77764546D01*
X102289942Y-77764549D01*
X102168873Y-77842355D01*
X102074622Y-77951128D01*
X102014834Y-78082043D01*
X101994353Y-78224497D01*
X101994353Y-78224502D01*
X102014834Y-78366956D01*
X102061123Y-78468313D01*
X102074623Y-78497873D01*
X102165367Y-78602598D01*
X102168873Y-78606644D01*
X102285159Y-78681376D01*
X102289947Y-78684453D01*
X102381268Y-78711267D01*
X102428035Y-78724999D01*
X102428036Y-78724999D01*
X102428039Y-78725000D01*
X102428041Y-78725000D01*
X102571959Y-78725000D01*
X102571961Y-78725000D01*
X102710053Y-78684453D01*
X102831128Y-78606643D01*
X102850085Y-78584764D01*
X102880930Y-78549169D01*
X102933326Y-78517573D01*
X102955749Y-78515000D01*
X106368776Y-78515000D01*
X106375624Y-78515475D01*
X106387970Y-78517197D01*
X106387971Y-78517198D01*
X106387971Y-78517197D01*
X106387972Y-78517198D01*
X106397944Y-78516736D01*
X106434369Y-78515052D01*
X106436648Y-78515000D01*
X106455717Y-78515000D01*
X106455719Y-78515000D01*
X106458978Y-78514390D01*
X106465788Y-78513599D01*
X106496463Y-78512182D01*
X106504800Y-78508500D01*
X106526597Y-78501749D01*
X106535559Y-78500075D01*
X106561670Y-78483906D01*
X106567726Y-78480715D01*
X106595817Y-78468313D01*
X106602261Y-78461868D01*
X106620145Y-78447701D01*
X106627900Y-78442901D01*
X106646409Y-78418388D01*
X106650899Y-78413229D01*
X106816833Y-78247296D01*
X106871348Y-78219520D01*
X106931780Y-78229091D01*
X106956839Y-78247297D01*
X107048939Y-78339397D01*
X107098517Y-78372525D01*
X107111496Y-78375106D01*
X107176750Y-78388086D01*
X107254981Y-78372525D01*
X107304561Y-78339397D01*
X108958834Y-76685124D01*
X108991962Y-76635544D01*
X109007523Y-76557313D01*
X108991962Y-76479081D01*
X108991962Y-76479080D01*
X108958834Y-76429502D01*
X108223798Y-75694466D01*
X108174221Y-75661339D01*
X108165335Y-75657659D01*
X108118809Y-75617922D01*
X108111756Y-75604078D01*
X108108078Y-75595199D01*
X108108078Y-75595198D01*
X108074950Y-75545619D01*
X107972242Y-75442911D01*
X107944466Y-75388395D01*
X107954037Y-75327963D01*
X107972239Y-75302910D01*
X107995657Y-75279492D01*
X108050174Y-75251718D01*
X108065657Y-75250500D01*
X108071959Y-75250500D01*
X108071961Y-75250500D01*
X108210053Y-75209953D01*
X108331128Y-75132143D01*
X108425377Y-75023373D01*
X108485165Y-74892457D01*
X108496714Y-74812134D01*
X108505647Y-74750002D01*
X108505647Y-74749997D01*
X108485165Y-74607543D01*
X108436051Y-74500000D01*
X108425377Y-74476627D01*
X108331128Y-74367857D01*
X108331127Y-74367856D01*
X108331126Y-74367855D01*
X108210057Y-74290049D01*
X108210054Y-74290047D01*
X108210053Y-74290047D01*
X108210050Y-74290046D01*
X108071964Y-74249500D01*
X108071961Y-74249500D01*
X107928039Y-74249500D01*
X107928035Y-74249500D01*
X107789949Y-74290046D01*
X107789942Y-74290049D01*
X107668873Y-74367855D01*
X107574622Y-74476628D01*
X107514834Y-74607543D01*
X107495228Y-74743907D01*
X107468232Y-74798815D01*
X107414118Y-74827368D01*
X107353555Y-74818660D01*
X107342235Y-74812134D01*
X107316383Y-74794860D01*
X107290336Y-74777456D01*
X107290335Y-74777455D01*
X107290334Y-74777455D01*
X107281454Y-74773777D01*
X107234928Y-74734041D01*
X107227874Y-74720196D01*
X107224195Y-74711313D01*
X107191067Y-74661735D01*
X106456031Y-73926699D01*
X106406454Y-73893572D01*
X106397568Y-73889892D01*
X106351042Y-73850155D01*
X106343989Y-73836311D01*
X106340311Y-73827432D01*
X106340311Y-73827431D01*
X106307183Y-73777852D01*
X106204477Y-73675146D01*
X106176700Y-73620629D01*
X106186271Y-73560197D01*
X106204477Y-73535138D01*
X108000096Y-71739519D01*
X109918733Y-69820881D01*
X109933729Y-69808575D01*
X109948624Y-69798624D01*
X109965497Y-69773373D01*
X110009515Y-69707495D01*
X110009514Y-69707495D01*
X110018289Y-69694362D01*
X110015457Y-69678502D01*
X110016425Y-69672752D01*
X110016827Y-69670730D01*
X110025500Y-69627133D01*
X110025500Y-69627128D01*
X110030896Y-69600000D01*
X110027401Y-69582431D01*
X110025499Y-69563130D01*
X110025499Y-67971306D01*
X110044406Y-67913116D01*
X110093906Y-67877152D01*
X110155092Y-67877152D01*
X110178017Y-67888020D01*
X110289947Y-67959953D01*
X110396403Y-67991211D01*
X110428035Y-68000499D01*
X110428036Y-68000499D01*
X110428039Y-68000500D01*
X110428041Y-68000500D01*
X110571959Y-68000500D01*
X110571961Y-68000500D01*
X110710053Y-67959953D01*
X110831128Y-67882143D01*
X110925377Y-67773373D01*
X110985165Y-67642457D01*
X110999889Y-67540046D01*
X111005647Y-67500002D01*
X111005647Y-67499997D01*
X110985165Y-67357543D01*
X110959678Y-67301735D01*
X110925377Y-67226627D01*
X110831128Y-67117857D01*
X110820975Y-67111332D01*
X110782245Y-67063967D01*
X110775500Y-67028049D01*
X110775500Y-65469589D01*
X110794407Y-65411398D01*
X110804495Y-65399586D01*
X110817903Y-65386178D01*
X110872091Y-65331989D01*
X110926604Y-65304214D01*
X110987036Y-65313785D01*
X111012096Y-65331991D01*
X111114803Y-65434698D01*
X111164382Y-65467826D01*
X111164384Y-65467826D01*
X111173262Y-65471504D01*
X111219789Y-65511239D01*
X111226843Y-65525083D01*
X111230523Y-65533969D01*
X111263650Y-65583546D01*
X111723777Y-66043672D01*
X111751555Y-66098189D01*
X111752774Y-66113676D01*
X111752774Y-69056323D01*
X111733867Y-69114514D01*
X111707298Y-69139607D01*
X111697146Y-69146131D01*
X111602896Y-69254902D01*
X111543108Y-69385817D01*
X111522627Y-69528271D01*
X111522627Y-69528276D01*
X111543108Y-69670730D01*
X111597989Y-69790900D01*
X111602897Y-69801647D01*
X111677067Y-69887244D01*
X111697147Y-69910418D01*
X111818216Y-69988224D01*
X111818221Y-69988227D01*
X111918775Y-70017752D01*
X111956309Y-70028773D01*
X111956310Y-70028773D01*
X111956313Y-70028774D01*
X111956315Y-70028774D01*
X112100233Y-70028774D01*
X112100235Y-70028774D01*
X112238327Y-69988227D01*
X112321979Y-69934467D01*
X112381151Y-69918913D01*
X112438168Y-69941112D01*
X112471247Y-69992584D01*
X112474500Y-70017752D01*
X112474500Y-71028049D01*
X112455593Y-71086240D01*
X112429024Y-71111333D01*
X112418872Y-71117857D01*
X112324622Y-71226628D01*
X112264834Y-71357543D01*
X112244353Y-71499997D01*
X112244353Y-71500002D01*
X112264834Y-71642456D01*
X112269819Y-71653371D01*
X112324623Y-71773373D01*
X112417448Y-71880500D01*
X112418873Y-71882144D01*
X112533052Y-71955522D01*
X112539947Y-71959953D01*
X112646403Y-71991211D01*
X112678035Y-72000499D01*
X112678036Y-72000499D01*
X112678039Y-72000500D01*
X112678041Y-72000500D01*
X112821959Y-72000500D01*
X112821961Y-72000500D01*
X112960053Y-71959953D01*
X113081128Y-71882143D01*
X113175377Y-71773373D01*
X113235165Y-71642457D01*
X113252418Y-71522457D01*
X113255647Y-71500002D01*
X113255647Y-71499997D01*
X113235165Y-71357543D01*
X113198033Y-71276236D01*
X113175377Y-71226627D01*
X113081128Y-71117857D01*
X113070975Y-71111332D01*
X113032245Y-71063967D01*
X113025500Y-71028049D01*
X113025500Y-67584403D01*
X113044407Y-67526212D01*
X113093907Y-67490248D01*
X113155093Y-67490248D01*
X113194501Y-67514397D01*
X113494071Y-67813967D01*
X113766453Y-68086349D01*
X113816031Y-68119477D01*
X113824914Y-68123156D01*
X113871441Y-68162892D01*
X113878495Y-68176736D01*
X113882174Y-68185618D01*
X113915302Y-68235197D01*
X114650337Y-68970232D01*
X114699916Y-69003360D01*
X114699918Y-69003360D01*
X114708796Y-69007038D01*
X114755323Y-69046773D01*
X114762377Y-69060617D01*
X114766057Y-69069503D01*
X114799184Y-69119080D01*
X115471004Y-69790900D01*
X115498781Y-69845417D01*
X115500000Y-69860904D01*
X115500000Y-70384378D01*
X115481093Y-70442569D01*
X115471004Y-70454382D01*
X114799184Y-71126201D01*
X114766056Y-71175780D01*
X114762376Y-71184666D01*
X114722638Y-71231191D01*
X114708803Y-71238240D01*
X114699917Y-71241920D01*
X114650337Y-71275049D01*
X113915301Y-72010085D01*
X113882172Y-72059665D01*
X113878492Y-72068551D01*
X113838754Y-72115075D01*
X113824918Y-72122124D01*
X113816032Y-72125804D01*
X113766453Y-72158932D01*
X113031417Y-72893968D01*
X112998289Y-72943547D01*
X112994609Y-72952433D01*
X112954871Y-72998958D01*
X112941036Y-73006007D01*
X112932150Y-73009687D01*
X112882570Y-73042816D01*
X112147534Y-73777852D01*
X112114405Y-73827432D01*
X112110725Y-73836318D01*
X112070987Y-73882842D01*
X112057151Y-73889891D01*
X112048265Y-73893571D01*
X111998686Y-73926699D01*
X111263650Y-74661735D01*
X111230522Y-74711314D01*
X111226842Y-74720200D01*
X111187104Y-74766725D01*
X111173269Y-74773774D01*
X111164383Y-74777454D01*
X111114803Y-74810583D01*
X110379767Y-75545619D01*
X110346638Y-75595199D01*
X110342958Y-75604085D01*
X110303220Y-75650609D01*
X110289384Y-75657658D01*
X110280498Y-75661338D01*
X110230922Y-75694464D01*
X110166832Y-75758553D01*
X110112315Y-75786329D01*
X110051883Y-75776757D01*
X110008619Y-75733492D01*
X109998837Y-75702636D01*
X109997662Y-75694467D01*
X109985165Y-75607543D01*
X109925377Y-75476627D01*
X109831128Y-75367857D01*
X109831127Y-75367856D01*
X109831126Y-75367855D01*
X109710057Y-75290049D01*
X109710054Y-75290047D01*
X109710053Y-75290047D01*
X109710050Y-75290046D01*
X109571964Y-75249500D01*
X109571961Y-75249500D01*
X109428039Y-75249500D01*
X109428035Y-75249500D01*
X109289949Y-75290046D01*
X109289942Y-75290049D01*
X109168873Y-75367855D01*
X109074622Y-75476628D01*
X109014834Y-75607543D01*
X108994353Y-75749997D01*
X108994353Y-75750002D01*
X109014834Y-75892456D01*
X109051398Y-75972519D01*
X109074623Y-76023373D01*
X109156493Y-76117857D01*
X109168873Y-76132144D01*
X109289942Y-76209950D01*
X109289947Y-76209953D01*
X109383911Y-76237543D01*
X109428035Y-76250499D01*
X109428036Y-76250499D01*
X109428039Y-76250500D01*
X109428041Y-76250500D01*
X109435879Y-76250500D01*
X109494070Y-76269407D01*
X109530034Y-76318907D01*
X109530034Y-76380093D01*
X109505884Y-76419501D01*
X109495884Y-76429502D01*
X109495881Y-76429505D01*
X109462755Y-76479080D01*
X109462755Y-76479081D01*
X109447194Y-76557313D01*
X109462755Y-76635543D01*
X109495881Y-76685120D01*
X109495884Y-76685124D01*
X111150157Y-78339397D01*
X111199737Y-78372525D01*
X111277968Y-78388086D01*
X111356200Y-78372525D01*
X111405779Y-78339397D01*
X112070901Y-77674274D01*
X112125419Y-77646497D01*
X112185851Y-77656068D01*
X112229116Y-77699333D01*
X112239906Y-77744278D01*
X112239906Y-78314718D01*
X112220999Y-78372909D01*
X112206118Y-78389205D01*
X108673899Y-81481591D01*
X108617662Y-81505696D01*
X108580796Y-81502094D01*
X108571963Y-81499500D01*
X108571961Y-81499500D01*
X108428039Y-81499500D01*
X108428035Y-81499500D01*
X108289949Y-81540046D01*
X108289942Y-81540049D01*
X108168873Y-81617855D01*
X108074622Y-81726628D01*
X108014834Y-81857543D01*
X107994353Y-81999997D01*
X107994353Y-82000002D01*
X108014834Y-82142456D01*
X108063947Y-82249997D01*
X108074623Y-82273373D01*
X108112256Y-82316804D01*
X108168873Y-82382144D01*
X108289942Y-82459950D01*
X108289947Y-82459953D01*
X108396403Y-82491211D01*
X108428035Y-82500499D01*
X108428036Y-82500499D01*
X108428039Y-82500500D01*
X108428041Y-82500500D01*
X108571959Y-82500500D01*
X108571961Y-82500500D01*
X108710053Y-82459953D01*
X108831128Y-82382143D01*
X108925377Y-82273373D01*
X108985165Y-82142457D01*
X109005647Y-82000000D01*
X109003521Y-81985217D01*
X109013952Y-81924932D01*
X109036298Y-81896643D01*
X112680960Y-78705815D01*
X112686062Y-78701905D01*
X112694583Y-78696211D01*
X112714030Y-78683218D01*
X112738488Y-78646611D01*
X112740392Y-78643956D01*
X112767230Y-78609045D01*
X112767230Y-78609042D01*
X112771357Y-78600693D01*
X112774920Y-78592090D01*
X112774919Y-78592090D01*
X112774921Y-78592089D01*
X112783513Y-78548889D01*
X112784249Y-78545737D01*
X112795686Y-78503203D01*
X112792744Y-78480710D01*
X112791325Y-78469855D01*
X112790906Y-78463428D01*
X112790906Y-76995277D01*
X112809813Y-76937086D01*
X112819903Y-76925273D01*
X112907552Y-76837624D01*
X113024698Y-76720479D01*
X113057826Y-76670900D01*
X113057827Y-76670891D01*
X113061502Y-76662022D01*
X113101236Y-76615493D01*
X113115088Y-76608435D01*
X113123961Y-76604759D01*
X113123967Y-76604758D01*
X113173546Y-76571630D01*
X113365174Y-76380002D01*
X121464353Y-76380002D01*
X121484834Y-76522456D01*
X121527432Y-76615731D01*
X121544623Y-76653373D01*
X121609177Y-76727873D01*
X121638873Y-76762144D01*
X121745991Y-76830984D01*
X121759947Y-76839953D01*
X121866403Y-76871211D01*
X121898035Y-76880499D01*
X121898036Y-76880499D01*
X121898039Y-76880500D01*
X121898041Y-76880500D01*
X122041959Y-76880500D01*
X122041961Y-76880500D01*
X122180053Y-76839953D01*
X122194010Y-76830983D01*
X122253182Y-76815427D01*
X122310199Y-76837624D01*
X122340292Y-76879670D01*
X122356202Y-76922329D01*
X122414721Y-77000500D01*
X122442454Y-77037546D01*
X122442457Y-77037548D01*
X122442458Y-77037549D01*
X122557670Y-77123797D01*
X122692511Y-77174089D01*
X122692512Y-77174089D01*
X122692517Y-77174091D01*
X122752127Y-77180500D01*
X124747872Y-77180499D01*
X124807483Y-77174091D01*
X124874906Y-77148943D01*
X124942329Y-77123797D01*
X124942329Y-77123796D01*
X124942331Y-77123796D01*
X125057546Y-77037546D01*
X125143796Y-76922331D01*
X125194091Y-76787483D01*
X125200500Y-76727873D01*
X125200499Y-76032128D01*
X125194091Y-75972517D01*
X125189404Y-75959950D01*
X125143797Y-75837670D01*
X125057549Y-75722458D01*
X125057548Y-75722457D01*
X125057546Y-75722454D01*
X125031073Y-75702636D01*
X124942329Y-75636202D01*
X124807488Y-75585910D01*
X124807483Y-75585909D01*
X124807481Y-75585908D01*
X124807477Y-75585908D01*
X124776249Y-75582550D01*
X124747873Y-75579500D01*
X124747870Y-75579500D01*
X122752133Y-75579500D01*
X122752129Y-75579500D01*
X122752128Y-75579501D01*
X122744949Y-75580272D01*
X122692519Y-75585908D01*
X122692514Y-75585909D01*
X122557670Y-75636202D01*
X122442458Y-75722450D01*
X122442450Y-75722458D01*
X122356203Y-75837669D01*
X122340292Y-75880330D01*
X122302241Y-75928244D01*
X122243294Y-75944642D01*
X122194011Y-75929017D01*
X122180053Y-75920047D01*
X122180050Y-75920046D01*
X122041964Y-75879500D01*
X122041961Y-75879500D01*
X121898039Y-75879500D01*
X121898035Y-75879500D01*
X121759949Y-75920046D01*
X121759942Y-75920049D01*
X121638873Y-75997855D01*
X121544622Y-76106628D01*
X121484834Y-76237543D01*
X121464353Y-76379997D01*
X121464353Y-76380002D01*
X113365174Y-76380002D01*
X113908581Y-75836595D01*
X113941709Y-75787016D01*
X113941710Y-75787010D01*
X113945386Y-75778137D01*
X113985120Y-75731609D01*
X113998973Y-75724551D01*
X114007842Y-75720876D01*
X114007851Y-75720875D01*
X114057430Y-75687747D01*
X114180119Y-75565058D01*
X125799500Y-75565058D01*
X125840209Y-75730223D01*
X125840209Y-75730224D01*
X125840210Y-75730225D01*
X125918992Y-75880330D01*
X125919267Y-75880853D01*
X126025263Y-76000499D01*
X126032071Y-76008183D01*
X126172070Y-76104818D01*
X126331128Y-76165140D01*
X126435301Y-76177789D01*
X126457618Y-76180499D01*
X126457622Y-76180499D01*
X126457628Y-76180500D01*
X126457632Y-76180500D01*
X126542368Y-76180500D01*
X126542372Y-76180500D01*
X126542378Y-76180499D01*
X126542381Y-76180499D01*
X126552048Y-76179325D01*
X126668872Y-76165140D01*
X126827930Y-76104818D01*
X126967929Y-76008183D01*
X127080734Y-75880852D01*
X127159790Y-75730225D01*
X127200500Y-75565056D01*
X127200500Y-75394944D01*
X127159790Y-75229775D01*
X127080734Y-75079148D01*
X126967929Y-74951817D01*
X126827930Y-74855182D01*
X126668872Y-74794860D01*
X126656222Y-74793324D01*
X126542381Y-74779500D01*
X126542372Y-74779500D01*
X126457628Y-74779500D01*
X126457618Y-74779500D01*
X126331128Y-74794860D01*
X126172070Y-74855182D01*
X126032072Y-74951816D01*
X126032069Y-74951818D01*
X125919267Y-75079146D01*
X125840209Y-75229776D01*
X125799500Y-75394941D01*
X125799500Y-75565058D01*
X114180119Y-75565058D01*
X114792465Y-74952712D01*
X114825593Y-74903133D01*
X114825594Y-74903124D01*
X114829269Y-74894255D01*
X114869003Y-74847726D01*
X114882855Y-74840668D01*
X114891728Y-74836992D01*
X114891734Y-74836991D01*
X114941313Y-74803863D01*
X115676348Y-74068828D01*
X115676629Y-74068407D01*
X115692939Y-74043999D01*
X115740988Y-74006119D01*
X115775254Y-74000000D01*
X127375500Y-74000000D01*
X127433691Y-74018907D01*
X127469655Y-74068407D01*
X127474500Y-74099000D01*
X127474500Y-96998509D01*
X127474410Y-97001476D01*
X127457548Y-97280252D01*
X127456639Y-97295277D01*
X127455918Y-97301216D01*
X127403136Y-97589238D01*
X127401704Y-97595047D01*
X127314590Y-97874606D01*
X127312469Y-97880200D01*
X127192288Y-98147228D01*
X127189508Y-98152525D01*
X127038026Y-98403109D01*
X127034627Y-98408033D01*
X126854042Y-98638532D01*
X126850075Y-98643010D01*
X126643010Y-98850075D01*
X126638532Y-98854042D01*
X126408033Y-99034627D01*
X126403109Y-99038026D01*
X126152525Y-99189508D01*
X126147228Y-99192288D01*
X125880200Y-99312469D01*
X125874606Y-99314590D01*
X125595047Y-99401704D01*
X125589238Y-99403136D01*
X125426445Y-99432969D01*
X125301212Y-99455918D01*
X125295278Y-99456638D01*
X125001476Y-99474410D01*
X124998509Y-99474500D01*
X113502160Y-99474500D01*
X113497859Y-99474312D01*
X113339410Y-99460450D01*
X113322419Y-99457454D01*
X113231038Y-99432969D01*
X113175066Y-99417971D01*
X113158851Y-99412069D01*
X113020597Y-99347601D01*
X113005652Y-99338972D01*
X112880701Y-99251480D01*
X112867481Y-99240388D01*
X112759611Y-99132518D01*
X112748519Y-99119298D01*
X112728319Y-99090449D01*
X112661025Y-98994343D01*
X112652398Y-98979402D01*
X112593942Y-98854042D01*
X112587929Y-98841147D01*
X112582028Y-98824933D01*
X112542542Y-98677571D01*
X112539550Y-98660596D01*
X112525687Y-98502141D01*
X112525500Y-98497840D01*
X112525500Y-97000004D01*
X123644341Y-97000004D01*
X123664935Y-97235400D01*
X123726098Y-97463667D01*
X123825959Y-97677818D01*
X123825963Y-97677826D01*
X123825964Y-97677828D01*
X123825965Y-97677829D01*
X123961505Y-97871401D01*
X124128599Y-98038495D01*
X124322171Y-98174035D01*
X124322172Y-98174035D01*
X124322173Y-98174036D01*
X124322181Y-98174040D01*
X124536333Y-98273901D01*
X124536337Y-98273903D01*
X124764592Y-98335063D01*
X124764596Y-98335063D01*
X124764599Y-98335064D01*
X124941026Y-98350500D01*
X124941034Y-98350500D01*
X125058974Y-98350500D01*
X125235400Y-98335064D01*
X125235401Y-98335063D01*
X125235408Y-98335063D01*
X125463663Y-98273903D01*
X125677829Y-98174035D01*
X125871401Y-98038495D01*
X126038495Y-97871401D01*
X126174035Y-97677830D01*
X126273903Y-97463663D01*
X126335063Y-97235408D01*
X126336257Y-97221769D01*
X126345936Y-97111132D01*
X126355659Y-97000000D01*
X126342058Y-96844548D01*
X126335064Y-96764599D01*
X126335063Y-96764596D01*
X126335063Y-96764592D01*
X126273903Y-96536337D01*
X126174035Y-96322171D01*
X126038495Y-96128599D01*
X125871401Y-95961505D01*
X125871397Y-95961502D01*
X125871396Y-95961501D01*
X125677826Y-95825963D01*
X125677818Y-95825959D01*
X125463666Y-95726098D01*
X125463667Y-95726098D01*
X125275494Y-95675678D01*
X125235408Y-95664937D01*
X125235407Y-95664936D01*
X125235400Y-95664935D01*
X125058974Y-95649500D01*
X125058966Y-95649500D01*
X124941034Y-95649500D01*
X124941026Y-95649500D01*
X124764599Y-95664935D01*
X124536332Y-95726098D01*
X124322181Y-95825959D01*
X124322173Y-95825963D01*
X124128603Y-95961501D01*
X123961501Y-96128603D01*
X123825964Y-96322171D01*
X123726097Y-96536337D01*
X123664935Y-96764599D01*
X123644341Y-96999995D01*
X123644341Y-97000004D01*
X112525500Y-97000004D01*
X112525500Y-89404974D01*
X112522411Y-89388452D01*
X112498718Y-89261704D01*
X112490578Y-89218161D01*
X112490577Y-89218160D01*
X112490577Y-89218156D01*
X112421922Y-89040937D01*
X112321872Y-88879351D01*
X112193834Y-88738900D01*
X112042169Y-88624367D01*
X111872040Y-88539653D01*
X111818782Y-88524500D01*
X111689243Y-88487643D01*
X111500000Y-88470107D01*
X111310756Y-88487643D01*
X111127959Y-88539653D01*
X110957838Y-88624363D01*
X110957829Y-88624368D01*
X110829643Y-88721171D01*
X110806166Y-88738900D01*
X110678128Y-88879351D01*
X110678126Y-88879353D01*
X110678125Y-88879355D01*
X110578081Y-89040931D01*
X110578078Y-89040936D01*
X110509423Y-89218155D01*
X110509421Y-89218161D01*
X110474500Y-89404974D01*
X110474500Y-98497840D01*
X110474312Y-98502140D01*
X110462487Y-98637301D01*
X110460450Y-98660589D01*
X110457454Y-98677584D01*
X110417971Y-98824933D01*
X110412069Y-98841148D01*
X110347601Y-98979402D01*
X110338972Y-98994347D01*
X110251480Y-99119298D01*
X110240388Y-99132518D01*
X110132518Y-99240388D01*
X110119298Y-99251480D01*
X109994347Y-99338972D01*
X109979402Y-99347601D01*
X109841148Y-99412069D01*
X109824933Y-99417971D01*
X109702319Y-99450826D01*
X109677582Y-99457454D01*
X109660589Y-99460450D01*
X109637301Y-99462487D01*
X109502140Y-99474312D01*
X109497840Y-99474500D01*
X90001491Y-99474500D01*
X89998523Y-99474410D01*
X89704719Y-99456638D01*
X89698789Y-99455918D01*
X89478529Y-99415555D01*
X89410761Y-99403136D01*
X89404952Y-99401704D01*
X89125393Y-99314590D01*
X89119799Y-99312469D01*
X88852771Y-99192288D01*
X88847474Y-99189508D01*
X88596880Y-99038019D01*
X88591966Y-99034627D01*
X88361467Y-98854042D01*
X88356989Y-98850075D01*
X88149924Y-98643010D01*
X88145957Y-98638532D01*
X88030933Y-98491715D01*
X87965367Y-98408026D01*
X87961982Y-98403122D01*
X87810488Y-98152519D01*
X87807711Y-98147228D01*
X87758727Y-98038392D01*
X87687526Y-97880190D01*
X87685412Y-97874613D01*
X87598294Y-97595043D01*
X87596865Y-97589247D01*
X87544078Y-97301196D01*
X87543362Y-97295292D01*
X87525589Y-97001476D01*
X87525500Y-96998509D01*
X87525500Y-95000002D01*
X88994353Y-95000002D01*
X89014834Y-95142456D01*
X89054553Y-95229426D01*
X89074623Y-95273373D01*
X89168872Y-95382143D01*
X89176963Y-95387343D01*
X89179022Y-95388666D01*
X89217754Y-95436032D01*
X89224500Y-95471951D01*
X89224500Y-95573141D01*
X89205593Y-95631332D01*
X89178086Y-95653037D01*
X89179876Y-95655716D01*
X89105451Y-95705445D01*
X89105445Y-95705451D01*
X89061134Y-95771766D01*
X89061132Y-95771772D01*
X89049501Y-95830241D01*
X89049500Y-95830253D01*
X89049500Y-96719746D01*
X89049501Y-96719758D01*
X89058420Y-96764592D01*
X89061133Y-96778231D01*
X89105448Y-96844552D01*
X89171769Y-96888867D01*
X89191386Y-96892769D01*
X89223300Y-96899118D01*
X89276684Y-96929015D01*
X89302299Y-96984580D01*
X89300355Y-97018884D01*
X89298487Y-97026825D01*
X89266757Y-97079141D01*
X89221433Y-97101253D01*
X89171772Y-97111132D01*
X89171766Y-97111134D01*
X89105451Y-97155445D01*
X89105445Y-97155451D01*
X89061134Y-97221766D01*
X89061132Y-97221772D01*
X89049501Y-97280241D01*
X89049500Y-97280253D01*
X89049500Y-98169746D01*
X89049501Y-98169758D01*
X89061132Y-98228227D01*
X89061134Y-98228233D01*
X89105445Y-98294548D01*
X89105448Y-98294552D01*
X89105451Y-98294554D01*
X89166077Y-98335064D01*
X89171769Y-98338867D01*
X89216231Y-98347711D01*
X89230241Y-98350498D01*
X89230246Y-98350498D01*
X89230252Y-98350500D01*
X89230253Y-98350500D01*
X89919747Y-98350500D01*
X89919748Y-98350500D01*
X89924418Y-98349570D01*
X89980685Y-98338379D01*
X90019315Y-98338379D01*
X90080241Y-98350498D01*
X90080246Y-98350498D01*
X90080252Y-98350500D01*
X90080253Y-98350500D01*
X90769747Y-98350500D01*
X90769748Y-98350500D01*
X90828231Y-98338867D01*
X90894552Y-98294552D01*
X90938867Y-98228231D01*
X90950500Y-98169748D01*
X90950500Y-97736189D01*
X90969407Y-97677998D01*
X90979496Y-97666186D01*
X91464879Y-97180802D01*
X91480734Y-97167926D01*
X91490669Y-97161437D01*
X91511338Y-97134879D01*
X91515388Y-97130292D01*
X91518375Y-97127307D01*
X91530487Y-97110340D01*
X91531630Y-97108807D01*
X91562517Y-97069126D01*
X91562517Y-97069123D01*
X91566008Y-97062673D01*
X91569237Y-97056069D01*
X91569237Y-97056068D01*
X91569239Y-97056066D01*
X91583566Y-97007941D01*
X91584191Y-97005991D01*
X91586246Y-97000004D01*
X93644341Y-97000004D01*
X93664935Y-97235400D01*
X93726098Y-97463667D01*
X93825959Y-97677818D01*
X93825963Y-97677826D01*
X93825964Y-97677828D01*
X93825965Y-97677829D01*
X93961505Y-97871401D01*
X94128599Y-98038495D01*
X94322171Y-98174035D01*
X94322172Y-98174035D01*
X94322173Y-98174036D01*
X94322181Y-98174040D01*
X94536333Y-98273901D01*
X94536337Y-98273903D01*
X94764592Y-98335063D01*
X94764596Y-98335063D01*
X94764599Y-98335064D01*
X94941026Y-98350500D01*
X94941034Y-98350500D01*
X95058974Y-98350500D01*
X95235400Y-98335064D01*
X95235401Y-98335063D01*
X95235408Y-98335063D01*
X95463663Y-98273903D01*
X95677829Y-98174035D01*
X95871401Y-98038495D01*
X96038495Y-97871401D01*
X96174035Y-97677830D01*
X96273903Y-97463663D01*
X96335063Y-97235408D01*
X96336256Y-97221772D01*
X96355659Y-97000004D01*
X96355659Y-96999995D01*
X96335064Y-96764599D01*
X96335063Y-96764596D01*
X96335063Y-96764592D01*
X96273903Y-96536337D01*
X96174035Y-96322171D01*
X96038495Y-96128599D01*
X95871401Y-95961505D01*
X95871397Y-95961502D01*
X95871396Y-95961501D01*
X95677826Y-95825963D01*
X95677818Y-95825959D01*
X95463666Y-95726098D01*
X95463667Y-95726098D01*
X95275494Y-95675678D01*
X95235408Y-95664937D01*
X95235407Y-95664936D01*
X95235400Y-95664935D01*
X95058974Y-95649500D01*
X95058966Y-95649500D01*
X94941034Y-95649500D01*
X94941026Y-95649500D01*
X94764599Y-95664935D01*
X94536332Y-95726098D01*
X94322181Y-95825959D01*
X94322173Y-95825963D01*
X94128603Y-95961501D01*
X93961501Y-96128603D01*
X93825964Y-96322171D01*
X93726097Y-96536337D01*
X93664935Y-96764599D01*
X93644341Y-96999995D01*
X93644341Y-97000004D01*
X91586246Y-97000004D01*
X91589092Y-96991714D01*
X91600500Y-96958488D01*
X91600500Y-96958485D01*
X91601706Y-96951259D01*
X91602615Y-96943959D01*
X91602617Y-96943954D01*
X91600541Y-96893767D01*
X91600500Y-96891756D01*
X91600500Y-95936189D01*
X91619407Y-95877998D01*
X91629490Y-95866191D01*
X92866185Y-94629496D01*
X92920703Y-94601719D01*
X92936190Y-94600500D01*
X96346241Y-94600500D01*
X96404432Y-94619407D01*
X96413403Y-94627640D01*
X96413520Y-94627506D01*
X96418871Y-94632143D01*
X96517190Y-94695328D01*
X96539947Y-94709953D01*
X96646403Y-94741211D01*
X96678035Y-94750499D01*
X96678036Y-94750499D01*
X96678039Y-94750500D01*
X96678041Y-94750500D01*
X96821959Y-94750500D01*
X96821961Y-94750500D01*
X96960053Y-94709953D01*
X97081128Y-94632143D01*
X97175377Y-94523373D01*
X97235165Y-94392457D01*
X97255647Y-94250000D01*
X97251643Y-94222154D01*
X97235165Y-94107543D01*
X97235164Y-94107542D01*
X97175377Y-93976627D01*
X97156008Y-93954274D01*
X106024500Y-93954274D01*
X106027353Y-93984694D01*
X106027355Y-93984703D01*
X106072207Y-94112883D01*
X106152845Y-94222144D01*
X106152847Y-94222146D01*
X106152850Y-94222150D01*
X106152853Y-94222152D01*
X106152855Y-94222154D01*
X106262116Y-94302792D01*
X106262117Y-94302792D01*
X106262118Y-94302793D01*
X106390301Y-94347646D01*
X106420725Y-94350499D01*
X106420727Y-94350500D01*
X106420734Y-94350500D01*
X107829273Y-94350500D01*
X107829273Y-94350499D01*
X107859699Y-94347646D01*
X107987882Y-94302793D01*
X108097150Y-94222150D01*
X108177793Y-94112882D01*
X108222646Y-93984699D01*
X108225499Y-93954273D01*
X108225500Y-93954273D01*
X108225500Y-93145726D01*
X108225499Y-93145725D01*
X108222646Y-93115301D01*
X108177793Y-92987118D01*
X108177643Y-92986915D01*
X108097154Y-92877855D01*
X108097152Y-92877853D01*
X108097150Y-92877850D01*
X108097146Y-92877847D01*
X108097144Y-92877845D01*
X107987883Y-92797207D01*
X107859703Y-92752355D01*
X107859694Y-92752353D01*
X107829274Y-92749500D01*
X107829266Y-92749500D01*
X106420734Y-92749500D01*
X106420725Y-92749500D01*
X106390305Y-92752353D01*
X106390296Y-92752355D01*
X106262116Y-92797207D01*
X106152855Y-92877845D01*
X106152845Y-92877855D01*
X106072207Y-92987116D01*
X106027355Y-93115296D01*
X106027353Y-93115305D01*
X106024500Y-93145725D01*
X106024500Y-93954274D01*
X97156008Y-93954274D01*
X97081128Y-93867857D01*
X97081127Y-93867856D01*
X97081126Y-93867855D01*
X96960057Y-93790049D01*
X96960054Y-93790047D01*
X96960053Y-93790047D01*
X96960050Y-93790046D01*
X96821964Y-93749500D01*
X96821961Y-93749500D01*
X96678039Y-93749500D01*
X96678035Y-93749500D01*
X96539949Y-93790046D01*
X96539942Y-93790049D01*
X96418871Y-93867856D01*
X96413520Y-93872494D01*
X96412031Y-93870776D01*
X96368659Y-93896928D01*
X96346241Y-93899500D01*
X92796613Y-93899500D01*
X92776298Y-93897393D01*
X92764685Y-93894958D01*
X92731294Y-93899120D01*
X92725169Y-93899500D01*
X92720959Y-93899500D01*
X92700473Y-93902918D01*
X92698450Y-93903213D01*
X92648608Y-93909426D01*
X92641575Y-93911519D01*
X92634616Y-93913908D01*
X92590462Y-93937804D01*
X92588643Y-93938740D01*
X92543519Y-93960799D01*
X92537542Y-93965066D01*
X92531744Y-93969580D01*
X92497739Y-94006517D01*
X92496323Y-94007992D01*
X91035118Y-95469198D01*
X91019265Y-95482071D01*
X91009335Y-95488559D01*
X91009332Y-95488561D01*
X90988664Y-95515114D01*
X90984605Y-95519712D01*
X90981619Y-95522698D01*
X90969539Y-95539618D01*
X90968318Y-95541256D01*
X90937482Y-95580874D01*
X90933981Y-95587343D01*
X90927157Y-95601304D01*
X90924955Y-95600227D01*
X90897136Y-95640572D01*
X90839428Y-95660906D01*
X90817680Y-95659034D01*
X90795184Y-95654559D01*
X90741801Y-95624662D01*
X90716186Y-95569097D01*
X90715500Y-95557462D01*
X90715500Y-94736336D01*
X90734407Y-94678145D01*
X90744496Y-94666332D01*
X91381332Y-94029496D01*
X91435849Y-94001719D01*
X91451336Y-94000500D01*
X91571959Y-94000500D01*
X91571961Y-94000500D01*
X91710053Y-93959953D01*
X91831128Y-93882143D01*
X91925377Y-93773373D01*
X91985165Y-93642457D01*
X91993728Y-93582899D01*
X92005647Y-93500002D01*
X92005647Y-93499997D01*
X91985165Y-93357543D01*
X91951576Y-93283994D01*
X91925377Y-93226627D01*
X91831128Y-93117857D01*
X91831127Y-93117856D01*
X91831126Y-93117855D01*
X91710057Y-93040049D01*
X91710054Y-93040047D01*
X91710053Y-93040047D01*
X91707162Y-93039198D01*
X91571964Y-92999500D01*
X91571961Y-92999500D01*
X91428039Y-92999500D01*
X91428035Y-92999500D01*
X91289949Y-93040046D01*
X91289942Y-93040049D01*
X91168873Y-93117855D01*
X91074622Y-93226628D01*
X91014834Y-93357543D01*
X90994353Y-93499997D01*
X90994353Y-93500000D01*
X90997424Y-93521362D01*
X90999219Y-93533848D01*
X90988784Y-93594137D01*
X90971230Y-93617939D01*
X90262027Y-94327141D01*
X90256852Y-94331645D01*
X90246900Y-94339160D01*
X90215601Y-94373493D01*
X90214025Y-94375144D01*
X90200557Y-94388612D01*
X90200545Y-94388628D01*
X90198670Y-94391364D01*
X90194417Y-94396731D01*
X90173735Y-94419419D01*
X90173732Y-94419424D01*
X90170436Y-94427931D01*
X90159805Y-94448101D01*
X90154651Y-94455625D01*
X90154649Y-94455629D01*
X90147619Y-94485517D01*
X90145589Y-94492070D01*
X90134500Y-94520695D01*
X90134500Y-94529810D01*
X90131870Y-94552478D01*
X90129783Y-94561350D01*
X90134025Y-94591761D01*
X90134500Y-94598607D01*
X90134500Y-94729446D01*
X90115593Y-94787637D01*
X90066093Y-94823601D01*
X90004907Y-94823601D01*
X89955407Y-94787637D01*
X89945447Y-94770573D01*
X89925377Y-94726628D01*
X89925377Y-94726627D01*
X89831128Y-94617857D01*
X89831127Y-94617856D01*
X89831126Y-94617855D01*
X89710057Y-94540049D01*
X89710054Y-94540047D01*
X89710053Y-94540047D01*
X89710050Y-94540046D01*
X89571964Y-94499500D01*
X89571961Y-94499500D01*
X89428039Y-94499500D01*
X89428035Y-94499500D01*
X89289949Y-94540046D01*
X89289942Y-94540049D01*
X89168873Y-94617855D01*
X89074622Y-94726628D01*
X89014834Y-94857543D01*
X88994353Y-94999997D01*
X88994353Y-95000002D01*
X87525500Y-95000002D01*
X87525500Y-92819746D01*
X99799500Y-92819746D01*
X99799501Y-92819758D01*
X99811132Y-92878227D01*
X99811134Y-92878233D01*
X99855017Y-92943907D01*
X99855448Y-92944552D01*
X99921769Y-92988867D01*
X99966231Y-92997711D01*
X99980241Y-93000498D01*
X99980246Y-93000498D01*
X99980252Y-93000500D01*
X99980253Y-93000500D01*
X101019747Y-93000500D01*
X101019748Y-93000500D01*
X101078231Y-92988867D01*
X101078236Y-92988863D01*
X101082941Y-92986915D01*
X101143938Y-92982113D01*
X101181636Y-93000252D01*
X101195871Y-93011331D01*
X101200469Y-93015391D01*
X101203455Y-93018377D01*
X101220350Y-93030438D01*
X101221992Y-93031662D01*
X101232768Y-93040049D01*
X101261635Y-93062517D01*
X101261639Y-93062518D01*
X101268115Y-93066022D01*
X101274695Y-93069240D01*
X101322846Y-93083575D01*
X101324757Y-93084188D01*
X101343354Y-93090572D01*
X101372273Y-93100500D01*
X101372275Y-93100500D01*
X101379497Y-93101705D01*
X101386801Y-93102615D01*
X101386807Y-93102617D01*
X101436993Y-93100541D01*
X101439005Y-93100500D01*
X102703381Y-93100500D01*
X102723696Y-93102607D01*
X102725844Y-93103057D01*
X102735315Y-93105043D01*
X102768712Y-93100879D01*
X102774837Y-93100500D01*
X102779043Y-93100500D01*
X102790615Y-93098568D01*
X102799549Y-93097077D01*
X102801553Y-93096785D01*
X102851393Y-93090573D01*
X102851396Y-93090571D01*
X102858429Y-93088477D01*
X102865373Y-93086093D01*
X102865381Y-93086092D01*
X102909570Y-93062176D01*
X102911358Y-93061257D01*
X102956482Y-93039199D01*
X102956482Y-93039198D01*
X102956484Y-93039198D01*
X102956485Y-93039196D01*
X102962470Y-93034923D01*
X102968252Y-93030423D01*
X102968255Y-93030419D01*
X102968258Y-93030418D01*
X103002288Y-92993450D01*
X103003652Y-92992028D01*
X103216185Y-92779496D01*
X103270702Y-92751719D01*
X103286189Y-92750500D01*
X103908257Y-92750500D01*
X103908260Y-92750500D01*
X103976393Y-92740573D01*
X104081483Y-92689198D01*
X104164198Y-92606483D01*
X104164423Y-92606021D01*
X104164819Y-92605612D01*
X104168965Y-92599806D01*
X104169835Y-92600427D01*
X104206965Y-92562047D01*
X104253365Y-92550500D01*
X106202881Y-92550500D01*
X106223196Y-92552607D01*
X106225344Y-92553057D01*
X106234815Y-92555043D01*
X106268212Y-92550879D01*
X106274337Y-92550500D01*
X106278543Y-92550500D01*
X106290115Y-92548568D01*
X106299049Y-92547077D01*
X106301053Y-92546785D01*
X106350893Y-92540573D01*
X106350896Y-92540571D01*
X106357929Y-92538477D01*
X106364873Y-92536093D01*
X106364881Y-92536092D01*
X106409070Y-92512176D01*
X106410858Y-92511257D01*
X106411278Y-92511052D01*
X106455984Y-92489198D01*
X106455985Y-92489196D01*
X106461948Y-92484938D01*
X106467754Y-92480420D01*
X106467758Y-92480418D01*
X106467760Y-92480414D01*
X106474234Y-92475378D01*
X106475389Y-92476862D01*
X106519670Y-92451943D01*
X106539185Y-92450000D01*
X106571959Y-92450000D01*
X106571961Y-92450000D01*
X106710053Y-92409453D01*
X106831128Y-92331643D01*
X106925377Y-92222873D01*
X106985165Y-92091957D01*
X106994328Y-92028228D01*
X107005647Y-91949502D01*
X107005647Y-91949497D01*
X106985165Y-91807043D01*
X106952041Y-91734513D01*
X106925377Y-91676127D01*
X106831128Y-91567357D01*
X106831127Y-91567356D01*
X106831126Y-91567355D01*
X106710057Y-91489549D01*
X106710054Y-91489547D01*
X106710053Y-91489547D01*
X106705602Y-91488240D01*
X106571964Y-91449000D01*
X106571961Y-91449000D01*
X106428039Y-91449000D01*
X106428035Y-91449000D01*
X106289949Y-91489546D01*
X106289942Y-91489549D01*
X106168873Y-91567355D01*
X106074622Y-91676128D01*
X106021875Y-91791627D01*
X105980503Y-91836704D01*
X105931822Y-91849500D01*
X105067721Y-91849500D01*
X105009530Y-91830593D01*
X104973566Y-91781093D01*
X104973566Y-91719907D01*
X104977668Y-91709372D01*
X104981626Y-91700707D01*
X104985165Y-91692957D01*
X104985165Y-91692955D01*
X104985166Y-91692954D01*
X105005647Y-91550502D01*
X105005647Y-91550497D01*
X104985165Y-91408043D01*
X104969846Y-91374500D01*
X104925377Y-91277127D01*
X104831128Y-91168357D01*
X104831127Y-91168356D01*
X104831126Y-91168355D01*
X104738041Y-91108534D01*
X104699310Y-91061168D01*
X104695816Y-91000083D01*
X104728895Y-90948610D01*
X104738041Y-90941966D01*
X104746428Y-90936576D01*
X104831128Y-90882143D01*
X104925377Y-90773373D01*
X104985165Y-90642457D01*
X104985164Y-90642457D01*
X104985166Y-90642455D01*
X105002631Y-90520977D01*
X105029626Y-90466069D01*
X105030552Y-90465128D01*
X105855496Y-89640185D01*
X105910013Y-89612408D01*
X105970445Y-89621979D01*
X106013710Y-89665244D01*
X106024500Y-89710189D01*
X106024500Y-90354274D01*
X106027353Y-90384694D01*
X106027355Y-90384703D01*
X106072207Y-90512883D01*
X106152845Y-90622144D01*
X106152847Y-90622146D01*
X106152850Y-90622150D01*
X106152853Y-90622152D01*
X106152855Y-90622154D01*
X106262116Y-90702792D01*
X106262117Y-90702792D01*
X106262118Y-90702793D01*
X106390301Y-90747646D01*
X106420725Y-90750499D01*
X106420727Y-90750500D01*
X106420734Y-90750500D01*
X107829273Y-90750500D01*
X107829273Y-90750499D01*
X107859699Y-90747646D01*
X107987882Y-90702793D01*
X108097150Y-90622150D01*
X108177793Y-90512882D01*
X108222646Y-90384699D01*
X108225499Y-90354273D01*
X108225500Y-90354273D01*
X108225500Y-89545726D01*
X108225499Y-89545725D01*
X108222646Y-89515305D01*
X108222646Y-89515301D01*
X108177793Y-89387118D01*
X108175707Y-89384291D01*
X108174695Y-89381256D01*
X108174325Y-89380555D01*
X108174441Y-89380493D01*
X108156363Y-89326247D01*
X108174831Y-89267916D01*
X108201056Y-89245724D01*
X108199803Y-89243969D01*
X108212470Y-89234923D01*
X108218255Y-89230420D01*
X108218255Y-89230419D01*
X108218258Y-89230418D01*
X108252276Y-89193463D01*
X108253665Y-89192016D01*
X110141186Y-87304496D01*
X110195703Y-87276719D01*
X110211190Y-87275500D01*
X113656512Y-87275500D01*
X113866512Y-87275500D01*
X114366512Y-87275500D01*
X114378381Y-87275500D01*
X114398696Y-87277607D01*
X114400844Y-87278057D01*
X114410315Y-87280043D01*
X114443712Y-87275879D01*
X114449837Y-87275500D01*
X116768810Y-87275500D01*
X116827001Y-87294407D01*
X116838814Y-87304496D01*
X117385503Y-87851185D01*
X117413280Y-87905702D01*
X117414499Y-87921189D01*
X117414499Y-88196200D01*
X117414500Y-88196205D01*
X117414500Y-90478287D01*
X117395593Y-90536478D01*
X117390320Y-90543117D01*
X117339623Y-90601626D01*
X117279834Y-90732543D01*
X117259353Y-90874997D01*
X117259353Y-90875002D01*
X117279834Y-91017456D01*
X117317532Y-91100002D01*
X117339623Y-91148373D01*
X117390320Y-91206880D01*
X117414137Y-91263238D01*
X117414500Y-91271710D01*
X117414500Y-91973309D01*
X117395593Y-92031500D01*
X117385504Y-92043313D01*
X116733814Y-92695004D01*
X116679297Y-92722781D01*
X116663810Y-92724000D01*
X116628035Y-92724000D01*
X116489949Y-92764546D01*
X116489942Y-92764549D01*
X116368873Y-92842355D01*
X116274622Y-92951128D01*
X116214834Y-93082043D01*
X116194353Y-93224497D01*
X116194353Y-93224502D01*
X116214834Y-93366956D01*
X116274622Y-93497871D01*
X116274623Y-93497873D01*
X116348298Y-93582899D01*
X116368873Y-93606644D01*
X116489942Y-93684450D01*
X116489947Y-93684453D01*
X116596403Y-93715711D01*
X116628035Y-93724999D01*
X116628036Y-93724999D01*
X116628039Y-93725000D01*
X116628041Y-93725000D01*
X116771959Y-93725000D01*
X116771961Y-93725000D01*
X116910053Y-93684453D01*
X117031128Y-93606643D01*
X117125377Y-93497873D01*
X117185165Y-93366957D01*
X117185164Y-93366957D01*
X117185166Y-93366955D01*
X117202631Y-93245477D01*
X117229626Y-93190569D01*
X117230552Y-93189628D01*
X117979884Y-92440296D01*
X117995734Y-92427426D01*
X118005669Y-92420937D01*
X118026338Y-92394379D01*
X118030388Y-92389792D01*
X118033375Y-92386807D01*
X118045462Y-92369875D01*
X118046661Y-92368269D01*
X118077517Y-92328626D01*
X118077517Y-92328623D01*
X118081014Y-92322162D01*
X118084239Y-92315567D01*
X118084238Y-92315566D01*
X118098578Y-92267399D01*
X118099175Y-92265538D01*
X118115500Y-92217988D01*
X118115500Y-92217984D01*
X118116706Y-92210759D01*
X118117615Y-92203459D01*
X118117617Y-92203454D01*
X118115541Y-92153267D01*
X118115500Y-92151256D01*
X118115500Y-92112708D01*
X118134407Y-92054517D01*
X118183907Y-92018553D01*
X118245093Y-92018553D01*
X118294593Y-92054517D01*
X118304553Y-92071582D01*
X118339621Y-92148370D01*
X118339622Y-92148371D01*
X118339623Y-92148373D01*
X118404177Y-92222873D01*
X118433873Y-92257144D01*
X118549798Y-92331644D01*
X118554947Y-92334953D01*
X118661403Y-92366211D01*
X118693035Y-92375499D01*
X118693036Y-92375499D01*
X118693039Y-92375500D01*
X118693041Y-92375500D01*
X118836959Y-92375500D01*
X118836961Y-92375500D01*
X118975053Y-92334953D01*
X119096128Y-92257143D01*
X119190377Y-92148373D01*
X119250165Y-92017457D01*
X119259936Y-91949497D01*
X119270647Y-91875002D01*
X119270647Y-91874997D01*
X119250165Y-91732543D01*
X119224400Y-91676127D01*
X119190377Y-91601627D01*
X119096128Y-91492857D01*
X119096127Y-91492856D01*
X119096126Y-91492855D01*
X118975057Y-91415049D01*
X118975054Y-91415047D01*
X118975053Y-91415047D01*
X118975050Y-91415046D01*
X118836964Y-91374500D01*
X118836961Y-91374500D01*
X118801189Y-91374500D01*
X118742998Y-91355593D01*
X118731185Y-91345503D01*
X118295619Y-90909936D01*
X118267842Y-90855420D01*
X118267631Y-90854022D01*
X118250165Y-90732543D01*
X118236578Y-90702792D01*
X118190377Y-90601627D01*
X118139678Y-90543116D01*
X118115862Y-90486758D01*
X118115500Y-90478310D01*
X118115500Y-89500002D01*
X118994353Y-89500002D01*
X119014834Y-89642456D01*
X119073875Y-89771735D01*
X119074623Y-89773373D01*
X119125320Y-89831880D01*
X119149137Y-89888238D01*
X119149500Y-89896710D01*
X119149500Y-90048858D01*
X119147393Y-90069173D01*
X119144957Y-90080792D01*
X119145126Y-90082144D01*
X119149120Y-90114186D01*
X119149500Y-90120314D01*
X119149500Y-90124520D01*
X119152919Y-90145013D01*
X119153214Y-90147036D01*
X119159427Y-90196870D01*
X119161527Y-90203925D01*
X119163907Y-90210857D01*
X119187809Y-90255023D01*
X119188746Y-90256843D01*
X119210801Y-90301960D01*
X119215078Y-90307949D01*
X119219581Y-90313735D01*
X119256517Y-90347737D01*
X119257993Y-90349153D01*
X120252660Y-91343819D01*
X120265535Y-91359675D01*
X120272024Y-91369607D01*
X120298571Y-91390270D01*
X120303169Y-91394330D01*
X120306150Y-91397310D01*
X120306153Y-91397312D01*
X120306155Y-91397314D01*
X120311410Y-91401066D01*
X120323061Y-91409385D01*
X120324701Y-91410608D01*
X120351166Y-91431205D01*
X120364335Y-91441455D01*
X120364336Y-91441455D01*
X120364337Y-91441456D01*
X120370813Y-91444961D01*
X120377396Y-91448179D01*
X120425528Y-91462508D01*
X120427475Y-91463131D01*
X120474973Y-91479438D01*
X120474977Y-91479438D01*
X120482191Y-91480642D01*
X120489501Y-91481553D01*
X120489508Y-91481555D01*
X120539704Y-91479479D01*
X120541715Y-91479438D01*
X120583961Y-91479438D01*
X120642152Y-91498345D01*
X120678116Y-91547845D01*
X120682961Y-91578438D01*
X120682961Y-91598689D01*
X120695082Y-91659624D01*
X120695082Y-91698252D01*
X120682961Y-91759186D01*
X120682961Y-91803348D01*
X120664054Y-91861539D01*
X120614554Y-91897503D01*
X120611853Y-91898338D01*
X120554947Y-91915047D01*
X120554942Y-91915049D01*
X120433873Y-91992855D01*
X120339622Y-92101628D01*
X120279834Y-92232543D01*
X120259353Y-92374997D01*
X120259353Y-92375002D01*
X120279834Y-92517456D01*
X120320491Y-92606481D01*
X120339623Y-92648373D01*
X120429723Y-92752355D01*
X120433873Y-92757144D01*
X120531303Y-92819758D01*
X120554947Y-92834953D01*
X120661403Y-92866211D01*
X120693035Y-92875499D01*
X120693036Y-92875499D01*
X120693039Y-92875500D01*
X120693041Y-92875500D01*
X120705353Y-92875500D01*
X120763544Y-92894407D01*
X120799508Y-92943907D01*
X120801475Y-92998190D01*
X120793226Y-93031662D01*
X120772961Y-93113879D01*
X120772961Y-93283996D01*
X120813670Y-93449161D01*
X120813670Y-93449162D01*
X120813671Y-93449163D01*
X120889760Y-93594137D01*
X120892728Y-93599791D01*
X120967731Y-93684453D01*
X121005532Y-93727121D01*
X121145531Y-93823756D01*
X121304589Y-93884078D01*
X121408762Y-93896727D01*
X121431079Y-93899437D01*
X121431083Y-93899437D01*
X121431089Y-93899438D01*
X121431093Y-93899438D01*
X122615829Y-93899438D01*
X122615833Y-93899438D01*
X122615839Y-93899437D01*
X122615842Y-93899437D01*
X122625509Y-93898263D01*
X122742333Y-93884078D01*
X122901391Y-93823756D01*
X123041390Y-93727121D01*
X123154195Y-93599790D01*
X123233251Y-93449163D01*
X123273961Y-93283996D01*
X125202961Y-93283996D01*
X125243670Y-93449161D01*
X125243670Y-93449162D01*
X125243671Y-93449163D01*
X125319760Y-93594137D01*
X125322728Y-93599791D01*
X125397731Y-93684453D01*
X125435532Y-93727121D01*
X125575531Y-93823756D01*
X125734589Y-93884078D01*
X125838762Y-93896727D01*
X125861079Y-93899437D01*
X125861083Y-93899437D01*
X125861089Y-93899438D01*
X125861093Y-93899438D01*
X126545829Y-93899438D01*
X126545833Y-93899438D01*
X126545839Y-93899437D01*
X126545842Y-93899437D01*
X126555509Y-93898263D01*
X126672333Y-93884078D01*
X126831391Y-93823756D01*
X126971390Y-93727121D01*
X127084195Y-93599790D01*
X127163251Y-93449163D01*
X127203961Y-93283994D01*
X127203961Y-93113882D01*
X127163251Y-92948713D01*
X127084195Y-92798086D01*
X126971390Y-92670755D01*
X126831391Y-92574120D01*
X126672333Y-92513798D01*
X126659131Y-92512195D01*
X126545842Y-92498438D01*
X126545833Y-92498438D01*
X125861089Y-92498438D01*
X125861079Y-92498438D01*
X125734589Y-92513798D01*
X125575531Y-92574120D01*
X125435533Y-92670754D01*
X125435530Y-92670756D01*
X125322728Y-92798084D01*
X125243670Y-92948714D01*
X125202961Y-93113879D01*
X125202961Y-93283996D01*
X123273961Y-93283996D01*
X123273961Y-93283994D01*
X123273961Y-93113882D01*
X123233251Y-92948713D01*
X123154195Y-92798086D01*
X123041390Y-92670755D01*
X122901391Y-92574120D01*
X122742333Y-92513798D01*
X122735197Y-92512931D01*
X122719720Y-92511052D01*
X122664233Y-92485267D01*
X122634499Y-92431792D01*
X122641875Y-92371053D01*
X122683545Y-92326250D01*
X122693763Y-92321313D01*
X122813694Y-92271636D01*
X122933912Y-92179389D01*
X123026159Y-92059171D01*
X123084148Y-91919174D01*
X123103927Y-91768938D01*
X123084148Y-91618702D01*
X123040873Y-91514229D01*
X123036073Y-91453236D01*
X123068042Y-91401066D01*
X123124570Y-91377651D01*
X123184065Y-91391934D01*
X123185861Y-91393062D01*
X123279495Y-91453236D01*
X123289947Y-91459953D01*
X123363518Y-91481555D01*
X123428035Y-91500499D01*
X123428036Y-91500499D01*
X123428039Y-91500500D01*
X123428041Y-91500500D01*
X123571959Y-91500500D01*
X123571961Y-91500500D01*
X123710053Y-91459953D01*
X123831128Y-91382143D01*
X123925377Y-91273373D01*
X123985165Y-91142457D01*
X123993713Y-91083007D01*
X124005647Y-91000002D01*
X124005647Y-90999997D01*
X123985165Y-90857543D01*
X123958289Y-90798694D01*
X123925377Y-90726627D01*
X123831128Y-90617857D01*
X123831127Y-90617856D01*
X123831126Y-90617855D01*
X123710057Y-90540049D01*
X123710054Y-90540047D01*
X123710053Y-90540047D01*
X123710050Y-90540046D01*
X123571964Y-90499500D01*
X123571961Y-90499500D01*
X123451337Y-90499500D01*
X123393146Y-90480593D01*
X123381333Y-90470504D01*
X122876793Y-89965963D01*
X122872286Y-89960784D01*
X122864777Y-89950839D01*
X122830454Y-89919549D01*
X122828801Y-89917971D01*
X122815319Y-89904490D01*
X122812588Y-89902619D01*
X122807207Y-89898357D01*
X122784516Y-89877672D01*
X122776008Y-89874376D01*
X122755828Y-89863738D01*
X122748312Y-89858589D01*
X122748308Y-89858587D01*
X122718422Y-89851557D01*
X122711869Y-89849527D01*
X122674689Y-89835124D01*
X122675417Y-89833244D01*
X122632111Y-89809638D01*
X122605860Y-89754370D01*
X122612033Y-89711590D01*
X122611017Y-89711352D01*
X122613687Y-89699997D01*
X122620417Y-89671381D01*
X122622441Y-89664846D01*
X122633961Y-89635111D01*
X122633961Y-89625286D01*
X122636590Y-89602621D01*
X122638840Y-89593057D01*
X122634436Y-89561484D01*
X122633961Y-89554637D01*
X122633961Y-88744107D01*
X122636192Y-88730434D01*
X122634966Y-88730263D01*
X122636234Y-88721171D01*
X122634014Y-88673154D01*
X122633961Y-88670867D01*
X122633961Y-88459636D01*
X122652868Y-88401445D01*
X122702368Y-88365481D01*
X122705071Y-88364646D01*
X122729262Y-88357543D01*
X122736016Y-88355560D01*
X122857091Y-88277750D01*
X122951340Y-88168980D01*
X123011128Y-88038064D01*
X123031610Y-87895607D01*
X123011128Y-87753150D01*
X122951340Y-87622234D01*
X122917577Y-87583269D01*
X122893759Y-87526910D01*
X122907617Y-87467315D01*
X122953858Y-87427247D01*
X122992396Y-87419438D01*
X123197836Y-87419438D01*
X123251357Y-87435153D01*
X123289947Y-87459953D01*
X123386554Y-87488319D01*
X123428035Y-87500499D01*
X123428036Y-87500499D01*
X123428039Y-87500500D01*
X123428041Y-87500500D01*
X123571959Y-87500500D01*
X123571961Y-87500500D01*
X123710053Y-87459953D01*
X123831128Y-87382143D01*
X123925377Y-87273373D01*
X123985165Y-87142457D01*
X124001428Y-87029344D01*
X124005647Y-87000002D01*
X124005647Y-86999997D01*
X123985165Y-86857543D01*
X123965083Y-86813570D01*
X123925377Y-86726627D01*
X123831128Y-86617857D01*
X123831127Y-86617856D01*
X123831126Y-86617855D01*
X123710057Y-86540049D01*
X123710054Y-86540047D01*
X123710053Y-86540047D01*
X123710050Y-86540046D01*
X123571964Y-86499500D01*
X123571961Y-86499500D01*
X123428039Y-86499500D01*
X123428035Y-86499500D01*
X123289949Y-86540046D01*
X123289942Y-86540049D01*
X123168873Y-86617855D01*
X123074621Y-86726629D01*
X123049990Y-86780564D01*
X123008618Y-86825642D01*
X122959937Y-86838438D01*
X122332961Y-86838438D01*
X122274770Y-86819531D01*
X122238806Y-86770031D01*
X122233961Y-86739438D01*
X122233961Y-86640103D01*
X122252868Y-86581912D01*
X122302368Y-86545948D01*
X122363554Y-86545948D01*
X122370834Y-86548634D01*
X122373225Y-86549625D01*
X122485741Y-86564438D01*
X122485742Y-86564438D01*
X122561180Y-86564438D01*
X122561181Y-86564438D01*
X122673697Y-86549625D01*
X122813694Y-86491636D01*
X122933912Y-86399389D01*
X123026159Y-86279171D01*
X123084148Y-86139174D01*
X123103927Y-85988938D01*
X123084148Y-85838702D01*
X123026159Y-85698705D01*
X122933912Y-85578487D01*
X122813694Y-85486240D01*
X122785117Y-85474403D01*
X122693769Y-85436565D01*
X122647244Y-85396828D01*
X122632960Y-85337333D01*
X122656375Y-85280806D01*
X122708544Y-85248836D01*
X122719716Y-85246824D01*
X122742333Y-85244078D01*
X122901391Y-85183756D01*
X123041390Y-85087121D01*
X123154195Y-84959790D01*
X123233251Y-84809163D01*
X123273961Y-84643996D01*
X125202961Y-84643996D01*
X125243670Y-84809161D01*
X125243670Y-84809162D01*
X125243671Y-84809163D01*
X125313778Y-84942740D01*
X125322728Y-84959791D01*
X125420260Y-85069883D01*
X125435532Y-85087121D01*
X125575531Y-85183756D01*
X125734589Y-85244078D01*
X125838762Y-85256727D01*
X125861079Y-85259437D01*
X125861083Y-85259437D01*
X125861089Y-85259438D01*
X125861093Y-85259438D01*
X126545829Y-85259438D01*
X126545833Y-85259438D01*
X126545839Y-85259437D01*
X126545842Y-85259437D01*
X126555509Y-85258263D01*
X126672333Y-85244078D01*
X126831391Y-85183756D01*
X126971390Y-85087121D01*
X127084195Y-84959790D01*
X127163251Y-84809163D01*
X127203961Y-84643994D01*
X127203961Y-84473882D01*
X127163251Y-84308713D01*
X127084195Y-84158086D01*
X126971390Y-84030755D01*
X126831391Y-83934120D01*
X126672333Y-83873798D01*
X126659683Y-83872262D01*
X126545842Y-83858438D01*
X126545833Y-83858438D01*
X125861089Y-83858438D01*
X125861079Y-83858438D01*
X125734589Y-83873798D01*
X125575531Y-83934120D01*
X125435533Y-84030754D01*
X125435530Y-84030756D01*
X125322728Y-84158084D01*
X125243670Y-84308714D01*
X125202961Y-84473879D01*
X125202961Y-84643996D01*
X123273961Y-84643996D01*
X123273961Y-84643994D01*
X123273961Y-84473882D01*
X123233251Y-84308713D01*
X123154195Y-84158086D01*
X123041390Y-84030755D01*
X122901391Y-83934120D01*
X122742333Y-83873798D01*
X122729683Y-83872262D01*
X122615842Y-83858438D01*
X122615833Y-83858438D01*
X121431089Y-83858438D01*
X121431079Y-83858438D01*
X121304589Y-83873798D01*
X121145531Y-83934120D01*
X121005533Y-84030754D01*
X121005530Y-84030756D01*
X120892728Y-84158084D01*
X120813670Y-84308714D01*
X120772961Y-84473879D01*
X120772961Y-84643996D01*
X120813670Y-84809161D01*
X120813670Y-84809162D01*
X120813671Y-84809163D01*
X120825272Y-84831267D01*
X120892729Y-84959794D01*
X120940565Y-85013789D01*
X120965001Y-85069883D01*
X120951798Y-85129627D01*
X120906000Y-85170200D01*
X120866463Y-85178438D01*
X120753480Y-85178438D01*
X120725590Y-85174428D01*
X120691423Y-85164396D01*
X120659870Y-85155131D01*
X120659869Y-85155131D01*
X120515947Y-85155131D01*
X120515943Y-85155131D01*
X120377857Y-85195677D01*
X120377850Y-85195680D01*
X120256781Y-85273486D01*
X120162530Y-85382259D01*
X120102742Y-85513174D01*
X120082261Y-85655628D01*
X120082261Y-85655633D01*
X120102742Y-85798087D01*
X120153801Y-85909889D01*
X120162531Y-85929004D01*
X120256780Y-86037774D01*
X120256781Y-86037775D01*
X120377850Y-86115581D01*
X120377855Y-86115584D01*
X120506309Y-86153301D01*
X120556815Y-86187835D01*
X120577377Y-86245462D01*
X120560139Y-86304169D01*
X120548421Y-86318294D01*
X119285118Y-87581597D01*
X119269265Y-87594470D01*
X119259335Y-87600958D01*
X119259332Y-87600960D01*
X119238664Y-87627513D01*
X119234605Y-87632111D01*
X119231619Y-87635097D01*
X119219539Y-87652017D01*
X119218318Y-87653655D01*
X119187482Y-87693273D01*
X119183981Y-87699742D01*
X119180759Y-87706334D01*
X119166426Y-87754475D01*
X119165802Y-87756422D01*
X119149500Y-87803909D01*
X119148293Y-87811142D01*
X119147382Y-87818446D01*
X119149457Y-87868597D01*
X119149499Y-87870642D01*
X119149500Y-89103287D01*
X119130593Y-89161478D01*
X119125320Y-89168117D01*
X119074623Y-89226626D01*
X119014834Y-89357543D01*
X118994353Y-89499997D01*
X118994353Y-89500002D01*
X118115500Y-89500002D01*
X118115500Y-88205960D01*
X118115499Y-87781618D01*
X118117607Y-87761302D01*
X118118835Y-87755444D01*
X118120043Y-87749685D01*
X118115879Y-87716292D01*
X118115499Y-87710161D01*
X118115500Y-87705963D01*
X118115499Y-87705962D01*
X118115500Y-87705960D01*
X118112081Y-87685469D01*
X118111786Y-87683445D01*
X118107868Y-87652017D01*
X118105573Y-87633607D01*
X118105572Y-87633604D01*
X118103479Y-87626575D01*
X118101091Y-87619617D01*
X118077199Y-87575470D01*
X118076262Y-87573650D01*
X118054199Y-87528517D01*
X118049948Y-87522562D01*
X118045419Y-87516743D01*
X118041857Y-87513464D01*
X118008488Y-87482746D01*
X118007018Y-87481335D01*
X117235801Y-86710119D01*
X117222925Y-86694262D01*
X117216437Y-86684331D01*
X117189885Y-86663665D01*
X117185283Y-86659601D01*
X117182307Y-86656625D01*
X117165396Y-86644551D01*
X117163756Y-86643328D01*
X117124125Y-86612482D01*
X117117677Y-86608993D01*
X117111070Y-86605763D01*
X117111066Y-86605760D01*
X117078489Y-86596061D01*
X117062929Y-86591428D01*
X117060982Y-86590804D01*
X117013487Y-86574499D01*
X117006260Y-86573293D01*
X116998954Y-86572383D01*
X116998953Y-86572383D01*
X116996245Y-86572495D01*
X116948767Y-86574458D01*
X116946756Y-86574500D01*
X114949500Y-86574500D01*
X114891309Y-86555593D01*
X114855345Y-86506093D01*
X114850500Y-86475500D01*
X114850500Y-85896710D01*
X114869407Y-85838519D01*
X114874666Y-85831896D01*
X114925377Y-85773373D01*
X114985165Y-85642457D01*
X115001370Y-85529747D01*
X115005647Y-85500002D01*
X115005647Y-85499997D01*
X114985165Y-85357543D01*
X114960939Y-85304496D01*
X114925377Y-85226627D01*
X114831128Y-85117857D01*
X114831127Y-85117856D01*
X114831126Y-85117855D01*
X114710053Y-85040046D01*
X114708974Y-85039554D01*
X114708244Y-85038884D01*
X114704097Y-85036219D01*
X114704558Y-85035501D01*
X114663895Y-84998183D01*
X114651743Y-84938217D01*
X114677159Y-84882560D01*
X114730436Y-84852472D01*
X114750098Y-84850500D01*
X116303381Y-84850500D01*
X116323696Y-84852607D01*
X116325844Y-84853057D01*
X116335315Y-84855043D01*
X116368712Y-84850879D01*
X116374837Y-84850500D01*
X116379043Y-84850500D01*
X116390615Y-84848568D01*
X116399549Y-84847077D01*
X116401553Y-84846785D01*
X116451393Y-84840573D01*
X116451396Y-84840571D01*
X116458429Y-84838477D01*
X116465373Y-84836093D01*
X116465381Y-84836092D01*
X116509570Y-84812176D01*
X116511358Y-84811257D01*
X116531564Y-84801380D01*
X116556484Y-84789198D01*
X116556485Y-84789196D01*
X116562470Y-84784923D01*
X116568255Y-84780420D01*
X116568255Y-84780419D01*
X116568258Y-84780418D01*
X116602276Y-84743463D01*
X116603665Y-84742016D01*
X118980624Y-82365058D01*
X125799500Y-82365058D01*
X125840209Y-82530223D01*
X125840209Y-82530224D01*
X125840210Y-82530225D01*
X125919266Y-82680852D01*
X126032071Y-82808183D01*
X126172070Y-82904818D01*
X126331128Y-82965140D01*
X126435301Y-82977789D01*
X126457618Y-82980499D01*
X126457622Y-82980499D01*
X126457628Y-82980500D01*
X126457632Y-82980500D01*
X126542368Y-82980500D01*
X126542372Y-82980500D01*
X126542378Y-82980499D01*
X126542381Y-82980499D01*
X126552048Y-82979325D01*
X126668872Y-82965140D01*
X126827930Y-82904818D01*
X126967929Y-82808183D01*
X127080734Y-82680852D01*
X127159790Y-82530225D01*
X127200500Y-82365056D01*
X127200500Y-82194944D01*
X127159790Y-82029775D01*
X127080734Y-81879148D01*
X126967929Y-81751817D01*
X126827930Y-81655182D01*
X126668872Y-81594860D01*
X126656222Y-81593324D01*
X126542381Y-81579500D01*
X126542372Y-81579500D01*
X126457628Y-81579500D01*
X126457618Y-81579500D01*
X126331128Y-81594860D01*
X126172070Y-81655182D01*
X126032072Y-81751816D01*
X126032069Y-81751818D01*
X125919267Y-81879146D01*
X125840209Y-82029776D01*
X125799500Y-82194941D01*
X125799500Y-82365058D01*
X118980624Y-82365058D01*
X119586186Y-81759496D01*
X119640703Y-81731719D01*
X119656190Y-81730500D01*
X122215918Y-81730500D01*
X122274109Y-81749407D01*
X122308676Y-81794903D01*
X122356203Y-81922330D01*
X122436636Y-82029775D01*
X122442454Y-82037546D01*
X122442457Y-82037548D01*
X122442458Y-82037549D01*
X122557670Y-82123797D01*
X122692511Y-82174089D01*
X122692512Y-82174089D01*
X122692517Y-82174091D01*
X122752127Y-82180500D01*
X124747872Y-82180499D01*
X124807483Y-82174091D01*
X124892301Y-82142456D01*
X124942329Y-82123797D01*
X124942329Y-82123796D01*
X124942331Y-82123796D01*
X125057546Y-82037546D01*
X125143796Y-81922331D01*
X125164114Y-81867857D01*
X125176627Y-81834305D01*
X125194091Y-81787483D01*
X125200500Y-81727873D01*
X125200499Y-81032128D01*
X125194091Y-80972517D01*
X125191323Y-80965096D01*
X125143797Y-80837670D01*
X125057549Y-80722458D01*
X125057548Y-80722457D01*
X125057546Y-80722454D01*
X125057541Y-80722450D01*
X124942329Y-80636202D01*
X124807488Y-80585910D01*
X124807483Y-80585909D01*
X124807481Y-80585908D01*
X124807477Y-80585908D01*
X124776249Y-80582550D01*
X124747873Y-80579500D01*
X124747870Y-80579500D01*
X122752133Y-80579500D01*
X122752129Y-80579500D01*
X122752128Y-80579501D01*
X122744949Y-80580272D01*
X122692519Y-80585908D01*
X122692514Y-80585909D01*
X122557670Y-80636202D01*
X122442458Y-80722450D01*
X122442450Y-80722458D01*
X122356202Y-80837670D01*
X122308677Y-80965096D01*
X122270627Y-81013011D01*
X122215919Y-81029500D01*
X119516613Y-81029500D01*
X119496298Y-81027393D01*
X119484685Y-81024958D01*
X119451294Y-81029120D01*
X119445169Y-81029500D01*
X119440959Y-81029500D01*
X119420473Y-81032918D01*
X119418450Y-81033213D01*
X119368608Y-81039426D01*
X119361575Y-81041519D01*
X119354616Y-81043908D01*
X119310462Y-81067804D01*
X119308643Y-81068740D01*
X119263519Y-81090799D01*
X119257542Y-81095066D01*
X119251744Y-81099580D01*
X119217739Y-81136517D01*
X119216323Y-81137992D01*
X116233814Y-84120504D01*
X116179297Y-84148281D01*
X116163810Y-84149500D01*
X115069123Y-84149500D01*
X115010932Y-84130593D01*
X114974968Y-84081093D01*
X114974968Y-84019907D01*
X114999119Y-83980496D01*
X117361759Y-81617857D01*
X119795119Y-79184496D01*
X119849637Y-79156719D01*
X119865124Y-79155500D01*
X122202793Y-79155500D01*
X122260984Y-79174407D01*
X122296948Y-79223907D01*
X122301226Y-79243919D01*
X122305908Y-79287480D01*
X122305909Y-79287485D01*
X122356202Y-79422329D01*
X122442450Y-79537541D01*
X122442454Y-79537546D01*
X122442457Y-79537548D01*
X122442458Y-79537549D01*
X122557670Y-79623797D01*
X122692511Y-79674089D01*
X122692512Y-79674089D01*
X122692517Y-79674091D01*
X122752127Y-79680500D01*
X124747872Y-79680499D01*
X124807483Y-79674091D01*
X124874906Y-79648943D01*
X124942329Y-79623797D01*
X124942329Y-79623796D01*
X124942331Y-79623796D01*
X125057546Y-79537546D01*
X125143796Y-79422331D01*
X125194091Y-79287483D01*
X125200500Y-79227873D01*
X125200499Y-78532128D01*
X125194091Y-78472517D01*
X125193098Y-78469855D01*
X125143797Y-78337670D01*
X125057549Y-78222458D01*
X125057548Y-78222457D01*
X125057546Y-78222454D01*
X125053627Y-78219520D01*
X124942329Y-78136202D01*
X124807488Y-78085910D01*
X124807483Y-78085909D01*
X124807481Y-78085908D01*
X124807477Y-78085908D01*
X124771525Y-78082043D01*
X124747873Y-78079500D01*
X124747870Y-78079500D01*
X122752133Y-78079500D01*
X122752129Y-78079500D01*
X122752128Y-78079501D01*
X122744949Y-78080272D01*
X122692519Y-78085908D01*
X122692514Y-78085909D01*
X122557670Y-78136202D01*
X122442458Y-78222450D01*
X122442450Y-78222458D01*
X122356202Y-78337670D01*
X122305910Y-78472511D01*
X122305908Y-78472522D01*
X122301225Y-78516083D01*
X122276205Y-78571919D01*
X122223144Y-78602385D01*
X122202792Y-78604500D01*
X119746879Y-78604500D01*
X119727566Y-78602598D01*
X119726495Y-78602385D01*
X119710000Y-78599104D01*
X119709997Y-78599104D01*
X119686889Y-78603700D01*
X119686875Y-78603702D01*
X119580033Y-78624954D01*
X119553165Y-78653453D01*
X119536957Y-78664281D01*
X119536958Y-78664282D01*
X119511377Y-78681375D01*
X119511372Y-78681380D01*
X119501423Y-78696269D01*
X119489115Y-78711267D01*
X114519880Y-83680504D01*
X114465363Y-83708281D01*
X114449876Y-83709500D01*
X109060025Y-83709500D01*
X109053177Y-83709025D01*
X109040828Y-83707301D01*
X109000648Y-83709159D01*
X108994431Y-83709447D01*
X108992153Y-83709500D01*
X108973079Y-83709500D01*
X108969814Y-83710110D01*
X108963001Y-83710900D01*
X108932341Y-83712317D01*
X108932336Y-83712318D01*
X108923995Y-83716001D01*
X108902207Y-83722748D01*
X108893245Y-83724423D01*
X108893239Y-83724426D01*
X108867140Y-83740584D01*
X108861073Y-83743783D01*
X108832983Y-83756186D01*
X108826532Y-83762637D01*
X108808658Y-83776795D01*
X108800903Y-83781597D01*
X108800899Y-83781600D01*
X108782399Y-83806097D01*
X108777895Y-83811274D01*
X107037199Y-85551972D01*
X106982682Y-85579749D01*
X106967195Y-85580968D01*
X106928035Y-85580968D01*
X106789949Y-85621514D01*
X106789942Y-85621517D01*
X106668873Y-85699323D01*
X106574622Y-85808095D01*
X106548720Y-85864812D01*
X106507347Y-85909889D01*
X106447380Y-85922038D01*
X106391724Y-85896620D01*
X106388663Y-85893688D01*
X105879496Y-85384521D01*
X105851719Y-85330004D01*
X105850500Y-85314517D01*
X105850500Y-80396710D01*
X105869407Y-80338519D01*
X105874666Y-80331896D01*
X105925377Y-80273373D01*
X105985165Y-80142457D01*
X106005647Y-80000000D01*
X105985165Y-79857543D01*
X105925377Y-79726627D01*
X105831128Y-79617857D01*
X105831127Y-79617856D01*
X105831126Y-79617855D01*
X105710057Y-79540049D01*
X105710054Y-79540047D01*
X105710053Y-79540047D01*
X105710050Y-79540046D01*
X105571964Y-79499500D01*
X105571961Y-79499500D01*
X105428039Y-79499500D01*
X105428035Y-79499500D01*
X105289949Y-79540046D01*
X105289942Y-79540049D01*
X105168873Y-79617855D01*
X105074622Y-79726628D01*
X105014834Y-79857543D01*
X104994353Y-79999997D01*
X104994353Y-80000002D01*
X105014834Y-80142456D01*
X105074622Y-80273371D01*
X105074623Y-80273373D01*
X105125320Y-80331880D01*
X105149137Y-80388238D01*
X105149500Y-80396710D01*
X105149500Y-85454088D01*
X105147393Y-85474403D01*
X105144957Y-85486022D01*
X105147619Y-85507375D01*
X105149120Y-85519416D01*
X105149500Y-85525544D01*
X105149500Y-85529750D01*
X105152919Y-85550243D01*
X105153214Y-85552266D01*
X105159427Y-85602100D01*
X105161527Y-85609155D01*
X105163907Y-85616087D01*
X105187809Y-85660253D01*
X105188746Y-85662073D01*
X105210801Y-85707190D01*
X105215078Y-85713179D01*
X105219581Y-85718965D01*
X105256517Y-85752967D01*
X105257993Y-85754383D01*
X106469499Y-86965888D01*
X106497276Y-87020405D01*
X106497487Y-87021803D01*
X106514834Y-87142456D01*
X106537371Y-87191804D01*
X106574623Y-87273373D01*
X106647232Y-87357169D01*
X106668873Y-87382144D01*
X106789942Y-87459950D01*
X106789947Y-87459953D01*
X106886554Y-87488319D01*
X106928035Y-87500499D01*
X106928036Y-87500499D01*
X106928039Y-87500500D01*
X106928041Y-87500500D01*
X107071959Y-87500500D01*
X107071961Y-87500500D01*
X107210053Y-87459953D01*
X107331128Y-87382143D01*
X107425377Y-87273373D01*
X107485165Y-87142457D01*
X107485164Y-87142457D01*
X107485166Y-87142455D01*
X107502631Y-87020977D01*
X107529626Y-86966069D01*
X107530552Y-86965128D01*
X109616184Y-84879496D01*
X109670702Y-84851719D01*
X109686189Y-84850500D01*
X114249902Y-84850500D01*
X114308093Y-84869407D01*
X114344057Y-84918907D01*
X114344057Y-84980093D01*
X114308093Y-85029593D01*
X114291026Y-85039554D01*
X114289946Y-85040046D01*
X114168873Y-85117855D01*
X114074622Y-85226628D01*
X114014834Y-85357543D01*
X113994353Y-85499997D01*
X113994353Y-85500002D01*
X114014834Y-85642456D01*
X114020850Y-85655628D01*
X114074623Y-85773373D01*
X114125320Y-85831880D01*
X114149137Y-85888238D01*
X114149500Y-85896710D01*
X114149500Y-86475500D01*
X114130593Y-86533691D01*
X114081093Y-86569655D01*
X114050500Y-86574500D01*
X110071613Y-86574500D01*
X110051298Y-86572393D01*
X110039685Y-86569958D01*
X110006294Y-86574120D01*
X110000169Y-86574500D01*
X109995959Y-86574500D01*
X109975473Y-86577918D01*
X109973450Y-86578213D01*
X109923608Y-86584426D01*
X109916575Y-86586519D01*
X109909616Y-86588908D01*
X109865462Y-86612804D01*
X109863643Y-86613740D01*
X109818519Y-86635799D01*
X109812542Y-86640066D01*
X109806744Y-86644580D01*
X109772739Y-86681517D01*
X109771323Y-86682992D01*
X107883814Y-88570504D01*
X107829297Y-88598281D01*
X107813810Y-88599500D01*
X106096619Y-88599500D01*
X106076304Y-88597393D01*
X106064686Y-88594957D01*
X106064685Y-88594957D01*
X106031287Y-88599120D01*
X106025163Y-88599500D01*
X106020960Y-88599500D01*
X106000464Y-88602919D01*
X105998444Y-88603213D01*
X105948606Y-88609426D01*
X105941575Y-88611519D01*
X105934620Y-88613907D01*
X105890446Y-88637811D01*
X105888630Y-88638746D01*
X105863374Y-88651094D01*
X105843517Y-88660802D01*
X105843515Y-88660803D01*
X105837529Y-88665077D01*
X105831742Y-88669582D01*
X105797728Y-88706529D01*
X105796312Y-88708004D01*
X104533814Y-89970504D01*
X104479297Y-89998281D01*
X104463810Y-89999500D01*
X104446217Y-89999500D01*
X104388026Y-89980593D01*
X104352062Y-89931093D01*
X104352062Y-89869907D01*
X104371398Y-89835669D01*
X104385877Y-89818957D01*
X104425377Y-89773373D01*
X104485165Y-89642457D01*
X104497374Y-89557543D01*
X104505647Y-89500002D01*
X104505647Y-89499997D01*
X104485165Y-89357543D01*
X104464672Y-89312671D01*
X104425377Y-89226627D01*
X104331128Y-89117857D01*
X104331127Y-89117856D01*
X104331126Y-89117855D01*
X104210057Y-89040049D01*
X104210054Y-89040047D01*
X104210053Y-89040047D01*
X104210050Y-89040046D01*
X104071964Y-88999500D01*
X104071961Y-88999500D01*
X103928039Y-88999500D01*
X103928035Y-88999500D01*
X103789949Y-89040046D01*
X103789942Y-89040049D01*
X103668873Y-89117855D01*
X103647558Y-89142455D01*
X103606072Y-89190331D01*
X103553678Y-89221927D01*
X103531254Y-89224500D01*
X102687384Y-89224500D01*
X102668071Y-89222598D01*
X102650500Y-89219103D01*
X102637828Y-89221623D01*
X102590628Y-89219514D01*
X102522466Y-89199501D01*
X102522462Y-89199500D01*
X102522461Y-89199500D01*
X102378539Y-89199500D01*
X102378535Y-89199500D01*
X102240449Y-89240046D01*
X102240442Y-89240049D01*
X102119373Y-89317855D01*
X102025122Y-89426628D01*
X101965334Y-89557543D01*
X101944853Y-89699997D01*
X101944853Y-89700002D01*
X101965334Y-89842456D01*
X102014832Y-89950839D01*
X102025123Y-89973373D01*
X102119372Y-90082143D01*
X102119373Y-90082144D01*
X102210540Y-90140733D01*
X102249271Y-90188099D01*
X102252765Y-90249184D01*
X102229853Y-90291068D01*
X102215624Y-90306526D01*
X102214207Y-90308002D01*
X101485118Y-91037091D01*
X101469265Y-91049964D01*
X101459335Y-91056452D01*
X101459332Y-91056454D01*
X101438664Y-91083007D01*
X101434605Y-91087605D01*
X101431619Y-91090591D01*
X101419539Y-91107511D01*
X101418318Y-91109149D01*
X101382773Y-91154819D01*
X101332112Y-91189127D01*
X101270960Y-91187105D01*
X101222675Y-91149525D01*
X101209507Y-91106597D01*
X101206655Y-91107008D01*
X101185165Y-90957543D01*
X101163423Y-90909936D01*
X101125377Y-90826627D01*
X101031128Y-90717857D01*
X101031127Y-90717856D01*
X101031126Y-90717855D01*
X100910057Y-90640049D01*
X100910054Y-90640047D01*
X100910053Y-90640047D01*
X100910050Y-90640046D01*
X100771964Y-90599500D01*
X100771961Y-90599500D01*
X100628039Y-90599500D01*
X100628035Y-90599500D01*
X100489949Y-90640046D01*
X100489942Y-90640049D01*
X100368873Y-90717855D01*
X100274622Y-90826628D01*
X100214834Y-90957543D01*
X100194353Y-91099997D01*
X100194353Y-91100002D01*
X100214834Y-91242456D01*
X100274623Y-91373373D01*
X100325319Y-91431881D01*
X100349136Y-91488240D01*
X100349499Y-91496711D01*
X100349499Y-91500500D01*
X100330592Y-91558691D01*
X100281092Y-91594655D01*
X100250499Y-91599500D01*
X99980252Y-91599500D01*
X99980251Y-91599500D01*
X99980241Y-91599501D01*
X99921772Y-91611132D01*
X99921766Y-91611134D01*
X99855451Y-91655445D01*
X99855445Y-91655451D01*
X99811134Y-91721766D01*
X99811132Y-91721772D01*
X99799501Y-91780241D01*
X99799500Y-91780253D01*
X99799500Y-92819746D01*
X87525500Y-92819746D01*
X87525500Y-89000002D01*
X87994353Y-89000002D01*
X88014834Y-89142456D01*
X88059403Y-89240046D01*
X88074623Y-89273373D01*
X88168872Y-89382143D01*
X88168873Y-89382144D01*
X88289942Y-89459950D01*
X88289947Y-89459953D01*
X88395623Y-89490982D01*
X88428035Y-89500499D01*
X88428036Y-89500499D01*
X88428039Y-89500500D01*
X88428041Y-89500500D01*
X88571959Y-89500500D01*
X88571961Y-89500500D01*
X88710053Y-89459953D01*
X88831128Y-89382143D01*
X88925377Y-89273373D01*
X88985165Y-89142457D01*
X89002631Y-89020975D01*
X89029626Y-88966068D01*
X89030544Y-88965136D01*
X89374381Y-88621300D01*
X89428898Y-88593523D01*
X89444385Y-88592304D01*
X89969747Y-88592304D01*
X89969748Y-88592304D01*
X90028231Y-88580671D01*
X90094552Y-88536356D01*
X90138867Y-88470035D01*
X90150500Y-88411552D01*
X90150500Y-88411550D01*
X91949500Y-88411550D01*
X91949501Y-88411562D01*
X91961132Y-88470031D01*
X91961134Y-88470037D01*
X91981489Y-88500500D01*
X92005448Y-88536356D01*
X92071769Y-88580671D01*
X92116231Y-88589515D01*
X92130241Y-88592302D01*
X92130246Y-88592302D01*
X92130252Y-88592304D01*
X92130253Y-88592304D01*
X93669747Y-88592304D01*
X93669748Y-88592304D01*
X93728231Y-88580671D01*
X93794552Y-88536356D01*
X93838867Y-88470035D01*
X93850500Y-88411552D01*
X93850500Y-86872056D01*
X93838867Y-86813573D01*
X93794552Y-86747252D01*
X93782858Y-86739438D01*
X93728233Y-86702938D01*
X93728231Y-86702937D01*
X93728228Y-86702936D01*
X93728227Y-86702936D01*
X93669758Y-86691305D01*
X93669748Y-86691304D01*
X93669747Y-86691304D01*
X93592394Y-86691304D01*
X93534203Y-86672397D01*
X93498239Y-86622897D01*
X93494402Y-86578215D01*
X93505647Y-86500002D01*
X93505647Y-86499997D01*
X93485165Y-86357543D01*
X93467240Y-86318294D01*
X93425377Y-86226627D01*
X93331128Y-86117857D01*
X93331127Y-86117856D01*
X93331126Y-86117855D01*
X93210057Y-86040049D01*
X93210054Y-86040047D01*
X93210053Y-86040047D01*
X93210050Y-86040046D01*
X93071964Y-85999500D01*
X93071961Y-85999500D01*
X92928039Y-85999500D01*
X92928035Y-85999500D01*
X92789949Y-86040046D01*
X92789942Y-86040049D01*
X92668873Y-86117855D01*
X92574622Y-86226628D01*
X92514834Y-86357543D01*
X92494353Y-86499997D01*
X92494353Y-86500002D01*
X92505598Y-86578215D01*
X92495165Y-86638504D01*
X92451287Y-86681147D01*
X92407606Y-86691304D01*
X92130252Y-86691304D01*
X92130251Y-86691304D01*
X92130241Y-86691305D01*
X92071772Y-86702936D01*
X92071766Y-86702938D01*
X92005451Y-86747249D01*
X92005445Y-86747255D01*
X91961134Y-86813570D01*
X91961132Y-86813576D01*
X91949501Y-86872045D01*
X91949500Y-86872057D01*
X91949500Y-88411550D01*
X90150500Y-88411550D01*
X90150500Y-86872056D01*
X90138867Y-86813573D01*
X90094552Y-86747252D01*
X90082858Y-86739438D01*
X90028233Y-86702938D01*
X90028231Y-86702937D01*
X90028228Y-86702936D01*
X90028227Y-86702936D01*
X89969758Y-86691305D01*
X89969748Y-86691304D01*
X88430252Y-86691304D01*
X88430251Y-86691304D01*
X88430241Y-86691305D01*
X88371772Y-86702936D01*
X88371766Y-86702938D01*
X88305451Y-86747249D01*
X88305445Y-86747255D01*
X88261134Y-86813570D01*
X88261132Y-86813576D01*
X88249501Y-86872045D01*
X88249500Y-86872057D01*
X88249500Y-88411550D01*
X88249501Y-88411562D01*
X88263035Y-88479597D01*
X88259748Y-88480250D01*
X88263235Y-88524500D01*
X88231270Y-88576672D01*
X88220493Y-88584681D01*
X88168873Y-88617856D01*
X88074622Y-88726628D01*
X88014834Y-88857543D01*
X87994353Y-88999997D01*
X87994353Y-89000002D01*
X87525500Y-89000002D01*
X87525500Y-82911550D01*
X88249500Y-82911550D01*
X88249501Y-82911562D01*
X88261132Y-82970031D01*
X88261134Y-82970037D01*
X88305445Y-83036352D01*
X88305448Y-83036356D01*
X88371769Y-83080671D01*
X88404442Y-83087170D01*
X88430241Y-83092302D01*
X88430246Y-83092302D01*
X88430252Y-83092304D01*
X88745938Y-83092304D01*
X88804129Y-83111211D01*
X88840093Y-83160711D01*
X88844178Y-83179060D01*
X88844957Y-83185313D01*
X88844957Y-83185315D01*
X88846719Y-83199447D01*
X88849120Y-83218709D01*
X88849500Y-83224837D01*
X88849500Y-83229043D01*
X88852919Y-83249536D01*
X88853214Y-83251559D01*
X88859427Y-83301393D01*
X88861527Y-83308448D01*
X88863907Y-83315380D01*
X88887809Y-83359546D01*
X88888746Y-83361366D01*
X88910801Y-83406483D01*
X88915078Y-83412472D01*
X88919581Y-83418258D01*
X88956517Y-83452260D01*
X88957993Y-83453676D01*
X88969380Y-83465062D01*
X88997157Y-83519579D01*
X88997368Y-83520977D01*
X89014834Y-83642456D01*
X89066774Y-83756186D01*
X89074623Y-83773373D01*
X89148332Y-83858438D01*
X89168873Y-83882144D01*
X89237622Y-83926326D01*
X89289947Y-83959953D01*
X89396403Y-83991211D01*
X89428035Y-84000499D01*
X89428036Y-84000499D01*
X89428039Y-84000500D01*
X89428041Y-84000500D01*
X89534949Y-84000500D01*
X89593140Y-84019407D01*
X89629104Y-84068907D01*
X89629104Y-84130093D01*
X89599434Y-84174617D01*
X89571112Y-84198930D01*
X89571110Y-84198931D01*
X89446549Y-84359849D01*
X89358038Y-84540293D01*
X89356940Y-84542533D01*
X89310229Y-84722942D01*
X89305936Y-84739523D01*
X89295631Y-84942740D01*
X89295630Y-84942743D01*
X89322458Y-85117857D01*
X89326444Y-85143875D01*
X89369272Y-85259515D01*
X89397114Y-85334691D01*
X89504745Y-85507371D01*
X89504750Y-85507377D01*
X89572343Y-85578485D01*
X89644941Y-85654857D01*
X89644943Y-85654858D01*
X89644946Y-85654861D01*
X89785900Y-85752967D01*
X89811951Y-85771099D01*
X89998940Y-85851343D01*
X89998942Y-85851344D01*
X90198259Y-85892304D01*
X90198262Y-85892304D01*
X90350744Y-85892304D01*
X90376381Y-85889696D01*
X90502438Y-85876878D01*
X90696588Y-85815963D01*
X90874502Y-85717213D01*
X91028895Y-85584670D01*
X91153448Y-85423762D01*
X91243060Y-85241075D01*
X91294063Y-85044089D01*
X91299203Y-84942743D01*
X94295630Y-84942743D01*
X94322458Y-85117857D01*
X94326444Y-85143875D01*
X94369272Y-85259515D01*
X94397114Y-85334691D01*
X94504745Y-85507371D01*
X94504750Y-85507377D01*
X94572343Y-85578485D01*
X94644941Y-85654857D01*
X94644943Y-85654858D01*
X94644946Y-85654861D01*
X94785900Y-85752967D01*
X94811951Y-85771099D01*
X94998940Y-85851343D01*
X94998942Y-85851344D01*
X95198259Y-85892304D01*
X95198262Y-85892304D01*
X95350744Y-85892304D01*
X95376381Y-85889696D01*
X95502438Y-85876878D01*
X95696588Y-85815963D01*
X95730350Y-85797223D01*
X95790403Y-85785515D01*
X95845870Y-85811341D01*
X95875564Y-85864838D01*
X95868142Y-85925572D01*
X95848398Y-85953788D01*
X94831267Y-86970919D01*
X94816269Y-86983227D01*
X94801380Y-86993176D01*
X94801376Y-86993180D01*
X94786007Y-87016180D01*
X94786006Y-87016182D01*
X94777212Y-87029344D01*
X94766860Y-87044835D01*
X94745902Y-87076200D01*
X94733593Y-87091199D01*
X94732510Y-87092281D01*
X94734626Y-87113764D01*
X94719103Y-87191803D01*
X94722598Y-87209373D01*
X94724500Y-87228687D01*
X94724500Y-87528049D01*
X94705593Y-87586240D01*
X94679024Y-87611333D01*
X94668872Y-87617857D01*
X94574622Y-87726628D01*
X94514834Y-87857543D01*
X94494353Y-87999997D01*
X94494353Y-88000002D01*
X94514834Y-88142456D01*
X94558335Y-88237708D01*
X94574623Y-88273373D01*
X94668872Y-88382143D01*
X94668873Y-88382144D01*
X94789942Y-88459950D01*
X94789947Y-88459953D01*
X94884252Y-88487643D01*
X94928035Y-88500499D01*
X94928036Y-88500499D01*
X94928039Y-88500500D01*
X94928041Y-88500500D01*
X95071959Y-88500500D01*
X95071961Y-88500500D01*
X95210053Y-88459953D01*
X95331128Y-88382143D01*
X95425377Y-88273373D01*
X95446725Y-88226627D01*
X95460447Y-88196582D01*
X95501819Y-88151504D01*
X95561785Y-88139353D01*
X95617441Y-88164771D01*
X95647528Y-88218048D01*
X95649500Y-88237708D01*
X95649500Y-88411550D01*
X95649501Y-88411562D01*
X95661132Y-88470031D01*
X95661134Y-88470037D01*
X95681489Y-88500500D01*
X95705448Y-88536356D01*
X95771769Y-88580671D01*
X95816231Y-88589515D01*
X95830241Y-88592302D01*
X95830246Y-88592302D01*
X95830252Y-88592304D01*
X95830253Y-88592304D01*
X97369747Y-88592304D01*
X97369748Y-88592304D01*
X97428231Y-88580671D01*
X97494552Y-88536356D01*
X97538867Y-88470035D01*
X97550500Y-88411552D01*
X97550500Y-86872056D01*
X97538867Y-86813573D01*
X97494552Y-86747252D01*
X97482858Y-86739438D01*
X97428233Y-86702938D01*
X97428231Y-86702937D01*
X97428228Y-86702936D01*
X97428227Y-86702936D01*
X97369758Y-86691305D01*
X97369748Y-86691304D01*
X97369747Y-86691304D01*
X96129124Y-86691304D01*
X96070933Y-86672397D01*
X96034969Y-86622897D01*
X96034969Y-86561711D01*
X96059120Y-86522300D01*
X97276924Y-85304496D01*
X97331441Y-85276719D01*
X97346928Y-85275500D01*
X102463116Y-85275500D01*
X102482429Y-85277401D01*
X102500000Y-85280897D01*
X102527132Y-85275500D01*
X102527133Y-85275500D01*
X102607495Y-85259515D01*
X102656715Y-85226627D01*
X102675622Y-85213994D01*
X102675621Y-85213994D01*
X102686344Y-85206830D01*
X102686347Y-85206826D01*
X102698624Y-85198624D01*
X102708582Y-85183720D01*
X102720884Y-85168731D01*
X102918730Y-84970884D01*
X102933726Y-84958577D01*
X102948624Y-84948624D01*
X102994889Y-84879385D01*
X103009515Y-84857495D01*
X103018050Y-84814585D01*
X103018526Y-84812195D01*
X103024078Y-84784282D01*
X103025500Y-84777133D01*
X103025500Y-84777131D01*
X103026448Y-84772365D01*
X103026448Y-84772360D01*
X103027210Y-84768530D01*
X103030896Y-84750000D01*
X103027401Y-84732431D01*
X103025500Y-84713130D01*
X103025500Y-82721950D01*
X103044407Y-82663760D01*
X103070978Y-82638666D01*
X103072123Y-82637929D01*
X103081128Y-82632143D01*
X103175377Y-82523373D01*
X103235165Y-82392457D01*
X103255647Y-82250000D01*
X103245654Y-82180499D01*
X103235165Y-82107543D01*
X103203196Y-82037541D01*
X103175377Y-81976627D01*
X103081128Y-81867857D01*
X103081127Y-81867856D01*
X103081126Y-81867855D01*
X102960057Y-81790049D01*
X102960054Y-81790047D01*
X102960053Y-81790047D01*
X102951321Y-81787483D01*
X102821964Y-81749500D01*
X102821961Y-81749500D01*
X102678039Y-81749500D01*
X102678035Y-81749500D01*
X102539949Y-81790046D01*
X102539942Y-81790049D01*
X102418873Y-81867855D01*
X102324622Y-81976628D01*
X102264834Y-82107543D01*
X102244353Y-82249997D01*
X102244353Y-82250002D01*
X102264834Y-82392456D01*
X102314177Y-82500499D01*
X102324623Y-82523373D01*
X102418872Y-82632143D01*
X102426963Y-82637343D01*
X102429022Y-82638666D01*
X102467754Y-82686032D01*
X102474500Y-82721951D01*
X102474500Y-84594876D01*
X102455593Y-84653067D01*
X102445504Y-84664880D01*
X102414880Y-84695504D01*
X102360363Y-84723281D01*
X102344876Y-84724500D01*
X97228688Y-84724500D01*
X97209374Y-84722598D01*
X97191804Y-84719103D01*
X97191803Y-84719103D01*
X97191801Y-84719103D01*
X97172495Y-84722942D01*
X97172486Y-84722945D01*
X97084310Y-84740484D01*
X97070318Y-84749832D01*
X97042338Y-84768528D01*
X97036603Y-84772360D01*
X97018765Y-84784278D01*
X97018762Y-84784282D01*
X96993181Y-84801375D01*
X96993176Y-84801380D01*
X96983227Y-84816269D01*
X96970919Y-84831267D01*
X96358080Y-85444106D01*
X96303563Y-85471883D01*
X96243131Y-85462312D01*
X96199866Y-85419047D01*
X96190295Y-85358615D01*
X96199191Y-85330506D01*
X96243060Y-85241075D01*
X96294063Y-85044089D01*
X96304369Y-84840868D01*
X96273556Y-84639733D01*
X96202886Y-84448917D01*
X96095252Y-84276233D01*
X96021772Y-84198933D01*
X95955063Y-84128755D01*
X95955053Y-84128746D01*
X95788054Y-84012512D01*
X95788051Y-84012510D01*
X95788049Y-84012509D01*
X95601058Y-83932264D01*
X95601060Y-83932264D01*
X95521331Y-83915880D01*
X95401741Y-83891304D01*
X95249258Y-83891304D01*
X95249256Y-83891304D01*
X95097561Y-83906730D01*
X94903410Y-83967645D01*
X94903409Y-83967646D01*
X94725501Y-84066392D01*
X94725498Y-84066394D01*
X94571109Y-84198933D01*
X94446549Y-84359849D01*
X94358038Y-84540293D01*
X94356940Y-84542533D01*
X94310229Y-84722942D01*
X94305936Y-84739523D01*
X94295631Y-84942740D01*
X94295630Y-84942743D01*
X91299203Y-84942743D01*
X91304369Y-84840868D01*
X91273556Y-84639733D01*
X91202886Y-84448917D01*
X91095252Y-84276233D01*
X91021772Y-84198933D01*
X90955063Y-84128755D01*
X90955053Y-84128746D01*
X90788054Y-84012512D01*
X90788051Y-84012510D01*
X90788049Y-84012509D01*
X90601058Y-83932264D01*
X90601060Y-83932264D01*
X90521331Y-83915880D01*
X90401741Y-83891304D01*
X90249258Y-83891304D01*
X90249256Y-83891304D01*
X90097561Y-83906730D01*
X90035104Y-83926326D01*
X89973921Y-83925706D01*
X89924789Y-83889242D01*
X89906472Y-83830862D01*
X89922184Y-83778341D01*
X89925372Y-83773378D01*
X89925377Y-83773373D01*
X89985165Y-83642457D01*
X90005647Y-83500000D01*
X90004394Y-83491287D01*
X89985165Y-83357543D01*
X89985165Y-83357542D01*
X89925377Y-83226627D01*
X89925376Y-83226626D01*
X89924814Y-83225395D01*
X89917839Y-83164608D01*
X89947925Y-83111331D01*
X89995551Y-83087171D01*
X90028231Y-83080671D01*
X90094552Y-83036356D01*
X90138867Y-82970035D01*
X90150500Y-82911552D01*
X90150500Y-82817306D01*
X90994353Y-82817306D01*
X91014834Y-82959760D01*
X91024306Y-82980500D01*
X91074623Y-83090677D01*
X91137853Y-83163649D01*
X91168873Y-83199448D01*
X91214924Y-83229043D01*
X91289947Y-83277257D01*
X91372148Y-83301393D01*
X91428035Y-83317803D01*
X91428036Y-83317803D01*
X91428039Y-83317804D01*
X91428041Y-83317804D01*
X91571959Y-83317804D01*
X91571961Y-83317804D01*
X91710053Y-83277257D01*
X91831128Y-83199447D01*
X91862147Y-83163649D01*
X91880930Y-83141973D01*
X91933326Y-83110377D01*
X91955749Y-83107804D01*
X92164475Y-83107804D01*
X92171323Y-83108279D01*
X92183669Y-83110001D01*
X92183670Y-83110002D01*
X92183670Y-83110001D01*
X92183671Y-83110002D01*
X92193643Y-83109540D01*
X92230068Y-83107856D01*
X92232347Y-83107804D01*
X92251416Y-83107804D01*
X92251418Y-83107804D01*
X92254677Y-83107194D01*
X92261487Y-83106403D01*
X92292162Y-83104986D01*
X92300499Y-83101304D01*
X92322309Y-83094552D01*
X92325328Y-83093988D01*
X92343508Y-83092304D01*
X93669747Y-83092304D01*
X93669748Y-83092304D01*
X93728231Y-83080671D01*
X93794552Y-83036356D01*
X93838867Y-82970035D01*
X93850500Y-82911552D01*
X93850500Y-82911550D01*
X95649500Y-82911550D01*
X95649501Y-82911562D01*
X95661132Y-82970031D01*
X95661134Y-82970037D01*
X95705445Y-83036352D01*
X95705448Y-83036356D01*
X95771769Y-83080671D01*
X95804442Y-83087170D01*
X95830241Y-83092302D01*
X95830246Y-83092302D01*
X95830252Y-83092304D01*
X95830253Y-83092304D01*
X97369747Y-83092304D01*
X97369748Y-83092304D01*
X97428231Y-83080671D01*
X97494552Y-83036356D01*
X97538867Y-82970035D01*
X97550500Y-82911552D01*
X97550500Y-81372056D01*
X97538867Y-81313573D01*
X97494552Y-81247252D01*
X97494548Y-81247249D01*
X97428233Y-81202938D01*
X97428231Y-81202937D01*
X97428228Y-81202936D01*
X97428227Y-81202936D01*
X97369758Y-81191305D01*
X97369748Y-81191304D01*
X95830252Y-81191304D01*
X95830251Y-81191304D01*
X95830241Y-81191305D01*
X95771772Y-81202936D01*
X95771766Y-81202938D01*
X95705451Y-81247249D01*
X95705445Y-81247255D01*
X95661134Y-81313570D01*
X95661132Y-81313576D01*
X95649501Y-81372045D01*
X95649500Y-81372057D01*
X95649500Y-82911550D01*
X93850500Y-82911550D01*
X93850500Y-81372056D01*
X93838867Y-81313573D01*
X93794552Y-81247252D01*
X93794548Y-81247249D01*
X93728233Y-81202938D01*
X93728231Y-81202937D01*
X93728228Y-81202936D01*
X93728227Y-81202936D01*
X93669758Y-81191305D01*
X93669748Y-81191304D01*
X92130252Y-81191304D01*
X92130251Y-81191304D01*
X92130241Y-81191305D01*
X92071772Y-81202936D01*
X92071766Y-81202938D01*
X92005451Y-81247249D01*
X92005445Y-81247255D01*
X91961134Y-81313570D01*
X91961132Y-81313576D01*
X91949501Y-81372045D01*
X91949500Y-81372057D01*
X91949500Y-82329929D01*
X91930593Y-82388120D01*
X91881093Y-82424084D01*
X91819907Y-82424084D01*
X91796977Y-82413213D01*
X91710057Y-82357353D01*
X91710054Y-82357351D01*
X91710053Y-82357351D01*
X91710050Y-82357350D01*
X91571964Y-82316804D01*
X91571961Y-82316804D01*
X91428039Y-82316804D01*
X91428035Y-82316804D01*
X91289949Y-82357350D01*
X91289942Y-82357353D01*
X91168873Y-82435159D01*
X91074622Y-82543932D01*
X91014834Y-82674847D01*
X90994353Y-82817301D01*
X90994353Y-82817306D01*
X90150500Y-82817306D01*
X90150500Y-81372056D01*
X90138867Y-81313573D01*
X90094552Y-81247252D01*
X90094548Y-81247249D01*
X90028233Y-81202938D01*
X90028231Y-81202937D01*
X90028228Y-81202936D01*
X90028227Y-81202936D01*
X89969758Y-81191305D01*
X89969748Y-81191304D01*
X88430252Y-81191304D01*
X88430251Y-81191304D01*
X88430241Y-81191305D01*
X88371772Y-81202936D01*
X88371766Y-81202938D01*
X88305451Y-81247249D01*
X88305445Y-81247255D01*
X88261134Y-81313570D01*
X88261132Y-81313576D01*
X88249501Y-81372045D01*
X88249500Y-81372057D01*
X88249500Y-82911550D01*
X87525500Y-82911550D01*
X87525500Y-75411550D01*
X88249500Y-75411550D01*
X88249501Y-75411562D01*
X88261132Y-75470031D01*
X88261134Y-75470037D01*
X88305445Y-75536352D01*
X88305448Y-75536356D01*
X88305451Y-75536358D01*
X88370016Y-75579500D01*
X88371769Y-75580671D01*
X88416231Y-75589515D01*
X88430241Y-75592302D01*
X88430246Y-75592302D01*
X88430252Y-75592304D01*
X88430253Y-75592304D01*
X89928307Y-75592304D01*
X89986498Y-75611211D01*
X90018360Y-75650177D01*
X90063947Y-75749997D01*
X90074623Y-75773373D01*
X90155903Y-75867176D01*
X90168873Y-75882144D01*
X90289942Y-75959950D01*
X90289947Y-75959953D01*
X90396403Y-75991211D01*
X90428035Y-76000499D01*
X90428036Y-76000499D01*
X90428039Y-76000500D01*
X90428041Y-76000500D01*
X90571959Y-76000500D01*
X90571961Y-76000500D01*
X90710053Y-75959953D01*
X90831128Y-75882143D01*
X90925377Y-75773373D01*
X90985165Y-75642457D01*
X90996293Y-75565058D01*
X91005647Y-75500002D01*
X91005647Y-75499997D01*
X90985165Y-75357543D01*
X90971656Y-75327963D01*
X90925377Y-75226627D01*
X90831128Y-75117857D01*
X90831127Y-75117856D01*
X90831126Y-75117855D01*
X90710057Y-75040049D01*
X90710054Y-75040047D01*
X90710053Y-75040047D01*
X90710050Y-75040046D01*
X90571964Y-74999500D01*
X90571961Y-74999500D01*
X90536190Y-74999500D01*
X90477999Y-74980593D01*
X90466186Y-74970504D01*
X90179496Y-74683814D01*
X90151719Y-74629297D01*
X90150500Y-74613810D01*
X90150500Y-74500002D01*
X90994353Y-74500002D01*
X91014834Y-74642456D01*
X91050339Y-74720200D01*
X91074623Y-74773373D01*
X91167365Y-74880404D01*
X91168873Y-74882144D01*
X91279590Y-74953297D01*
X91289947Y-74959953D01*
X91396403Y-74991211D01*
X91428035Y-75000499D01*
X91428036Y-75000499D01*
X91428039Y-75000500D01*
X91428041Y-75000500D01*
X91571959Y-75000500D01*
X91571961Y-75000500D01*
X91710053Y-74959953D01*
X91796978Y-74904089D01*
X91856151Y-74888535D01*
X91913168Y-74910734D01*
X91946247Y-74962206D01*
X91949500Y-74987374D01*
X91949500Y-75411550D01*
X91949501Y-75411562D01*
X91961132Y-75470031D01*
X91961134Y-75470037D01*
X92005445Y-75536352D01*
X92005448Y-75536356D01*
X92005451Y-75536358D01*
X92070016Y-75579500D01*
X92071769Y-75580671D01*
X92116231Y-75589515D01*
X92130241Y-75592302D01*
X92130246Y-75592302D01*
X92130252Y-75592304D01*
X92130253Y-75592304D01*
X93669747Y-75592304D01*
X93669748Y-75592304D01*
X93728231Y-75580671D01*
X93794552Y-75536356D01*
X93838867Y-75470035D01*
X93850500Y-75411552D01*
X93850500Y-75411550D01*
X95649500Y-75411550D01*
X95649501Y-75411562D01*
X95661132Y-75470031D01*
X95661134Y-75470037D01*
X95705445Y-75536352D01*
X95705448Y-75536356D01*
X95705451Y-75536358D01*
X95770016Y-75579500D01*
X95771769Y-75580671D01*
X95816231Y-75589515D01*
X95830241Y-75592302D01*
X95830246Y-75592302D01*
X95830252Y-75592304D01*
X95830253Y-75592304D01*
X97369747Y-75592304D01*
X97369748Y-75592304D01*
X97428231Y-75580671D01*
X97494552Y-75536356D01*
X97538867Y-75470035D01*
X97550500Y-75411552D01*
X97550500Y-73872056D01*
X97538867Y-73813573D01*
X97494552Y-73747252D01*
X97494548Y-73747249D01*
X97428233Y-73702938D01*
X97428231Y-73702937D01*
X97428228Y-73702936D01*
X97428227Y-73702936D01*
X97369758Y-73691305D01*
X97369748Y-73691304D01*
X95830252Y-73691304D01*
X95830251Y-73691304D01*
X95830241Y-73691305D01*
X95771772Y-73702936D01*
X95771766Y-73702938D01*
X95705451Y-73747249D01*
X95705445Y-73747255D01*
X95661134Y-73813570D01*
X95661132Y-73813576D01*
X95649501Y-73872045D01*
X95649500Y-73872057D01*
X95649500Y-75411550D01*
X93850500Y-75411550D01*
X93850500Y-73872056D01*
X93838867Y-73813573D01*
X93794552Y-73747252D01*
X93794548Y-73747249D01*
X93728233Y-73702938D01*
X93728231Y-73702937D01*
X93728228Y-73702936D01*
X93728227Y-73702936D01*
X93669758Y-73691305D01*
X93669748Y-73691304D01*
X92130252Y-73691304D01*
X92130251Y-73691304D01*
X92130241Y-73691305D01*
X92071772Y-73702936D01*
X92071766Y-73702938D01*
X92005451Y-73747249D01*
X92005445Y-73747255D01*
X91961134Y-73813570D01*
X91961132Y-73813576D01*
X91949501Y-73872045D01*
X91949500Y-73872057D01*
X91949500Y-74012625D01*
X91930593Y-74070816D01*
X91881093Y-74106780D01*
X91819907Y-74106780D01*
X91796977Y-74095909D01*
X91710057Y-74040049D01*
X91710054Y-74040047D01*
X91710053Y-74040047D01*
X91710050Y-74040046D01*
X91571964Y-73999500D01*
X91571961Y-73999500D01*
X91428039Y-73999500D01*
X91428035Y-73999500D01*
X91289949Y-74040046D01*
X91289942Y-74040049D01*
X91168873Y-74117855D01*
X91074622Y-74226628D01*
X91014834Y-74357543D01*
X90994353Y-74499997D01*
X90994353Y-74500002D01*
X90150500Y-74500002D01*
X90150500Y-73872057D01*
X90150498Y-73872045D01*
X90143390Y-73836311D01*
X90138867Y-73813573D01*
X90094552Y-73747252D01*
X90094548Y-73747249D01*
X90028233Y-73702938D01*
X90028231Y-73702937D01*
X90028228Y-73702936D01*
X90028227Y-73702936D01*
X89969758Y-73691305D01*
X89969748Y-73691304D01*
X88430252Y-73691304D01*
X88430251Y-73691304D01*
X88430241Y-73691305D01*
X88371772Y-73702936D01*
X88371766Y-73702938D01*
X88305451Y-73747249D01*
X88305445Y-73747255D01*
X88261134Y-73813570D01*
X88261132Y-73813576D01*
X88249501Y-73872045D01*
X88249500Y-73872057D01*
X88249500Y-75411550D01*
X87525500Y-75411550D01*
X87525500Y-71942743D01*
X89295630Y-71942743D01*
X89326443Y-72143871D01*
X89326444Y-72143875D01*
X89397114Y-72334691D01*
X89443005Y-72408317D01*
X89504745Y-72507371D01*
X89504747Y-72507373D01*
X89504748Y-72507375D01*
X89644941Y-72654857D01*
X89644943Y-72654858D01*
X89644946Y-72654861D01*
X89781637Y-72750000D01*
X89811951Y-72771099D01*
X89998940Y-72851343D01*
X89998942Y-72851344D01*
X90198259Y-72892304D01*
X90198262Y-72892304D01*
X90350744Y-72892304D01*
X90376381Y-72889696D01*
X90502438Y-72876878D01*
X90696588Y-72815963D01*
X90874502Y-72717213D01*
X91028895Y-72584670D01*
X91153448Y-72423762D01*
X91243060Y-72241075D01*
X91294063Y-72044089D01*
X91299203Y-71942743D01*
X94295630Y-71942743D01*
X94326443Y-72143871D01*
X94326444Y-72143875D01*
X94397114Y-72334691D01*
X94443005Y-72408317D01*
X94504745Y-72507371D01*
X94504747Y-72507373D01*
X94504748Y-72507375D01*
X94644941Y-72654857D01*
X94644943Y-72654858D01*
X94644946Y-72654861D01*
X94781637Y-72750000D01*
X94811951Y-72771099D01*
X94998940Y-72851343D01*
X94998942Y-72851344D01*
X95198259Y-72892304D01*
X95198262Y-72892304D01*
X95350744Y-72892304D01*
X95376381Y-72889696D01*
X95502438Y-72876878D01*
X95696588Y-72815963D01*
X95874502Y-72717213D01*
X96028895Y-72584670D01*
X96153448Y-72423762D01*
X96243060Y-72241075D01*
X96294063Y-72044089D01*
X96304369Y-71840868D01*
X96273556Y-71639733D01*
X96202886Y-71448917D01*
X96095252Y-71276233D01*
X95955059Y-71128751D01*
X95955057Y-71128749D01*
X95955053Y-71128746D01*
X95788054Y-71012512D01*
X95788051Y-71012510D01*
X95788049Y-71012509D01*
X95601058Y-70932264D01*
X95601060Y-70932264D01*
X95521331Y-70915880D01*
X95401741Y-70891304D01*
X95249258Y-70891304D01*
X95249256Y-70891304D01*
X95097561Y-70906730D01*
X94903410Y-70967645D01*
X94903409Y-70967646D01*
X94725501Y-71066392D01*
X94725498Y-71066394D01*
X94571109Y-71198933D01*
X94446549Y-71359849D01*
X94377805Y-71499997D01*
X94356940Y-71542533D01*
X94331068Y-71642457D01*
X94305936Y-71739523D01*
X94295631Y-71942740D01*
X94295630Y-71942743D01*
X91299203Y-71942743D01*
X91304369Y-71840868D01*
X91273556Y-71639733D01*
X91202886Y-71448917D01*
X91095252Y-71276233D01*
X90955059Y-71128751D01*
X90955057Y-71128749D01*
X90955053Y-71128746D01*
X90788054Y-71012512D01*
X90788051Y-71012510D01*
X90788049Y-71012509D01*
X90601058Y-70932264D01*
X90601060Y-70932264D01*
X90521331Y-70915880D01*
X90401741Y-70891304D01*
X90249258Y-70891304D01*
X90249256Y-70891304D01*
X90097561Y-70906730D01*
X89903410Y-70967645D01*
X89903409Y-70967646D01*
X89725501Y-71066392D01*
X89725498Y-71066394D01*
X89571109Y-71198933D01*
X89446549Y-71359849D01*
X89377805Y-71499997D01*
X89356940Y-71542533D01*
X89331068Y-71642457D01*
X89305936Y-71739523D01*
X89295631Y-71942740D01*
X89295630Y-71942743D01*
X87525500Y-71942743D01*
X87525500Y-69911550D01*
X88249500Y-69911550D01*
X88249501Y-69911562D01*
X88261132Y-69970031D01*
X88261134Y-69970037D01*
X88305445Y-70036352D01*
X88305448Y-70036356D01*
X88371769Y-70080671D01*
X88416231Y-70089515D01*
X88430241Y-70092302D01*
X88430246Y-70092302D01*
X88430252Y-70092304D01*
X88430253Y-70092304D01*
X89969747Y-70092304D01*
X89969748Y-70092304D01*
X90028231Y-70080671D01*
X90094552Y-70036356D01*
X90134938Y-69975914D01*
X90182987Y-69938035D01*
X90244126Y-69935633D01*
X90270773Y-69947630D01*
X90289947Y-69959953D01*
X90386230Y-69988224D01*
X90428035Y-70000499D01*
X90428036Y-70000499D01*
X90428039Y-70000500D01*
X90428041Y-70000500D01*
X90571959Y-70000500D01*
X90571961Y-70000500D01*
X90710053Y-69959953D01*
X90831128Y-69882143D01*
X90925377Y-69773373D01*
X90985165Y-69642457D01*
X91005647Y-69500000D01*
X91003617Y-69485883D01*
X90985165Y-69357543D01*
X90948454Y-69277158D01*
X90925377Y-69226627D01*
X90831128Y-69117857D01*
X90831127Y-69117856D01*
X90831126Y-69117855D01*
X90710057Y-69040049D01*
X90710054Y-69040047D01*
X90710053Y-69040047D01*
X90710050Y-69040046D01*
X90571964Y-68999500D01*
X90571961Y-68999500D01*
X90536190Y-68999500D01*
X90477999Y-68980593D01*
X90466186Y-68970504D01*
X90422605Y-68926923D01*
X90409729Y-68911066D01*
X90403241Y-68901135D01*
X90376689Y-68880469D01*
X90372087Y-68876405D01*
X90369111Y-68873429D01*
X90352200Y-68861355D01*
X90350560Y-68860132D01*
X90310929Y-68829286D01*
X90304481Y-68825797D01*
X90297874Y-68822567D01*
X90297870Y-68822564D01*
X90257333Y-68810495D01*
X90249733Y-68808232D01*
X90247786Y-68807608D01*
X90217355Y-68797161D01*
X90168456Y-68760384D01*
X90150500Y-68703525D01*
X90150500Y-68550316D01*
X90169407Y-68492125D01*
X90218907Y-68456161D01*
X90280093Y-68456161D01*
X90289471Y-68459813D01*
X90289946Y-68459952D01*
X90289947Y-68459953D01*
X90317748Y-68468116D01*
X90428035Y-68500499D01*
X90428036Y-68500499D01*
X90428039Y-68500500D01*
X90428041Y-68500500D01*
X90548663Y-68500500D01*
X90606854Y-68519407D01*
X90618667Y-68529496D01*
X91393943Y-69304773D01*
X91398448Y-69309950D01*
X91405963Y-69319900D01*
X91405964Y-69319902D01*
X91435920Y-69347210D01*
X91440286Y-69351190D01*
X91441940Y-69352770D01*
X91451295Y-69362124D01*
X91455424Y-69366253D01*
X91458159Y-69368126D01*
X91463529Y-69372379D01*
X91486226Y-69393070D01*
X91494729Y-69396364D01*
X91514911Y-69407002D01*
X91522432Y-69412153D01*
X91522433Y-69412154D01*
X91552321Y-69419183D01*
X91558858Y-69421207D01*
X91587500Y-69432304D01*
X91596615Y-69432304D01*
X91619282Y-69434933D01*
X91628156Y-69437021D01*
X91652451Y-69433631D01*
X91658567Y-69432779D01*
X91665413Y-69432304D01*
X91850500Y-69432304D01*
X91908691Y-69451211D01*
X91944655Y-69500711D01*
X91949500Y-69531304D01*
X91949500Y-69911550D01*
X91949501Y-69911562D01*
X91961132Y-69970031D01*
X91961134Y-69970037D01*
X92005445Y-70036352D01*
X92005448Y-70036356D01*
X92071769Y-70080671D01*
X92116231Y-70089515D01*
X92130241Y-70092302D01*
X92130246Y-70092302D01*
X92130252Y-70092304D01*
X92130253Y-70092304D01*
X93669747Y-70092304D01*
X93669748Y-70092304D01*
X93728231Y-70080671D01*
X93794552Y-70036356D01*
X93838867Y-69970035D01*
X93850500Y-69911552D01*
X93850500Y-68372056D01*
X93838867Y-68313573D01*
X93794552Y-68247252D01*
X93776511Y-68235197D01*
X93728233Y-68202938D01*
X93728231Y-68202937D01*
X93728228Y-68202936D01*
X93728227Y-68202936D01*
X93669758Y-68191305D01*
X93669748Y-68191304D01*
X92130252Y-68191304D01*
X92130251Y-68191304D01*
X92130241Y-68191305D01*
X92071772Y-68202936D01*
X92071766Y-68202938D01*
X92005451Y-68247249D01*
X92005445Y-68247255D01*
X91961134Y-68313570D01*
X91961132Y-68313576D01*
X91949501Y-68372045D01*
X91949500Y-68372057D01*
X91949500Y-68752304D01*
X91930593Y-68810495D01*
X91881093Y-68846459D01*
X91850500Y-68851304D01*
X91803141Y-68851304D01*
X91744950Y-68832397D01*
X91733137Y-68822308D01*
X91028768Y-68117939D01*
X91000991Y-68063422D01*
X91000780Y-68033850D01*
X91005647Y-68000000D01*
X91004755Y-67993799D01*
X90985165Y-67857543D01*
X90946725Y-67773373D01*
X90925377Y-67726627D01*
X90831128Y-67617857D01*
X90831127Y-67617856D01*
X90831126Y-67617855D01*
X90710057Y-67540049D01*
X90710054Y-67540047D01*
X90710053Y-67540047D01*
X90710050Y-67540046D01*
X90571964Y-67499500D01*
X90571961Y-67499500D01*
X90428039Y-67499500D01*
X90428035Y-67499500D01*
X90289949Y-67540046D01*
X90289942Y-67540049D01*
X90168873Y-67617855D01*
X90074622Y-67726628D01*
X90014834Y-67857543D01*
X89994353Y-67999997D01*
X89994353Y-68000002D01*
X90005598Y-68078215D01*
X89995165Y-68138504D01*
X89951287Y-68181147D01*
X89907606Y-68191304D01*
X88430252Y-68191304D01*
X88430251Y-68191304D01*
X88430241Y-68191305D01*
X88371772Y-68202936D01*
X88371766Y-68202938D01*
X88305451Y-68247249D01*
X88305445Y-68247255D01*
X88261134Y-68313570D01*
X88261132Y-68313576D01*
X88249501Y-68372045D01*
X88249500Y-68372057D01*
X88249500Y-69911550D01*
X87525500Y-69911550D01*
X87525500Y-62869745D01*
X97478548Y-62869745D01*
X97499142Y-63105141D01*
X97560305Y-63333408D01*
X97660166Y-63547559D01*
X97660170Y-63547567D01*
X97722680Y-63636842D01*
X97795712Y-63741142D01*
X97962806Y-63908236D01*
X98156378Y-64043776D01*
X98156379Y-64043776D01*
X98156380Y-64043777D01*
X98156388Y-64043781D01*
X98370540Y-64143642D01*
X98370544Y-64143644D01*
X98598799Y-64204804D01*
X98598803Y-64204804D01*
X98598806Y-64204805D01*
X98775233Y-64220241D01*
X98775241Y-64220241D01*
X98893181Y-64220241D01*
X99069607Y-64204805D01*
X99069608Y-64204804D01*
X99069615Y-64204804D01*
X99297870Y-64143644D01*
X99512036Y-64043776D01*
X99705608Y-63908236D01*
X99817794Y-63796050D01*
X100369678Y-63796050D01*
X100388924Y-64003748D01*
X100421390Y-64117855D01*
X100446006Y-64204370D01*
X100538981Y-64391089D01*
X100664682Y-64557544D01*
X100818829Y-64698067D01*
X100821407Y-64699663D01*
X100996163Y-64807869D01*
X100996167Y-64807871D01*
X100996172Y-64807874D01*
X101190673Y-64883224D01*
X101395707Y-64921551D01*
X101604293Y-64921551D01*
X101809327Y-64883224D01*
X102003828Y-64807874D01*
X102181171Y-64698067D01*
X102335318Y-64557544D01*
X102461019Y-64391089D01*
X102553994Y-64204370D01*
X102611076Y-64003747D01*
X102630322Y-63796051D01*
X102611076Y-63588355D01*
X102553994Y-63387732D01*
X102461019Y-63201013D01*
X102335318Y-63034558D01*
X102181171Y-62894035D01*
X102141927Y-62869736D01*
X102003836Y-62784232D01*
X102003830Y-62784229D01*
X102003828Y-62784228D01*
X101809327Y-62708878D01*
X101809326Y-62708877D01*
X101809324Y-62708877D01*
X101604293Y-62670551D01*
X101395707Y-62670551D01*
X101190675Y-62708877D01*
X100996169Y-62784229D01*
X100996163Y-62784232D01*
X100818833Y-62894032D01*
X100818831Y-62894033D01*
X100818829Y-62894035D01*
X100689627Y-63011818D01*
X100664683Y-63034557D01*
X100538982Y-63201011D01*
X100538977Y-63201020D01*
X100446006Y-63387731D01*
X100388924Y-63588353D01*
X100369678Y-63796050D01*
X99817794Y-63796050D01*
X99872702Y-63741142D01*
X100008242Y-63547571D01*
X100108110Y-63333404D01*
X100169270Y-63105149D01*
X100177435Y-63011823D01*
X100189866Y-62869745D01*
X100189866Y-62869736D01*
X100169271Y-62634340D01*
X100169270Y-62634337D01*
X100169270Y-62634333D01*
X100108110Y-62406078D01*
X100085633Y-62357876D01*
X100047981Y-62277130D01*
X100040524Y-62216401D01*
X100070187Y-62162887D01*
X100125640Y-62137029D01*
X100173464Y-62142975D01*
X100292647Y-62189147D01*
X100497681Y-62227474D01*
X100706267Y-62227474D01*
X100911301Y-62189147D01*
X101105802Y-62113797D01*
X101283145Y-62003990D01*
X101437292Y-61863467D01*
X101562993Y-61697012D01*
X101655968Y-61510293D01*
X101713050Y-61309670D01*
X101732296Y-61101974D01*
X101713050Y-60894278D01*
X101655968Y-60693655D01*
X101562993Y-60506936D01*
X101437292Y-60340481D01*
X101283145Y-60199958D01*
X101266934Y-60189920D01*
X101105810Y-60090155D01*
X101105804Y-60090152D01*
X101105802Y-60090151D01*
X100911301Y-60014801D01*
X100911300Y-60014800D01*
X100911298Y-60014800D01*
X100706267Y-59976474D01*
X100497681Y-59976474D01*
X100292649Y-60014800D01*
X100098143Y-60090152D01*
X100098137Y-60090155D01*
X99920807Y-60199955D01*
X99920805Y-60199956D01*
X99920803Y-60199958D01*
X99816691Y-60294868D01*
X99766657Y-60340480D01*
X99640956Y-60506934D01*
X99640951Y-60506943D01*
X99547980Y-60693654D01*
X99490898Y-60894276D01*
X99471652Y-61101973D01*
X99490898Y-61309671D01*
X99547980Y-61510293D01*
X99552835Y-61520043D01*
X99561848Y-61580561D01*
X99533568Y-61634818D01*
X99478797Y-61662091D01*
X99422375Y-61653896D01*
X99375728Y-61632144D01*
X99297870Y-61595838D01*
X99069615Y-61534678D01*
X99069614Y-61534677D01*
X99069607Y-61534676D01*
X98893181Y-61519241D01*
X98893173Y-61519241D01*
X98775241Y-61519241D01*
X98775233Y-61519241D01*
X98598806Y-61534676D01*
X98370539Y-61595839D01*
X98156388Y-61695700D01*
X98156380Y-61695704D01*
X97962810Y-61831242D01*
X97795708Y-61998344D01*
X97660171Y-62191912D01*
X97560304Y-62406078D01*
X97499142Y-62634340D01*
X97478548Y-62869736D01*
X97478548Y-62869745D01*
X87525500Y-62869745D01*
X87525500Y-60554000D01*
X88767000Y-60554000D01*
X88767000Y-60748587D01*
X88773504Y-60809088D01*
X88773506Y-60809098D01*
X88824552Y-60945960D01*
X88912092Y-61062899D01*
X88912100Y-61062907D01*
X89029039Y-61150447D01*
X89165901Y-61201493D01*
X89165911Y-61201495D01*
X89226413Y-61208000D01*
X89295999Y-61208000D01*
X89296000Y-61207998D01*
X89296000Y-60554001D01*
X89295999Y-60554000D01*
X88767000Y-60554000D01*
X87525500Y-60554000D01*
X87525500Y-59501489D01*
X87525589Y-59498523D01*
X87527429Y-59468110D01*
X88478948Y-59468110D01*
X88499429Y-59610564D01*
X88559217Y-59741479D01*
X88559218Y-59741481D01*
X88653467Y-59850251D01*
X88721524Y-59893988D01*
X88760254Y-59941352D01*
X88767000Y-59977271D01*
X88767000Y-60045998D01*
X88767001Y-60046000D01*
X89705000Y-60046000D01*
X89763191Y-60064907D01*
X89799155Y-60114407D01*
X89804000Y-60145000D01*
X89804000Y-61207999D01*
X89804001Y-61208000D01*
X89873588Y-61208000D01*
X89873595Y-61207999D01*
X89891584Y-61206065D01*
X89951463Y-61218641D01*
X89992514Y-61264012D01*
X90000162Y-61290408D01*
X90014834Y-61392456D01*
X90020549Y-61404969D01*
X90074623Y-61523373D01*
X90168872Y-61632143D01*
X90168873Y-61632144D01*
X90267775Y-61695704D01*
X90289947Y-61709953D01*
X90373224Y-61734405D01*
X90428035Y-61750499D01*
X90428036Y-61750499D01*
X90428039Y-61750500D01*
X90428041Y-61750500D01*
X90571959Y-61750500D01*
X90571961Y-61750500D01*
X90710053Y-61709953D01*
X90831128Y-61632143D01*
X90925377Y-61523373D01*
X90985165Y-61392457D01*
X90999837Y-61290408D01*
X91005647Y-61250002D01*
X91005647Y-61249997D01*
X90985165Y-61107543D01*
X90982621Y-61101973D01*
X90925377Y-60976627D01*
X90893471Y-60939805D01*
X90869653Y-60883446D01*
X90883512Y-60823851D01*
X90885961Y-60819994D01*
X90913867Y-60778231D01*
X90925500Y-60719748D01*
X90925500Y-59880252D01*
X90913867Y-59821769D01*
X90869552Y-59755448D01*
X90869548Y-59755445D01*
X90803233Y-59711134D01*
X90803231Y-59711133D01*
X90803228Y-59711132D01*
X90803227Y-59711132D01*
X90744758Y-59699501D01*
X90744748Y-59699500D01*
X90359010Y-59699500D01*
X90300819Y-59680593D01*
X90281331Y-59658478D01*
X90279690Y-59659707D01*
X90187907Y-59537100D01*
X90187903Y-59537096D01*
X90109967Y-59478754D01*
X90074714Y-59428745D01*
X90075588Y-59367566D01*
X90112255Y-59318585D01*
X90169296Y-59300500D01*
X90744747Y-59300500D01*
X90744748Y-59300500D01*
X90803231Y-59288867D01*
X90825179Y-59274201D01*
X90884065Y-59257593D01*
X90941469Y-59278770D01*
X90950184Y-59286513D01*
X90971230Y-59307559D01*
X90999007Y-59362076D01*
X90999219Y-59391649D01*
X90994353Y-59425500D01*
X90994353Y-59425502D01*
X91014834Y-59567956D01*
X91066293Y-59680633D01*
X91074623Y-59698873D01*
X91168872Y-59807643D01*
X91168873Y-59807644D01*
X91289942Y-59885450D01*
X91289947Y-59885453D01*
X91396403Y-59916711D01*
X91428035Y-59925999D01*
X91428036Y-59925999D01*
X91428039Y-59926000D01*
X91428041Y-59926000D01*
X91571959Y-59926000D01*
X91571961Y-59926000D01*
X91710053Y-59885453D01*
X91831128Y-59807643D01*
X91925377Y-59698873D01*
X91985165Y-59567957D01*
X91994936Y-59500004D01*
X93644341Y-59500004D01*
X93664935Y-59735400D01*
X93664936Y-59735407D01*
X93664937Y-59735408D01*
X93682098Y-59799453D01*
X93726098Y-59963667D01*
X93825959Y-60177818D01*
X93825963Y-60177826D01*
X93939854Y-60340481D01*
X93961505Y-60371401D01*
X94128599Y-60538495D01*
X94128602Y-60538497D01*
X94128603Y-60538498D01*
X94150744Y-60554001D01*
X94322171Y-60674035D01*
X94322172Y-60674035D01*
X94322173Y-60674036D01*
X94322181Y-60674040D01*
X94536333Y-60773901D01*
X94536337Y-60773903D01*
X94764592Y-60835063D01*
X94764596Y-60835063D01*
X94764599Y-60835064D01*
X94941026Y-60850500D01*
X94941034Y-60850500D01*
X95058974Y-60850500D01*
X95235400Y-60835064D01*
X95235401Y-60835063D01*
X95235408Y-60835063D01*
X95463663Y-60773903D01*
X95677829Y-60674035D01*
X95871401Y-60538495D01*
X96038495Y-60371401D01*
X96174035Y-60177830D01*
X96273903Y-59963663D01*
X96335063Y-59735408D01*
X96335064Y-59735400D01*
X96355659Y-59500004D01*
X96355659Y-59499995D01*
X96335064Y-59264599D01*
X96335063Y-59264596D01*
X96335063Y-59264592D01*
X96273903Y-59036337D01*
X96261074Y-59008825D01*
X96174040Y-58822181D01*
X96174036Y-58822173D01*
X96038498Y-58628603D01*
X96038497Y-58628602D01*
X96038495Y-58628599D01*
X95871401Y-58461505D01*
X95871397Y-58461502D01*
X95871396Y-58461501D01*
X95677826Y-58325963D01*
X95677818Y-58325959D01*
X95463666Y-58226098D01*
X95463667Y-58226098D01*
X95370055Y-58201015D01*
X95235408Y-58164937D01*
X95235407Y-58164936D01*
X95235400Y-58164935D01*
X95058974Y-58149500D01*
X95058966Y-58149500D01*
X94941034Y-58149500D01*
X94941026Y-58149500D01*
X94764599Y-58164935D01*
X94536332Y-58226098D01*
X94322181Y-58325959D01*
X94322173Y-58325963D01*
X94128603Y-58461501D01*
X93961501Y-58628603D01*
X93825964Y-58822171D01*
X93726097Y-59036337D01*
X93664935Y-59264599D01*
X93644341Y-59499995D01*
X93644341Y-59500004D01*
X91994936Y-59500004D01*
X91995008Y-59499500D01*
X92005647Y-59425502D01*
X92005647Y-59425497D01*
X91985165Y-59283043D01*
X91969360Y-59248435D01*
X91925377Y-59152127D01*
X91831128Y-59043357D01*
X91831127Y-59043356D01*
X91831126Y-59043355D01*
X91710057Y-58965549D01*
X91710054Y-58965547D01*
X91710053Y-58965547D01*
X91710050Y-58965546D01*
X91571964Y-58925000D01*
X91571961Y-58925000D01*
X91451337Y-58925000D01*
X91393146Y-58906093D01*
X91381333Y-58896004D01*
X91022355Y-58537025D01*
X91017848Y-58531846D01*
X91010339Y-58521901D01*
X90976016Y-58490611D01*
X90974363Y-58489033D01*
X90957647Y-58472318D01*
X90958481Y-58471482D01*
X90928561Y-58424123D01*
X90925500Y-58399697D01*
X90925500Y-58280253D01*
X90925498Y-58280241D01*
X90914728Y-58226098D01*
X90913867Y-58221769D01*
X90869552Y-58155448D01*
X90869548Y-58155445D01*
X90803233Y-58111134D01*
X90803231Y-58111133D01*
X90803228Y-58111132D01*
X90803227Y-58111132D01*
X90744758Y-58099501D01*
X90744748Y-58099500D01*
X90155252Y-58099500D01*
X90155251Y-58099500D01*
X90155241Y-58099501D01*
X90096772Y-58111132D01*
X90096766Y-58111134D01*
X90055002Y-58139041D01*
X89996114Y-58155650D01*
X89944998Y-58139041D01*
X89903233Y-58111134D01*
X89903231Y-58111133D01*
X89903228Y-58111132D01*
X89903227Y-58111132D01*
X89844758Y-58099501D01*
X89844748Y-58099500D01*
X89255252Y-58099500D01*
X89255251Y-58099500D01*
X89255241Y-58099501D01*
X89196772Y-58111132D01*
X89196766Y-58111134D01*
X89130451Y-58155445D01*
X89130445Y-58155451D01*
X89086134Y-58221766D01*
X89086132Y-58221772D01*
X89074501Y-58280241D01*
X89074500Y-58280253D01*
X89074500Y-58868608D01*
X89055593Y-58926799D01*
X89006093Y-58962763D01*
X88975500Y-58967608D01*
X88912630Y-58967608D01*
X88774544Y-59008154D01*
X88774537Y-59008157D01*
X88653468Y-59085963D01*
X88559217Y-59194736D01*
X88499429Y-59325651D01*
X88478948Y-59468105D01*
X88478948Y-59468110D01*
X87527429Y-59468110D01*
X87543362Y-59204705D01*
X87544078Y-59198805D01*
X87596865Y-58910748D01*
X87598293Y-58904960D01*
X87685413Y-58625380D01*
X87687523Y-58619814D01*
X87807712Y-58352768D01*
X87810484Y-58347486D01*
X87961987Y-58096868D01*
X87965361Y-58091980D01*
X88145964Y-57861457D01*
X88149924Y-57856989D01*
X88356989Y-57649924D01*
X88361457Y-57645964D01*
X88591980Y-57465361D01*
X88596868Y-57461987D01*
X88847486Y-57310484D01*
X88852771Y-57307711D01*
X89119814Y-57187523D01*
X89125380Y-57185413D01*
X89404960Y-57098293D01*
X89410748Y-57096865D01*
X89698805Y-57044078D01*
X89704705Y-57043362D01*
X89998523Y-57025589D01*
X90001491Y-57025500D01*
X90008285Y-57025500D01*
X115401000Y-57025500D01*
X115459191Y-57044407D01*
G37*
G04 #@! TD.AperFunction*
M02*
