G04 #@! TF.GenerationSoftware,KiCad,Pcbnew,7.0.3*
G04 #@! TF.CreationDate,2023-05-21T14:10:43+02:00*
G04 #@! TF.ProjectId,ultramote,756c7472-616d-46f7-9465-2e6b69636164,0.2a*
G04 #@! TF.SameCoordinates,Original*
G04 #@! TF.FileFunction,Soldermask,Top*
G04 #@! TF.FilePolarity,Negative*
%FSLAX46Y46*%
G04 Gerber Fmt 4.6, Leading zero omitted, Abs format (unit mm)*
G04 Created by KiCad (PCBNEW 7.0.3) date 2023-05-21 14:10:43*
%MOMM*%
%LPD*%
G01*
G04 APERTURE LIST*
%ADD10C,1.500000*%
%ADD11R,1.500000X1.500000*%
%ADD12C,0.650000*%
%ADD13R,1.150000X0.300000*%
%ADD14O,2.100000X1.000000*%
%ADD15O,1.600000X1.000000*%
%ADD16R,0.650000X0.850000*%
%ADD17C,2.200000*%
%ADD18R,0.550000X0.800000*%
%ADD19C,1.900000*%
%ADD20C,2.000000*%
%ADD21R,1.000000X1.000000*%
%ADD22C,2.600000*%
%ADD23C,1.850000*%
%ADD24C,0.900000*%
G04 APERTURE END LIST*
D10*
X90300000Y-84891804D03*
X95300000Y-84891804D03*
D11*
X89200000Y-82141804D03*
X89200000Y-87641804D03*
X92900000Y-82141804D03*
X96600000Y-82141804D03*
X92900000Y-87641804D03*
X96600000Y-87641804D03*
D12*
X122523461Y-91768938D03*
X122523461Y-85988938D03*
D13*
X121458461Y-92228938D03*
X121458461Y-91428938D03*
X121458461Y-90128938D03*
X121458461Y-89128938D03*
X121458461Y-88628938D03*
X121458461Y-87628938D03*
X121458461Y-86328938D03*
X121458461Y-85528938D03*
X121458461Y-85828938D03*
X121458461Y-86628938D03*
X121458461Y-87128938D03*
X121458461Y-88128938D03*
X121458461Y-89628938D03*
X121458461Y-90628938D03*
X121458461Y-91128938D03*
X121458461Y-91928938D03*
D14*
X122023461Y-93198938D03*
D15*
X126203461Y-93198938D03*
X126203461Y-84558938D03*
D14*
X122023461Y-84558938D03*
D10*
X90300000Y-71891804D03*
X95300000Y-71891804D03*
D11*
X89200000Y-69141804D03*
X89200000Y-74641804D03*
X92900000Y-69141804D03*
X96600000Y-69141804D03*
X92900000Y-74641804D03*
X96600000Y-74641804D03*
D16*
X89575000Y-97725000D03*
X90425000Y-97725000D03*
X89575000Y-96275000D03*
X90425000Y-96275000D03*
D17*
X125000000Y-59500000D03*
D18*
X89550000Y-58700000D03*
X90450000Y-58700000D03*
X90450000Y-60300000D03*
X89550000Y-60300000D03*
D19*
X123667000Y-65860000D03*
D20*
X121000000Y-68400000D03*
X126080000Y-68400000D03*
X121000000Y-63320000D03*
X126080000Y-63320000D03*
D21*
X100500000Y-92300000D03*
D17*
X95000000Y-97000000D03*
X98834207Y-62869741D03*
D22*
X105063818Y-60232233D03*
D23*
X102398026Y-59305923D03*
X100601974Y-61101974D03*
X101500000Y-63796051D03*
X103296051Y-62000000D03*
D17*
X95000000Y-59500000D03*
G36*
X103499794Y-71254012D02*
G01*
X101873449Y-72880357D01*
X101166342Y-72173250D01*
X102792687Y-70546905D01*
X103499794Y-71254012D01*
G37*
G36*
X104383677Y-72137896D02*
G01*
X102757332Y-73764241D01*
X102050225Y-73057134D01*
X103676570Y-71430789D01*
X104383677Y-72137896D01*
G37*
G36*
X105267561Y-73021779D02*
G01*
X103641216Y-74648124D01*
X102934109Y-73941017D01*
X104560454Y-72314672D01*
X105267561Y-73021779D01*
G37*
G36*
X106151444Y-73905663D02*
G01*
X104525099Y-75532008D01*
X103817992Y-74824901D01*
X105444337Y-73198556D01*
X106151444Y-73905663D01*
G37*
G36*
X107035328Y-74789546D02*
G01*
X105408983Y-76415891D01*
X104701876Y-75708784D01*
X106328221Y-74082439D01*
X107035328Y-74789546D01*
G37*
G36*
X107919211Y-75673430D02*
G01*
X106292866Y-77299775D01*
X105585759Y-76592668D01*
X107212104Y-74966323D01*
X107919211Y-75673430D01*
G37*
G36*
X108803095Y-76557313D02*
G01*
X107176750Y-78183658D01*
X106469643Y-77476551D01*
X108095988Y-75850206D01*
X108803095Y-76557313D01*
G37*
G36*
X110358730Y-75850206D02*
G01*
X111985075Y-77476551D01*
X111277968Y-78183658D01*
X109651623Y-76557313D01*
X110358730Y-75850206D01*
G37*
G36*
X111242614Y-74966323D02*
G01*
X112868959Y-76592668D01*
X112161852Y-77299775D01*
X110535507Y-75673430D01*
X111242614Y-74966323D01*
G37*
G36*
X112126497Y-74082439D02*
G01*
X113752842Y-75708784D01*
X113045735Y-76415891D01*
X111419390Y-74789546D01*
X112126497Y-74082439D01*
G37*
G36*
X113010381Y-73198556D02*
G01*
X114636726Y-74824901D01*
X113929619Y-75532008D01*
X112303274Y-73905663D01*
X113010381Y-73198556D01*
G37*
G36*
X113894264Y-72314672D02*
G01*
X115520609Y-73941017D01*
X114813502Y-74648124D01*
X113187157Y-73021779D01*
X113894264Y-72314672D01*
G37*
G36*
X114778148Y-71430789D02*
G01*
X116404493Y-73057134D01*
X115697386Y-73764241D01*
X114071041Y-72137896D01*
X114778148Y-71430789D01*
G37*
G36*
X115662031Y-70546905D02*
G01*
X117288376Y-72173250D01*
X116581269Y-72880357D01*
X114954924Y-71254012D01*
X115662031Y-70546905D01*
G37*
G36*
X114954924Y-68991270D02*
G01*
X116581269Y-67364925D01*
X117288376Y-68072032D01*
X115662031Y-69698377D01*
X114954924Y-68991270D01*
G37*
G36*
X114071041Y-68107386D02*
G01*
X115697386Y-66481041D01*
X116404493Y-67188148D01*
X114778148Y-68814493D01*
X114071041Y-68107386D01*
G37*
G36*
X113187157Y-67223503D02*
G01*
X114813502Y-65597158D01*
X115520609Y-66304265D01*
X113894264Y-67930610D01*
X113187157Y-67223503D01*
G37*
G36*
X112303274Y-66339619D02*
G01*
X113929619Y-64713274D01*
X114636726Y-65420381D01*
X113010381Y-67046726D01*
X112303274Y-66339619D01*
G37*
G36*
X111419390Y-65455736D02*
G01*
X113045735Y-63829391D01*
X113752842Y-64536498D01*
X112126497Y-66162843D01*
X111419390Y-65455736D01*
G37*
G36*
X110535507Y-64571852D02*
G01*
X112161852Y-62945507D01*
X112868959Y-63652614D01*
X111242614Y-65278959D01*
X110535507Y-64571852D01*
G37*
G36*
X109651623Y-63687969D02*
G01*
X111277968Y-62061624D01*
X111985075Y-62768731D01*
X110358730Y-64395076D01*
X109651623Y-63687969D01*
G37*
G36*
X108095988Y-64395076D02*
G01*
X106469643Y-62768731D01*
X107176750Y-62061624D01*
X108803095Y-63687969D01*
X108095988Y-64395076D01*
G37*
G36*
X107212104Y-65278959D02*
G01*
X105585759Y-63652614D01*
X106292866Y-62945507D01*
X107919211Y-64571852D01*
X107212104Y-65278959D01*
G37*
G36*
X106328221Y-66162843D02*
G01*
X104701876Y-64536498D01*
X105408983Y-63829391D01*
X107035328Y-65455736D01*
X106328221Y-66162843D01*
G37*
G36*
X105444337Y-67046726D02*
G01*
X103817992Y-65420381D01*
X104525099Y-64713274D01*
X106151444Y-66339619D01*
X105444337Y-67046726D01*
G37*
G36*
X104560454Y-67930610D02*
G01*
X102934109Y-66304265D01*
X103641216Y-65597158D01*
X105267561Y-67223503D01*
X104560454Y-67930610D01*
G37*
G36*
X103676570Y-68814493D02*
G01*
X102050225Y-67188148D01*
X102757332Y-66481041D01*
X104383677Y-68107386D01*
X103676570Y-68814493D01*
G37*
G36*
X102792687Y-69698377D02*
G01*
X101166342Y-68072032D01*
X101873449Y-67364925D01*
X103499794Y-68991270D01*
X102792687Y-69698377D01*
G37*
D24*
X126500000Y-75480000D03*
X126500000Y-82280000D03*
G36*
G01*
X124700000Y-76980000D02*
X122800000Y-76980000D01*
G75*
G02*
X122500000Y-76680000I0J300000D01*
G01*
X122500000Y-76080000D01*
G75*
G02*
X122800000Y-75780000I300000J0D01*
G01*
X124700000Y-75780000D01*
G75*
G02*
X125000000Y-76080000I0J-300000D01*
G01*
X125000000Y-76680000D01*
G75*
G02*
X124700000Y-76980000I-300000J0D01*
G01*
G37*
G36*
G01*
X124700000Y-79480000D02*
X122800000Y-79480000D01*
G75*
G02*
X122500000Y-79180000I0J300000D01*
G01*
X122500000Y-78580000D01*
G75*
G02*
X122800000Y-78280000I300000J0D01*
G01*
X124700000Y-78280000D01*
G75*
G02*
X125000000Y-78580000I0J-300000D01*
G01*
X125000000Y-79180000D01*
G75*
G02*
X124700000Y-79480000I-300000J0D01*
G01*
G37*
G36*
G01*
X124700000Y-81980000D02*
X122800000Y-81980000D01*
G75*
G02*
X122500000Y-81680000I0J300000D01*
G01*
X122500000Y-81080000D01*
G75*
G02*
X122800000Y-80780000I300000J0D01*
G01*
X124700000Y-80780000D01*
G75*
G02*
X125000000Y-81080000I0J-300000D01*
G01*
X125000000Y-81680000D01*
G75*
G02*
X124700000Y-81980000I-300000J0D01*
G01*
G37*
D17*
X125000000Y-97000000D03*
G36*
G01*
X103875000Y-92550000D02*
X102625000Y-92550000D01*
G75*
G02*
X102475000Y-92400000I0J150000D01*
G01*
X102475000Y-92100000D01*
G75*
G02*
X102625000Y-91950000I150000J0D01*
G01*
X103875000Y-91950000D01*
G75*
G02*
X104025000Y-92100000I0J-150000D01*
G01*
X104025000Y-92400000D01*
G75*
G02*
X103875000Y-92550000I-150000J0D01*
G01*
G37*
G36*
G01*
X103875000Y-91550000D02*
X102625000Y-91550000D01*
G75*
G02*
X102475000Y-91400000I0J150000D01*
G01*
X102475000Y-91100000D01*
G75*
G02*
X102625000Y-90950000I150000J0D01*
G01*
X103875000Y-90950000D01*
G75*
G02*
X104025000Y-91100000I0J-150000D01*
G01*
X104025000Y-91400000D01*
G75*
G02*
X103875000Y-91550000I-150000J0D01*
G01*
G37*
G36*
G01*
X107775000Y-94150000D02*
X106475000Y-94150000D01*
G75*
G02*
X106225000Y-93900000I0J250000D01*
G01*
X106225000Y-93200000D01*
G75*
G02*
X106475000Y-92950000I250000J0D01*
G01*
X107775000Y-92950000D01*
G75*
G02*
X108025000Y-93200000I0J-250000D01*
G01*
X108025000Y-93900000D01*
G75*
G02*
X107775000Y-94150000I-250000J0D01*
G01*
G37*
G36*
G01*
X107775000Y-90550000D02*
X106475000Y-90550000D01*
G75*
G02*
X106225000Y-90300000I0J250000D01*
G01*
X106225000Y-89600000D01*
G75*
G02*
X106475000Y-89350000I250000J0D01*
G01*
X107775000Y-89350000D01*
G75*
G02*
X108025000Y-89600000I0J-250000D01*
G01*
X108025000Y-90300000D01*
G75*
G02*
X107775000Y-90550000I-250000J0D01*
G01*
G37*
M02*
